<svg xmlns="http://www.w3.org/2000/svg" xmlns:xlink="http://www.w3.org/1999/xlink" width="118" height="118" viewBox="0 0 118 118">
  <defs>
    <clipPath id="clip-path">
      <rect id="Rectángulo_404958" data-name="Rectángulo 404958" width="88.194" height="88.194" fill="#12263f"/>
    </clipPath>
  </defs>
  <g id="Grupo_1109465" data-name="Grupo 1109465" transform="translate(-809.711 -2615)">
    <g id="Grupo_1107134" data-name="Grupo 1107134" transform="translate(629.379 -4189)">
      <circle id="Elipse_11627" data-name="Elipse 11627" cx="59" cy="59" r="59" transform="translate(180.332 6804)" fill="#5fe168"/>
    </g>
    <g id="Grupo_1108196" data-name="Grupo 1108196" transform="translate(824.711 2630)">
      <g id="Grupo_1108195" data-name="Grupo 1108195" transform="translate(0 -0.001)" clip-path="url(#clip-path)">
        <path id="Trazado_997297" data-name="Trazado 997297" d="M85.58,37.834,78.3,36.8a34.46,34.46,0,0,0-4.864-11.735l4.423-5.882a3.052,3.052,0,0,0-.289-3.968L72.994,10.64a3.072,3.072,0,0,0-3.983-.289l-5.882,4.408A34.763,34.763,0,0,0,51.393,9.9L50.36,2.614A3.056,3.056,0,0,0,47.351,0H40.86a3.056,3.056,0,0,0-3.01,2.614L36.8,9.9a34.249,34.249,0,0,0-11.719,4.864L19.2,10.336a3.052,3.052,0,0,0-3.967.289l-4.591,4.59a3.053,3.053,0,0,0-.288,3.968l4.408,5.882A34.725,34.725,0,0,0,9.9,36.8L2.615,37.834A3.057,3.057,0,0,0,0,40.844v6.491a3.057,3.057,0,0,0,2.615,3.01L9.9,51.378A34.426,34.426,0,0,0,14.76,63.113L10.352,69a3.05,3.05,0,0,0,.288,3.967l4.591,4.59a3.052,3.052,0,0,0,3.967.289l5.883-4.408A34.656,34.656,0,0,0,36.8,78.3l1.049,7.281a3.057,3.057,0,0,0,3.01,2.615h6.491a3.057,3.057,0,0,0,3.009-2.615L51.393,78.3a34.441,34.441,0,0,0,11.735-4.864l5.882,4.423a3.051,3.051,0,0,0,3.968-.288l4.575-4.576a3.072,3.072,0,0,0,.289-3.982l-4.408-5.883A34.75,34.75,0,0,0,78.3,51.393L85.58,50.36a3.057,3.057,0,0,0,2.614-3.01V40.859A3.057,3.057,0,0,0,85.58,37.85Zm-.426,9.5L76.809,48.52a1.5,1.5,0,0,0-1.277,1.231,31.471,31.471,0,0,1-5.2,12.526,1.506,1.506,0,0,0,.03,1.778l5.062,6.75-4.591,4.59-6.749-5.061a1.5,1.5,0,0,0-1.779-.03,31.72,31.72,0,0,1-12.525,5.2,1.535,1.535,0,0,0-1.232,1.276l-1.185,8.345H40.875l-1.2-8.345A1.5,1.5,0,0,0,38.443,75.5a31.5,31.5,0,0,1-12.526-5.2,1.5,1.5,0,0,0-.867-.274,1.56,1.56,0,0,0-.912.3L17.39,75.395,12.8,70.8l5.061-6.75a1.5,1.5,0,0,0,.03-1.778,31.458,31.458,0,0,1-5.183-12.526,1.535,1.535,0,0,0-1.276-1.231L3.086,47.335V40.844l8.345-1.185a1.5,1.5,0,0,0,1.276-1.232A31.46,31.46,0,0,1,17.891,25.9a1.5,1.5,0,0,0-.03-1.779L12.8,17.375l4.59-4.591,6.749,5.062a1.508,1.508,0,0,0,1.779.03,31.7,31.7,0,0,1,12.526-5.2A1.536,1.536,0,0,0,39.674,11.4l1.2-8.345h6.491L48.551,11.4a1.5,1.5,0,0,0,1.232,1.277,31.473,31.473,0,0,1,12.525,5.2,1.532,1.532,0,0,0,1.779-.03l6.749-5.062,4.591,4.591-5.062,6.749a1.508,1.508,0,0,0-.03,1.779,31.706,31.706,0,0,1,5.2,12.525,1.536,1.536,0,0,0,1.277,1.232l8.345,1.185ZM44.112,19.776A24.321,24.321,0,1,0,68.434,44.1,24.353,24.353,0,0,0,44.112,19.776m0,45.6A21.281,21.281,0,1,1,65.393,44.1,21.3,21.3,0,0,1,44.112,65.378m7.251-22.816a10.337,10.337,0,0,0-5.4,7.585c-.106.106-.228.212-.334.319v-5.26a10.386,10.386,0,0,0,3.755-8.375c0-3.877-1.779-7.373-4.545-8.893a1.474,1.474,0,0,0-1.46,0c-2.766,1.52-4.545,5.016-4.545,8.893a10.452,10.452,0,0,0,3.755,8.375V50.42c-.122-.106-.259-.212-.395-.319a10.326,10.326,0,0,0-5.686-7.387c-3.436-1.809-7.357-1.839-9.987-.107a1.493,1.493,0,0,0-.684,1.292c.06,3.147,2.325,6.354,5.776,8.163a11.64,11.64,0,0,0,5.411,1.383,8.7,8.7,0,0,0,3.588-.729A7.533,7.533,0,0,1,42.607,55v4.286a1.52,1.52,0,0,0,3.04,0V55.072A24.934,24.934,0,0,1,47.685,52.7a8.6,8.6,0,0,0,3.207.592,11.557,11.557,0,0,0,5.731-1.6c3.359-1.931,5.5-5.213,5.457-8.375a1.527,1.527,0,0,0-.73-1.277c-2.691-1.642-6.613-1.444-9.972.486Zm-18.347,6.81a7.727,7.727,0,0,1-4.029-4.637,7.683,7.683,0,0,1,6.1.668,7.728,7.728,0,0,1,4.028,4.637,7.681,7.681,0,0,1-6.1-.668m11.1-18.257a7.667,7.667,0,0,1,2.235,5.716,7.668,7.668,0,0,1-2.235,5.716,7.668,7.668,0,0,1-2.235-5.716,7.667,7.667,0,0,1,2.235-5.716M58.948,44.279a8.432,8.432,0,0,1-9.91,5.7,8.432,8.432,0,0,1,9.91-5.7" transform="translate(0 0)" fill="#12263f"/>
      </g>
    </g>
  </g>
</svg>
