<svg xmlns="http://www.w3.org/2000/svg" xmlns:xlink="http://www.w3.org/1999/xlink" width="118" height="118" viewBox="0 0 118 118">
  <defs>
    <clipPath id="clip-path">
      <rect id="Rect치ngulo_405008" data-name="Rect치ngulo 405008" width="77.046" height="77.046" fill="#fdfbf9"/>
    </clipPath>
  </defs>
  <g id="Grupo_1109462" data-name="Grupo 1109462" transform="translate(-274 -2266)">
    <path id="Trazado_995320" data-name="Trazado 995320" d="M59,0A59,59,0,1,1,0,59,59,59,0,0,1,59,0Z" transform="translate(274 2266)" fill="#b15b38"/>
    <g id="Grupo_1108289" data-name="Grupo 1108289" transform="translate(294.954 2281.07)">
      <g id="Grupo_1108288" data-name="Grupo 1108288" transform="translate(0 0)" clip-path="url(#clip-path)">
        <path id="Trazado_997878" data-name="Trazado 997878" d="M75.842,62.6H74.325a8.4,8.4,0,0,0,1.517-4.815,1.2,1.2,0,0,0-1.2-1.2H69.823a8.41,8.41,0,0,0-6.02,2.537V55.376h1.2a6.026,6.026,0,0,0,6.02-6.019V44.543a1.2,1.2,0,0,0-1.2-1.2h-1.2V38.523a6.019,6.019,0,0,0-12.038,0v4.815h-1.2a1.2,1.2,0,0,0-1.2,1.2v4.815a6.026,6.026,0,0,0,6.02,6.019h1.2v3.742a8.41,8.41,0,0,0-6.02-2.537H50.561a1.2,1.2,0,0,0-1.2,1.2A8.4,8.4,0,0,0,50.875,62.6H42.134V14.446h1.2a1.2,1.2,0,0,0,1.2-1.2V8.427a1.2,1.2,0,0,0-1.2-1.2V1.2a1.2,1.2,0,0,0-1.2-1.2H34.912a1.2,1.2,0,0,0-1.2,1.2v6.02a1.2,1.2,0,0,0-1.2,1.2v4.815a1.2,1.2,0,0,0,1.2,1.2h1.2V62.6H26.171a8.39,8.39,0,0,0,1.517-4.815,1.2,1.2,0,0,0-1.2-1.2H21.669a8.41,8.41,0,0,0-6.02,2.537V55.376h1.2a6.026,6.026,0,0,0,6.02-6.019V44.543a1.2,1.2,0,0,0-1.2-1.2h-1.2V38.523a6.019,6.019,0,0,0-12.038,0v4.815h-1.2a1.2,1.2,0,0,0-1.2,1.2v4.815a6.026,6.026,0,0,0,6.02,6.019h1.2v3.742a8.408,8.408,0,0,0-6.019-2.537H2.408a1.2,1.2,0,0,0-1.2,1.2A8.4,8.4,0,0,0,2.721,62.6H1.2A1.2,1.2,0,0,0,0,63.8V75.842a1.2,1.2,0,0,0,1.2,1.2H75.842a1.2,1.2,0,0,0,1.2-1.2V63.8a1.2,1.2,0,0,0-1.2-1.2m-6.019-3.611h3.491a6.029,6.029,0,0,1-5.9,4.815H63.924a6.029,6.029,0,0,1,5.9-4.815m-1.2-9.631a3.611,3.611,0,0,1-3.612,3.611H63.8V49.358a3.611,3.611,0,0,1,3.611-3.611h1.2ZM63.8,44.546V40.93h2.408v2.53A6.008,6.008,0,0,0,63.8,44.546m-2.408,0a6,6,0,0,0-2.408-1.085V40.93H61.4Zm4.815-6.023H63.8V35.118a3.613,3.613,0,0,1,2.408,3.405M61.4,35.118v3.405H58.989A3.613,3.613,0,0,1,61.4,35.118m-4.815,14.24V45.746h1.2A3.611,3.611,0,0,1,61.4,49.358v3.611h-1.2a3.611,3.611,0,0,1-3.611-3.611m-1.2,9.631a6.029,6.029,0,0,1,5.9,4.815H57.785a6.029,6.029,0,0,1-5.9-4.815ZM53.45,65.007a8.388,8.388,0,0,0,4.334,1.2H61.4V68.62H42.134V65.007ZM37.319,19.262h2.408V68.62H37.319Zm4.815-7.223H34.911V9.631h7.223ZM36.115,2.408H40.93V7.223h-1.2V4.815H37.319V7.223h-1.2Zm3.611,14.446H37.319V14.446h2.408ZM21.669,58.989h3.491a6.029,6.029,0,0,1-5.9,4.815H15.771a6.029,6.029,0,0,1,5.9-4.815m-2.408,7.223a8.393,8.393,0,0,0,4.334-1.2H34.912V68.62H15.65V66.211Zm1.2-16.854a3.611,3.611,0,0,1-3.612,3.611h-1.2V49.358a3.611,3.611,0,0,1,3.612-3.611h1.2ZM15.65,44.546V40.93h2.408v2.53a6.008,6.008,0,0,0-2.408,1.085m-2.408,0a6,6,0,0,0-2.408-1.085V40.93h2.408Zm4.815-6.023H15.65V35.118a3.613,3.613,0,0,1,2.408,3.405m-4.815-3.405v3.405H10.835a3.613,3.613,0,0,1,2.408-3.405M8.427,49.358V45.746h1.2a3.611,3.611,0,0,1,3.611,3.611v3.611h-1.2a3.611,3.611,0,0,1-3.611-3.611m-1.2,9.631a6.029,6.029,0,0,1,5.9,4.815H9.631a6.029,6.029,0,0,1-5.9-4.815Zm67.415,15.65H2.408V65.007H5.3a8.388,8.388,0,0,0,4.334,1.2h3.611V68.62H4.815v2.408h62.6V68.62H63.8V66.211h3.611a8.388,8.388,0,0,0,4.334-1.2h2.889Z" transform="translate(0 0)" fill="#fdfbf9"/>
        <rect id="Rect치ngulo_405007" data-name="Rect치ngulo 405007" width="2.408" height="2.408" transform="translate(69.823 68.62)" fill="#fdfbf9"/>
        <path id="Trazado_997879" data-name="Trazado 997879" d="M74.9,34.885a3.8,3.8,0,0,0,3.611-3.611c0-1.415-1.825-4.306-2.609-5.484a1.253,1.253,0,0,0-2,0c-.785,1.178-2.609,4.068-2.609,5.484A3.8,3.8,0,0,0,74.9,34.885m0-6.15a10.264,10.264,0,0,1,1.2,2.551,1.2,1.2,0,1,1-2.408,0,10.179,10.179,0,0,1,1.2-2.551" transform="translate(-13.5 -4.789)" fill="#fdfbf9"/>
        <path id="Trazado_997880" data-name="Trazado 997880" d="M60.045,45.281a3.8,3.8,0,0,0,3.611-3.611c0-1.415-1.825-4.306-2.609-5.484a1.253,1.253,0,0,0-2,0c-.785,1.178-2.609,4.068-2.609,5.484a3.8,3.8,0,0,0,3.611,3.611m0-6.15a10.263,10.263,0,0,1,1.2,2.551,1.2,1.2,0,1,1-2.408,0,10.18,10.18,0,0,1,1.2-2.551" transform="translate(-10.688 -6.758)" fill="#fdfbf9"/>
        <path id="Trazado_997881" data-name="Trazado 997881" d="M33.313,45.281a3.8,3.8,0,0,0,3.611-3.611c0-1.415-1.825-4.306-2.609-5.484a1.253,1.253,0,0,0-2,0c-.785,1.178-2.609,4.068-2.609,5.484a3.8,3.8,0,0,0,3.611,3.611m0-6.15a10.26,10.26,0,0,1,1.2,2.546,1.411,1.411,0,0,1-1.2,1.2,1.408,1.408,0,0,1-1.2-1.192,10.18,10.18,0,0,1,1.2-2.551" transform="translate(-5.625 -6.758)" fill="#fdfbf9"/>
        <path id="Trazado_997882" data-name="Trazado 997882" d="M62.91,4.613c1.177.785,4.068,2.609,5.483,2.609A3.8,3.8,0,0,0,72,3.611,3.8,3.8,0,0,0,68.393,0c-1.415,0-4.306,1.825-5.483,2.609a1.188,1.188,0,0,0-.333.334,1.2,1.2,0,0,0,.333,1.67M68.4,2.408a1.413,1.413,0,0,1,1.2,1.2,1.408,1.408,0,0,1-1.192,1.2,10.165,10.165,0,0,1-2.551-1.2,10.266,10.266,0,0,1,2.547-1.2" transform="translate(-11.813 0)" fill="#fdfbf9"/>
        <path id="Trazado_997883" data-name="Trazado 997883" d="M24.4,7.223c1.415,0,4.306-1.825,5.484-2.609a1.206,1.206,0,0,0,0-2C28.709,1.825,25.819,0,24.4,0a3.8,3.8,0,0,0-3.611,3.611A3.8,3.8,0,0,0,24.4,7.223M24.4,2.408a10.252,10.252,0,0,1,2.547,1.2,10.276,10.276,0,0,1-2.54,1.2,1.407,1.407,0,0,1-1.2-1.2,1.411,1.411,0,0,1,1.2-1.2" transform="translate(-3.938 0)" fill="#fdfbf9"/>
        <path id="Trazado_997884" data-name="Trazado 997884" d="M6.78,19.87l.24,0a3.617,3.617,0,0,0,2.491-1.139c.94-1.059,1.5-4.432,1.692-5.832a1.2,1.2,0,0,0-1.5-1.335c-1.37.357-4.654,1.3-5.594,2.363a3.806,3.806,0,0,0,.3,5.1,3.563,3.563,0,0,0,2.368.843m-.873-4.34A10.319,10.319,0,0,1,8.5,14.438a10.309,10.309,0,0,1-.789,2.7,1.238,1.238,0,0,1-.832.335,1.268,1.268,0,0,1-.867-.241,1.41,1.41,0,0,1-.105-1.7" transform="translate(-0.619 -2.182)" fill="#fdfbf9"/>
        <path id="Trazado_997885" data-name="Trazado 997885" d="M83.678,18.723a3.609,3.609,0,0,0,2.49,1.14c.082.007.161.007.241.007a3.57,3.57,0,0,0,2.365-.846,3.807,3.807,0,0,0,.3-5.1c-.94-1.058-4.224-2-5.593-2.363a1.2,1.2,0,0,0-1.5,1.33c.2,1.4.753,4.773,1.693,5.832m1.013-4.3a10.278,10.278,0,0,1,2.592,1.1,1.411,1.411,0,0,1-.105,1.693,1.262,1.262,0,0,1-.867.241,1.239,1.239,0,0,1-.824-.326A10.182,10.182,0,0,1,84.691,14.425Z" transform="translate(-15.524 -2.182)" fill="#fdfbf9"/>
        <path id="Trazado_997886" data-name="Trazado 997886" d="M16.977,34.885a3.8,3.8,0,0,0,3.611-3.611c0-1.415-1.825-4.306-2.609-5.484a1.253,1.253,0,0,0-2,0c-.785,1.178-2.609,4.068-2.609,5.484a3.8,3.8,0,0,0,3.611,3.611m0-6.15a10.26,10.26,0,0,1,1.2,2.546,1.411,1.411,0,0,1-1.2,1.2,1.408,1.408,0,0,1-1.2-1.192,10.18,10.18,0,0,1,1.2-2.551" transform="translate(-2.531 -4.789)" fill="#fdfbf9"/>
        <path id="Trazado_997887" data-name="Trazado 997887" d="M71,19.3a3.785,3.785,0,0,0-.8-5.045c-1.146-.832-4.556-1.055-5.971-1.11a1.2,1.2,0,0,0-1.177,1.62c.494,1.327,1.757,4.5,2.9,5.335a3.462,3.462,0,0,0,2.039.622A3.731,3.731,0,0,0,71,19.3m-1.948-1.415a1.412,1.412,0,0,1-1.672.275,10.2,10.2,0,0,1-1.355-2.476,10.261,10.261,0,0,1,2.767.525A1.247,1.247,0,0,1,69.2,17a1.234,1.234,0,0,1-.149.885" transform="translate(-11.927 -2.489)" fill="#fdfbf9"/>
        <path id="Trazado_997888" data-name="Trazado 997888" d="M69.165,22.492Z" transform="translate(-13.099 -4.26)" fill="#fdfbf9"/>
        <path id="Trazado_997889" data-name="Trazado 997889" d="M28.791,13.145c-1.415.055-4.826.278-5.971,1.11a3.785,3.785,0,0,0-.8,5.045,3.733,3.733,0,0,0,3.01,1.422,3.464,3.464,0,0,0,2.035-.623c1.145-.832,2.411-4.01,2.9-5.335a1.2,1.2,0,0,0-1.177-1.62m-3.134,5.011a1.413,1.413,0,0,1-1.685-.268,1.413,1.413,0,0,1,.261-1.676A10.257,10.257,0,0,1,27,15.688a10.35,10.35,0,0,1-1.347,2.468" transform="translate(-4.052 -2.489)" fill="#fdfbf9"/>
      </g>
    </g>
  </g>
</svg>
