<svg xmlns="http://www.w3.org/2000/svg" xmlns:xlink="http://www.w3.org/1999/xlink" width="400" height="264" viewBox="0 0 400 264">
  <defs>
    <clipPath id="clip-path">
      <rect id="Rect치ngulo_405439" data-name="Rect치ngulo 405439" width="262.149" height="231.119" fill="none"/>
    </clipPath>
  </defs>
  <g id="Grupo_1109464" data-name="Grupo 1109464" transform="translate(-1019.711 -5632)">
    <rect id="Rect치ngulo_404598" data-name="Rect치ngulo 404598" width="400" height="264" rx="20" transform="translate(1019.711 5632)" fill="#effcef"/>
    <g id="Grupo_1109449" data-name="Grupo 1109449" transform="translate(1088.711 5648)">
      <g id="Grupo_1109448" data-name="Grupo 1109448" clip-path="url(#clip-path)">
        <path id="Trazado_999990" data-name="Trazado 999990" d="M1137.458,742.957a.786.786,0,0,0-.589-.49c-.373-.072-.737-.137-1.106-.179-3.985-.52-7.824.516-11.8,1.063a65.667,65.667,0,0,1-15.948.253c-10.339-1.111-19.612-5.3-29.272-8.785a80.845,80.845,0,0,0-53.656-.421.723.723,0,0,0-.292,1.1c.437.635.893,1.245,1.362,1.847a76.951,76.951,0,0,0,18.294,23.141c7.863,6.939,17.608,14.916,28.087,17.01,21.626,4.32,48.419-2.137,60.165-22.262a42.672,42.672,0,0,0,4.773-11.953.615.615,0,0,0-.019-.324" transform="translate(-875.34 -623.644)" fill="#376829"/>
        <path id="Trazado_999991" data-name="Trazado 999991" d="M1190.116,798.238c-13.952,8.981-29.637,15.234-46.317,16.619-20.949,1.732-41.608-4.566-57.249-18.773-.7-.632.2-1.8.907-1.161,15.691,14.253,36.443,20.406,57.441,18.356,15.653-1.529,30.343-7.375,43.523-15.709.369.042.734.108,1.106.179a.785.785,0,0,1,.589.49" transform="translate(-927.998 -678.925)" fill="#212332"/>
        <path id="Trazado_999992" data-name="Trazado 999992" d="M438.769,189.315c2,6.7,1.063,13.571-1.332,20.039-1.2,3.246-3.114,6.26-4.4,9.469-9.733-4.171-15.062-16.139-16.618-26.036a44.835,44.835,0,0,1,3.567-25.739c8.485,5.309,15.817,12.361,18.778,22.268" transform="translate(-355.275 -142.704)" fill="#376829"/>
        <path id="Trazado_999993" data-name="Trazado 999993" d="M612.74,40c-2.945-12.593-8.526-24.49-15.407-35.4L595.27,1.323,594.592.251a.538.538,0,0,0-.615-.226.464.464,0,0,0-.161.08,109.614,109.614,0,0,0-14.651,12.869,4.756,4.756,0,0,0-1.077,4.738,28.483,28.483,0,0,1,1.094,4.519c.38,2.541,1.062,7.563-2.036,8.77a3.729,3.729,0,0,1-3.342-.606c-2.209-1.237-3.8-.783-5.482,1.142-.96,1.1-2.108,2.743-3.8,2.436a3.013,3.013,0,0,1-.584-.177,83.679,83.679,0,0,0-8.889,25.08,78.244,78.244,0,0,0,3.087,39.978c3.311,9.266,9,20.08,17.7,25.718a.583.583,0,0,0,.645-.007c.792-.546,1.576-1.1,2.345-1.648.545-.388,1.075-.774,1.6-1.16.639-.459,1.264-.917,1.883-1.367a97.169,97.169,0,0,0,15.089-13.363C613.96,88.675,618.287,63.7,612.74,40" transform="translate(-473.073 0)" fill="#518943"/>
        <path id="Trazado_999994" data-name="Trazado 999994" d="M742.143,1.323q-1.181,8-2.308,16-7.332,52.085-12.54,104.429c-.523.385-1.053.771-1.6,1.16.032-.331.066-.654.1-.985Q731.872,60.809,740.85.024a.538.538,0,0,1,.615.226Z" transform="translate(-619.945 0)" fill="#212332"/>
        <path id="Trazado_999995" data-name="Trazado 999995" d="M662.4,276.224l-7.957-4.815c-.8-.486-1.713.673-.9,1.164l7.957,4.815c.8.486,1.713-.673.9-1.164" transform="translate(-558.031 -231.759)" fill="#212332"/>
        <path id="Trazado_999996" data-name="Trazado 999996" d="M634.988,381.56l-7.957-4.815c-.8-.485-1.713.674-.9,1.164l7.957,4.815c.8.486,1.713-.673.9-1.164" transform="translate(-534.617 -321.744)" fill="#212332"/>
        <path id="Trazado_999997" data-name="Trazado 999997" d="M847,188.051l-8.954,2.516c-.9.254-.679,1.711.233,1.454l8.953-2.516c.9-.254.68-1.711-.233-1.454" transform="translate(-715.43 -160.622)" fill="#212332"/>
        <path id="Trazado_999998" data-name="Trazado 999998" d="M839.357,278.158q-6.944,2.114-13.762,4.6c-.89.325-.324,1.684.566,1.36q6.82-2.486,13.763-4.6c.9-.275.334-1.634-.567-1.36" transform="translate(-704.903 -237.593)" fill="#212332"/>
        <path id="Trazado_999999" data-name="Trazado 999999" d="M55.981,214.611c-.1-.3-.216-.6-.328-.893a25.519,25.519,0,0,0-1.039-2.347v-.007a41.913,41.913,0,0,0-7.207-9.961c-.214-.225-.421-.451-.634-.669-.274-.292-.555-.575-.829-.86a95.443,95.443,0,0,0-7.6-6.949c-.458-.395-.938-.779-1.431-1.162a98.124,98.124,0,0,0-10.055-7.017c-.468-.3-.942-.579-1.414-.853a101.19,101.19,0,0,0-11.179-5.7.592.592,0,0,0-.193-.057,1,1,0,0,0-1.2.85.913.913,0,0,0-.013.135l-.007,2.287c-.011,3.193.119,6.39.418,9.574.051.521.108,1.033.167,1.552A86.129,86.129,0,0,0,15.7,204.9c.135.54.286,1.084.435,1.622a75.311,75.311,0,0,0,3.8,10.429c.257.569.53,1.135.8,1.7a65.2,65.2,0,0,0,6.7,10.96q1.189,1.564,2.474,3.064c.558.657,1.138,1.311,1.73,1.941,6.49,7,16.392,10.193,25.292,13.423a1.028,1.028,0,0,0,1.336-.7c1.809-7.05.663-11.959.185-19.254a50.144,50.144,0,0,0-2.478-13.476" transform="translate(-10.975 -152.161)" fill="#376829"/>
        <path id="Trazado_1000000" data-name="Trazado 1000000" d="M56.165,243.891a623.768,623.768,0,0,0-43.176-64.9,1,1,0,0,1,1.2-.849,627.737,627.737,0,0,1,43.338,65.186c.474.816-.895,1.375-1.361.566" transform="translate(-11.096 -152.161)" fill="#212332"/>
        <path id="Trazado_1000001" data-name="Trazado 1000001" d="M29.308,218.6q-.354,4.765-.963,9.511c0,.03-.006.068-.01.1a.758.758,0,0,1-.049.14c.119.475-.165,1.045-.769.9a1.824,1.824,0,0,1-.192-.05l-11.436-2.8c-.059-.52-.116-1.032-.167-1.553q5.148,1.263,10.3,2.533l.9.22c.05-.422.108-.845.151-1.266q.515-4.285.821-8.58c.473.274.946.555,1.414.852" transform="translate(-13.43 -186.014)" fill="#212332"/>
        <path id="Trazado_1000002" data-name="Trazado 1000002" d="M55.086,272.913q-.275,8.73-1.394,17.418c-.006.016,0,.037-.008.053a.459.459,0,0,1-.049.14c.127.474-.165,1.045-.762.9-.084-.019-.168-.038-.253-.064q-9.87-2.424-19.733-4.842c-.15-.538-.3-1.083-.435-1.622q9.481,2.34,18.967,4.664c.283.068.575.143.858.211.056-.438.112-.875.16-1.312v-.007q.993-8.331,1.218-16.7c.494.383.973.767,1.431,1.162" transform="translate(-27.722 -232.15)" fill="#212332"/>
        <path id="Trazado_1000003" data-name="Trazado 1000003" d="M88.979,328.941a182.961,182.961,0,0,1-1.493,22.2.833.833,0,0,1-.048.147.861.861,0,0,1,0,.416.6.6,0,0,1-.771.476l-.774-.191Q74.1,349.1,62.315,346.2c-.272-.567-.544-1.133-.8-1.7q11.629,2.858,23.257,5.717h.008c.436.1.858.211,1.294.319.039-.28.07-.558.1-.837a182.646,182.646,0,0,0,1.343-22.281c.274.285.555.568.829.86.213.218.42.444.634.669" transform="translate(-52.549 -279.7)" fill="#212332"/>
        <path id="Trazado_1000004" data-name="Trazado 1000004" d="M156.043,409.553c-.308,8.53-.887,19.313-1.553,24.489a.828.828,0,0,1-.048.147.864.864,0,0,1,0,.416.6.6,0,0,1-.771.476l-.774-.191c-5.209-1.278-13.736-3.442-21.189-5.326-.592-.63-1.172-1.284-1.73-1.941,7.56,1.908,16.464,4.172,21.8,5.486h.007c.436.1.858.21,1.295.318.038-.28.07-.558.1-.837.677-5.556,1.256-17.512,1.5-26.278a25.523,25.523,0,0,1,1.039,2.347c.112.3.224.6.328.893" transform="translate(-111.037 -347.103)" fill="#212332"/>
        <path id="Trazado_1000005" data-name="Trazado 1000005" d="M281.305,925.5c-.126-.644-.26-1.288-.408-1.93-.111-.528-.238-1.061-.371-1.586a88.868,88.868,0,0,0-26.24,13.283,62.811,62.811,0,0,0-13.615,13.05A42.1,42.1,0,0,0,235.15,959a74.757,74.757,0,0,0-2.35,7.994,127.1,127.1,0,0,0-3.385,24.617,130.538,130.538,0,0,0,1.541,25.767,1.579,1.579,0,0,0,.158.485,1.633,1.633,0,0,0,2.343.631l2.048-1.3c18.543-11.818,34.393-28.5,42.048-49.4a79.727,79.727,0,0,0,3.752-42.291" transform="translate(-195.897 -787.633)" fill="#376829"/>
        <path id="Trazado_1000006" data-name="Trazado 1000006" d="M262.181,1150.01c-3.043-2.576-7.677-2.13-10.9-.127-2.064,1.286-3.376,3.463-4.813,5.367a3.727,3.727,0,0,1-.986,1.008,3.787,3.787,0,0,1-1.875.371c-3.242.069-3.654-1.89-6.039-3.5a6.887,6.887,0,0,0-1.824-.868,74.792,74.792,0,0,0-2.35,7.994,127.105,127.105,0,0,0-3.385,24.617c4.574-.1,10.172-3.426,12.149-6.689,1.387-2.291,1.7-4.944,2.754-7.378,1.67-3.87,5.083-5.639,9.134-5.766,4.1-.126,8.027-1.024,10.075-5.016a8.319,8.319,0,0,0-1.944-10.019" transform="translate(-196.494 -980.903)" fill="#518943"/>
        <path id="Trazado_1000007" data-name="Trazado 1000007" d="M302.579,839.449q-5.547,7.1-10.719,14.465-7.247,10.292-13.781,21.057a451.225,451.225,0,0,0-32.636,65.706q-1.3,3.225-2.551,6.468a1.664,1.664,0,0,1-1.224-.877c12.924-33.225,29.184-65.18,49.784-94.285q4.852-6.871,10.05-13.534c.581-.749,1.658.258,1.077,1" transform="translate(-206.451 -716.042)" fill="#212332"/>
        <path id="Trazado_1000008" data-name="Trazado 1000008" d="M838.2,235.665a.982.982,0,0,0-.515-.024c-5.1,1.054-10.163,2.266-15.169,3.7q-5.447,1.558-10.811,3.484c-.484.165-.966.345-1.441.517a142.883,142.883,0,0,0-18.687,8.452q-.721.37-1.415.78a112.222,112.222,0,0,0-19.754,13.916c-.454.4-.907.805-1.352,1.225q-2.9,2.65-5.6,5.571a87.015,87.015,0,0,0-9.578,12.4c-.427.67-.846,1.347-1.242,2.028a75.777,75.777,0,0,0-11.216,40.438c1.172.111,2.349.207,3.525.289.621.04,1.242.08,1.855.114a93.152,93.152,0,0,0,23.763-1.487,65.492,65.492,0,0,0,12.17-3.767q1.174-.494,2.319-1.029a75.762,75.762,0,0,0,21.083-14.8c.43-.411.853-.828,1.266-1.259a96.837,96.837,0,0,0,13.428-17.339c.277-.451.554-.9.815-1.357,1.04-1.75,2.017-3.529,2.948-5.324a124.782,124.782,0,0,0,6.5-14.985c.171-.46.335-.926.5-1.392a190.311,190.311,0,0,0,7.366-28.87c.005-.015,0-.037.008-.053a1.079,1.079,0,0,0-.764-1.232" transform="translate(-633.362 -201.282)" fill="#376829"/>
        <path id="Trazado_1000009" data-name="Trazado 1000009" d="M859.726,237.172c-.006.016,0,.037-.008.053a956.508,956.508,0,0,0-92.162,91.605c-.613-.034-1.234-.074-1.855-.114q12.6-14.387,25.766-28.282,32.149-33.885,67.5-64.494a1.079,1.079,0,0,1,.764,1.232" transform="translate(-654.119 -201.558)" fill="#212332"/>
        <path id="Trazado_1000010" data-name="Trazado 1000010" d="M1235.3,308.083c-.163.466-.327.932-.5,1.392-5.763-1.846-11.75-3.225-17.4-5.323a4.756,4.756,0,0,1-1.466-.854,4.328,4.328,0,0,1-.933-1.151c-1.431-2.513-.678-6.468-.794-9.437q-.149-3.555-.239-7.1c.476-.172.958-.351,1.442-.517.047,1.545.095,3.1.15,4.642.113,3.118-.147,6.691.42,9.766.11.572.184,1.045.3,1.454a2.587,2.587,0,0,0,.8,1.264,4.483,4.483,0,0,0,.9.577,25.232,25.232,0,0,0,3.974,1.145q6.706,1.967,13.343,4.144" transform="translate(-1037.067 -243.546)" fill="#212332"/>
        <path id="Trazado_1000011" data-name="Trazado 1000011" d="M1107.5,382.361c-.262.456-.538.907-.815,1.357a170.89,170.89,0,0,1-23.964-8.255,9.519,9.519,0,0,1-3.065-1.876,4.453,4.453,0,0,1-.855-1.242,8.652,8.652,0,0,1-.738-2.9c-.582-5-1.023-10.017-1.465-15.03-.206-2.334-.4-4.663-.575-7q.694-.411,1.416-.78c.118,1.581.243,3.153.377,4.732q.538,6.445,1.186,12.883c.247,2.477.22,4.552,1.3,6.619a7.054,7.054,0,0,0,.529.9c.09.13.181.259.278.381,1.536,1.988,3.567,2.554,5.927,3.495a180.72,180.72,0,0,0,20.467,6.716" transform="translate(-919.218 -296.124)" fill="#212332"/>
        <path id="Trazado_1000012" data-name="Trazado 1000012" d="M969.525,487.213c-.413.431-.835.848-1.266,1.259a154.094,154.094,0,0,1-25.731-6.495c-1.665-.605-4.452-1.218-6.039-2.5a3.743,3.743,0,0,1-.577-.573,4.015,4.015,0,0,1-.377-.576c-.718-1.334-.731-3.136-.953-4.54q-1.59-10.008-2.816-20.069-.306-2.5-.582-5c.444-.42.9-.826,1.352-1.225.1,1.056.23,2.109.349,3.163q1.083,9.348,2.488,18.656c.365,2.411.36,5.365,1.512,7.6a5.793,5.793,0,0,0,.858,1.264,5.17,5.17,0,0,0,.625.6c1.777,1.43,5.566,2.168,7.742,2.879a166.663,166.663,0,0,0,23.416,5.563" transform="translate(-795.488 -382.28)" fill="#212332"/>
        <path id="Trazado_1000013" data-name="Trazado 1000013" d="M850.894,615.79q-1.146.535-2.319,1.029a138.726,138.726,0,0,1-19.092-5.235c-1.5-.545-3.924-1.092-5.542-2.149a4.225,4.225,0,0,1-1.075-.925c-.009-.014-.027-.034-.036-.047-1.062-1.35-1.039-3.461-1.295-5.068q-1.59-10.008-2.816-20.069c-.088-.694-.17-1.4-.243-2.092.4-.681.815-1.358,1.242-2.028.037.352.083.71.12,1.061q1.083,9.348,2.488,18.656c.395,2.592.353,5.834,1.805,8.106a5.25,5.25,0,0,0,.962,1.147,1.921,1.921,0,0,0,.226.2c1.778,1.438,5.567,2.175,7.743,2.887a147.375,147.375,0,0,0,17.829,4.526" transform="translate(-699.206 -494.801)" fill="#212332"/>
        <path id="Trazado_1000014" data-name="Trazado 1000014" d="M97.511,436.376c-.395-.774-.82-1.551-1.272-2.31q-1.063-1.8-2.335-3.549c-6.63-9.106-16.353-12.855-26.685-14.679-.683-.121-1.373-.234-2.061-.333-3.838-.59-7.735-.943-11.565-1.237-8.311-.633-17.1-.671-24.593,3.485-6.062,3.358-10.576,8.85-13.9,14.838-1.4,2.53-2.77,5.264-4.016,8.087a41.164,41.164,0,0,0-3.807,9.44c-.041.146-.082.292-.122.446-.057.141-.114.274-.17.415-.286.675-.564,1.348-.828,2.02q-1.5,3.853-2.656,7.862c-2.916,10.211-5.632,23.573-1.042,33.68A17.6,17.6,0,0,0,11.2,503.5a13.559,13.559,0,0,0,5.48,1.08c1.4,0,3.328-.444,4.689-.015,2.728.85,3.621,2.926,4.98,5.1,4.146,6.66,12.339,9.408,19.842,7.582,17.627-4.28,34.121-10.956,44.956-26.14a61.654,61.654,0,0,0,7.257-13.44q.244-.621.466-1.239a59.249,59.249,0,0,0,2.467-8.773c2.074-10.409,1.24-21.392-3.827-31.275" transform="translate(0 -353.631)" fill="#e63b15"/>
        <path id="Trazado_1000015" data-name="Trazado 1000015" d="M633.618,779.458c-.281-.929-.6-1.847-.951-2.759a.545.545,0,0,0-.094-.151,39.527,39.527,0,0,0-1.754-3.949c-4.935-9.67-11.04-19.429-20.81-24.782-9.507-5.209-20.808-6.131-31.335-4.152a75.2,75.2,0,0,0-16.968,5.5,53.909,53.909,0,0,0-11.47,6.484,32.415,32.415,0,0,0-13.28,16.518,46.406,46.406,0,0,0-2.607,10.654,64.221,64.221,0,0,0,2.566,26.773c.3.957.62,1.9.958,2.818a46.01,46.01,0,0,0,10.917,17.106,39.674,39.674,0,0,0,8.234,6.179,42.272,42.272,0,0,0,9.536,3.335c2.246.562,4.672,1.079,7.172,1.541.494.093.987.179,1.488.265l1.5.255c.5.078,1.008.162,1.506.232s1,.156,1.5.226,1,.141,1.5.2.989.135,1.486.19.987.113,1.469.17.964.108,1.444.151c.053.008.1.01.151.018.429.042.849.078,1.269.114,1.629.143,3.193.249,4.647.3.209.011.41.015.611.019a.2.2,0,0,0,.067,0c.4.017.775.028,1.154.025.179.007.364.006.542.006l.549,0c.364,0,.719-.009,1.059-.023,4.685-.163,9.423-.258,13.612-2.577,4.031-2.225,6.8-5.759,9.3-9.528a24.113,24.113,0,0,1,5.578-6.243c2.147-1.623,4.536-2.92,6.524-4.745a17.014,17.014,0,0,0,5.136-10.254c.781-4.908.487-10.1.24-15.045a59.6,59.6,0,0,0-2.448-14.876" transform="translate(-456.098 -634.471)" fill="#e63b15"/>
        <path id="Trazado_1000016" data-name="Trazado 1000016" d="M716.891,1026.385c-4.138.321-7.394,3.541-11.62,3.262-8.054-.531-10.092-9.5-15.735-13.655-4.194-3.09-10.108-3.1-14.881-1.507a17.391,17.391,0,0,0-9.687,7.849c-1.754,2.881-3.211,6.082-5.88,8.263a11.25,11.25,0,0,1-4.386,2.155,23,23,0,0,1-5.353,1.2,13.287,13.287,0,0,0-8.131,4.718c-2.054,2.769-1.457,5.9-.762,9.048a14.331,14.331,0,0,1,.5,2.876,4.4,4.4,0,0,1-1.527,3.066,13.7,13.7,0,0,0-2.877,4.476,8.319,8.319,0,0,0-.464,2.664,39.685,39.685,0,0,0,8.234,6.179,42.28,42.28,0,0,0,9.536,3.335c2.246.562,4.672,1.078,7.172,1.541.494.093.987.179,1.488.264l1.5.255c.5.078,1.008.162,1.506.233s1,.156,1.5.226,1,.141,1.5.2,1,.126,1.487.19.987.112,1.469.17.964.108,1.444.151c.053.008.1.01.151.018.428.035.849.078,1.269.114,1.629.143,3.193.249,4.647.3.209.011.41.015.611.019a.207.207,0,0,0,.067,0c.4.017.783.027,1.154.025.179.007.364.006.542.006l.549,0c.364,0,.719-.009,1.059-.023,4.685-.163,9.423-.258,13.612-2.577,4.03-2.225,6.8-5.759,9.3-9.528a24.117,24.117,0,0,1,5.578-6.243c2.147-1.623,4.536-2.92,6.524-4.745a17.015,17.015,0,0,0,5.137-10.255,58.686,58.686,0,0,0,.4-11.566,7.724,7.724,0,0,0-6.633-2.711" transform="translate(-543.391 -865.754)" fill="#c4ba60"/>
        <path id="Trazado_1000017" data-name="Trazado 1000017" d="M549.466,791.437a40.537,40.537,0,0,0-24.031,35.418c-.035.935,1.425,1.19,1.46.248a39.138,39.138,0,0,1,23.138-34.3c.856-.378.3-1.751-.567-1.37" transform="translate(-448.865 -676.049)" fill="#212332"/>
        <path id="Trazado_1000018" data-name="Trazado 1000018" d="M894.337,1039.607c-.223-.91-1.686-.735-1.461.185,1.54,6.3,2.771,13.357-2.566,18.281-4.719,4.354-11.3,4.783-17.349,3.924a.737.737,0,0,0-.21,1.458c6.8.965,14.206.259,19.206-4.953,5.087-5.3,3.976-12.37,2.381-18.895" transform="translate(-745.05 -887.598)" fill="#212332"/>
        <path id="Trazado_1000019" data-name="Trazado 1000019" d="M74.63,848.4a12.822,12.822,0,0,1-17.773-4.437c-.5-.8-1.668.1-1.168.9a14.256,14.256,0,0,0,19.508,4.9c.812-.462.258-1.828-.567-1.36" transform="translate(-47.47 -720.71)" fill="#212332"/>
        <path id="Trazado_1000020" data-name="Trazado 1000020" d="M987.27,1277.986a13.913,13.913,0,0,0-16.842-3.636c-.845.416-.287,1.78.567,1.36a12.414,12.414,0,0,1,15.107,3.173c.6.727,1.777-.165,1.168-.9" transform="translate(-828.654 -1087.432)" fill="#212332"/>
        <path id="Trazado_1000021" data-name="Trazado 1000021" d="M1009.262,1180.937a5.448,5.448,0,0,0-6.647-.8c-1.115.761-4.511,3.985-1.358,8.972,1.3,2.06,4.2.541,4.95-1.369,1.108,1.241,3.329,2.119,4.669.531,1.743-2.064-.221-5.783-1.614-7.337" transform="translate(-854.232 -1007.489)" fill="#212332"/>
        <path id="Trazado_1000022" data-name="Trazado 1000022" d="M160.4,920.933a5.609,5.609,0,0,0-8.093,1.623,7.32,7.32,0,0,0-.985,2.043l0,.01a2.969,2.969,0,0,0-.059.311,2.483,2.483,0,0,0,.254,1.71c.638,1.09,2.1,1.035,3.272.823-.748,1.921.631,3.072,2.6,2.428.249,2.5,3.649,1.945,4.787.023a6.953,6.953,0,0,0-1.77-8.972" transform="translate(-129.179 -785.81)" fill="#212332"/>
        <path id="Trazado_1000023" data-name="Trazado 1000023" d="M290.317,920.521c-11.287,3.807-16.815-8.9-14.149-18.066.262-.9-1.09-1.486-1.355-.578-1.564,5.382-1.219,12.526,2.8,16.837a12.551,12.551,0,0,0,13.276,3.166c.9-.3.329-1.662-.567-1.36" transform="translate(-234.027 -770.063)" fill="#212332"/>
        <path id="Trazado_1000024" data-name="Trazado 1000024" d="M140.166,436.392c-.395-.774-.82-1.551-1.272-2.31q-1.063-1.8-2.335-3.549a32.077,32.077,0,0,0-6.285-6.493c-.429-.339-.871-.662-1.319-.976-5.6-3.929-12.2-6-19.082-7.21-.683-.121-1.373-.234-2.061-.333-3.838-.59-7.735-.943-11.565-1.237-1.387-.107-2.779-.2-4.18-.25a60.275,60.275,0,0,0-8.245.183,31.044,31.044,0,0,0-12.168,3.552c-6.062,3.358-10.576,8.85-13.9,14.838-1.4,2.53-2.77,5.264-4.016,8.087a41.164,41.164,0,0,0-3.807,9.44c8.4,6.685,19.874,6.375,29.726,3.517,6.02-1.757,11.718-4.408,17.441-6.921a31.588,31.588,0,0,1,4.007-1.65,4.619,4.619,0,0,1,5.271,1.767c1.463,1.767,2.562,3.528,4.591,4.726a11.005,11.005,0,0,0,5.647,1.571c2.442,0,4.782-.865,7.213-.95,3.761-.135,5.14,2.437,6.151,5.612a20.748,20.748,0,0,0,3.439,6.7c2.688,3.408,6.649,6.558,10.577,3.166,2.074-10.409,1.24-21.392-3.827-31.275" transform="translate(-42.655 -353.647)" fill="#c4ba60"/>
        <path id="Trazado_1000025" data-name="Trazado 1000025" d="M295.736,415.853c-.684-.121-1.373-.234-2.061-.333-3.837-.59-7.735-.943-11.565-1.237-1.387-.107-2.779-.2-4.18-.25a60.3,60.3,0,0,0-8.245.183c-.334.347-.645.705-.946,1.085-1.26,1.592-2.012,3.632.014,4.978,1.572,1.04,3.292.563,4.824-.24a26.211,26.211,0,0,0-4.577,13.5c-.089,1.882-.3,4.521.958,6.1,1.228,1.552,3.39,1.4,5.132,1.02,9.233-1.993,13.937-11.859,22.6-15.048a5.849,5.849,0,0,0,5.408,4.785,11.525,11.525,0,0,0,8.4-3.082,14.707,14.707,0,0,0,3.328-4.251c-5.6-3.929-12.2-6-19.082-7.21" transform="translate(-228.517 -353.647)" fill="#e63b15"/>
        <path id="Trazado_1000026" data-name="Trazado 1000026" d="M381.966,753.366c-2.178-1.327-3.946,1.082-4.934,2.738-.971,1.626-4.63,6.349-2.816,8.207a2.308,2.308,0,0,0,2.744.09A12.84,12.84,0,0,0,381,760.387c1.028-1.516,3.318-5.589.966-7.021" transform="translate(-319.259 -643.255)" fill="#c4ba60"/>
        <path id="Trazado_1000027" data-name="Trazado 1000027" d="M496.769,856.886c-1.457-2.093-4.047-.6-5.62.513-1.545,1.1-6.8,3.94-5.889,6.372a2.308,2.308,0,0,0,2.474,1.19,12.841,12.841,0,0,0,5.317-2.042c1.552-.973,5.291-3.775,3.718-6.034" transform="translate(-414.457 -731.118)" fill="#c4ba60"/>
        <path id="Trazado_1000028" data-name="Trazado 1000028" d="M409.528,871.939c-1.647-1.311-3.619.051-4.779,1.027-1.139.959-4.209,3.026-2.975,4.642a2.421,2.421,0,0,0,2.363.552,6.753,6.753,0,0,0,3.272-1.506c1.168-.872,3.9-3.3,2.119-4.715" transform="translate(-342.981 -744.414)" fill="#c4ba60"/>
        <path id="Trazado_1000029" data-name="Trazado 1000029" d="M1004.174,920.07c-1.24,1.7.2,3.614,1.23,4.731,1.007,1.1,3.2,4.076,4.765,2.775a2.42,2.42,0,0,0,.45-2.384,6.753,6.753,0,0,0-1.644-3.205c-.921-1.129-3.462-3.752-4.8-1.916" transform="translate(-857.432 -785.452)" fill="#c4ba60"/>
        <path id="Trazado_1000030" data-name="Trazado 1000030" d="M1096.017,974c-1.925.851-1.634,3.23-1.307,4.71.321,1.454.728,5.133,2.732,4.79.805-.138,1.363-1.047,1.585-1.837a6.752,6.752,0,0,0,.184-3.6c-.231-1.439-1.115-4.982-3.194-4.064" transform="translate(-934.981 -831.94)" fill="#c4ba60"/>
        <path id="Trazado_1000031" data-name="Trazado 1000031" d="M34.917,932.591a2.7,2.7,0,0,0,1.147.5c1.666.359,8.287-.628,6.07-3.747-1.343-1.889-3.845-1.051-5.37-.371-.9.4-2.1.635-2.427,1.7a1.843,1.843,0,0,0,.581,1.925" transform="translate(-29.267 -792.925)" fill="#c4ba60"/>
        <path id="Trazado_1000032" data-name="Trazado 1000032" d="M1043.126,845.5a15.14,15.14,0,0,0-3.011-3.666c-1.711-2.053-3.8-3.508-5.55-1.89s.828,3.657,1.78,4.906a19.5,19.5,0,0,1,2.454,4.21,6.609,6.609,0,0,0,1.6,2.686,2.352,2.352,0,0,0,3.561-.262c1.176-1.761.116-4.4-.834-5.985" transform="translate(-883.291 -716.954)" fill="#c4ba60"/>
      </g>
    </g>
  </g>
</svg>
