<svg xmlns="http://www.w3.org/2000/svg" xmlns:xlink="http://www.w3.org/1999/xlink" width="100" height="101" viewBox="0 0 100 101">
  <defs>
    <clipPath id="clip-path">
      <rect id="Rectángulo_405448" data-name="Rectángulo 405448" width="52.849" height="78.064" fill="none"/>
    </clipPath>
  </defs>
  <g id="Grupo_1109462" data-name="Grupo 1109462" transform="translate(-750.711 -6961.353)">
    <ellipse id="Elipse_11980" data-name="Elipse 11980" cx="50" cy="50.5" rx="50" ry="50.5" transform="translate(750.711 6961.353)" fill="#55cb5d"/>
    <g id="Grupo_1109458" data-name="Grupo 1109458" transform="translate(774.576 6970.234)">
      <g id="Grupo_1109457" data-name="Grupo 1109457" clip-path="url(#clip-path)">
        <path id="Trazado_1000086" data-name="Trazado 1000086" d="M58.249,48.8,54.4,55.464a4.928,4.928,0,1,0,8.535,0L59.093,48.8a.487.487,0,0,0-.844,0" transform="translate(-32.246 -29.14)" fill="#62dbfb"/>
        <path id="Trazado_1000087" data-name="Trazado 1000087" d="M40.221,2.422l-2.715,4.7a3.479,3.479,0,1,0,6.025,0l-2.715-4.7a.344.344,0,0,0-.6,0" transform="translate(-22.224 -1.35)" fill="#62dbfb"/>
        <path id="Trazado_1000088" data-name="Trazado 1000088" d="M80.878,2.422l-2.715,4.7a3.479,3.479,0,1,0,6.025,0l-2.715-4.7a.344.344,0,0,0-.6,0" transform="translate(-46.622 -1.35)" fill="#62dbfb"/>
        <path id="Trazado_1000089" data-name="Trazado 1000089" d="M84.191,12.561l-.722-1.251a3.833,3.833,0,0,1-3.822,3.512,3.794,3.794,0,0,1-1.951-.529,3.48,3.48,0,1,0,6.5-1.732" transform="translate(-46.624 -6.787)" fill="#01d0fb"/>
        <path id="Trazado_1000090" data-name="Trazado 1000090" d="M43.534,12.561l-.722-1.251a3.833,3.833,0,0,1-3.822,3.512,3.794,3.794,0,0,1-1.951-.529,3.48,3.48,0,1,0,6.5-1.732" transform="translate(-22.227 -6.787)" fill="#01d0fb"/>
        <path id="Trazado_1000091" data-name="Trazado 1000091" d="M9.918,28.437,6.072,35.1a4.928,4.928,0,1,0,8.535,0l-3.846-6.661a.487.487,0,0,0-.844,0" transform="translate(-3.243 -16.918)" fill="#99e6fc"/>
        <path id="Trazado_1000092" data-name="Trazado 1000092" d="M106.58,28.437,102.734,35.1a4.928,4.928,0,1,0,8.535,0l-3.846-6.661a.487.487,0,0,0-.843,0" transform="translate(-61.249 -16.918)" fill="#99e6fc"/>
        <path id="Trazado_1000093" data-name="Trazado 1000093" d="M111.272,44.344l-.428-.742a5.35,5.35,0,0,1-5.214,4.1,5.286,5.286,0,0,1-3.539-1.329,4.929,4.929,0,1,0,9.181-2.03" transform="translate(-61.253 -26.165)" fill="#62dbfb"/>
        <path id="Trazado_1000094" data-name="Trazado 1000094" d="M62.942,64.71l-.428-.742a5.35,5.35,0,0,1-5.214,4.1,5.286,5.286,0,0,1-3.539-1.329,4.929,4.929,0,1,0,9.181-2.03" transform="translate(-32.25 -38.386)" fill="#01d0fb"/>
        <path id="Trazado_1000095" data-name="Trazado 1000095" d="M14.61,44.344l-.428-.742a5.35,5.35,0,0,1-5.214,4.1A5.286,5.286,0,0,1,5.43,46.375a4.929,4.929,0,1,0,9.181-2.03" transform="translate(-3.247 -26.165)" fill="#62dbfb"/>
        <path id="Trazado_1000096" data-name="Trazado 1000096" d="M6.561,83.841a.827.827,0,0,0-.578.578,16,16,0,0,0,20.134,19.555A16,16,0,0,0,6.561,83.841" transform="translate(-3.243 -49.964)" fill="#a2e62e"/>
        <path id="Trazado_1000097" data-name="Trazado 1000097" d="M38.64,91.551a16.044,16.044,0,0,0-2.873-2.28A15.989,15.989,0,0,1,32.9,107.49a16.062,16.062,0,0,0,9.718.09A15.989,15.989,0,0,0,38.64,91.551" transform="translate(-19.741 -53.57)" fill="#97d729"/>
        <path id="Trazado_1000098" data-name="Trazado 1000098" d="M93.445,83.841a.827.827,0,0,1,.578.578A16,16,0,0,1,73.89,103.974,16,16,0,0,1,93.445,83.841" transform="translate(-43.915 -49.964)" fill="#a2e62e"/>
        <path id="Trazado_1000099" data-name="Trazado 1000099" d="M94.024,84.421a.827.827,0,0,0-.578-.578,16.06,16.06,0,0,0-4.311-.577A15.985,15.985,0,0,1,73.182,99.2a16.052,16.052,0,0,0,.709,4.773A16,16,0,0,0,94.024,84.421" transform="translate(-43.916 -49.967)" fill="#97d729"/>
        <path id="Trazado_1000100" data-name="Trazado 1000100" d="M32.879,167.644l-15.117,9.4H56.4l-15.117-9.4a7.962,7.962,0,0,0-8.408,0" transform="translate(-10.659 -99.881)" fill="#ffbd86"/>
        <path id="Trazado_1000101" data-name="Trazado 1000101" d="M32.879,167.644l-15.117,9.4H56.4l-15.117-9.4a7.962,7.962,0,0,0-8.408,0" transform="translate(-10.659 -99.881)" fill="#ffbd86"/>
        <path id="Trazado_1000102" data-name="Trazado 1000102" d="M41.966,170.5v1.856a2.3,2.3,0,0,1-2.3,2.3H25.512l-7.751,4.82H56.4Z" transform="translate(-10.658 -102.317)" fill="#f6a96c"/>
        <path id="Trazado_1000103" data-name="Trazado 1000103" d="M57.317,62.4a5.827,5.827,0,0,1-5.046-8.741L56.117,47a1.387,1.387,0,0,1,2.4,0l3.846,6.661A5.827,5.827,0,0,1,57.317,62.4m0-13.883-3.488,6.041a4.028,4.028,0,1,0,6.976,0ZM56.9,47.453h0Z" transform="translate(-30.893 -27.79)"/>
        <path id="Trazado_1000104" data-name="Trazado 1000104" d="M20.036,104.244a16.813,16.813,0,0,1-9.234-2.763.9.9,0,0,1,.987-1.5,15.04,15.04,0,0,0,12.26,1.926A15.1,15.1,0,0,0,5.5,83.351,15.167,15.167,0,0,0,8.071,96.523a.9.9,0,1,1-1.427,1.1A16.976,16.976,0,0,1,3.774,82.833,1.736,1.736,0,0,1,4.98,81.627a16.9,16.9,0,0,1,20.655,21.265.9.9,0,0,1-.6.6,17,17,0,0,1-5,.756" transform="translate(-1.901 -48.618)"/>
        <path id="Trazado_1000105" data-name="Trazado 1000105" d="M38.843,126.6a.9.9,0,0,1-.9-.9v-8.619l-16.985-17a.9.9,0,1,1,1.273-1.272L39.48,116.074a.9.9,0,0,1,.263.636V125.7a.9.9,0,0,1-.9.9" transform="translate(-12.419 -59.139)"/>
        <path id="Trazado_1000106" data-name="Trazado 1000106" d="M77.285,104.226a16.963,16.963,0,0,1-5-.754.9.9,0,0,1-.6-.6A17.016,17.016,0,0,1,73.928,88.3a.9.9,0,0,1,1.48,1.023,15.21,15.21,0,0,0-2.13,12.563A15.1,15.1,0,0,0,91.83,83.336a15.006,15.006,0,0,0-12.882,2.357.9.9,0,1,1-1.061-1.453,16.8,16.8,0,0,1,14.461-2.628,1.736,1.736,0,0,1,1.206,1.205,16.9,16.9,0,0,1-16.27,21.409" transform="translate(-42.578 -48.602)"/>
        <path id="Trazado_1000107" data-name="Trazado 1000107" d="M64.726,117.61a.9.9,0,0,1-.637-1.536L81.338,98.815a.9.9,0,0,1,1.273,1.272L65.362,117.346a.9.9,0,0,1-.637.264" transform="translate(-38.301 -59.139)"/>
        <path id="Trazado_1000108" data-name="Trazado 1000108" d="M55.054,176.579H16.411a.9.9,0,0,1-.475-1.664l15.117-9.4a8.807,8.807,0,0,1,9.358,0l15.117,9.4a.9.9,0,0,1-.475,1.664m-35.492-1.8H51.9l-12.442-7.737a7.019,7.019,0,0,0-7.457,0Z" transform="translate(-9.308 -98.516)"/>
        <path id="Trazado_1000109" data-name="Trazado 1000109" d="M51.949,192.5H.9a.9.9,0,0,1,0-1.8H51.949a.9.9,0,0,1,0,1.8" transform="translate(0 -114.438)"/>
        <path id="Trazado_1000110" data-name="Trazado 1000110" d="M9,42.039a5.826,5.826,0,0,1-5.325-8.19.9.9,0,0,1,1.642.736,4,4,0,0,0,.308,3.823,4.027,4.027,0,0,0,6.863-4.21L9,28.156,7.934,30a.9.9,0,1,1-1.558-.9l1.419-2.458a1.387,1.387,0,0,1,2.4,0L14.042,33.3A5.827,5.827,0,0,1,9,42.039" transform="translate(-1.899 -15.569)"/>
        <path id="Trazado_1000111" data-name="Trazado 1000111" d="M105.647,42.038A5.827,5.827,0,0,1,100.6,33.3l3.845-6.661h0a1.387,1.387,0,0,1,2.4,0l3.846,6.661a5.827,5.827,0,0,1-5.046,8.741m0-13.883L102.159,34.2a4.028,4.028,0,1,0,6.976,0Zm.357-.618h0" transform="translate(-59.895 -15.568)"/>
        <path id="Trazado_1000112" data-name="Trazado 1000112" d="M39.165,11.894a4.379,4.379,0,0,1-3.792-6.569l2.714-4.7a1.245,1.245,0,0,1,2.155,0l2.715,4.7a4.379,4.379,0,0,1-3.792,6.569m0-9.537L36.932,6.225a2.579,2.579,0,1,0,4.467,0Zm-.3-1.284h0Z" transform="translate(-20.871 -0.001)"/>
        <path id="Trazado_1000113" data-name="Trazado 1000113" d="M79.823,11.894a4.379,4.379,0,0,1-3.792-6.569l2.714-4.7A1.246,1.246,0,0,1,79.823,0h0A1.247,1.247,0,0,1,80.9.622l2.715,4.7a4.379,4.379,0,0,1-3.792,6.569m0-9.537L77.59,6.225a2.579,2.579,0,1,0,4.467,0Zm-.3-1.284h0Z" transform="translate(-45.269 -0.001)"/>
      </g>
    </g>
  </g>
</svg>
