<svg xmlns="http://www.w3.org/2000/svg" xmlns:xlink="http://www.w3.org/1999/xlink" width="84.48" height="82" viewBox="0 0 84.48 82">
  <defs>
    <clipPath id="clip-path">
      <rect id="Rectángulo_405169" data-name="Rectángulo 405169" width="69.977" height="71.944" fill="none"/>
    </clipPath>
  </defs>
  <g id="Grupo_1109462" data-name="Grupo 1109462" transform="translate(-722.52 -1270.227)">
    <ellipse id="Elipse_11975" data-name="Elipse 11975" cx="39" cy="39.5" rx="39" ry="39.5" transform="translate(722.52 1273.227)" fill="#f7eeea"/>
    <g id="Grupo_1108754" data-name="Grupo 1108754" transform="translate(737.022 1270.227)">
      <g id="Grupo_1108753" data-name="Grupo 1108753" clip-path="url(#clip-path)">
        <path id="Trazado_998836" data-name="Trazado 998836" d="M49.252,87.725c4.752,4.663,10.7.8,11.364-5.562a1.126,1.126,0,0,0-.649-1.139c-4.419-2.038-12.577-1.058-10.73,6.675a.056.056,0,0,0,.015.026" transform="translate(-21.959 -35.921)" fill="#68ca44"/>
        <path id="Trazado_998837" data-name="Trazado 998837" d="M17.924,67.389a.141.141,0,0,1-.038.068c-6.845,6.7-15.4,1.151-16.376-8a1.649,1.649,0,0,1,.934-1.673,15.281,15.281,0,0,1,10.385-.737.38.38,0,0,1,.238.5L12.4,59.178a.351.351,0,0,0,.375.479l3.386-.483a.374.374,0,0,1,.332.116c1.589,1.751,2.309,4.384,1.426,8.1" transform="translate(-0.673 -25.315)" fill="#68ca44"/>
        <path id="Trazado_998838" data-name="Trazado 998838" d="M33.7,113.433a9.291,9.291,0,0,0-9.183,7.885.576.576,0,0,0,.567.665H42.313a.576.576,0,0,0,.567-.665,9.291,9.291,0,0,0-9.183-7.885" transform="translate(-10.99 -50.866)" fill="#e8ad8c"/>
        <path id="Trazado_998839" data-name="Trazado 998839" d="M48.8,121.318a9.289,9.289,0,0,0-11.092-7.686,9.3,9.3,0,0,1,7.274,7.686.576.576,0,0,1-.567.665h3.819a.576.576,0,0,0,.567-.665" transform="translate(-16.908 -50.866)" fill="#e19a74"/>
        <path id="Trazado_998840" data-name="Trazado 998840" d="M65.331,1.505a21.044,21.044,0,0,0-19.97,26.067,1.25,1.25,0,0,1-.337,1.195l-5.4,5.272a.671.671,0,0,0,.536,1.148l7.521-.748a1.245,1.245,0,0,1,1.127.5A21.034,21.034,0,1,0,65.331,1.505" transform="translate(-17.677 -0.673)" fill="#e5d9c5"/>
        <path id="Trazado_998841" data-name="Trazado 998841" d="M85.276,1.505c-.463.01-.921.036-1.376.076a21.037,21.037,0,0,1,0,41.913A21.037,21.037,0,1,0,85.276,1.505" transform="translate(-37.623 -0.673)" fill="#c6b091"/>
        <path id="Trazado_998842" data-name="Trazado 998842" d="M74.246,10.693A15.967,15.967,0,1,0,90.213,26.66,15.967,15.967,0,0,0,74.246,10.693" transform="translate(-26.134 -4.795)" fill="#f2fbff"/>
        <path id="Trazado_998843" data-name="Trazado 998843" d="M95.027,26.664a3.184,3.184,0,1,0,0,4.5,3.184,3.184,0,0,0,0-4.5" transform="translate(-40.175 -11.539)" fill="#678d98"/>
        <path id="Trazado_998844" data-name="Trazado 998844" d="M85.259,33.1a5.284,5.284,0,1,0-.072,7.4,5.232,5.232,0,0,0,.072-7.4" transform="translate(-34.211 -14.172)" fill="#ae6c6c"/>
        <path id="Trazado_998845" data-name="Trazado 998845" d="M40.494,97.423a.828.828,0,0,1-.827-.827,7.122,7.122,0,0,1,3.342-6.055L50.5,85.82a.828.828,0,1,1,.882,1.4l-7.493,4.72A5.472,5.472,0,0,0,41.322,96.6a.828.828,0,0,1-.827.827" transform="translate(-17.788 -38.427)"/>
        <path id="Trazado_998846" data-name="Trazado 998846" d="M29.257,92.631a.828.828,0,0,1-.827-.827V79.153a7,7,0,0,0-3.249-5.928l-10.191-6.5a.827.827,0,0,1,.89-1.395l10.191,6.5a8.647,8.647,0,0,1,4.014,7.323V91.8a.828.828,0,0,1-.827.827" transform="translate(-6.55 -29.237)"/>
        <path id="Trazado_998847" data-name="Trazado 998847" d="M41.639,122.137H24.408a1.4,1.4,0,0,1-1.386-1.616,10.117,10.117,0,0,1,20,0,1.4,1.4,0,0,1-1.386,1.617m-.251-1.368h0Zm-16.681-.287H41.339a8.463,8.463,0,0,0-16.632,0" transform="translate(-10.317 -50.193)"/>
        <path id="Trazado_998848" data-name="Trazado 998848" d="M65.128,43.73a21.894,21.894,0,0,1-17.659-8.97.427.427,0,0,0-.378-.17l-7.521.748a1.5,1.5,0,0,1-1.2-2.563l5.4-5.273a.419.419,0,0,0,.112-.4,21.858,21.858,0,0,1,35.3-21.962A.827.827,0,0,1,78.116,6.4,20.21,20.21,0,0,0,45.491,26.7a2.084,2.084,0,0,1-.562,1.985l-5.081,4.961,7.079-.7a2.081,2.081,0,0,1,1.876.839A20.2,20.2,0,0,0,85.321,22.327,20.007,20.007,0,0,0,81.352,9.843a.827.827,0,0,1,1.328-.987A21.855,21.855,0,0,1,65.8,43.72c-.224.007-.448.01-.672.01" transform="translate(-17.004 0)"/>
        <path id="Trazado_998849" data-name="Trazado 998849" d="M102.252,31.412a1.547,1.547,0,0,1-.167-.009l-1.723-.183a.827.827,0,1,1,.175-1.645l1.689.179.923-.923A.827.827,0,0,1,104.32,30l-.946.946a1.587,1.587,0,0,1-1.122.465" transform="translate(-44.673 -12.82)"/>
        <path id="Trazado_998850" data-name="Trazado 998850" d="M94.174,23.229a.827.827,0,0,1-.821-.74l-.182-1.721a1.567,1.567,0,0,1,.456-1.291l.945-.945a.827.827,0,0,1,1.17,1.17l-.923.923L95,22.315a.827.827,0,0,1-.735.91.8.8,0,0,1-.088,0m.641-2.641h0Z" transform="translate(-41.775 -8.201)"/>
        <path id="Trazado_998851" data-name="Trazado 998851" d="M96.1,43.264a1.746,1.746,0,0,1-.448-.058l-1.921-.517a.827.827,0,1,1,.43-1.6l1.919.516a.08.08,0,0,0,.077-.02l2.475-2.473a.828.828,0,0,1,1.17,1.171l-2.473,2.47a1.736,1.736,0,0,1-1.23.509" transform="translate(-41.758 -17.431)"/>
        <path id="Trazado_998852" data-name="Trazado 998852" d="M81.406,28.114a.828.828,0,0,1-.8-.613l-.515-1.919a1.745,1.745,0,0,1,.447-1.677l2.474-2.473a.828.828,0,1,1,1.17,1.171l-2.472,2.47a.084.084,0,0,0-.021.08l.515,1.919a.828.828,0,0,1-.584,1.014.85.85,0,0,1-.215.028" transform="translate(-35.889 -9.502)"/>
        <path id="Trazado_998853" data-name="Trazado 998853" d="M84.383,55.363a.827.827,0,0,1-.585-1.412l2.473-2.472a.082.082,0,0,0,.021-.079l-.515-1.92a.827.827,0,0,1,1.6-.429l.514,1.919a1.741,1.741,0,0,1-.448,1.68l-2.472,2.472a.824.824,0,0,1-.585.242" transform="translate(-37.469 -21.721)"/>
        <path id="Trazado_998854" data-name="Trazado 998854" d="M66.7,39.741a.827.827,0,0,1-.585-1.413l2.473-2.472a1.738,1.738,0,0,1,1.681-.448l1.917.516a.827.827,0,1,1-.43,1.6l-1.919-.516a.08.08,0,0,0-.077.019L67.287,39.5a.825.825,0,0,1-.585.242" transform="translate(-29.54 -15.851)"/>
        <path id="Trazado_998855" data-name="Trazado 998855" d="M92.1,32.255a3.921,3.921,0,0,1-.589-.044.827.827,0,1,1,.245-1.637,2.355,2.355,0,1,0-1.318-4,2.334,2.334,0,0,0-.664,2.014.827.827,0,0,1-1.637.246A4.012,4.012,0,1,1,92.1,32.255" transform="translate(-39.503 -10.867)"/>
        <path id="Trazado_998856" data-name="Trazado 998856" d="M80.747,42.226a5.938,5.938,0,0,1-5.955-6.015,6.132,6.132,0,0,1,10.379-4.364,5.917,5.917,0,0,1,1.739,4.277,6.184,6.184,0,0,1-6.1,6.1Zm.207-10.461a4.524,4.524,0,0,0-4.507,4.462,4.275,4.275,0,0,0,1.254,3.09,4.226,4.226,0,0,0,3.09,1.254,4.529,4.529,0,0,0,4.464-4.464,4.28,4.28,0,0,0-4.3-4.343" transform="translate(-33.538 -13.502)"/>
        <path id="Trazado_998857" data-name="Trazado 998857" d="M88.08,41.666,65.5,19.085a.828.828,0,0,1,1.17-1.17l22.58,22.58Z" transform="translate(-29.263 -7.925)"/>
        <path id="Trazado_998858" data-name="Trazado 998858" d="M73.573,42.783A16.794,16.794,0,1,1,90.367,25.988,16.814,16.814,0,0,1,73.573,42.783m0-31.934A15.14,15.14,0,1,0,88.713,25.988,15.157,15.157,0,0,0,73.573,10.849" transform="translate(-25.461 -4.123)"/>
        <path id="Trazado_998859" data-name="Trazado 998859" d="M53.117,89.933A7.341,7.341,0,0,1,48,87.64a.929.929,0,0,1-.243-.437c-.9-3.781.472-5.861,1.786-6.938,2.7-2.212,7.216-1.994,10.1-.667a1.953,1.953,0,0,1,1.126,1.977c-.4,3.785-2.567,6.918-5.531,7.985a6.236,6.236,0,0,1-2.118.374m-3.8-3.32A5.12,5.12,0,0,0,54.675,88c2.37-.853,4.114-3.443,4.445-6.6a.3.3,0,0,0-.173-.3c-2.458-1.133-6.256-1.277-8.355.444-1.337,1.1-1.766,2.8-1.274,5.068" transform="translate(-21.284 -35.246)"/>
        <path id="Trazado_998860" data-name="Trazado 998860" d="M12.629,70.324a.827.827,0,0,1-.2-1.629,9.251,9.251,0,0,0,4.065-2.365c.662-2.955.285-5.3-1.121-6.977l-3.147.45a1.179,1.179,0,0,1-1.258-1.61l.475-1.172a14.644,14.644,0,0,0-9.323.836.825.825,0,0,0-.458.833c.484,4.544,3,8.356,6.417,9.71a.828.828,0,1,1-.611,1.538C3.487,68.36.562,64.013.014,58.867a2.47,2.47,0,0,1,1.41-2.512,16.044,16.044,0,0,1,10.982-.774,1.208,1.208,0,0,1,.755,1.6l-.351.865,2.566-.367a1.208,1.208,0,0,1,1.062.38c1.345,1.482,2.718,4.218,1.618,8.845a.96.96,0,0,1-.267.47A10.973,10.973,0,0,1,12.832,70.3a.836.836,0,0,1-.2.025m3.818-3.805,0,.01,0-.01m.187-.327,0,0Zm-1.023-6.873h0" transform="translate(0 -24.641)"/>
      </g>
    </g>
  </g>
</svg>
