<svg xmlns="http://www.w3.org/2000/svg" xmlns:xlink="http://www.w3.org/1999/xlink" width="85" height="99" viewBox="0 0 85 99">
  <defs>
    <clipPath id="clip-path">
      <rect id="Rect치ngulo_405209" data-name="Rect치ngulo 405209" width="85" height="99" transform="translate(1019.711 1774)" fill="#fff" stroke="#707070" stroke-width="1"/>
    </clipPath>
    <clipPath id="clip-path-2">
      <rect id="Rect치ngulo_405208" data-name="Rect치ngulo 405208" width="60.956" height="74.266" fill="none"/>
    </clipPath>
  </defs>
  <g id="Grupo_1109461" data-name="Grupo 1109461" transform="translate(-1019.711 -1774)">
    <g id="Enmascarar_grupo_1098822" data-name="Enmascarar grupo 1098822" clip-path="url(#clip-path)">
      <g id="Grupo_1108858" data-name="Grupo 1108858" transform="translate(1031.498 1786.867)">
        <g id="Grupo_1108857" data-name="Grupo 1108857" clip-path="url(#clip-path-2)">
          <path id="Trazado_999388" data-name="Trazado 999388" d="M39.869,28.854H16.057a.847.847,0,0,1,0-1.694h23.8a.852.852,0,0,1,.847.847.835.835,0,0,1-.835.847" transform="translate(2.44 4.356)" fill="#6eb916"/>
          <path id="Trazado_999389" data-name="Trazado 999389" d="M36.566,24.792H33.027a.847.847,0,0,1,0-1.694h3.539a.389.389,0,0,0,.348-.22l.8-1.857a.847.847,0,1,1,1.555.673l-.8,1.857a2.061,2.061,0,0,1-1.9,1.242" transform="translate(5.162 3.29)" fill="#6eb916"/>
          <path id="Trazado_999390" data-name="Trazado 999390" d="M20.423,24.794H16.883a2.065,2.065,0,0,1-1.9-1.253l-.8-1.857a.847.847,0,1,1,1.555-.673l.8,1.857a.37.37,0,0,0,.348.22h3.539a.853.853,0,0,1,0,1.706" transform="translate(2.263 3.288)" fill="#92dd06"/>
          <path id="Trazado_999391" data-name="Trazado 999391" d="M15.027,35.673a.832.832,0,0,1-.337-.07.847.847,0,0,1-.441-1.114l.8-1.857a2.083,2.083,0,0,1,1.9-1.253h3.539a.847.847,0,1,1,0,1.694H16.953a.389.389,0,0,0-.348.22l-.8,1.857a.829.829,0,0,1-.777.522" transform="translate(2.274 5.033)" fill="#92dd06"/>
          <path id="Trazado_999392" data-name="Trazado 999392" d="M38.583,35.672a.861.861,0,0,1-.777-.511L37,33.3a.37.37,0,0,0-.348-.22H33.117a.847.847,0,0,1,0-1.694h3.539a2.065,2.065,0,0,1,1.9,1.253l.8,1.857a.847.847,0,0,1-.441,1.114,1.206,1.206,0,0,1-.337.058" transform="translate(5.176 5.035)" fill="#6eb916"/>
          <path id="Trazado_999393" data-name="Trazado 999393" d="M29.287,18.595a.847.847,0,0,1-.2-1.671,2.208,2.208,0,0,0,1.694-2.147.847.847,0,0,1,1.694,0,3.909,3.909,0,0,1-2.994,3.806c-.07,0-.139.012-.2.012" transform="translate(4.562 2.234)" fill="#6eb916"/>
          <path id="Trazado_999394" data-name="Trazado 999394" d="M30.417,52.35v4.038H23.13V52.35a27.118,27.118,0,0,0,3.655.232,26.774,26.774,0,0,0,3.632-.232" transform="translate(3.71 8.397)" fill="#4caaf4"/>
          <path id="Trazado_999395" data-name="Trazado 999395" d="M34.722,59.033v5.431a.844.844,0,0,1-.847.847H20.727a.844.844,0,0,1-.847-.847V59.033a3.2,3.2,0,0,1,3.2-3.2H31.53a3.2,3.2,0,0,1,3.191,3.2" transform="translate(3.189 8.955)" fill="#fbc51a"/>
          <path id="Trazado_999396" data-name="Trazado 999396" d="M34.722,59.026v5.431a.844.844,0,0,1-.847.847H20.727a.844.844,0,0,1-.847-.847V61.962a12.538,12.538,0,0,0,3.771.569c4.734,0,8.587-2.437,8.587-5.454a3.317,3.317,0,0,0-.22-1.207,3.188,3.188,0,0,1,2.7,3.156" transform="translate(3.189 8.962)" fill="#f69f00"/>
          <path id="Trazado_999397" data-name="Trazado 999397" d="M31.314,19.586a4.532,4.532,0,0,1-.186,1.242.861.861,0,0,1-.464.522.764.764,0,0,1-.348.081.848.848,0,0,1-.348-.07,7.6,7.6,0,0,0-6.1,0,.813.813,0,0,1-.7-.012.828.828,0,0,1-.464-.522,4.394,4.394,0,1,1,8.61-1.242" transform="translate(3.614 2.438)" fill="#92dd06"/>
          <path id="Trazado_999398" data-name="Trazado 999398" d="M31.314,19.46a4.532,4.532,0,0,1-.186,1.242.861.861,0,0,1-.464.522.764.764,0,0,1-.348.081.848.848,0,0,1-.348-.07,7.6,7.6,0,0,0-6.1,0,.813.813,0,0,1-.7-.012A.828.828,0,0,1,22.7,20.7a4.483,4.483,0,0,1,.151-2.913,4.487,4.487,0,0,0,2.6.812,4.605,4.605,0,0,0,4.154-2.611,4.4,4.4,0,0,1,1.706,3.47" transform="translate(3.614 2.565)" fill="#6eb916"/>
          <path id="Trazado_999399" data-name="Trazado 999399" d="M24,18.618a.878.878,0,0,1-.174-.012,3.933,3.933,0,0,1-3.133-3.829.847.847,0,0,1,1.694,0,2.223,2.223,0,0,0,1.764,2.17.845.845,0,0,1,.661,1,.813.813,0,0,1-.812.673" transform="translate(3.319 2.234)" fill="#92dd06"/>
          <path id="Trazado_999400" data-name="Trazado 999400" d="M30.484,0A30.484,30.484,0,1,0,60.956,30.484,30.511,30.511,0,0,0,30.484,0m0,53.228C18.276,53.228,8.332,43.039,8.332,30.5S18.276,7.751,30.484,7.751s22.14,10.188,22.14,22.732S42.7,53.228,30.484,53.228" fill="#e8e8f0"/>
          <path id="Trazado_999401" data-name="Trazado 999401" d="M49.749,6.71A30.478,30.478,0,0,1,6.71,49.749,30.478,30.478,0,1,0,49.749,6.71" transform="translate(1.076 1.076)" fill="#dddde8"/>
          <path id="Trazado_999402" data-name="Trazado 999402" d="M45.829,64.234H11.667a.847.847,0,1,1,0-1.694H45.841a.847.847,0,1,1-.012,1.694" transform="translate(1.736 10.031)" fill="#f69f00"/>
          <path id="Trazado_999403" data-name="Trazado 999403" d="M36.862,27.74v3.307a9.281,9.281,0,0,1-8.425,9.225c-.267.023-.557.035-.835.035s-.58-.012-.859-.035a9.3,9.3,0,0,1-8.413-9.225V27.74a9.266,9.266,0,0,1,18.532,0" transform="translate(2.94 2.964)" fill="#92dd06"/>
          <path id="Trazado_999404" data-name="Trazado 999404" d="M36.385,27.232v3.307a9.281,9.281,0,0,1-8.425,9.225c-.267.023-.557.035-.835.035s-.58-.012-.859-.035A9.133,9.133,0,0,1,21.3,37.722a10.9,10.9,0,0,0,1.381.081A12.4,12.4,0,0,0,34.505,21.65a9.238,9.238,0,0,1,1.88,5.582" transform="translate(3.417 3.473)" fill="#6eb916"/>
          <path id="Trazado_999405" data-name="Trazado 999405" d="M27.274,32.207v6.011c-.267.023-.557.035-.835.035s-.58-.012-.859-.035V32.207a.847.847,0,0,1,1.694,0" transform="translate(4.103 5.03)" fill="#6eb916"/>
        </g>
      </g>
    </g>
  </g>
</svg>
