<svg xmlns="http://www.w3.org/2000/svg" xmlns:xlink="http://www.w3.org/1999/xlink" width="101" height="101" viewBox="0 0 101 101">
  <defs>
    <clipPath id="clip-path">
      <rect id="Rectángulo_404964" data-name="Rectángulo 404964" width="67.182" height="66.965" fill="none"/>
    </clipPath>
  </defs>
  <g id="Grupo_1109466" data-name="Grupo 1109466" transform="translate(8115 8633)">
    <g id="Grupo_1107171" data-name="Grupo 1107171">
      <circle id="Elipse_11969" data-name="Elipse 11969" cx="50.5" cy="50.5" r="50.5" transform="translate(-8115 -8633)" fill="#55cb5d"/>
      <g id="Grupo_1108201" data-name="Grupo 1108201" transform="translate(-8096.259 -8617.287)">
        <path id="Trazado_997324" data-name="Trazado 997324" d="M63.517,59.143,62.4,71.386H44.6L43.482,59.143Z" transform="translate(-8.979 -12.212)" fill="#57a4ff"/>
        <path id="Trazado_997325" data-name="Trazado 997325" d="M67.282,59.143,66.169,71.386H61.717L62.83,59.143Z" transform="translate(-12.744 -12.212)" fill="#2488ff"/>
        <g id="Grupo_1108200" data-name="Grupo 1108200" transform="translate(0 0)">
          <g id="Grupo_1108199" data-name="Grupo 1108199" clip-path="url(#clip-path)">
            <path id="Trazado_997326" data-name="Trazado 997326" d="M62.176,72.118a3.339,3.339,0,0,1-3.339,3.339H26.56l-11.13-8.9V50.971l10.016-4.452,16.7,8.9v2.226a2.233,2.233,0,0,1-2.226,2.227H25.446l11.131,8.9h22.26a3.339,3.339,0,0,1,3.339,3.339" transform="translate(-3.186 -9.605)" fill="#ffdaaa"/>
            <path id="Trazado_997327" data-name="Trazado 997327" d="M27.422,46.519l16.7,8.9V57.65a2.233,2.233,0,0,1-2.227,2.226H37.439a2.233,2.233,0,0,0,2.226-2.226V55.423L25,47.6Z" transform="translate(-5.161 -9.605)" fill="#ffc477"/>
            <path id="Trazado_997328" data-name="Trazado 997328" d="M72.313,77.911a3.339,3.339,0,0,1-3.339,3.339H64.522a3.339,3.339,0,0,0,0-6.678h4.452a3.339,3.339,0,0,1,3.339,3.339" transform="translate(-13.323 -15.398)" fill="#ffc477"/>
            <path id="Trazado_997329" data-name="Trazado 997329" d="M67.84,28.943V29a14.688,14.688,0,0,1-.29,2.705,7.478,7.478,0,0,1-2.627,4.719C61.9,38.537,58.3,38.615,56.9,36.6s-.111-5.365,2.916-7.48,8.025-.178,8.025-.178" transform="translate(-11.632 -5.809)" fill="#ffde55"/>
            <path id="Trazado_997330" data-name="Trazado 997330" d="M67.84,15.844s.1,5.365-2.916,7.48-6.623,2.2-8.025.189-.111-5.364,2.916-7.48,8.025-.189,8.025-.189" transform="translate(-11.632 -3.106)" fill="#ffde55"/>
            <path id="Trazado_997331" data-name="Trazado 997331" d="M59.4,8.074c0,3.7-1.993,6.678-4.452,6.678S50.5,11.77,50.5,8.074,54.948,1.4,54.948,1.4,59.4,4.39,59.4,8.074" transform="translate(-10.427 -0.288)" fill="#ffde55"/>
            <path id="Trazado_997332" data-name="Trazado 997332" d="M68.56,28.949V29a14.688,14.688,0,0,1-.29,2.705,7.478,7.478,0,0,1-2.627,4.719,7.883,7.883,0,0,1-5.821,1.535,9.232,9.232,0,0,0,3.6-1.535,7.482,7.482,0,0,0,2.627-4.719A14.688,14.688,0,0,0,66.335,29v-.056a14.238,14.238,0,0,0-3.261-.746,12.889,12.889,0,0,1,5.487.746" transform="translate(-12.353 -5.815)" fill="#ffcd00"/>
            <path id="Trazado_997333" data-name="Trazado 997333" d="M65.644,23.33a7.909,7.909,0,0,1-5.821,1.547,9.444,9.444,0,0,0,3.6-1.547c3.016-2.115,2.916-7.48,2.916-7.48a13.7,13.7,0,0,0-3.239-.735,12.884,12.884,0,0,1,5.465.735s.1,5.365-2.916,7.48" transform="translate(-12.353 -3.112)" fill="#ffcd00"/>
            <path id="Trazado_997334" data-name="Trazado 997334" d="M60.269,8.074a8.851,8.851,0,0,1-1.058,4.318,4.064,4.064,0,0,1-3.395,2.36,1.072,1.072,0,0,1-.267-.022,2.466,2.466,0,0,1-.846-.2c1.925-.734,3.339-3.339,3.339-6.455,0-2.482-2.026-4.652-3.339-5.8A12.357,12.357,0,0,1,55.817,1.4s4.452,2.994,4.452,6.678" transform="translate(-11.296 -0.288)" fill="#ffcd00"/>
            <path id="Trazado_997335" data-name="Trazado 997335" d="M49.4,16.034c3.027,2.115,4.329,5.465,2.916,7.48s-5,1.925-8.025-.19-2.916-7.479-2.916-7.479,5.009-1.926,8.025.189" transform="translate(-8.544 -3.106)" fill="#ffde55"/>
            <path id="Trazado_997336" data-name="Trazado 997336" d="M49.4,29.122c3.027,2.115,4.329,5.465,2.916,7.48s-5,1.936-8.025-.179A7.476,7.476,0,0,1,41.668,31.7a14.671,14.671,0,0,1-.29-2.7v-.056s5.009-1.937,8.025.178" transform="translate(-8.544 -5.809)" fill="#ffde55"/>
            <path id="Trazado_997337" data-name="Trazado 997337" d="M11.42,1.634A10.017,10.017,0,1,1,1.4,11.651,10.017,10.017,0,0,1,11.42,1.634" transform="translate(-0.29 -0.337)" fill="#ffde55"/>
            <path id="Trazado_997338" data-name="Trazado 997338" d="M21.715,11.929a10.017,10.017,0,0,1-18.966,4.5A10.017,10.017,0,0,0,16.194,2.981a10.008,10.008,0,0,1,5.52,8.948" transform="translate(-0.568 -0.615)" fill="#ffcd00"/>
            <rect id="Rectángulo_404960" data-name="Rectángulo 404960" width="4.452" height="20.035" transform="translate(7.791 39.14)" fill="#00b6bd"/>
            <path id="Trazado_997339" data-name="Trazado 997339" d="M8.081,52.13V67.712L1.4,69.938V52.13Z" transform="translate(-0.29 -10.764)" fill="#ffdaaa"/>
            <path id="Trazado_997340" data-name="Trazado 997340" d="M59.692,25.282a10.662,10.662,0,0,0-2.482-.467c.044-.356.067-.656.089-.913a10.663,10.663,0,0,1,2.972-.913,12.031,12.031,0,0,1,6.111.679l.8-2.07a14.156,14.156,0,0,0-7.246-.813,12.942,12.942,0,0,0-3.729,1.169,15.982,15.982,0,0,0-2.638-.613,3.655,3.655,0,0,0,.356-.211c3.461-2.427,3.395-8.17,3.395-8.415a1.121,1.121,0,0,0-.713-1.013,13.11,13.11,0,0,0-7.034-.6,10.868,10.868,0,0,0,.512-3.317c0-4.229-4.741-7.469-4.942-7.6a1.148,1.148,0,0,0-1.247,0c-.2.133-4.942,3.372-4.942,7.6a10.844,10.844,0,0,0,.513,3.317,13.112,13.112,0,0,0-7.034.6,1.122,1.122,0,0,0-.713,1.013c0,.245-.067,5.989,3.395,8.415a3.752,3.752,0,0,0,.356.211,15.982,15.982,0,0,0-2.638.613,12.934,12.934,0,0,0-3.729-1.169,14.169,14.169,0,0,0-7.246.813l.8,2.07a12.155,12.155,0,0,1,6.111-.679,10.655,10.655,0,0,1,2.972.913c.022.256.044.556.089.913a10.472,10.472,0,0,0-2.471.456,12.3,12.3,0,0,0-7.368,6.545l2.026.913a10.274,10.274,0,0,1,6-5.332,9.2,9.2,0,0,1,2.237-.389,7.941,7.941,0,0,0,2.861,4.507,9.67,9.67,0,0,0,5.232,1.848h.167a5.486,5.486,0,0,0,2.894-.746v13.2H40.069a1.094,1.094,0,0,0-.59-.979l-16.7-8.9a1.083,1.083,0,0,0-.98-.033l-8.448,3.751V39.14a1.113,1.113,0,0,0-1.113-1.113H7.791A1.113,1.113,0,0,0,6.678,39.14v1.112H1.113A1.113,1.113,0,0,0,0,41.366V59.174a1.1,1.1,0,0,0,.468.9,1.044,1.044,0,0,0,.645.212,1.324,1.324,0,0,0,.356-.056L6.678,58.5v.678a1.113,1.113,0,0,0,1.113,1.113h4.452a1.113,1.113,0,0,0,1.1-1.036l9.339,7.469a1.081,1.081,0,0,0,.69.245H55.651a4.452,4.452,0,1,0,0-8.9h-1l1-11.031a1.124,1.124,0,0,0-1.032-1.209c-.027,0-.054,0-.081,0h-8.9v-13.2a5.488,5.488,0,0,0,2.894.746H48.7a9.67,9.67,0,0,0,5.231-1.848,7.941,7.941,0,0,0,2.861-4.507,8.734,8.734,0,0,1,2.248.4,10.238,10.238,0,0,1,5.989,5.32l2.025-.913A12.261,12.261,0,0,0,59.692,25.282ZM6.678,56.146,2.227,57.627V42.478H6.678Zm4.452,1.915H8.9V40.253h2.226ZM48.818,13.84c1.881-1.313,4.863-.69,6.244-.3-.1,1.436-.535,4.452-2.415,5.766a7.479,7.479,0,0,1-4,1.447,2.9,2.9,0,0,1-2.47-.991c-1.047-1.48.167-4.2,2.638-5.921m-14.837-.3c1.6-.467,4.486-.935,6.244.3,2.471,1.725,3.684,4.441,2.638,5.921a2.937,2.937,0,0,1-2.471.991,7.479,7.479,0,0,1-4-1.447c-1.881-1.313-2.315-4.34-2.415-5.766m8.883,16.618a2.921,2.921,0,0,1-2.471.979,7.554,7.554,0,0,1-4-1.435c-1.881-1.324-2.315-4.352-2.415-5.777,1.6-.467,4.486-.924,6.244.3A7.448,7.448,0,0,1,42.941,27.5a2.9,2.9,0,0,1-.078,2.66M41.995,22.8a4.836,4.836,0,0,0,1.413-.568v1.893A10.679,10.679,0,0,0,41.995,22.8M55.651,60.287a2.226,2.226,0,0,1,0,4.452H23.763L13.356,56.414V42.089l8.86-3.941,15.627,8.337v1.558a1.113,1.113,0,0,1-1.113,1.112H22.261a1.114,1.114,0,0,0-1.047.746,1.094,1.094,0,0,0,.356,1.235l11.13,8.9a1.085,1.085,0,0,0,.69.245ZM34.392,58.061H33.78l-8.348-6.678h8.359ZM53.325,48.044l-.913,10.017H36.63l-.6-6.678h.7a3.349,3.349,0,0,0,3.339-3.339Zm-8.8-34.693c-1.815,0-3.339-2.549-3.339-5.565,0-2.293,2.226-4.375,3.339-5.276,1.112.9,3.339,2.983,3.339,5.276,0,3.016-1.525,5.565-3.339,5.565m1.112,8.882a4.841,4.841,0,0,0,1.414.568,10.685,10.685,0,0,0-1.414,1.324ZM52.646,29.7a7.554,7.554,0,0,1-4,1.435,2.9,2.9,0,0,1-2.47-.979A2.892,2.892,0,0,1,46.1,27.5a7.453,7.453,0,0,1,2.716-3.272,5.175,5.175,0,0,1,2.994-.79,12.029,12.029,0,0,1,3.25.5C54.962,25.361,54.527,28.377,52.646,29.7Z" transform="translate(0 0)"/>
            <path id="Trazado_997341" data-name="Trazado 997341" d="M11.131.231A11.13,11.13,0,1,0,22.261,11.362,11.13,11.13,0,0,0,11.131.231m0,20.035a8.9,8.9,0,1,1,8.9-8.9,8.9,8.9,0,0,1-8.9,8.9" transform="translate(0 -0.047)"/>
            <path id="Trazado_997342" data-name="Trazado 997342" d="M12.045,10.294v1.113h3.339A1.113,1.113,0,0,1,16.5,12.52v3.339a1.113,1.113,0,0,1-1.113,1.113H14.271V19.2H12.045V16.973H9.819V14.747h4.452V13.633H10.932A1.113,1.113,0,0,1,9.819,12.52V9.181a1.113,1.113,0,0,1,1.113-1.113h1.113V5.842h2.226V8.069H16.5v2.226Z" transform="translate(-2.028 -1.206)"/>
            <path id="Trazado_997343" data-name="Trazado 997343" d="M33.05,6.666H43.72V4.44H32.589a1.112,1.112,0,0,0-.786.326L28.464,8.105l1.574,1.574Z" transform="translate(-5.878 -0.917)"/>
            <rect id="Rectángulo_404961" data-name="Rectángulo 404961" width="2.226" height="2.226" transform="translate(43.408 52.495)"/>
            <rect id="Rectángulo_404962" data-name="Rectángulo 404962" width="2.226" height="2.226" transform="translate(47.86 52.495)"/>
            <rect id="Rectángulo_404963" data-name="Rectángulo 404963" width="2.226" height="2.226" transform="translate(38.956 52.495)"/>
          </g>
        </g>
      </g>
    </g>
  </g>
</svg>
