<svg xmlns="http://www.w3.org/2000/svg" xmlns:xlink="http://www.w3.org/1999/xlink" width="85" height="89" viewBox="0 0 85 89">
  <defs>
    <clipPath id="clip-path">
      <rect id="Rect치ngulo_405161" data-name="Rect치ngulo 405161" width="85" height="89" transform="translate(284.711 3617)" fill="#fff" stroke="#707070" stroke-width="1"/>
    </clipPath>
    <clipPath id="clip-path-2">
      <rect id="Rect치ngulo_405160" data-name="Rect치ngulo 405160" width="53.789" height="67.428" fill="#fdfbf9"/>
    </clipPath>
  </defs>
  <g id="Grupo_1109461" data-name="Grupo 1109461" transform="translate(-284.711 -3617)">
    <g id="Enmascarar_grupo_1098819" data-name="Enmascarar grupo 1098819" clip-path="url(#clip-path)">
      <g id="Grupo_1108739" data-name="Grupo 1108739" transform="translate(300.711 3628)">
        <g id="Grupo_1108738" data-name="Grupo 1108738" clip-path="url(#clip-path-2)">
          <path id="Trazado_998704" data-name="Trazado 998704" d="M32.915,90.393a12.179,12.179,0,0,0,7.1,3.044,1.206,1.206,0,0,0,.156-2.4c-10.272-1.348-8.749-11.227-7.295-17.5a76.208,76.208,0,0,0,7.81,4.1,1.2,1.2,0,0,0,1.639-.45l0,0c.637-1.174-.654-1.833-1.577-2.214-4.606-2.114-7.155-3.682-7.574-4.244a1.212,1.212,0,0,0-2.108.342C30.878,71.633,26.546,85.046,32.915,90.393Z" transform="translate(-17.708 -42.232)" fill="#fdfbf9"/>
          <path id="Trazado_998705" data-name="Trazado 998705" d="M59.226,86.6a13.8,13.8,0,0,0,3.511,7.272c.542.531,1.424.341,2.093.394,16.739-.248,12.783-17.33,11.134-22.52a1.212,1.212,0,0,0-2.113-.335c-.418.567-2.922,2.1-7.578,4.239C61.979,77.554,58.554,81.911,59.226,86.6Zm4.241-5.938c2.335-2.884,8.692-4.76,10.7-6.447,1.094,4.33,2.108,12.1-1.751,15.166-.1.11-2.515,2.576-7.93,2.468.146-7.64,7.2-10.3,7.5-10.409a1.2,1.2,0,0,0-.806-2.269c-.083.03-7.164,2.644-8.791,9.832A7.348,7.348,0,0,1,63.467,80.665Z" transform="translate(-35.556 -42.645)" fill="#fdfbf9"/>
          <path id="Trazado_998706" data-name="Trazado 998706" d="M53.768,22.769V6.61a3.784,3.784,0,0,0-3.78-3.779H28.066A3.778,3.778,0,0,0,25.2,4.144l-6.935,8.061c-.5.627-1.914.363-2.6.414V9.414A3.648,3.648,0,0,0,19.6,6.08c.008-.093.012-.185.012-.277V3.612A3.616,3.616,0,0,0,16,0H3.693A3.616,3.616,0,0,0,.081,3.612V5.8A3.648,3.648,0,0,0,3.753,9.427c.092,0,.184,0,.276-.012v3.205a3.8,3.8,0,0,0-4.023,3.57c0,.07-.006.14-.006.21.022,3.554,0,43.685,0,43.685A3.765,3.765,0,0,0,1.4,63.02l4.4,3.564a3.8,3.8,0,0,0,2.38.843H45.1a3.783,3.783,0,0,0,2.417-.875l4.891-4.071c1.717-1.259,1.34-3.773,1.363-5.613C53.785,56.857,53.764,22.783,53.768,22.769ZM14.11,2.408H16a1.206,1.206,0,0,1,1.2,1.2V5.8a1.206,1.206,0,0,1-1.2,1.2H14.11Zm-5.811,0h3.4v4.6H8.3ZM6.437,9.414h6.819v2.643H6.437ZM3.693,7.006a1.206,1.206,0,0,1-1.2-1.2V3.612a1.206,1.206,0,0,1,1.2-1.2h2.2v4.6c-.426.006-1.751,0-2.2,0m47.667,14.57H6.018a1.2,1.2,0,1,0,0,2.408H51.361V59.577a1.367,1.367,0,0,1-.495,1.054L45.973,64.7a1.37,1.37,0,0,1-.876.317H8.178a1.373,1.373,0,0,1-.863-.305l-4.4-3.564c-.8-.538-.433-2.151-.509-3.089H47.751a1.2,1.2,0,0,0,0-2.408H2.408V16.4A1.374,1.374,0,0,1,3.78,15.027h13.5a3.831,3.831,0,0,0,2.757-1.2l6.985-8.115a1.369,1.369,0,0,1,1.04-.477H49.988A1.374,1.374,0,0,1,51.361,6.61Z" transform="translate(0)" fill="#fdfbf9"/>
          <path id="Trazado_998707" data-name="Trazado 998707" d="M86.689,18.8H74.267A4.177,4.177,0,0,0,70.1,22.971v2.942A2.41,2.41,0,0,0,72.5,28.321h15.95a2.411,2.411,0,0,0,2.408-2.408V22.971A4.177,4.177,0,0,0,86.689,18.8M72.5,25.913V22.971a1.766,1.766,0,0,1,1.764-1.764H86.689a1.767,1.767,0,0,1,1.765,1.764v2.942Z" transform="translate(-42.141 -11.302)" fill="#fdfbf9"/>
        </g>
      </g>
    </g>
  </g>
</svg>
