<svg xmlns="http://www.w3.org/2000/svg" xmlns:xlink="http://www.w3.org/1999/xlink" width="101" height="116" viewBox="0 0 101 116">
  <defs>
    <clipPath id="clip-path">
      <rect id="Rectángulo_404967" data-name="Rectángulo 404967" width="98.789" height="98.789" transform="translate(0 0)" fill="none"/>
    </clipPath>
  </defs>
  <g id="Grupo_1109467" data-name="Grupo 1109467" transform="translate(7277 8648)">
    <g id="Grupo_1107172" data-name="Grupo 1107172">
      <circle id="Elipse_11970" data-name="Elipse 11970" cx="50.5" cy="50.5" r="50.5" transform="translate(-7277 -8633)" fill="#55cb5d"/>
      <g id="Grupo_1108203" data-name="Grupo 1108203" transform="translate(-7277 -8648)">
        <g id="Grupo_1108202" data-name="Grupo 1108202" clip-path="url(#clip-path)">
          <path id="Trazado_997344" data-name="Trazado 997344" d="M59.274,23.051V36.223a1.646,1.646,0,0,1-1.646,1.646H41.163a1.646,1.646,0,0,1-1.647-1.646V23.051a3.3,3.3,0,0,1,3.293-3.293H55.981a3.3,3.3,0,0,1,3.293,3.293" fill="#9e9e9e"/>
          <path id="Trazado_997345" data-name="Trazado 997345" d="M55.981,19.758H51.042a3.3,3.3,0,0,1,3.293,3.293V36.223a1.647,1.647,0,0,1-1.647,1.646h4.939a1.646,1.646,0,0,0,1.647-1.646V23.051a3.3,3.3,0,0,0-3.293-3.293" fill="#707070"/>
          <path id="Trazado_997346" data-name="Trazado 997346" d="M44.455,19.758V6.586a4.939,4.939,0,0,1,9.879,0V19.758Z" fill="#7a0000"/>
          <path id="Trazado_997347" data-name="Trazado 997347" d="M49.4,1.647a4.892,4.892,0,0,0-2.47.685A4.917,4.917,0,0,1,49.4,6.586V19.758h4.939V6.586A4.939,4.939,0,0,0,49.4,1.647" fill="#c81e1e"/>
          <path id="Trazado_997348" data-name="Trazado 997348" d="M67.506,54.334V93.85a3.3,3.3,0,0,1-3.293,3.293H34.576a3.3,3.3,0,0,1-3.293-3.293V54.334a9.879,9.879,0,0,1,9.879-9.879H57.627a9.879,9.879,0,0,1,9.879,9.879" fill="#f5f5f5"/>
          <path id="Trazado_997349" data-name="Trazado 997349" d="M57.627,44.455H52.688a9.878,9.878,0,0,1,9.878,9.879V93.85a3.3,3.3,0,0,1-3.293,3.293h4.94a3.3,3.3,0,0,0,3.293-3.293V54.334a9.879,9.879,0,0,0-9.879-9.879" fill="#cfd8dc"/>
          <rect id="Rectángulo_404965" data-name="Rectángulo 404965" width="16.465" height="6.586" transform="translate(41.162 37.869)" fill="#9e9e9e"/>
          <rect id="Rectángulo_404966" data-name="Rectángulo 404966" width="4.939" height="6.586" transform="translate(52.688 37.869)" fill="#707070"/>
          <path id="Trazado_997350" data-name="Trazado 997350" d="M13.172,90.557S8.183,91.38,5.6,88.812s-1.745-7.574-1.745-7.574,5-.823,7.574,1.745A6.857,6.857,0,0,1,13.172,86.9" fill="#a4c400"/>
          <path id="Trazado_997351" data-name="Trazado 997351" d="M11.428,82.983c-2.569-2.569-7.574-1.745-7.574-1.745s-.015.1-.034.268a6.061,6.061,0,0,1,2.669,1.482A6.856,6.856,0,0,1,8.232,86.9v3.373a12.793,12.793,0,0,0,4.94.282V86.9A6.859,6.859,0,0,0,11.428,82.983Z" fill="#90ac00"/>
          <path id="Trazado_997352" data-name="Trazado 997352" d="M14.92,82.983c-2.572,2.578-1.749,7.574-1.749,7.574s5,.823,7.574-1.747,1.746-7.574,1.746-7.574-5-.818-7.571,1.747" fill="#a4c400"/>
          <path id="Trazado_997353" data-name="Trazado 997353" d="M22.488,81.243a12.816,12.816,0,0,0-4.9.27c.127,1.064.436,5.079-1.782,7.3a6.067,6.067,0,0,1-2.665,1.482l.034.265s5,.823,7.574-1.747,1.742-7.567,1.742-7.567" fill="#90ac00"/>
          <path id="Trazado_997354" data-name="Trazado 997354" d="M49.4,90.557s-4.989.823-7.574-1.745-1.745-7.574-1.745-7.574,5.005-.823,7.574,1.745A6.857,6.857,0,0,1,49.4,86.9" fill="#a4c400"/>
          <path id="Trazado_997355" data-name="Trazado 997355" d="M47.651,82.983c-2.569-2.569-7.574-1.745-7.574-1.745s-.015.1-.034.268a6.061,6.061,0,0,1,2.669,1.482A6.856,6.856,0,0,1,44.455,86.9v3.373a12.793,12.793,0,0,0,4.94.282V86.9A6.859,6.859,0,0,0,47.651,82.983Z" fill="#90ac00"/>
          <path id="Trazado_997356" data-name="Trazado 997356" d="M51.143,82.983c-2.572,2.578-1.749,7.574-1.749,7.574s5,.823,7.574-1.747,1.746-7.574,1.746-7.574-5-.818-7.571,1.747" fill="#a4c400"/>
          <path id="Trazado_997357" data-name="Trazado 997357" d="M58.71,81.243a12.816,12.816,0,0,0-4.9.27c.127,1.064.436,5.079-1.782,7.3a6.067,6.067,0,0,1-2.665,1.482c.021.165.036.27.036.27s4.995.823,7.574-1.747S58.71,81.243,58.71,81.243Z" fill="#90ac00"/>
          <path id="Trazado_997358" data-name="Trazado 997358" d="M85.617,90.557s-4.989.823-7.574-1.745S76.3,81.238,76.3,81.238s5.005-.823,7.574,1.745A6.857,6.857,0,0,1,85.617,86.9" fill="#a4c400"/>
          <path id="Trazado_997359" data-name="Trazado 997359" d="M83.874,82.983c-2.569-2.569-7.574-1.745-7.574-1.745s-.015.1-.034.268a6.061,6.061,0,0,1,2.669,1.482A6.856,6.856,0,0,1,80.678,86.9v3.373a12.793,12.793,0,0,0,4.94.282V86.9A6.859,6.859,0,0,0,83.874,82.983Z" fill="#90ac00"/>
          <path id="Trazado_997360" data-name="Trazado 997360" d="M87.366,82.983c-2.572,2.578-1.749,7.574-1.749,7.574s5,.823,7.574-1.747,1.746-7.574,1.746-7.574-5-.818-7.571,1.747" fill="#a4c400"/>
          <path id="Trazado_997361" data-name="Trazado 997361" d="M94.933,81.243a12.816,12.816,0,0,0-4.9.27c.127,1.064.436,5.079-1.782,7.3a6.067,6.067,0,0,1-2.665,1.482c.021.165.036.27.036.27s4.995.823,7.574-1.747S94.933,81.243,94.933,81.243Z" fill="#90ac00"/>
          <path id="Trazado_997362" data-name="Trazado 997362" d="M57.627,64.605a8.242,8.242,0,0,1-16.465,0c0-3.151,4.36-9.56,6.734-12.816a1.875,1.875,0,0,1,3,0c2.374,3.256,6.734,9.665,6.734,12.816" fill="#02a9f4"/>
          <path id="Trazado_997363" data-name="Trazado 997363" d="M50.893,51.789a1.878,1.878,0,0,0-3,0c-.3.407-.625.864-.971,1.357,2.425,3.457,5.763,8.7,5.763,11.459a7.871,7.871,0,0,1-5.763,7.442,8.519,8.519,0,0,0,2.47.4,8.045,8.045,0,0,0,8.232-7.841c0-3.151-4.36-9.559-6.734-12.816" fill="#0377bc"/>
          <path id="Trazado_997364" data-name="Trazado 997364" d="M97.143,95.5H87.264V92.323h.165a9.827,9.827,0,0,0,6.915-2.352c3.128-3.129,2.246-8.761,2.206-9a1.647,1.647,0,0,0-1.357-1.357c-.238-.038-5.863-.928-9,2.208a6.636,6.636,0,0,0-.59.685,6.783,6.783,0,0,0-.574-.691c-3.129-3.129-8.765-2.246-9-2.207a1.648,1.648,0,0,0-1.359,1.359c-.039.237-.923,5.874,2.208,9.008a9.885,9.885,0,0,0,6.93,2.351h.165V95.5H68.85a4.894,4.894,0,0,0,.3-1.646V54.334A11.536,11.536,0,0,0,59.274,42.94V39.058a3.281,3.281,0,0,0,1.646-2.835V23.051a4.94,4.94,0,0,0-4.939-4.94V6.586a6.586,6.586,0,0,0-13.172,0V18.111a4.94,4.94,0,0,0-4.94,4.94V36.223a3.282,3.282,0,0,0,1.647,2.835V42.94a11.535,11.535,0,0,0-9.879,11.394V93.85a4.869,4.869,0,0,0,.3,1.646H14.818V92.323h.165A9.825,9.825,0,0,0,21.9,89.971c3.129-3.129,2.246-8.761,2.207-9a1.648,1.648,0,0,0-1.357-1.357c-.237-.038-5.865-.928-9,2.208a6.641,6.641,0,0,0-.576.688,6.665,6.665,0,0,0-.575-.691c-3.128-3.129-8.762-2.246-9-2.206a1.645,1.645,0,0,0-1.358,1.358c-.04.237-.924,5.875,2.208,9.008a9.886,9.886,0,0,0,6.917,2.348h.164V95.5H1.646a1.646,1.646,0,0,0,0,3.293h95.5a1.646,1.646,0,0,0,0-3.293ZM93.412,82.764a6.991,6.991,0,0,1-1.388,4.882,6.948,6.948,0,0,1-4.879,1.391,6.915,6.915,0,0,1,1.387-4.883,7.047,7.047,0,0,1,4.88-1.39m-14.2,4.883a7.012,7.012,0,0,1-1.386-4.888,7.027,7.027,0,0,1,4.887,1.388,5.054,5.054,0,0,1,1.248,2.837,15.069,15.069,0,0,0-.1,2.048A6.784,6.784,0,0,1,79.209,87.647ZM20.966,82.764a6.987,6.987,0,0,1-1.388,4.882A6.935,6.935,0,0,1,14.7,89.037a6.914,6.914,0,0,1,1.386-4.883,7.048,7.048,0,0,1,4.88-1.39m-14.2,4.883a7.012,7.012,0,0,1-1.387-4.888,7.014,7.014,0,0,1,4.887,1.388,5.047,5.047,0,0,1,1.248,2.837,15.067,15.067,0,0,0-.1,2.048A6.784,6.784,0,0,1,6.764,87.647ZM55.981,42.809H42.809V39.516H55.981ZM46.1,6.586a3.293,3.293,0,1,1,6.586,0V18.111H46.1Zm-4.94,16.465A1.647,1.647,0,0,1,42.809,21.4H55.981a1.646,1.646,0,0,1,1.646,1.647V36.223H41.162ZM51.041,95.5V92.323h.165a9.825,9.825,0,0,0,6.915-2.352c3.128-3.129,2.246-8.761,2.206-9a1.646,1.646,0,0,0-1.356-1.357c-.237-.038-5.863-.928-9,2.208a6.506,6.506,0,0,0-.589.685,6.927,6.927,0,0,0-.575-.691c-3.128-3.129-8.763-2.246-9-2.207a1.647,1.647,0,0,0-1.358,1.359c-.04.237-.924,5.874,2.207,9.008a9.887,9.887,0,0,0,6.931,2.351h.164V95.5H34.576A1.646,1.646,0,0,1,32.93,93.85V54.334A8.242,8.242,0,0,1,41.162,46.1H57.627a8.242,8.242,0,0,1,8.233,8.232V93.85A1.647,1.647,0,0,1,64.213,95.5Zm-.12-6.459a6.914,6.914,0,0,1,1.386-4.883,7.049,7.049,0,0,1,4.881-1.39A7,7,0,0,1,55.8,87.646a6.955,6.955,0,0,1-4.877,1.391Zm-3.293,0a6.784,6.784,0,0,1-4.645-1.385A7.007,7.007,0,0,1,41.6,82.764a7.027,7.027,0,0,1,4.887,1.388,5.054,5.054,0,0,1,1.248,2.837,15.155,15.155,0,0,0-.1,2.043Z"/>
          <path id="Trazado_997365" data-name="Trazado 997365" d="M49.4,49.4a3.507,3.507,0,0,0-2.83,1.424c-4.678,6.418-7.049,11.056-7.049,13.786a9.879,9.879,0,0,0,19.758,0c0-2.73-2.371-7.368-7.05-13.786A3.5,3.5,0,0,0,49.4,49.4Zm0,21.4a6.407,6.407,0,0,1-6.586-6.194c0-1.875,2.458-6.421,6.421-11.847a.214.214,0,0,1,.165-.07.211.211,0,0,1,.165.07c3.951,5.434,6.421,9.972,6.421,11.855A6.406,6.406,0,0,1,49.4,70.8"/>
        </g>
      </g>
    </g>
  </g>
</svg>
