<svg xmlns="http://www.w3.org/2000/svg" xmlns:xlink="http://www.w3.org/1999/xlink" width="206.256" height="201.571" viewBox="0 0 206.256 201.571">
  <defs>
    <clipPath id="clip-path">
      <rect x="15" width="206.256" height="201.571" fill="none"/>
    </clipPath>
    <clipPath id="clip-path-2">
      <rect id="Rect치ngulo_405164" data-name="Rect치ngulo 405164" width="221.256" height="255.571" fill="none"/>
    </clipPath>
    <clipPath id="clip-path-4">
      <path id="Trazado_998814" data-name="Trazado 998814" d="M119.886,0a99.641,99.641,0,1,0,99.641,99.64A99.641,99.641,0,0,0,119.886,0Z" transform="translate(-20.245 0)" fill="none"/>
    </clipPath>
    <clipPath id="clip-path-5">
      <rect id="Rect치ngulo_405163" data-name="Rect치ngulo 405163" width="159.985" height="77.823" fill="none"/>
    </clipPath>
  </defs>
  <g id="Grupo_de_desplazamiento_2" data-name="Grupo de desplazamiento 2" transform="translate(-15)" clip-path="url(#clip-path)" style="isolation: isolate">
    <g id="Grupo_1108748" data-name="Grupo 1108748">
      <g id="Grupo_1108747" data-name="Grupo 1108747" clip-path="url(#clip-path-2)">
        <g id="Grupo_1108741" data-name="Grupo 1108741">
          <g id="Grupo_1108740" data-name="Grupo 1108740" clip-path="url(#clip-path-2)">
            <path id="Trazado_998708" data-name="Trazado 998708" d="M219.527,99.641A99.641,99.641,0,1,1,119.887,0a99.641,99.641,0,0,1,99.641,99.641" transform="translate(-2.743)" fill="#b9ce61"/>
          </g>
        </g>
        <g id="Grupo_1108746" data-name="Grupo 1108746" transform="translate(17.502 0)">
          <g id="Grupo_1108745" data-name="Grupo 1108745" clip-path="url(#clip-path-4)">
            <path id="Trazado_998709" data-name="Trazado 998709" d="M145.855,260.217S168.911,99.617,228,68.258c0,0,1.043-6.957-.806-12.134,0,0-96.131,25.512-119.424,190.412,0,0,4.836,12.375,21.644,13.213Z" transform="translate(-32.102 -7.603)" fill="#1f4418"/>
            <path id="Trazado_998710" data-name="Trazado 998710" d="M196.095,103.509a6.7,6.7,0,0,1-1.207-1.448c0-.061-.241.061-.3,0a3.549,3.549,0,0,1-.422-1.509c-.182-.543-.905-.784-1.328-1.146-.724-.724-1.207-1.509-1.93-2.172a9.458,9.458,0,0,1-1.146-2.173,11.548,11.548,0,0,0-3.2-3.2c-.3-.181-.483-.664-.845-.845-.9-.542-1.773-1.017-2.584-1.6-20.6,19.1-43.706,50.122-59.435,99.731a69.829,69.829,0,0,1,6.146,4.263c.9.724,1.388,1.75,2.352,2.474,2.655,1.93,4.646,4.043,7.3,5.973.785.543,1.509.966,2.233,1.509.663.6,1.207,1.207,1.87,1.81.966.845,1.991,1.448,2.9,2.293,2.233,2.112,4.465,3.922,6.939,5.973,1.363,1.154,2.658,2.285,3.885,3.487,7.847-33.769,20.946-78.477,40.366-110.167a11.428,11.428,0,0,0-1.592-2.893c-.061-.121.061-.3,0-.362" transform="translate(-34.26 -12.113)" fill="#173011"/>
            <path id="Trazado_998711" data-name="Trazado 998711" d="M230.8,64.25s-94.252,50.828-98.889,196.6l-5.746-.641S123.943,132.65,230.8,64.25" transform="translate(-34.593 -8.704)" fill="#306625"/>
            <path id="Trazado_998712" data-name="Trazado 998712" d="M213.288,127.265s-19.6,31.427-36.233,142.717l5.176-.37s11.114-90.886,35.32-141.574c0,0-.2-5.21-4.263-.773" transform="translate(-41.488 -16.998)" fill="#2c5615"/>
            <path id="Trazado_998713" data-name="Trazado 998713" d="M213.771,127.265s-17.274,27.7-33.156,123.2a3.248,3.248,0,0,1,.623.69c.061.121-.061.241,0,.362a.609.609,0,0,0,.724.361c-.241,1.087,1.207,1.388,1.388,2.233a2.526,2.526,0,0,0,.845,1.448c.061.061-.061.241,0,.362a3.264,3.264,0,0,0,.381.361c4.076-27.126,14.933-89.456,33.457-128.245,0,0-.2-5.21-4.263-.773" transform="translate(-41.97 -16.998)" fill="#1c330d"/>
            <path id="Trazado_998714" data-name="Trazado 998714" d="M215.891,124.014l-.348-.125a12.978,12.978,0,0,1-7.8-16.557l16.087-44.72a12.979,12.979,0,0,1,16.558-7.8l.348.125a12.978,12.978,0,0,1,7.8,16.557l-16.087,44.72a12.979,12.979,0,0,1-16.557,7.8" transform="translate(-45.543 -7.323)" fill="#664110"/>
            <path id="Trazado_998715" data-name="Trazado 998715" d="M247.264,60.542a7.5,7.5,0,0,0-.343.84c-.272.738-.935,1.3-1.19,1.983-3.971,13.111-7.462,26.295-11.317,39.438a4.6,4.6,0,0,1-.6,1.02c-.124.216-.073.482-.2.7s-.422.382-.546.6a9.707,9.707,0,0,1-.569,1.784,42.238,42.238,0,0,1-3.356,4.755,7.722,7.722,0,0,1-1.05,1.27c-.016.058-.216-.124-.233-.066-.182.2-.131.464-.255.68-.108.158-.356.15-.522.291-.422.382-.629.888-1.133,1.121a32.472,32.472,0,0,0-6.367,3.649c-.879-.437-1.773.061-2.709.047-.191.009-.322.473-.514.482-2.327.288-4.576.439-6.833.65a12.849,12.849,0,0,0,6.362,4.987l.348.125a12.979,12.979,0,0,0,16.558-7.8l16.087-44.72a12.946,12.946,0,0,0-1.615-11.835" transform="translate(-45.886 -8.202)" fill="#4c2f0c"/>
            <path id="Trazado_998716" data-name="Trazado 998716" d="M235.453,63.116A1.479,1.479,0,1,0,237.28,62.1a1.479,1.479,0,0,0-1.827,1.019" transform="translate(-49.391 -8.405)" fill="#995f19"/>
            <path id="Trazado_998717" data-name="Trazado 998717" d="M230.889,71.442a.924.924,0,1,0,1.141-.637.924.924,0,0,0-1.141.637" transform="translate(-48.776 -9.587)" fill="#995f19"/>
            <path id="Trazado_998718" data-name="Trazado 998718" d="M240.824,75.595a.924.924,0,1,0,1.141-.637.924.924,0,0,0-1.141.637" transform="translate(-50.122 -10.15)" fill="#995f19"/>
            <path id="Trazado_998719" data-name="Trazado 998719" d="M232.553,84.278a1.664,1.664,0,1,0,2.055-1.146,1.665,1.665,0,0,0-2.055,1.146" transform="translate(-48.997 -11.253)" fill="#995f19"/>
            <path id="Trazado_998720" data-name="Trazado 998720" d="M225.221,89.8a1.294,1.294,0,1,0,1.6-.891,1.294,1.294,0,0,0-1.6.891" transform="translate(-48.006 -12.037)" fill="#995f19"/>
            <path id="Trazado_998721" data-name="Trazado 998721" d="M231.416,102.509a.74.74,0,1,0,.913-.509.739.739,0,0,0-.913.509" transform="translate(-48.848 -13.814)" fill="#995f19"/>
            <path id="Trazado_998722" data-name="Trazado 998722" d="M217.91,104.7a.554.554,0,1,0,.685-.382.554.554,0,0,0-.685.382" transform="translate(-47.019 -14.129)" fill="#995f19"/>
            <path id="Trazado_998723" data-name="Trazado 998723" d="M48.326,107.408,71.619,202.06l5.916,5.546L52.024,104.451Z" transform="translate(-24.049 -14.15)" fill="#2c5615"/>
            <path id="Trazado_998724" data-name="Trazado 998724" d="M69.243,174.078,52.024,104.45l-3.7,2.958,16.136,65.57a22.111,22.111,0,0,1,3.883.869c.288.085.59.155.9.23" transform="translate(-24.049 -14.15)" fill="#1c330d"/>
            <path id="Trazado_998725" data-name="Trazado 998725" d="M18.39,39.008,30.961,84.855s4.067,18.856,11.092,18.486,19.6,0,12.2-28.839S43.531,40.117,43.531,40.117,21.718,38.638,18.39,39.008" transform="translate(-19.994 -5.276)" fill="#664110"/>
            <path id="Trazado_998726" data-name="Trazado 998726" d="M56.722,74.641C49.326,45.8,46,40.256,46,40.256s-1.82-.124-4.489-.29a5.97,5.97,0,0,0,.387,2.479c.241.6,0,1.207.361,1.931.181.362-.061,1.026.12,1.388.182.422.545.724.6,1.146.122.845,0,1.75.122,2.594,0,.241.241.482.241.724a5.168,5.168,0,0,0,.422,1.509c.06.241-.061.482,0,.724.12.422.544.724.6,1.086a6.986,6.986,0,0,1,.421,1.87c-.061,2.353,1.026,4.224,1.872,6.336.181.422.241.965.421,1.448.061.12.3.241.362.361.061.242-.061.544.061.724.6,1.207.905,2.473,1.449,3.68.061.121.3.242.362.362.06.241-.061.6.06.724.361.361.241.724.3,1.146.061.12.3.241.3.361.182,1.026.121,1.931.3,2.957a33.44,33.44,0,0,1,0,8.508c-.059.664-.6,1.267-.845,1.93a20.007,20.007,0,0,1-1.267,2.9c0,.061-.241-.06-.3,0s.06.3,0,.362c-.484.483-1.207.905-1.389,1.509-.181.423-.6.664-.844,1.086-.061.121,0,.241,0,.362-.544-.181-.724.482-1.146.724-.061.06.061.3,0,.361s-.241-.06-.363,0c-.3.242-.482.664-.724.724a22.573,22.573,0,0,0-2.956,1.509c-.242.06-.544-.061-.724.06a5.154,5.154,0,0,1-1.146.664c-.12.121-.241.3-.361.3a8.1,8.1,0,0,0-1.615.491c1.885,4.444,4.564,8.648,7.917,8.472,7.025-.37,19.6,0,12.2-28.839" transform="translate(-22.461 -5.414)" fill="#4c2f0c"/>
            <path id="Trazado_998727" data-name="Trazado 998727" d="M36.253,183.728s-5.546-65.442-17.008-97.24c0,0,19.6,15.529,38.822,106.484,0,0-13.679-7.025-21.814-9.244" transform="translate(-20.11 -11.716)" fill="#1f4418"/>
            <path id="Trazado_998728" data-name="Trazado 998728" d="M27.371,103.168s16.268,52.871,18.486,85.408l3.328,2.218s-9.613-59.157-21.814-87.626" transform="translate(-21.21 -13.976)" fill="#306625"/>
            <path id="Trazado_998729" data-name="Trazado 998729" d="M175.978,260.1S112.384,92.976,51.748,41.583L80.217,43.8s116.835,101.677,137.91,206.681c0,0-1.109,9.243-17.747,10.722Z" transform="translate(-24.513 -5.633)" fill="#165917"/>
            <path id="Trazado_998730" data-name="Trazado 998730" d="M102.872,65.064q-5.871-.005-11.727.089c-.361,0-.784.241-1.146.241-1.206.121-2.413-.12-3.68.121-2.112.422-3.862,1.509-5.913,2.052-.979.27-1.863.6-2.738.916,32.493,40.7,63.468,104.849,82.541,148.312.637.211,1.266.431,1.9.651.543.182.965.543,1.509.724,3.5,1.086,6.7,2.534,10.016,3.922a14,14,0,0,0,4.767,1.328,7.3,7.3,0,0,1,2.232.663c.362.182.724.543,1.086.724,2.9,1.146,5.672,2.473,8.568,3.62a51.12,51.12,0,0,1,7.361,3.017c1.025.543,2.232.724,3.318,1.207.3.121.423.482.724.6.482.241,1.025.241,1.448.482,2.473,1.448,5.189,1.931,7.723,3.017a5.841,5.841,0,0,1,1.871,1.086c.664.482,1.146,1.146,1.871,1.328a12.287,12.287,0,0,1,4.03,1.786C198.544,167.179,135.076,97.038,102.872,65.064" transform="translate(-28.024 -8.814)" fill="#0e350e"/>
            <path id="Trazado_998731" data-name="Trazado 998731" d="M68.854,42.866S170.532,148.239,199.739,261.008h6.655S175.337,150.089,68.854,42.866" transform="translate(-26.83 -5.807)" fill="#1f751f"/>
            <path id="Trazado_998732" data-name="Trazado 998732" d="M0,116s63.224-.739,102.416,12.94S208.529,179.96,208.529,179.96l4.437,63.594S144.2,206.212,108.332,187.725,2.218,151.491,2.218,151.491Z" transform="translate(-17.502 -15.713)" fill="#24720f"/>
            <path id="Trazado_998733" data-name="Trazado 998733" d="M1.653,135.264s114.617,8.134,208.9,78.753l-.739-9.243s-71.358-56.2-208.529-72.1Z" transform="translate(-17.676 -17.973)" fill="#4c961d"/>
            <g id="Grupo_1108744" data-name="Grupo 1108744" transform="translate(8.507 103.063)" opacity="0.55">
              <g id="Grupo_1108743" data-name="Grupo 1108743">
                <g id="Grupo_1108742" data-name="Grupo 1108742" clip-path="url(#clip-path-5)">
                  <path id="Trazado_998734" data-name="Trazado 998734" d="M53.989,119.391s-1.109-1.479-7.764,4.067S33.654,129.744,30.7,133.81s5.916,5.546,3.328,8.874,2.588,7.764,7.394,6.655,22.924-9.244,22.554-4.067-2.958,6.655-4.067,10.722-.37,12.571,12.94,11.831,14.05-9.983,28.839-4.806,20.336,6.655,27.361,17.007,24.4,17.008,28.1,17.008,8.134-7.764,4.068-11.831-7.4-10.723-4.807-11.092-2.218-5.916,7.764-4.068,28.839,4.068,25.511-1.109c0,0-45.3-25.182-78.311-37.116-33.348-12.058-57.381-12.428-57.381-12.428" transform="translate(-30.085 -119.212)" fill="#18440a"/>
                </g>
              </g>
            </g>
            <path id="Trazado_998735" data-name="Trazado 998735" d="M35.671,16.927a1.187,1.187,0,1,0,1.187-1.187,1.187,1.187,0,0,0-1.187,1.187" transform="translate(-22.335 -2.132)" fill="#995f19"/>
            <path id="Trazado_998736" data-name="Trazado 998736" d="M30.569,23.545A1.527,1.527,0,1,0,32.1,22.018a1.527,1.527,0,0,0-1.527,1.527" transform="translate(-21.644 -2.983)" fill="#995f19"/>
            <path id="Trazado_998737" data-name="Trazado 998737" d="M34.886,30.661a1.187,1.187,0,1,0,1.187-1.187,1.187,1.187,0,0,0-1.187,1.187" transform="translate(-22.228 -3.993)" fill="#995f19"/>
            <path id="Trazado_998738" data-name="Trazado 998738" d="M41.949,24.828a.848.848,0,1,0,.848-.848.848.848,0,0,0-.848.848" transform="translate(-23.185 -3.249)" fill="#995f19"/>
            <path id="Trazado_998739" data-name="Trazado 998739" d="M44.3,35.762a1.187,1.187,0,1,0,1.187-1.187A1.187,1.187,0,0,0,44.3,35.762" transform="translate(-23.504 -4.684)" fill="#995f19"/>
            <path id="Trazado_998740" data-name="Trazado 998740" d="M37.24,42.656a1.018,1.018,0,1,0,1.018-1.018,1.018,1.018,0,0,0-1.018,1.018" transform="translate(-22.547 -5.641)" fill="#995f19"/>
            <path id="Trazado_998741" data-name="Trazado 998741" d="M48.453,94.259s-6.353-7.375-7.7-9.406a4.893,4.893,0,0,0,.689-4.126,24.278,24.278,0,0,0-1.413-3.907s-.673-.6-.079,1.126,1.183,5.182.131,5.479c0,0-1.712-4.133-2.46-4.586s0,.976.144,1.8a19.356,19.356,0,0,0,1.49,3.232s0,1.351-1.875-.156-3.067-2.637-3.22-2.187c0,0,2.835,4.888,5.541,3.771l7.846,9.707Z" transform="translate(-22.13 -10.393)" fill="#15110a"/>
            <path id="Trazado_998742" data-name="Trazado 998742" d="M49.325,95.522s-6.353-7.375-7.7-9.406c0,0,.021-.027.055-.078a11.621,11.621,0,0,0-1.084.553l7.822,9.678Z" transform="translate(-23.002 -11.655)" fill="#5c492c"/>
            <path id="Trazado_998743" data-name="Trazado 998743" d="M52.228,97.768a11.089,11.089,0,0,0-2.172-1.283c-.375,0-1.579.67.215,2.777Z" transform="translate(-24.183 -13.071)" fill="#131a13"/>
            <path id="Trazado_998744" data-name="Trazado 998744" d="M145.934,130.885a8.947,8.947,0,0,1,4.949,1.787c2.862,1.905,7.294,3.144,9.486,1.462s1.419-4.476.968-4.751a9.035,9.035,0,0,0-6.409-.666c-3.656.785-7.4-1.2-7.4-1.2a2.926,2.926,0,0,0-2.911,1.086c-1.078,1.51,1.319,2.278,1.319,2.278" transform="translate(-37.055 -17.268)" fill="#fff"/>
            <path id="Trazado_998745" data-name="Trazado 998745" d="M157.532,135.162a13.376,13.376,0,0,1-6.858-2.291,8.8,8.8,0,0,0-4.771-1.738.241.241,0,0,1-.105-.014c-.058-.018-1.425-.466-1.737-1.407a1.433,1.433,0,0,1,.269-1.322,3.194,3.194,0,0,1,3.216-1.2.322.322,0,0,1,.072.026c.037.02,3.7,1.922,7.2,1.169a9.3,9.3,0,0,1,6.623.7,2.439,2.439,0,0,1,.641,1.757,4.017,4.017,0,0,1-1.585,3.48,4.8,4.8,0,0,1-2.968.839m-11.553-4.617A9.557,9.557,0,0,1,151,132.381c2.913,1.939,7.13,3.02,9.143,1.475A3.391,3.391,0,0,0,161.5,131.1a2.56,2.56,0,0,0-.371-1.517,8.7,8.7,0,0,0-6.189-.627,12.567,12.567,0,0,1-7.562-1.2,2.592,2.592,0,0,0-2.573.977.866.866,0,0,0-.189.795c.173.524.966.9,1.312,1.018h.048" transform="translate(-37.009 -17.221)" fill="#231f20"/>
            <path id="Trazado_998746" data-name="Trazado 998746" d="M162.333,135.963s.254-.542,2.414,4.032,6.719,12.319,9.807,14.362,4.214.33,4.718-.368.28-3.624-2.83-5.759-6.5-8.237-8.837-11.135-3.476-4.45-4.541-4.481-3.411,1.4-.731,3.348" transform="translate(-39.326 -17.965)" fill="#3b3a2e"/>
            <path id="Trazado_998747" data-name="Trazado 998747" d="M180.036,157.695s4.76,5.389,5.734,5.443,3.327-2.148,2.243-2.656A80.412,80.412,0,0,1,181.6,155.4s-2.515-.067-1.56,2.3" transform="translate(-41.862 -21.051)" fill="#4d4c3d"/>
            <path id="Trazado_998748" data-name="Trazado 998748" d="M188.034,164.16s-1.484-1.373-.889-2.093,2.314-.366,4.028.759,8.071,5.168,8.071,5.168-.386,2.785-2.826,1.835-5.209-3.262-8.384-5.669" transform="translate(-42.836 -21.904)" fill="#646250"/>
            <path id="Trazado_998749" data-name="Trazado 998749" d="M199.751,169.18s3.7-.218,6.036,1.91,2.711,6.46,2.773,7.118-1.7-3.052-2.89-4.014a8.527,8.527,0,0,1,.246,3.017s-1.033-3.885-4.065-4.5-3.6-2.977-2.1-3.531" transform="translate(-44.454 -22.918)" fill="#787460"/>
            <path id="Trazado_998750" data-name="Trazado 998750" d="M121.006,136.845a9.579,9.579,0,0,1,4.692,3.117c2.492,2.71,6.787,5.126,9.493,3.934s2.615-4.293,2.217-4.7a9.67,9.67,0,0,0-6.5-2.323c-4-.113-7.393-3.127-7.393-3.127a3.132,3.132,0,0,0-3.3.389c-1.505,1.3.791,2.7.791,2.7" transform="translate(-33.718 -18.077)" fill="#2b2b22"/>
            <path id="Trazado_998751" data-name="Trazado 998751" d="M136.781,146.281s.4-.5,1.484,4.808,3.853,14.522,6.545,17.432,4.3,1.415,5,.817,1.214-3.7-1.477-6.709-4.668-10.221-6.357-13.829-2.482-5.511-3.582-5.816-3.9.587-1.612,3.3" transform="translate(-35.913 -19.362)" fill="#3b3a2e"/>
            <path id="Trazado_998752" data-name="Trazado 998752" d="M71.049,104.569c-.028,2.373,4.145,2.707,6.826,2.761,2.215.046,8.054-.783,7.184-3.546s-13.983-1.588-14.011.785" transform="translate(-27.127 -13.843)" fill="#fff"/>
            <path id="Trazado_998753" data-name="Trazado 998753" d="M77.965,107.58l-.143,0c-1.768-.036-7.148-.146-7.113-3.059.017-1.5,3.525-2.175,5.032-2.4,3.35-.5,8.909-.518,9.552,1.528a1.862,1.862,0,0,1-.29,1.761c-1.244,1.66-5.245,2.175-7.038,2.169m1.621-5.146a25.537,25.537,0,0,0-3.759.27c-3.1.457-4.524,1.266-4.53,1.822-.018,1.546,2.181,2.375,6.538,2.464,1.805.047,5.618-.492,6.7-1.931a1.287,1.287,0,0,0,.2-1.234c-.295-.935-2.53-1.382-5.147-1.391M71,104.523h0Z" transform="translate(-27.081 -13.797)" fill="#231f20"/>
            <path id="Trazado_998754" data-name="Trazado 998754" d="M69.653,104.448s-10.5,7.163-14.358,16.231c0,0-2.188,4.483,1.12,5.709s6.015-7.049,6.015-7.049a10.53,10.53,0,0,0,.128,3.3s2.058-5.482,2.955-7.157c0,0-.262,2.133.324,2.734s.8-7.348,7.3-11.686c0,0,1.388-1.028.475-2.059s-2.888-.6-3.963-.022" transform="translate(-24.897 -14.068)" fill="#3b3a2e"/>
            <path id="Trazado_998755" data-name="Trazado 998755" d="M54.917,126.735s-6.113,3.2-7.005,4.4,1.014,2.575,1.014,2.575,2.9,1.481,4.64-1.014,3.326-4.328,3.326-4.328.644-2.318-1.975-1.637" transform="translate(-23.961 -17.152)" fill="#4d4c3d"/>
            <path id="Trazado_998756" data-name="Trazado 998756" d="M47.767,132.748s-7.119,4.046-5.836,12.035c0,0,1.258-4.091,2.313-5.076a6.881,6.881,0,0,0,1.216,3.6s-.2-3.563.6-4.716a31.782,31.782,0,0,1,4.34-3.817,1.388,1.388,0,0,0,.028-2.373c-.888-.769-2.662.348-2.662.348" transform="translate(-23.162 -17.899)" fill="#646250"/>
            <path id="Trazado_998757" data-name="Trazado 998757" d="M186.983,133.211s-1.322,6.1-4.226,6.889-5.9,1.568-8.195,1.06l3.613-7.179Z" transform="translate(-41.15 -18.046)" fill="#060609"/>
            <path id="Trazado_998758" data-name="Trazado 998758" d="M175.99,133.729s-2.126,7.3-5.131,8.388-12.508.257-13.906-.748c0,0,3.821-5.39,4.935-9.289Z" transform="translate(-38.765 -17.893)" fill="#181e16"/>
            <path id="Trazado_998759" data-name="Trazado 998759" d="M143.666,127.809s-3.437,10.495-5.741,11.286-8.108.873-12.9-3.445c0,0,4.423-6.188,5.345-12.589Z" transform="translate(-34.44 -16.671)" fill="#181e16"/>
            <path id="Trazado_998760" data-name="Trazado 998760" d="M159.662,131.6s-2.434,9.6-6.738,10.182-11.7-1.14-12.4-2.443a53.023,53.023,0,0,0,5.24-10.788Z" transform="translate(-36.539 -17.415)" fill="#060609"/>
            <path id="Trazado_998761" data-name="Trazado 998761" d="M105.054,121.93a26.894,26.894,0,0,0,8.271,9.833c5.889,4.323,9.9,2.236,10.6.937s4.538-10.19,3.741-11.293c0,0-13.985-6.752-17.273-10.565,0,0,.386,7.693-5.341,11.088" transform="translate(-31.734 -15.016)" fill="#060609"/>
            <path id="Trazado_998762" data-name="Trazado 998762" d="M202.172,128.288s-5.572,9.374-16.781,10.136c0,0,2.007-1.694,3.059-5.88a85.725,85.725,0,0,0,13.722-4.256" transform="translate(-42.617 -17.379)" fill="#181e16"/>
            <path id="Trazado_998763" data-name="Trazado 998763" d="M137.822,72.667s31.427,8.274,48.392,21.239c0,0,5.287,4.42,7.369,10.131s2.144,16.717,2.144,16.717-5.054-14.125-6.551-15.13-44.65-22.065-44.65-22.065Z" transform="translate(-36.173 -9.844)" fill="#431b0d"/>
            <path id="Trazado_998764" data-name="Trazado 998764" d="M150.563,81.29c.367-2.159,2.053-2.769,3.846-3.322-9.377-3.4-16.587-5.3-16.587-5.3l6.7,10.891s2.614,1.275,6.576,3.213a7.988,7.988,0,0,1-.539-5.481" transform="translate(-36.173 -9.844)" fill="#2f160f"/>
            <path id="Trazado_998765" data-name="Trazado 998765" d="M200.245,107.5a26.556,26.556,0,0,0-6.41-9.252c.836,1.683,1.8,3.2.361,4.266a18.6,18.6,0,0,1-7.2,2.089c4.9,2.433,8.43,4.208,8.839,4.483,1.5,1.006,6.552,15.131,6.552,15.131s-.062-11.006-2.144-16.717" transform="translate(-42.835 -13.31)" fill="#2f160f"/>
            <path id="Trazado_998766" data-name="Trazado 998766" d="M50.523,99.006s-4.955.584-4.3,6.289c0,0,.823.679,2.031-1.419a32.5,32.5,0,0,0,2.268-4.87" transform="translate(-23.756 -13.412)" fill="#15110a"/>
            <path id="Trazado_998767" data-name="Trazado 998767" d="M55.946,96.248s-4.055.661-5.939,3.357-2.341,4.344.351,7.055,6.437,4.675,9.015-2.971a12.312,12.312,0,0,0-3.427-7.441" transform="translate(-24.068 -13.039)" fill="#283825"/>
            <path id="Trazado_998768" data-name="Trazado 998768" d="M56.273,94.842s-2.1-1.057-.061-3.978,7.081-8.08,10.459-8.293,3.295,1.962,3.666,3.239,1.529,2.8,4.375,4.381,4.1,10.7-2.26,13.487c-7.5,3.29-12.307.258-13.94-5.225a6.753,6.753,0,0,0-2.239-3.609" transform="translate(-24.997 -11.184)" fill="#284930"/>
            <path id="Trazado_998769" data-name="Trazado 998769" d="M55.882,93.8c-.167,0-.236-.194-.239-.491-.986,2.177.631,2.994.631,2.994a6.748,6.748,0,0,1,2.238,3.609,9.08,9.08,0,0,0,2.434,4.01c-1.473-3.645-.971-8.287-5.064-10.122" transform="translate(-24.997 -12.64)" fill="#4a8256"/>
            <path id="Trazado_998770" data-name="Trazado 998770" d="M75.715,90.371c-2.846-1.586-4-3.1-4.375-4.38a8.171,8.171,0,0,0-.654-2.089c-.986,1.9-6.23,2.607-7.911,5.111-.253,1.05.57,1.578,1.758,1.77,3.786.433,8.181-1.238,11.659-.063a2.573,2.573,0,0,0-.476-.349" transform="translate(-26 -11.366)" fill="#4a8256"/>
            <path id="Trazado_998771" data-name="Trazado 998771" d="M64.224,98.645a5.928,5.928,0,1,0,5.949-5.908,5.928,5.928,0,0,0-5.949,5.908" transform="translate(-26.203 -12.563)" fill="#eaeae9"/>
            <path id="Trazado_998772" data-name="Trazado 998772" d="M73.293,93.414c2.569,2.671,3.014,6.867.52,9.343a6.137,6.137,0,0,1-5.266,1.505,5.924,5.924,0,0,0,4.745-10.848" transform="translate(-26.789 -12.655)" fill="#c6c5c5"/>
            <path id="Trazado_998773" data-name="Trazado 998773" d="M65.182,98.008a3.64,3.64,0,1,0,3.652-3.627,3.64,3.64,0,0,0-3.652,3.627" transform="translate(-26.333 -12.786)" fill="#231f20"/>
            <path id="Trazado_998774" data-name="Trazado 998774" d="M66.923,96.963a1.2,1.2,0,1,0,1.205-1.2,1.2,1.2,0,0,0-1.205,1.2" transform="translate(-26.568 -12.973)" fill="#fff"/>
            <path id="Trazado_998775" data-name="Trazado 998775" d="M57.419,109.183a7.8,7.8,0,0,0-1.522,6.149s.3,1.051.821,1.053.679-.973,1.587-3.3,1.66-2.471,1.66-2.471a2.516,2.516,0,0,1-2.547-1.434" transform="translate(-25.055 -14.791)" fill="#15110a"/>
            <path id="Trazado_998776" data-name="Trazado 998776" d="M48.924,106.116s-1.668,5.022.731,5.931,4.733-1.635,4.733-1.635a8.684,8.684,0,0,1-5.464-4.3" transform="translate(-24.054 -14.375)" fill="#060609"/>
            <path id="Trazado_998777" data-name="Trazado 998777" d="M61.844,109.728s6.15.846,8.471,2.655,10.337,5.588,12.093-3.26c0,0-5.175-.593-7.329-3.765,0,0-5.882,4.62-11.65,1.524a5.655,5.655,0,0,1-1.586,2.846" transform="translate(-25.88 -14.273)" fill="#060609"/>
            <path id="Trazado_998778" data-name="Trazado 998778" d="M72.088,82.3a7.529,7.529,0,0,1,2.344-5.095,30.909,30.909,0,0,1,19.914-8.262c11.708-.635,16.047,3.507,16.047,3.507s2.213,3.935,3.259,5.44c0,0-2.993,4.467-3,6.268,0,0-6.164,3.281-6.059,16.339,0,0-4.448,5.988-10.374,5.217s-6.669-2.949-10.425-1.536c0,0-5.706.656-7.342-3.551,0,0,3.762-2.99,2.132-8.923-1.535-5.584-5.1-1.819-6.5-9.4" transform="translate(-27.268 -9.331)" fill="#3a5e35"/>
            <path id="Trazado_998779" data-name="Trazado 998779" d="M99.286,96.646c-2.952,3.517-10.716,2.878-16.1-3.545C78.5,87.8,75,88.671,72.292,83.034c0,0-.01-.033-.025-.091a7.687,7.687,0,0,0-.179,1.266c1.4,7.585,4.962,3.819,6.5,9.4,1.631,5.934-2.131,8.923-2.131,8.923,1.637,4.208,7.342,3.551,7.342,3.551,3.918-.724,4.5.766,10.426,1.536s10.374-5.217,10.374-5.217c-.071-8.673,2.625-13.029,4.443-14.98-4.017,2.116-6.532,6.023-9.751,9.221" transform="translate(-27.268 -11.236)" fill="#20331d"/>
            <path id="Trazado_998780" data-name="Trazado 998780" d="M83.269,113.331s4.924,8.572,14.528,8.9,9.946-11.6,9.946-11.6a11.214,11.214,0,0,1-1.634-5.184s-4.445,5.527-9.248,5.222c-6.227-.4-7.419-2.952-11.851-1.541,0,0,.444,2.027-1.74,4.2" transform="translate(-28.783 -14.286)" fill="#181e16"/>
            <path id="Trazado_998781" data-name="Trazado 998781" d="M116.4,72.613s12.786-8.287,25.122,4.963l-1.367,4.573a29.538,29.538,0,0,1-23.5,2.172,18.253,18.253,0,0,1,2.2-6.371,16.38,16.38,0,0,1-2.458-5.337" transform="translate(-33.27 -9.49)" fill="#487341"/>
            <path id="Trazado_998782" data-name="Trazado 998782" d="M123.571,77.606a6.91,6.91,0,0,1-5.69-5.495,13.243,13.243,0,0,0-1.485.781,16.371,16.371,0,0,0,2.458,5.336,18.261,18.261,0,0,0-2.2,6.372,26.651,26.651,0,0,0,4.024.994,3.187,3.187,0,0,1-1.834-1.537c-1.164-3.531,2.37-5.282,4.725-6.45" transform="translate(-33.27 -9.769)" fill="#263a22"/>
            <path id="Trazado_998783" data-name="Trazado 998783" d="M88.517,126.164c.743,2.254,4.8,1.217,7.353.4,2.11-.675,7.366-3.352,5.647-5.684s-13.743,3.03-13,5.284" transform="translate(-29.489 -16.297)" fill="#2b2b22"/>
            <path id="Trazado_998784" data-name="Trazado 998784" d="M87.994,126.159s-7.614,10.18-8.323,20.008c0,0-.617,4.95,2.91,5.038s3.405-8.619,3.405-8.619a10.539,10.539,0,0,0,1.19,3.081s.17-5.853.476-7.728c0,0,.444,2.1,1.192,2.48S87.22,133.21,91.969,127c0,0,.98-1.422-.218-2.1s-2.928.366-3.756,1.263" transform="translate(-28.29 -16.89)" fill="#3b3a2e"/>
            <path id="Trazado_998785" data-name="Trazado 998785" d="M80.58,152.5s-4.745,5.012-5.2,6.436,1.794,2.108,1.794,2.108,3.226.461,4.061-2.463,1.744-5.172,1.744-5.172-.142-2.4-2.4-.909" transform="translate(-27.706 -20.593)" fill="#4d4c3d"/>
            <path id="Trazado_998786" data-name="Trazado 998786" d="M75.963,160.521s-5.424,6.135-1.621,13.277c0,0-.136-4.278.544-5.551a6.877,6.877,0,0,0,2.316,3.009s-1.339-3.306-.96-4.656a31.842,31.842,0,0,1,2.869-5.018,1.388,1.388,0,0,0-.743-2.254c-1.088-.44-2.405,1.192-2.405,1.192" transform="translate(-27.39 -21.574)" fill="#646250"/>
            <path id="Trazado_998787" data-name="Trazado 998787" d="M143.873,83.327s7.072,1.975,7.373,1.976-6.007-6.55-6.007-6.55Z" transform="translate(-36.993 -10.669)" fill="#3a5e35"/>
            <path id="Trazado_998788" data-name="Trazado 998788" d="M146.55,86.02s26.975,11.7,33.564,16.223l6.588,4.525a31.571,31.571,0,0,1,5.151,15.526s-11.426,5.465-21.73,5.129-35.6-4.824-48.384-12.671c0,0-6.494-2.874-10.482-7.015s-1.942-17.541,4.426-21.522a30.246,30.246,0,0,0,23.5-2.172Z" transform="translate(-32.297 -11.385)" fill="#683014"/>
            <path id="Trazado_998789" data-name="Trazado 998789" d="M127.766,98.63c15.705,16.9,62.695,22.738,63.68,12.61A25.628,25.628,0,0,0,189,106.768l-6.589-4.525c-6.589-4.525-33.564-16.223-33.564-16.223l-7.372-1.976a30.935,30.935,0,0,1-12.137,3.5c-3.447,3.078-4.293,8.345-1.57,11.088" transform="translate(-34.592 -11.385)" fill="#8d7157"/>
            <path id="Trazado_998790" data-name="Trazado 998790" d="M114.181,105.449c-4.077-6.287-.8-15.436,6.364-17.759a23.309,23.309,0,0,1-4.862-1.133c-6.366,3.98-8.414,17.381-4.426,21.522s10.482,7.015,10.482,7.015c12.78,7.847,38.079,12.336,48.384,12.671,6.585.214,13.622-1.939,17.849-3.522-13.836,4.223-64.037-3.751-73.791-18.793" transform="translate(-32.297 -11.726)" fill="#27160d"/>
            <path id="Trazado_998791" data-name="Trazado 998791" d="M144.62,94.058s25.2,5.589,40.971,15.348c0,0-34.982-10.925-40.971-15.348" transform="translate(-37.094 -12.742)" fill="#26130d"/>
            <path id="Trazado_998792" data-name="Trazado 998792" d="M136.493,101.668s29.494,6.6,46.578,14.267c0,0-35-6.623-46.578-14.267" transform="translate(-35.993 -13.773)" fill="#26130d"/>
            <path id="Trazado_998793" data-name="Trazado 998793" d="M131.367,111.72s22.683,8.782,34.78,11.624c0,0-20.9-2.272-34.78-11.624" transform="translate(-35.299 -15.135)" fill="#26130d"/>
            <path id="Trazado_998794" data-name="Trazado 998794" d="M157.269,84.263s20.68,9.376,28.169,13.8c0,0-12.671-10.849-28.169-13.8" transform="translate(-38.807 -11.415)" fill="#26130d"/>
            <path id="Trazado_998795" data-name="Trazado 998795" d="M149.667,173.374s3.579,6.816,4.579,7.119,4.007-1.387,3.009-2.191-5.379-6.922-5.379-6.922-2.6-.709-2.208,1.994" transform="translate(-37.772 -23.205)" fill="#4d4c3d"/>
            <path id="Trazado_998796" data-name="Trazado 998796" d="M156.366,182.112s-1.195-1.805-.393-2.4,2.5.208,4,1.815,7.079,7.428,7.079,7.428-1.11,2.8-3.406,1.189-4.586-4.718-7.277-8.029" transform="translate(-38.594 -24.318)" fill="#646250"/>
            <path id="Trazado_998797" data-name="Trazado 998797" d="M167.26,190.31s3.9.714,5.792,3.521,1.175,7.408,1.073,8.108-.988-3.605-1.984-4.91a9.11,9.11,0,0,1-.512,3.2s-.086-4.3-3.082-5.714-2.988-4.012-1.286-4.207" transform="translate(-40.005 -25.781)" fill="#787460"/>
            <path id="Trazado_998798" data-name="Trazado 998798" d="M54.773,103.71S46.106,99.278,44.095,97.9a4.891,4.891,0,0,0-.918-4.08,24.231,24.231,0,0,0-2.783-3.086s-.851-.3.352,1.072,3.051,4.352,2.189,5.024c0,0-3.145-3.181-4.009-3.318s.365.9.813,1.614a19.367,19.367,0,0,0,2.6,2.43s.5,1.253-1.8.563-3.836-1.284-3.807-.81c0,0,4.47,3.456,6.554,1.4l10.929,6.028Z" transform="translate(-22.479 -12.288)" fill="#15110a"/>
            <path id="Trazado_998799" data-name="Trazado 998799" d="M55.8,104.841s-8.572-4.384-10.642-5.782l-.81.8,10.9,6.011Z" transform="translate(-23.511 -13.419)" fill="#5c492c"/>
            <path id="Trazado_998800" data-name="Trazado 998800" d="M58.843,106a11.1,11.1,0,0,0-2.4-.791c-.367.079-1.4.992.8,2.668Z" transform="translate(-25.073 -14.252)" fill="#131a13"/>
            <path id="Trazado_998801" data-name="Trazado 998801" d="M60.3,104.347s-3.966,2.784-2.168,4.933c1.2,1.43,4.1.89,4.937-2.785a9.771,9.771,0,0,1-2.769-2.148" transform="translate(-25.313 -14.136)" fill="#44594a"/>
            <path id="Trazado_998802" data-name="Trazado 998802" d="M77.656,79.558s4.414-3.387,7.215-3.378,4.594,2.618,2.585,4.812-4.013,3.388-7.414,2.977-4.192-3.016-2.386-4.411" transform="translate(-27.895 -10.32)" fill="#80c682"/>
            <path id="Trazado_998803" data-name="Trazado 998803" d="M95.1,74.8s3.412-2.99,6.607-.778-1.211,3-3.413,3.19S93.494,76.8,95.1,74.8" transform="translate(-30.318 -9.918)" fill="#80c682"/>
            <path id="Trazado_998804" data-name="Trazado 998804" d="M132.059,76.827s-3.392-2.813-1.988-3.809,9.4,2.434,8.79,4.432-5.6.582-6.8-.623" transform="translate(-35.077 -9.868)" fill="#71af66"/>
            <path id="Trazado_998805" data-name="Trazado 998805" d="M126.072,81.83s5.814-3.182,8-.173-11.419,3.763-8,.173" transform="translate(-34.506 -10.887)" fill="#71af66"/>
            <path id="Trazado_998806" data-name="Trazado 998806" d="M128.855,138.372s3.522-6.041,5.132-8.638,6.413-2.58,5.4,2.42a17.7,17.7,0,0,1-3.83,7.992s-4.553-.016-6.7-1.774" transform="translate(-34.958 -17.343)" fill="#b2b6a4"/>
            <path id="Trazado_998807" data-name="Trazado 998807" d="M145.4,141.652s2.82-6.384,3.577-7.492c.955-1.4,5.526-2.052,5.048,1.518a18.493,18.493,0,0,1-2.875,6.894s-4.552-.115-5.75-.92" transform="translate(-37.199 -18.023)" fill="#b2b6a4"/>
            <path id="Trazado_998808" data-name="Trazado 998808" d="M162.751,142.879s2.843-5.87,3.023-6.443c.456-1.449,5.361-2.439,5,.768a38.043,38.043,0,0,1-1.17,5.649s-4.655.534-6.854.027" transform="translate(-39.55 -18.298)" fill="#b2b6a4"/>
            <path id="Trazado_998809" data-name="Trazado 998809" d="M178.613,141.707s.712-3.6,2.516-4.394,2.2,1.608,1.389,3.606a18.543,18.543,0,0,1-3.905.788" transform="translate(-41.699 -18.581)" fill="#b2b6a4"/>
            <path id="Trazado_998810" data-name="Trazado 998810" d="M190.37,138.585c.456-1.6.915-4.049,2.515-4.043s1.393,2.406,1.393,2.406a33.771,33.771,0,0,1-3.908,1.637" transform="translate(-43.292 -18.226)" fill="#b2b6a4"/>
            <path id="Trazado_998811" data-name="Trazado 998811" d="M110.224,129.968a16.935,16.935,0,0,0,6.436,5.05s5.707-8.911,2.363-11.023c-4.418-2.792-8.8,5.973-8.8,5.973" transform="translate(-32.434 -16.723)" fill="#b2b6a4"/>
            <path id="Trazado_998812" data-name="Trazado 998812" d="M88.728,113.861a1.946,1.946,0,0,1,2.806-1.391c2.4.808,2.191,3.209.585,4.4s-4.8-1.017-3.392-3.013" transform="translate(-29.475 -15.212)" fill="#262d22"/>
            <path id="Trazado_998813" data-name="Trazado 998813" d="M100.305,115.2s2.811-2.792,5.01-1.984.188,3.2-2.416,3.994-3.4-1.612-2.594-2.01" transform="translate(-31.05 -15.317)" fill="#262d22"/>
          </g>
        </g>
      </g>
    </g>
  </g>
</svg>
