<svg xmlns="http://www.w3.org/2000/svg" xmlns:xlink="http://www.w3.org/1999/xlink" width="77.057" height="76.993" viewBox="0 0 77.057 76.993">
  <defs>
    <clipPath id="clip-path">
      <rect id="Rectángulo_405010" data-name="Rectángulo 405010" width="77.057" height="76.993" fill="none"/>
    </clipPath>
  </defs>
  <g id="Grupo_1109462" data-name="Grupo 1109462" transform="translate(1048 8901)">
    <g id="Grupo_1108293" data-name="Grupo 1108293" transform="translate(-1048 -8901)">
      <g id="Grupo_1108292" data-name="Grupo 1108292" clip-path="url(#clip-path)">
        <path id="Trazado_997915" data-name="Trazado 997915" d="M68.342,0A22.246,22.246,0,0,0,48.893,33.047l-.761,2.84L45.9,44.218l8.333-2.233,2.6-.7A22.248,22.248,0,1,0,68.342,0" transform="translate(-13.532)" fill="#efded7"/>
        <path id="Trazado_997916" data-name="Trazado 997916" d="M99,22.248A22.259,22.259,0,0,1,74.417,44.373,22.247,22.247,0,0,0,74.423.122,22.253,22.253,0,0,1,99,22.248Z" transform="translate(-21.939 0)" fill="#e0bdaf"/>
        <path id="Trazado_997917" data-name="Trazado 997917" d="M50.75,22.248a22.157,22.157,0,0,0,2.8,10.8l-.76,2.841-1.871,6.986L45.9,44.218l2.231-8.33.76-2.841A22.251,22.251,0,0,1,70.669.122,22.245,22.245,0,0,0,50.75,22.248Z" transform="translate(-13.532 0)" fill="#f7eeeb"/>
        <path id="Trazado_997918" data-name="Trazado 997918" d="M29.532,98.224h6.23a22,22,0,0,0,22-22h-6.23A22,22,0,0,0,29.532,98.224Z" transform="translate(-8.706 -22.472)" fill="#265a2a"/>
        <path id="Trazado_997919" data-name="Trazado 997919" d="M56.187,76.226a22,22,0,0,0-22,22H29.532a22,22,0,0,1,22-22Z" transform="translate(-8.706 -22.472)" fill="#429d49"/>
        <path id="Trazado_997920" data-name="Trazado 997920" d="M58.421,76.226a22,22,0,0,1-22,22H31.766a22,22,0,0,0,22-22Z" transform="translate(-9.365 -22.472)" fill="#39873e"/>
        <path id="Trazado_997921" data-name="Trazado 997921" d="M15.007,84.659h6.34A13.249,13.249,0,0,0,8.1,71.411H1.759A13.248,13.248,0,0,0,15.007,84.659" transform="translate(-0.519 -21.053)" fill="#265a2a"/>
        <path id="Trazado_997922" data-name="Trazado 997922" d="M22.053,84.66H17.4A13.251,13.251,0,0,0,4.153,71.413H8.806A13.251,13.251,0,0,1,22.053,84.66" transform="translate(-1.224 -21.053)" fill="#39873e"/>
        <path id="Trazado_997923" data-name="Trazado 997923" d="M19.66,84.66H15.006A13.249,13.249,0,0,1,1.76,71.413H6.413A13.251,13.251,0,0,0,19.66,84.66" transform="translate(-0.519 -21.053)" fill="#429d49"/>
        <path id="Trazado_997924" data-name="Trazado 997924" d="M18.849,46.816A12.95,12.95,0,0,0,26.383,58.58a12.946,12.946,0,0,0,0-23.526A12.945,12.945,0,0,0,18.849,46.816Z" transform="translate(-5.557 -10.334)" fill="#265a2a"/>
        <path id="Trazado_997925" data-name="Trazado 997925" d="M36.1,46.814a12.942,12.942,0,0,1-7.538,11.767A12.982,12.982,0,0,1,26.233,57.2a12.943,12.943,0,0,0,0-20.76,12.982,12.982,0,0,1,2.326-1.384A12.94,12.94,0,0,1,36.1,46.814Z" transform="translate(-7.734 -10.334)" fill="#39873e"/>
        <path id="Trazado_997926" data-name="Trazado 997926" d="M28.709,57.2a13.023,13.023,0,0,1-2.326,1.384,12.952,12.952,0,0,1,0-23.527,12.982,12.982,0,0,1,2.326,1.384,12.952,12.952,0,0,0,0,20.76Z" transform="translate(-5.557 -10.335)" fill="#429d49"/>
        <path id="Trazado_997927" data-name="Trazado 997927" d="M71.48,10.368A14.935,14.935,0,1,1,56.545,25.3,14.935,14.935,0,0,1,71.48,10.368" transform="translate(-16.67 -3.057)" fill="#b15b38"/>
        <path id="Trazado_997928" data-name="Trazado 997928" d="M91.687,25.3A14.933,14.933,0,0,1,76.752,40.239a15.135,15.135,0,0,1-2.326-.18,14.938,14.938,0,0,0,0-29.509,15.135,15.135,0,0,1,2.326-.18A14.933,14.933,0,0,1,91.687,25.3" transform="translate(-21.942 -3.057)" fill="#9f5232"/>
        <path id="Trazado_997929" data-name="Trazado 997929" d="M73.806,40.059a15.142,15.142,0,0,1-2.326.18,14.934,14.934,0,1,1,0-29.868,15.142,15.142,0,0,1,2.326.18,14.936,14.936,0,0,0,0,29.509" transform="translate(-16.669 -3.057)" fill="#8e492d"/>
        <path id="Trazado_997930" data-name="Trazado 997930" d="M80.118,20.208a4.871,4.871,0,1,1-4.871,4.872,4.872,4.872,0,0,1,4.871-4.872" transform="translate(-22.184 -5.958)" fill="#1f6feb"/>
        <path id="Trazado_997931" data-name="Trazado 997931" d="M82.445,29.358a4.872,4.872,0,1,1,0-8.559,4.872,4.872,0,0,0,0,8.559Z" transform="translate(-22.184 -5.957)" fill="#a5c5f7"/>
        <path id="Trazado_997932" data-name="Trazado 997932" d="M49.055,62.328h-6.23a23.261,23.261,0,0,0-20.759,12.81V73.454c0-.011,0-.021,0-.031,0-.036,0-.071,0-.107V58.829a14.2,14.2,0,0,0-.722-25.421,1.244,1.244,0,0,0-1.038,0,14.2,14.2,0,0,0-.721,25.42v6.489a14.486,14.486,0,0,0-12-6.384H1.241A1.241,1.241,0,0,0,0,60.175,14.506,14.506,0,0,0,14.489,74.664h5.1c.009,11.124-.425,12.145,1.241,12.145h6.23A23.266,23.266,0,0,0,50.3,63.569,1.241,1.241,0,0,0,49.055,62.328ZM20.826,35.918a11.708,11.708,0,0,1,1.24,20.008V47.658a1.241,1.241,0,1,0-2.482,0v8.266a11.711,11.711,0,0,1,1.241-20.006M2.546,61.416H7.581A12.025,12.025,0,0,1,19.319,70.9L11.73,65.771a1.241,1.241,0,1,0-1.391,2.056l6.439,4.355h-2.29A12.025,12.025,0,0,1,2.546,61.416m24.51,22.912H23.408a43.425,43.425,0,0,1,11.181-8.738,1.241,1.241,0,0,0-1.214-2.165,47,47,0,0,0-10.943,8.289,20.789,20.789,0,0,1,20.394-16.9h4.953A20.785,20.785,0,0,1,27.056,84.327Z" transform="translate(0 -9.816)" fill="#5fe168"/>
        <path id="Trazado_997933" data-name="Trazado 997933" d="M79.6,18.449a6.113,6.113,0,1,0,6.112,6.113A6.119,6.119,0,0,0,79.6,18.449m0,9.743a3.631,3.631,0,1,1,3.63-3.63,3.635,3.635,0,0,1-3.63,3.63" transform="translate(-21.665 -5.439)" fill="#0c2c5e"/>
        <path id="Trazado_997934" data-name="Trazado 997934" d="M68.556,21.719a1.242,1.242,0,0,0,.877-2.118l-1.348-1.348a1.241,1.241,0,0,0-1.755,1.755c1.144,1.026,1.4,1.711,2.226,1.711" transform="translate(-19.448 -5.274)" fill="#bbd4f9"/>
        <path id="Trazado_997935" data-name="Trazado 997935" d="M66.026,35.168H62.944a1.241,1.241,0,1,0,0,2.482h3.082a1.241,1.241,0,1,0,0-2.482" transform="translate(-18.191 -10.368)" fill="#bbd4f9"/>
        <path id="Trazado_997936" data-name="Trazado 997936" d="M65.439,29.122l.854.67a1.241,1.241,0,1,0,1.532-1.952l-.853-.67a1.241,1.241,0,1,0-1.532,1.952" transform="translate(-19.152 -7.932)" fill="#bbd4f9"/>
        <path id="Trazado_997937" data-name="Trazado 997937" d="M86.275,38.116l-1.007,1.008a1.241,1.241,0,0,0,1.755,1.755l1.007-1.007a1.241,1.241,0,0,0-1.755-1.755" transform="translate(-25.031 -11.13)" fill="#bbd4f9"/>
        <path id="Trazado_997938" data-name="Trazado 997938" d="M79.5,43.781a1.241,1.241,0,0,0-1.7,1.807c1.116.945,1.371,1.57,2.16,1.57a1.242,1.242,0,0,0,.851-2.144Z" transform="translate(-22.821 -12.808)" fill="#bbd4f9"/>
        <path id="Trazado_997939" data-name="Trazado 997939" d="M70.985,40.25l-1.3,1.269a1.243,1.243,0,0,0,.867,2.128c.811,0,1.062-.657,2.165-1.623a1.241,1.241,0,1,0-1.736-1.774Z" transform="translate(-20.435 -11.762)" fill="#bbd4f9"/>
      </g>
    </g>
  </g>
</svg>
