<svg xmlns="http://www.w3.org/2000/svg" xmlns:xlink="http://www.w3.org/1999/xlink" width="85" height="96" viewBox="0 0 85 96">
  <defs>
    <clipPath id="clip-path">
      <rect id="Rect치ngulo_405166" data-name="Rect치ngulo 405166" width="85" height="96" transform="translate(284.711 4636)" fill="#fff" stroke="#707070" stroke-width="1"/>
    </clipPath>
    <clipPath id="clip-path-2">
      <rect id="Rect치ngulo_405165" data-name="Rect치ngulo 405165" width="77.692" height="77.643" fill="#fdfbf9"/>
    </clipPath>
  </defs>
  <g id="Grupo_1109461" data-name="Grupo 1109461" transform="translate(-284.711 -4636)">
    <g id="Enmascarar_grupo_1098820" data-name="Enmascarar grupo 1098820" clip-path="url(#clip-path)">
      <g id="Grupo_1108750" data-name="Grupo 1108750" transform="translate(288.711 4645)">
        <g id="Grupo_1108749" data-name="Grupo 1108749" clip-path="url(#clip-path-2)">
          <path id="Trazado_998815" data-name="Trazado 998815" d="M74.516,72.735c-1.893-1.8-4.011-3.81-5.65-5.66a39.838,39.838,0,0,0,2.652-9.309,40.867,40.867,0,0,0-3-23.358C65.914,28.614,61.076,23.3,54.1,18.536l1.029-1.713h4.443a1.294,1.294,0,1,0,0-2.588H54.4a1.294,1.294,0,0,0-1.11.628l-1.353,2.254q-2.03-1.275-4.275-2.49a9.1,9.1,0,0,0-4.431-5.746l.67-4.017,3.143-1.047a1.294,1.294,0,0,0-.818-2.456L42.345,2.655a1.294,1.294,0,0,0-.867,1.015l-.715,4.293a9.076,9.076,0,0,0-3.78,0L36.266,3.67A1.294,1.294,0,0,0,35.4,2.655L31.517,1.36A1.294,1.294,0,0,0,30.7,3.816l3.143,1.047.633,3.8A176.39,176.39,0,0,0,1.528.013a1.294,1.294,0,0,0-1.465,1.1,1.254,1.254,0,0,0-.012.143c0,.1-.315,10.563.65,22.468,1.31,16.147,4.235,27.159,8.691,32.731,3.17,3.963,8.244,7.057,15.08,9.2a84.416,84.416,0,0,0,19.254,3.287c3.286.223,6.469.3,9.383.3,6.645,0,11.881-.428,13.69-.6,1.733,1.977,3.954,4.087,5.934,5.968,1,.949,1.943,1.844,2.75,2.652a1.294,1.294,0,0,0,1.83-1.83c-.831-.833-1.786-1.738-2.8-2.7M66.161,35.47a38.283,38.283,0,0,1,2.817,21.784,38.967,38.967,0,0,1-2.014,7.618A112.059,112.059,0,0,0,52.022,51.047a11.544,11.544,0,0,0,.725-1.064c.008-.013.016-.027.024-.041a11.563,11.563,0,0,0,1.344-3.38l2.874.957v4.244a1.294,1.294,0,0,0,2.588,0V46.586a1.3,1.3,0,0,0-.885-1.228L54.4,43.928V34.785l3.073,2.459A1.3,1.3,0,0,0,59,37.31l3.882-2.588a1.294,1.294,0,0,0-1.436-2.154l-3.094,2.064L54.4,31.47V23.293a6.447,6.447,0,0,0-.181-1.509c5.724,4.186,9.728,8.768,11.941,13.686M25.932,23.293a3.887,3.887,0,0,1,.97-2.564l.024-.029a3.863,3.863,0,0,1,1.457-1.015,2.587,2.587,0,1,1-2.313,4.628c-.047-.024-.093-.049-.139-.075Zm2.142-6.234a6.426,6.426,0,0,0-1.807.825l-1.813-3.021a1.294,1.294,0,0,0-1.109-.628H18.167a1.294,1.294,0,0,0,0,2.588h4.444l1.775,2.957a6.455,6.455,0,0,0-1.042,3.513v5.739C14.206,20.895,7.965,12.7,3.493,2.958a176.166,176.166,0,0,1,28.8,7.651,9.023,9.023,0,0,0-2.477,6.214,6.518,6.518,0,0,0-1.74.237m3.481,35.32a9.068,9.068,0,0,1-3.989-3.195,2.587,2.587,0,1,1,3.988,3.195Zm-1.741-7.088a5.16,5.16,0,0,0-3.489,1.349A9.081,9.081,0,0,1,25.932,44V27.01a5.176,5.176,0,0,0,5.776-7.6H34.99v3.882a1.291,1.291,0,0,0,.378.915l2.21,2.21V53.056H34.99c-.229,0-.457-.009-.683-.025a5.17,5.17,0,0,0-4.494-7.739m9.058-21.24-1.294-1.294V19.411h2.588v3.346Zm1.294,2.366,2.209-2.21a1.294,1.294,0,0,0,.379-.915V19.411h3.281a5.174,5.174,0,0,0,5.777,7.6V44a9.082,9.082,0,0,1-.394,2.644,5.175,5.175,0,0,0-7.982,6.389c-.226.016-.454.026-.682.026H40.166Zm9.194-6.732A3.873,3.873,0,0,1,50.818,20.7l.022.026a3.888,3.888,0,0,1,.972,2.566v.944a2.587,2.587,0,1,1-2.588-4.479c.044-.026.09-.05.136-.073M46.19,52.38a2.587,2.587,0,1,1,3.988-3.195,9.068,9.068,0,0,1-3.989,3.195ZM41.312,10.828l.038.015a6.487,6.487,0,0,1,3.993,5.981H32.4a6.476,6.476,0,0,1,8.91-6m-29.9,44.008c-7.68-9.6-8.738-36.079-8.816-47.8C7.292,16.2,13.684,24.085,22.743,31.951l-3.351,2.681L16.3,32.569a1.294,1.294,0,1,0-1.447,2.146l.012.007,3.882,2.589a1.3,1.3,0,0,0,1.527-.067l3.073-2.458v9.143l-4.291,1.43a1.3,1.3,0,0,0-.885,1.228v5.176a1.294,1.294,0,0,0,2.588,0V47.518l2.874-.958a11.548,11.548,0,0,0,1.343,3.381c.008.014.016.027.024.041a11.631,11.631,0,0,0,9.994,5.661h7.764a11.593,11.593,0,0,0,7.473-2.715A111.1,111.1,0,0,1,64.7,66.221c-9.38.7-42.474,2.128-53.286-11.386" transform="translate(0 0)" fill="#fdfbf9"/>
        </g>
      </g>
    </g>
  </g>
</svg>
