<svg xmlns="http://www.w3.org/2000/svg" xmlns:xlink="http://www.w3.org/1999/xlink" width="85" height="91" viewBox="0 0 85 91">
  <defs>
    <clipPath id="clip-path">
      <rect id="Rect치ngulo_405168" data-name="Rect치ngulo 405168" width="85" height="91" transform="translate(284.711 5472)" fill="#fff" stroke="#707070" stroke-width="1"/>
    </clipPath>
    <clipPath id="clip-path-2">
      <rect id="Rect치ngulo_405167" data-name="Rect치ngulo 405167" width="77.607" height="76.445" fill="#fdfbf9"/>
    </clipPath>
  </defs>
  <g id="Grupo_1109461" data-name="Grupo 1109461" transform="translate(-284.711 -5472)">
    <g id="Enmascarar_grupo_1098821" data-name="Enmascarar grupo 1098821" clip-path="url(#clip-path)">
      <g id="Grupo_1108752" data-name="Grupo 1108752" transform="translate(288.711 5479)">
        <g id="Grupo_1108751" data-name="Grupo 1108751" clip-path="url(#clip-path-2)">
          <path id="Trazado_998816" data-name="Trazado 998816" d="M78.7,52.91a1.137,1.137,0,0,1-1.1-.864c-2.331-9.413,2.423-13.76,2.626-13.94a1.137,1.137,0,0,1,1.514,1.7c-.177.162-3.91,3.713-1.933,11.7a1.138,1.138,0,0,1-1.1,1.41" transform="translate(-21.781 -10.704)" fill="#fdfbf9"/>
          <path id="Trazado_998817" data-name="Trazado 998817" d="M89.71,63.788a1.137,1.137,0,0,1-1.136-1.113c-.345-16.241-7.159-22.822-7.228-22.886a1.137,1.137,0,0,1,1.547-1.666c.31.287,7.587,7.209,7.954,24.5a1.137,1.137,0,0,1-1.113,1.16H89.71" transform="translate(-22.921 -10.704)" fill="#fdfbf9"/>
          <path id="Trazado_998818" data-name="Trazado 998818" d="M92.072,46.839a1.137,1.137,0,0,1-1.027-.646c-2.474-5.174-9.006-6.1-9.071-6.109a1.137,1.137,0,0,1,.293-2.254c.318.04,7.815,1.079,10.83,7.381a1.137,1.137,0,0,1-1.025,1.628" transform="translate(-22.921 -10.704)" fill="#fdfbf9"/>
          <path id="Trazado_998819" data-name="Trazado 998819" d="M79.511,15.576a1.137,1.137,0,0,1-1.136-1.113C78.2,6.316,74.833,3.014,74.8,2.982a1.137,1.137,0,0,1,1.549-1.664c.167.155,4.1,3.9,4.3,13.1a1.137,1.137,0,0,1-1.113,1.16h-.024" transform="translate(-21.069 -0.288)" fill="#fdfbf9"/>
          <path id="Trazado_998820" data-name="Trazado 998820" d="M11.444,80.737a2.358,2.358,0,0,1-1.889-.942C.071,67.3-.685,57.221.352,50.97c.951-5.734,3.935-10.786,7.98-13.512h0a9.873,9.873,0,0,1,10.324-.234c5.927-.673,8.649,1.96,9.893,4.319,3.3,6.269-.179,17.537-5.5,23.422a56.72,56.72,0,0,0-9.436,14.373,2.38,2.38,0,0,1-2.169,1.4m2.068-42.6A6.877,6.877,0,0,0,9.6,39.344c-3.537,2.384-6.156,6.869-7.007,12-.964,5.809-.224,15.223,8.772,27.077a.1.1,0,0,0,.095.042.086.086,0,0,0,.077-.057,59.079,59.079,0,0,1,9.823-14.964c4.623-5.114,7.962-15.548,5.174-20.838C25.18,40.03,22.495,39,18.564,39.527a1.134,1.134,0,0,1-.777-.176,8.564,8.564,0,0,0-4.275-1.215M8.967,38.4h0Z" transform="translate(0 -10.148)" fill="#fdfbf9"/>
          <path id="Trazado_998821" data-name="Trazado 998821" d="M27.509,52.911a1.138,1.138,0,0,1-1.1-1.41c1.982-8-1.774-11.551-1.934-11.7a1.137,1.137,0,0,1,1.514-1.7c.2.181,4.956,4.527,2.626,13.94a1.137,1.137,0,0,1-1.1.864" transform="translate(-6.82 -10.704)" fill="#fdfbf9"/>
          <path id="Trazado_998822" data-name="Trazado 998822" d="M14.645,63.787H14.62a1.137,1.137,0,0,1-1.112-1.161c.368-17.3,7.644-24.217,7.954-24.5a1.137,1.137,0,0,1,1.543,1.669c-.065.062-6.879,6.642-7.224,22.884a1.137,1.137,0,0,1-1.136,1.113" transform="translate(-3.823 -10.704)" fill="#fdfbf9"/>
          <path id="Trazado_998823" data-name="Trazado 998823" d="M11.351,46.839a1.137,1.137,0,0,1-1.025-1.628c3.015-6.3,10.512-7.341,10.831-7.381a1.137,1.137,0,0,1,.293,2.254c-.065.009-6.6.936-9.071,6.109a1.137,1.137,0,0,1-1.027.646" transform="translate(-2.891 -10.703)" fill="#fdfbf9"/>
          <path id="Trazado_998824" data-name="Trazado 998824" d="M24.808,24.364a1.763,1.763,0,0,1-1.414-.706c-5.035-6.635-5.431-12.018-4.875-15.365A11.086,11.086,0,0,1,22.891.923h0A5.629,5.629,0,0,1,28.657.694c3.436-.33,4.922,1.437,5.506,2.546,1.815,3.444-.049,9.581-2.93,12.767a28.88,28.88,0,0,0-4.8,7.311,1.761,1.761,0,0,1-1.42,1.036,1.8,1.8,0,0,1-.205.011m.4-2.08h0ZM24.161,2.808h0a8.791,8.791,0,0,0-3.4,5.858c-.465,2.8-.129,7.28,3.955,12.958a31.432,31.432,0,0,1,4.83-7.142C31.828,11.959,33.5,6.855,32.152,4.3c-.218-.414-.888-1.672-3.577-1.308a1.133,1.133,0,0,1-.777-.176,3.469,3.469,0,0,0-3.637-.008" transform="translate(-5.187 0)" fill="#fdfbf9"/>
          <path id="Trazado_998825" data-name="Trazado 998825" d="M26.471,15.576h-.025a1.137,1.137,0,0,1-1.112-1.161c.2-9.2,4.133-12.942,4.3-13.1a1.137,1.137,0,0,1,1.543,1.669c-.028.027-3.4,3.329-3.57,11.476a1.137,1.137,0,0,1-1.136,1.113" transform="translate(-7.17 -0.288)" fill="#fdfbf9"/>
          <path id="Trazado_998826" data-name="Trazado 998826" d="M50.555,103.17H32.96a1.692,1.692,0,0,1-1.276-.581,1.672,1.672,0,0,1-.4-1.324,5.49,5.49,0,0,1,6.163-4.683,5.493,5.493,0,0,1,8.725,0,5.49,5.49,0,0,1,6.136,4.507h0a1.782,1.782,0,0,1-1.757,2.08M33.711,100.9h16.2a3.217,3.217,0,0,0-3.7-2.013,1.607,1.607,0,0,1-1.685-.7,3.218,3.218,0,0,0-5.422,0,1.611,1.611,0,0,1-1.686.7,3.221,3.221,0,0,0-3.707,2.012m3.48-3.944,0,0,0,0" transform="translate(-8.851 -26.725)" fill="#fdfbf9"/>
          <path id="Trazado_998827" data-name="Trazado 998827" d="M66.845,102.132H54.951a1.137,1.137,0,0,1-.584-2.112,3.218,3.218,0,0,0-3.76-2.174,1.606,1.606,0,0,1-1.686-.7,3.223,3.223,0,0,0-1.433-1.217,1.137,1.137,0,0,1,.554-2.175q.293.026.579.074a7.264,7.264,0,0,1,11.86,0,7.258,7.258,0,0,1,8.381,5.919,2.042,2.042,0,0,1-2.015,2.385m-.225-2h0Zm-9.95-.275h9.894a4.985,4.985,0,0,0-5.93-3.744,1.79,1.79,0,0,1-1.884-.784,4.991,4.991,0,0,0-8.38-.032c.07.08.137.163.2.248a5.489,5.489,0,0,1,6.1,4.313m3.479-5.965h0Zm-11.2,0h0" transform="translate(-13.246 -25.687)" fill="#fdfbf9"/>
          <path id="Trazado_998828" data-name="Trazado 998828" d="M55.958,77.35a1.137,1.137,0,0,1-1.135-1.089C53.863,53.638,57,40.189,64.153,36.287c5.45-2.974,10.94.822,11.172.986a1.137,1.137,0,0,1-1.309,1.858c-.082-.057-4.609-3.132-8.789-.84-4.342,2.384-9.276,10.888-8.131,37.872a1.137,1.137,0,0,1-1.088,1.184h-.049" transform="translate(-15.468 -9.949)" fill="#fdfbf9"/>
          <path id="Trazado_998829" data-name="Trazado 998829" d="M59.044,88.657H59a1.137,1.137,0,0,1-1.088-1.184,59.816,59.816,0,0,1,1.226-10.03,3.381,3.381,0,0,1,6.272-.918,1.137,1.137,0,0,1-1.994,1.093,1.108,1.108,0,0,0-2.056.3,57.6,57.6,0,0,0-1.177,9.647,1.137,1.137,0,0,1-1.135,1.089" transform="translate(-16.389 -21.16)" fill="#fdfbf9"/>
          <path id="Trazado_998830" data-name="Trazado 998830" d="M43.863,79.022H43.8a1.137,1.137,0,0,1-1.078-1.193c1.42-28.2-3.582-37.058-8.028-39.521-4.2-2.329-8.77.794-8.815.826a1.137,1.137,0,0,1-1.308-1.86c.232-.163,5.743-3.973,11.2-.967,7.3,4.023,10.406,18.031,9.218,41.637a1.137,1.137,0,0,1-1.135,1.08" transform="translate(-6.819 -9.949)" fill="#fdfbf9"/>
          <path id="Trazado_998831" data-name="Trazado 998831" d="M46.251,90.99a1.137,1.137,0,0,1-1.137-1.126A59.913,59.913,0,0,0,43.877,77.92a1.108,1.108,0,0,0-2.055-.305,1.137,1.137,0,1,1-2-1.091,3.381,3.381,0,0,1,6.273.918,62.28,62.28,0,0,1,1.288,12.4,1.138,1.138,0,0,1-1.126,1.149Z" transform="translate(-11.232 -21.16)" fill="#fdfbf9"/>
          <path id="Trazado_998832" data-name="Trazado 998832" d="M53.6,70.33h-.02a1.137,1.137,0,0,1-1.118-1.156C53.021,36.189,56.641,15.92,63.22,8.93a1.137,1.137,0,0,1,1.655,1.559C60.628,15,55.42,28.854,54.732,69.212A1.137,1.137,0,0,1,53.6,70.33" transform="translate(-14.847 -2.426)" fill="#fdfbf9"/>
          <path id="Trazado_998833" data-name="Trazado 998833" d="M49.809,70.225a1.137,1.137,0,0,1-1.136-1.118C47.979,28.827,42.775,15,38.532,10.49a1.137,1.137,0,1,1,1.656-1.559c6.572,6.982,10.192,27.215,10.759,60.137a1.136,1.136,0,0,1-1.117,1.156h-.02" transform="translate(-10.818 -2.426)" fill="#fdfbf9"/>
          <path id="Trazado_998834" data-name="Trazado 998834" d="M85.026,80.736a2.55,2.55,0,0,1-.275-.015,2.349,2.349,0,0,1-1.892-1.382,56.788,56.788,0,0,0-9.438-14.374c-5.321-5.886-8.8-17.154-5.5-23.422,1.243-2.359,3.968-4.991,9.892-4.319a9.865,9.865,0,0,1,10.324.234c3.844,2.59,6.689,7.168,7.8,12.559a1.137,1.137,0,0,1-2.227.46c-.994-4.814-3.488-8.872-6.845-11.133-3.958-2.666-8.016-.1-8.187.009a1.141,1.141,0,0,1-.774.174c-3.935-.532-6.616.5-7.973,3.076-2.787,5.288.551,15.724,5.174,20.838a59.154,59.154,0,0,1,9.824,14.965.084.084,0,0,0,.075.056c.075.008.085-.027.1-.042,5.876-7.744,9.019-15.655,9.087-22.877a1.138,1.138,0,0,1,1.137-1.126h.011a1.138,1.138,0,0,1,1.126,1.148c-.073,7.714-3.376,16.093-9.549,24.23a2.363,2.363,0,0,1-1.889.942" transform="translate(-18.858 -10.148)" fill="#fdfbf9"/>
          <path id="Trazado_998835" data-name="Trazado 998835" d="M77.089,24.364a1.817,1.817,0,0,1-.206-.011,1.762,1.762,0,0,1-1.42-1.035,28.843,28.843,0,0,0-4.8-7.311c-2.881-3.186-4.746-9.323-2.93-12.768.585-1.11,2.071-2.876,5.506-2.545a5.626,5.626,0,0,1,5.767.229,10.611,10.611,0,0,1,3.981,5.7,1.137,1.137,0,0,1-2.175.662,8.312,8.312,0,0,0-3.077-4.475,3.474,3.474,0,0,0-3.644.011,1.146,1.146,0,0,1-.77.172c-2.7-.368-3.358.895-3.576,1.308-1.347,2.555.323,7.66,2.6,10.183a31.417,31.417,0,0,1,4.83,7.142,20.385,20.385,0,0,0,4.026-9.493,1.137,1.137,0,1,1,2.261.255A23.191,23.191,0,0,1,78.5,23.659a1.765,1.765,0,0,1-1.414.7" transform="translate(-18.967 0)" fill="#fdfbf9"/>
        </g>
      </g>
    </g>
  </g>
</svg>
