<svg xmlns="http://www.w3.org/2000/svg" xmlns:xlink="http://www.w3.org/1999/xlink" width="295" height="246" viewBox="0 0 295 246">
  <defs>
    <clipPath id="clip-path">
      <rect id="Rect치ngulo_405210" data-name="Rect치ngulo 405210" width="252.293" height="149.169" fill="none"/>
    </clipPath>
  </defs>
  <g id="Grupo_1109461" data-name="Grupo 1109461" transform="translate(-5373 8427)">
    <rect id="Rect치ngulo_404538" data-name="Rect치ngulo 404538" width="295" height="246" rx="20" transform="translate(5373 -8427)" fill="#effcef"/>
    <g id="Grupo_1108860" data-name="Grupo 1108860" transform="translate(5394.672 -8369.099)">
      <g id="Grupo_1108859" data-name="Grupo 1108859" clip-path="url(#clip-path)">
        <path id="Trazado_999406" data-name="Trazado 999406" d="M247.647,78.7c-11.32-2.811-23.39-3.552-34.828-4.5-19.037-1.573-38.126-2.462-57.212-3.292-18.591-.807-37.187-1.64-55.794-1.982-18.423-.339-36.867-.192-55.254.992q-9.415.606-18.793,1.6A24.726,24.726,0,0,0,4.293,90.453q-.071.311-.137.623c-2.787,13.348,1.774,27.572,10.574,38.079q.666.8,1.365,1.564c9.7,10.649,23.464,17.3,37.739,20.377,15.556,3.355,31.11,5.9,47.116,6.533A244.865,244.865,0,0,0,197,142.181l.078-.029c15.927-6.041,31.685-14.189,41.917-27.319,7.962-10.215,11.764-24.039,8.649-36.128" transform="translate(-0.446 -9.171)" fill="#bfac58"/>
        <path id="Trazado_999407" data-name="Trazado 999407" d="M250.184,126.441a63.687,63.687,0,0,0-14.409,2.843,90.5,90.5,0,0,0-13.153,5.926,84.352,84.352,0,0,1-12.7,5.672,52.544,52.544,0,0,1-14.392,2.26c-9.576.314-19.144-1.055-28.714-.379-8.339.591-16.929,2.712-23.151,8.32a12.069,12.069,0,0,0,.57,2.565c1.59,4.684,5.646,8.184,10.158,10.317.145.068.289.134.435.2a242.174,242.174,0,0,0,60.888-14.332l.079-.029c14.377-5.454,28.62-12.624,38.778-23.628q-2.193.075-4.386.263" transform="translate(-19.156 -16.825)" fill="#cc6f43"/>
        <path id="Trazado_999408" data-name="Trazado 999408" d="M150.684,122.35a2.837,2.837,0,0,1-.2.907,7.607,7.607,0,0,1-3.445,3.183,26.679,26.679,0,0,1-4.938,1.89c-8.8,2.659-18.185,5.186-26.853,6.2a104.763,104.763,0,0,1-18.592.38,162.819,162.819,0,0,0-18.106-.569,90.282,90.282,0,0,0-17.9,3.088c-6.028,1.556-12.076,3.364-18.093,4.548A58.954,58.954,0,0,1,25.762,143c-.717-.064-1.423-.144-2.123-.233a57.668,57.668,0,0,1-7.293-6.716q-.7-.768-1.364-1.564A49.651,49.651,0,0,1,5.22,116.055c13.4-3.459,26.522-4.6,39.183-5.115,6.47-.263,12.87-.359,19.286-.494q10.178-.212,20.5-.745c14.582-.757,29.417-1.669,42.592.193.939.133,1.873.282,2.793.444,8.441,1.488,25.938,4.208,28.583,10.307.224.512-7.44,1.115-7.471,1.7" transform="translate(-0.696 -14.507)" fill="#cc6f43"/>
        <path id="Trazado_999409" data-name="Trazado 999409" d="M125.957,112.98a9.273,9.273,0,0,0,.465-2.917,4.283,4.283,0,0,0-1.077-2.393c-2.69-3.11-7.452-2.492-11.189-2.318-8.348.387-16.7.8-25.024,1.526-8.383.731-16.62-5.655-24.858-3.982-4.082.828-8.416.444-12.405,1.609-3.563,1.04-12.643-1.908-15.944-.24-2.629,1.329-23.666,4.843-31.615,7.67a48.932,48.932,0,0,0,8.526,19.149c4.879-.187,11.065-.575,18.427-1.353,6.125-.647,13.215-2.7,19.372-3.115,7.149-.478,14.3.263,21.452.249a60.071,60.071,0,0,0,11.325-.959,67.8,67.8,0,0,0,10.264-3.039c3.33-1.216,6.62-2.529,10-3.617a66.387,66.387,0,0,1,10.644-2.472,91.276,91.276,0,0,1,11.742-.924,4.55,4.55,0,0,1-.1-2.874" transform="translate(-0.575 -13.683)" fill="#bfac58"/>
        <path id="Trazado_999410" data-name="Trazado 999410" d="M269.134,87.631a28.36,28.36,0,0,0-3.088.348,52.361,52.361,0,0,0-6.991,1.8c-4.741,1.515-9.371,3.307-14.273,4.32a94.294,94.294,0,0,1-14.867,1.649c-5.136.227-10.282.242-15.419.457a121.84,121.84,0,0,0-15.713,1.664c-9.712,1.675-19.928,3.986-29.661,1.13-6.658-1.957-15.1-7.494-12.223-15.245a4.162,4.162,0,0,1,.962-1.6,5.427,5.427,0,0,1,2.074-1.07c3.256-1.1,6.977-1.336,10.032-2.878,3.557-1.794,6.487-4.482,9.694-6.776,17.868.785,35.735,1.66,53.558,3.131,11.436.944,23.507,1.686,34.828,4.5a35.257,35.257,0,0,1,1.088,8.573" transform="translate(-20.844 -9.525)" fill="#cc6f43"/>
        <path id="Trazado_999411" data-name="Trazado 999411" d="M269.656,79.218c-11.322-2.81-23.391-3.552-34.828-4.5-7.982-.66-15.967-1.2-23.962-1.663-10.333-1.469-21.329,1.365-31.931.28q-1.726-.174-3.449-.415a38.711,38.711,0,0,0-2.989,4.953,38.324,38.324,0,0,0-4.105,15.237c9.722-.1,19.476-.252,29.117-1.539a101.494,101.494,0,0,0,13.035-2.565c4.158-1.123,8.193-2.605,12.268-3.966a69.431,69.431,0,0,1,12.335-3.169,44.675,44.675,0,0,1,12.794.3c4.393.648,8.749,1.583,13.194,1.858a39.423,39.423,0,0,0,9.321-.635,33.9,33.9,0,0,0-.8-4.178" transform="translate(-22.453 -9.684)" fill="#bfac58"/>
        <path id="Trazado_999412" data-name="Trazado 999412" d="M5.411,54.384c14.495-.428,28.994-.707,43.493-.973,14.38-.263,28.761-.517,43.139-.9,14.4-.385,28.8-.9,43.18-1.69q10.919-.6,21.824-1.418c4.513-.342,9.017-.787,13.539-1,8.316-.387,16.707-.745,25.032-.42.657.026,1.315.06,1.97.114.143.011.142-.211,0-.223-3.607-.3-7.259-.215-10.875-.17q-6.655.083-13.306.355c-10.913.431-21.791,1.571-32.693,2.222-14.393.858-28.8,1.431-43.214,1.851-14.371.419-28.747.69-43.122.953-14.54.266-29.08.526-43.617.921q-2.674.073-5.35.152c-.143,0-.144.227,0,.223" transform="translate(-0.707 -6.355)" fill="#a3bdff"/>
        <path id="Trazado_999413" data-name="Trazado 999413" d="M.526,65.854q19.3-1.079,38.611-2.034,19.713-.979,39.431-1.857,19.86-.888,39.725-1.7,19.651-.8,39.306-1.542,19.371-.731,38.744-1.415l4.787-.17c.142,0,.143-.227,0-.222q-19.307.68-38.613,1.4-19.717.738-39.431,1.531-19.865.8-39.726,1.678-19.653.868-39.3,1.828Q24.68,64.3,5.312,65.366l-4.787.265c-.142.009-.143.231,0,.223" transform="translate(-0.056 -7.59)" fill="#a3bdff"/>
        <path id="Trazado_999414" data-name="Trazado 999414" d="M206.44,66.955q-20.772-.233-41.513,1.136c-13.958.933-27.88,2.3-41.849,3.1-13.322.759-26.66,1.2-40,1.527-12.709.312-25.419.53-38.126.909-12.963.388-25.922.954-38.856,1.91q-2.517.186-5.031.392c-.142.011-.143.234,0,.223C14.073,75.09,27.108,74.436,40.149,74c12.749-.426,25.5-.656,38.258-.951,13.23-.3,26.459-.687,39.676-1.367,13.886-.713,27.725-1.958,41.589-2.994,13.808-1.032,27.642-1.578,41.49-1.547q2.639.006,5.278.037a.111.111,0,0,0,0-.223" transform="translate(-0.128 -8.923)" fill="#a3bdff"/>
        <path id="Trazado_999415" data-name="Trazado 999415" d="M29.964,54.761q.22,12.246.96,24.475c.009.142.231.144.222,0q-.74-12.225-.959-24.475a.111.111,0,0,0-.223,0" transform="translate(-3.995 -7.288)" fill="#a3bdff"/>
        <path id="Trazado_999416" data-name="Trazado 999416" d="M45.168,54.384l.611,23.181a.111.111,0,0,0,.222,0q-.306-11.591-.61-23.181a.111.111,0,0,0-.223,0" transform="translate(-6.023 -7.237)" fill="#a3bdff"/>
        <path id="Trazado_999417" data-name="Trazado 999417" d="M60.713,54.173q-.11,12.653-.22,25.306a.111.111,0,0,0,.223,0q.11-12.653.22-25.306a.111.111,0,0,0-.223,0" transform="translate(-8.066 -7.209)" fill="#a3bdff"/>
        <path id="Trazado_999418" data-name="Trazado 999418" d="M124.636,52.531q.046,11.948.092,23.9a.111.111,0,0,0,.223,0q-.047-11.948-.092-23.9a.111.111,0,0,0-.223,0" transform="translate(-16.619 -6.99)" fill="#a3bdff"/>
        <path id="Trazado_999419" data-name="Trazado 999419" d="M108.343,53.038q.047,12.258.094,24.515a.111.111,0,0,0,.222,0q-.047-12.258-.094-24.515a.111.111,0,0,0-.223,0" transform="translate(-14.447 -7.058)" fill="#a3bdff"/>
        <path id="Trazado_999420" data-name="Trazado 999420" d="M93.31,53.427,93.4,77.7a.111.111,0,0,0,.222,0q-.047-12.137-.093-24.273a.111.111,0,0,0-.223,0" transform="translate(-12.442 -7.11)" fill="#a3bdff"/>
        <path id="Trazado_999421" data-name="Trazado 999421" d="M213.995,47.831c.038,8.077.127,16.155.165,24.233h.222c0-.163,0-.325-.007-.488a.111.111,0,0,0-.223,0l.008.488a.111.111,0,0,0,.222,0c-.038-8.078-.126-16.155-.164-24.233a.111.111,0,0,0-.223,0" transform="translate(-28.534 -6.364)" fill="#a3bdff"/>
        <path id="Trazado_999422" data-name="Trazado 999422" d="M227.045,48.02c.036,7.864.046,15.727.082,23.591h.223l-.008-.488a.111.111,0,0,0-.222,0c0,.163,0,.325.007.488a.111.111,0,0,0,.223,0c-.037-7.864-.046-15.727-.082-23.591a.111.111,0,0,0-.223,0" transform="translate(-30.275 -6.389)" fill="#a3bdff"/>
        <path id="Trazado_999423" data-name="Trazado 999423" d="M187.76,48.929q.056,12.125.108,24.249h.224l-.009-.487a.111.111,0,0,0-.221,0c0,.162,0,.325.006.487a.112.112,0,0,0,.224,0q-.059-12.125-.11-24.249a.111.111,0,0,0-.222,0" transform="translate(-25.036 -6.51)" fill="#a3bdff"/>
        <path id="Trazado_999424" data-name="Trazado 999424" d="M173.483,50q.057,12.125.109,24.249h.223l-.008-.487a.111.111,0,0,0-.222,0c0,.162,0,.325.007.487a.111.111,0,0,0,.223,0q-.057-12.125-.109-24.249a.111.111,0,0,0-.223,0" transform="translate(-23.132 -6.653)" fill="#a3bdff"/>
        <path id="Trazado_999425" data-name="Trazado 999425" d="M156.128,51.174q.057,12.125.109,24.249h.223l-.008-.487a.111.111,0,0,0-.222,0c0,.162,0,.325.007.487a.111.111,0,0,0,.223,0q-.057-12.125-.109-24.249a.111.111,0,0,0-.223,0" transform="translate(-20.818 -6.809)" fill="#a3bdff"/>
        <path id="Trazado_999426" data-name="Trazado 999426" d="M5.286,55.3a217.523,217.523,0,0,0,.8,26.055c.013.142.236.143.223,0a217.523,217.523,0,0,1-.8-26.055c0-.143-.218-.143-.223,0" transform="translate(-0.692 -7.36)" fill="#a3bdff"/>
        <path id="Trazado_999427" data-name="Trazado 999427" d="M17.845,79.595q-.036-1-.072-2.01-.068-1.856-.133-3.711-.27-7.5-.54-15L16.827,51.3q-.017-.464-.033-.928a2.506,2.506,0,0,0-.031-.793c-.108-.2-.47-.154-.648-.081-.884.366-.608,1.706-.587,2.4l.322,10.851a.072.072,0,0,0-.032.061l-.333,15.1c-.018.8-.106,1.853.527,2.45a1.268,1.268,0,0,0,1.585.1c.3-.249.26-.516.247-.868" transform="translate(-2.063 -6.592)" fill="#1e272e"/>
        <path id="Trazado_999428" data-name="Trazado 999428" d="M202.3,71.757q-.036-1-.072-2.01-.068-1.856-.133-3.711-.27-7.5-.54-15l-.272-7.576q-.017-.464-.033-.928a2.506,2.506,0,0,0-.031-.793c-.108-.2-.47-.154-.648-.081-.884.366-.608,1.706-.587,2.4l.322,10.851a.072.072,0,0,0-.032.061l-.333,15.1c-.018.8-.106,1.853.527,2.45a1.268,1.268,0,0,0,1.585.1c.3-.249.26-.516.247-.868" transform="translate(-26.658 -5.547)" fill="#1e272e"/>
        <path id="Trazado_999429" data-name="Trazado 999429" d="M75.308,78.879q-.005-1-.011-2.008-.021-3.862-.042-7.725-.042-7.649-.084-15.3-.012-2.085-.023-4.171c0-.551.226-2.179-.657-2.265-.945-.093-.815,1.477-.821,1.986q-.019,1.837-.041,3.673a124.788,124.788,0,0,0-.882,14.415q-.01,3.741.207,7.472.112,1.9.282,3.8c.071.791-.032,2.135.786,2.574.641.345,1.186-.128,1.272-.786a12.542,12.542,0,0,0,.014-1.664" transform="translate(-9.7 -6.322)" fill="#1e272e"/>
        <path id="Trazado_999430" data-name="Trazado 999430" d="M139.446,51.552l-.138-3.844q-.033-.923-.066-1.846a3.115,3.115,0,0,0-.2-1.245c-.226-.478-.834-.715-1.172-.143a2.345,2.345,0,0,0-.2,1.092q-.049,1-.093,2.008-.169,3.862-.264,7.724-.188,7.645-.092,15.282.023,1.85.064,3.7.021.924.045,1.849a4.367,4.367,0,0,0,.163,1.492c.232.578,1.074,1.017,1.544.361a1.782,1.782,0,0,0,.235-1.014c.016-.669.017-1.339.025-2.009,0,0,.1-15.155.1-15.255-.092-2.564.137-5.589.045-8.152" transform="translate(-18.293 -5.886)" fill="#1e272e"/>
        <path id="Trazado_999431" data-name="Trazado 999431" d="M288.491,81.876c-.482-3.045-4.487-4.132-7.025-2.989a9.863,9.863,0,0,0-5.145,12.425c-3.057,2.819-3.922,7.367-1.237,10.822a7.892,7.892,0,0,0,6.39,2.988,29.782,29.782,0,0,0,7.017-23.246" transform="translate(-36.466 -10.46)" fill="#25382b"/>
        <path id="Trazado_999432" data-name="Trazado 999432" d="M183.779,77.3a5.28,5.28,0,0,0-.549-3.35,3.857,3.857,0,0,0-1.3-1.39,5.83,5.83,0,0,0-.709-5.468,4.533,4.533,0,0,0-5.259-1.543,4.089,4.089,0,0,0-.668.319,7.782,7.782,0,0,0-2.095-1.82,5.216,5.216,0,0,0-3.691-.657,6.388,6.388,0,0,0-3.359,2,8.5,8.5,0,0,0-1.711,2.844,2.111,2.111,0,0,0-1.091-.412,2.818,2.818,0,0,0-2.571,2.431,4.351,4.351,0,0,0-.1,1.238,4.775,4.775,0,0,0-1.427,2.76,6.034,6.034,0,0,0-.034,1.819,1.214,1.214,0,0,0-.029.159c-.033-.024-.075.029-.044.068l.038.045a1.267,1.267,0,0,0,.077.458c.021.055.084.014.064-.04a1.133,1.133,0,0,1-.068-.33A16.405,16.405,0,0,0,169.7,81.783c1.777.063,9.671,1.992,13.295-2.683a17.173,17.173,0,0,1,.788-1.8" transform="translate(-21.22 -8.439)" fill="#497d58"/>
        <path id="Trazado_999433" data-name="Trazado 999433" d="M183.894,74.29A3.856,3.856,0,0,0,182.6,72.9a5.84,5.84,0,0,0-.71-5.468,4.465,4.465,0,0,0-2.136-1.581,5.773,5.773,0,0,1-.3,1.948,6.747,6.747,0,0,1-4.17,4.091,7.691,7.691,0,0,1-3.184,7.19,8.917,8.917,0,0,1-7.978,1.045v0a14.88,14.88,0,0,0,6.237,2c1.777.062,9.671,1.993,13.295-2.681a17.2,17.2,0,0,1,.788-1.8,5.279,5.279,0,0,0-.549-3.349" transform="translate(-21.885 -8.781)" fill="#25382b"/>
        <path id="Trazado_999434" data-name="Trazado 999434" d="M117.816,71.783a5.743,5.743,0,0,0-3.934-5.739,7.08,7.08,0,0,0-1.921-3.629c-3.237-3.347-8.844-3.5-12.877-1.37-.059.03-.116.064-.174.1a7.343,7.343,0,0,0-3.118-4.312,8.052,8.052,0,0,0-9.6.595A6.909,6.909,0,0,0,83.975,61.4c-.205.016-.41.035-.615.061a8.613,8.613,0,0,0-5.912,3.354,7.953,7.953,0,0,0,2.595,11.528,9.81,9.81,0,0,0,4.949,1.334,18.113,18.113,0,0,0,10.656,8.649,20.443,20.443,0,0,0,10.483-.12,15.158,15.158,0,0,0,7.773-4.586,9.9,9.9,0,0,0,2.4-6.542,5.266,5.266,0,0,0,1.516-3.3" transform="translate(-10.129 -7.404)" fill="#497d58"/>
        <path id="Trazado_999435" data-name="Trazado 999435" d="M117.975,76.656A5.242,5.242,0,0,0,119.45,73.4a5.742,5.742,0,0,0-3.911-5.73,11.43,11.43,0,0,1-5.786,5.144,13.047,13.047,0,0,1-5.977.868,4.886,4.886,0,0,0-4.744,2.5,10.488,10.488,0,0,1-4.764,4.531,11.271,11.271,0,0,1-6.047.956,17.291,17.291,0,0,0,9.062,6.282,20.458,20.458,0,0,0,10.482-.118,19.03,19.03,0,0,0,2.18-.719,7.422,7.422,0,0,0,2.6,1.375,7.119,7.119,0,0,0,8.433-3.793,6.416,6.416,0,0,0-3-8.036" transform="translate(-11.764 -9.023)" fill="#25382b"/>
        <path id="Trazado_999436" data-name="Trazado 999436" d="M71.586,66.283a7.809,7.809,0,0,0-2.9-.59,9.127,9.127,0,0,0-3.5-6.711A10.73,10.73,0,0,0,52.8,58.486,10.2,10.2,0,0,0,50.079,61.2c-.112-.055-.223-.112-.337-.163a10.478,10.478,0,0,0-8.772.221,10.017,10.017,0,0,0-5.594,6.973,10.376,10.376,0,0,0,.413,5.541c-3.079,2.839-3.95,7.419-1.245,10.9,2.212,2.845,5.781,3.5,9.076,2.692a14.444,14.444,0,0,0,23.059-1.392,11.2,11.2,0,0,0,1.309-2.805A10.525,10.525,0,0,0,75.692,77a8.132,8.132,0,0,0-4.106-10.717" transform="translate(-4.39 -7.568)" fill="#497d58"/>
        <path id="Trazado_999437" data-name="Trazado 999437" d="M72.168,67.66a7.747,7.747,0,0,0-2.519-.575c-.006.378-.029.754-.068,1.133a10.613,10.613,0,0,1-5.618,8.5,8.811,8.811,0,0,1-5.145.77,3.892,3.892,0,0,0-3.227.944,8.8,8.8,0,0,1-3.544,2,8.976,8.976,0,0,1-2.859.333,5.175,5.175,0,0,0-4.353,1.938,15.494,15.494,0,0,1-7.548,5.24,7.576,7.576,0,0,0,1.114.532,6.5,6.5,0,0,0,1.285,6.511,13.248,13.248,0,0,0,6.845,3.824,15.892,15.892,0,0,0,8.833.147,7.612,7.612,0,0,0,5.112-4.822,5.391,5.391,0,0,0,.2-1.444,14.587,14.587,0,0,0,5.584-4,5.387,5.387,0,0,0,5.506.279,3.586,3.586,0,0,0,1.452-4.241A6.133,6.133,0,0,0,72.377,83a10.342,10.342,0,0,0,3.9-4.619A8.134,8.134,0,0,0,72.168,67.66" transform="translate(-4.972 -8.945)" fill="#25382b"/>
        <path id="Trazado_999438" data-name="Trazado 999438" d="M240.725,73.01a5.994,5.994,0,0,0,.249-4.84,7.136,7.136,0,0,0-9.225-3.8,7.909,7.909,0,0,0-1.169.592,7.3,7.3,0,0,0-1.894-1.531,7.132,7.132,0,0,0-9.625,2.985,6.74,6.74,0,0,0-.588,3.984,6.828,6.828,0,0,0-2.464,1.087,6.022,6.022,0,0,0-2.527,5.319c.283,4.812,5.452,7.608,10.242,6.766a11.594,11.594,0,0,0,2.916-.93,5.318,5.318,0,0,0,4.252,1.173,5.376,5.376,0,0,0,3.191-1.672,6.378,6.378,0,0,0,7.457-2.965,5.393,5.393,0,0,0-.815-6.173" transform="translate(-28.464 -8.347)" fill="#497d58"/>
        <path id="Trazado_999439" data-name="Trazado 999439" d="M241.286,74.65a10.323,10.323,0,0,1-3.781,4,11.3,11.3,0,0,1-6.78,1.532,4.588,4.588,0,0,0-2.434.426,4.021,4.021,0,0,1-2.931.1,3.07,3.07,0,0,0-2.988.738,9.169,9.169,0,0,1-4.892,2.493,9.859,9.859,0,0,0,6.778,1.243,11.575,11.575,0,0,0,2.918-.931,5.458,5.458,0,0,0,7.44-.5,6.381,6.381,0,0,0,7.459-2.966,5.386,5.386,0,0,0-.789-6.139" transform="translate(-28.999 -9.954)" fill="#25382b"/>
        <path id="Trazado_999440" data-name="Trazado 999440" d="M213.5,73.516a6.257,6.257,0,0,0-4.612-3.444,8.124,8.124,0,0,0-2.43-.1,7.064,7.064,0,0,0-1.542-5.946,7.209,7.209,0,0,0-10.341-.477,6.247,6.247,0,0,0-.768.971,9.1,9.1,0,0,0-7.314.006,7.277,7.277,0,0,0-4.558,6.018,8.841,8.841,0,0,0,.874,4.567,6.9,6.9,0,0,0-1.121,4.635c.453,3.474,3.335,6.21,6.535,7.668,6.19,2.82,15.1,1.445,19.324-4.145a8.889,8.889,0,0,0,4.55-3.333c1.347-1.83,2.294-4.275,1.4-6.416" transform="translate(-24.22 -8.211)" fill="#497d58"/>
        <path id="Trazado_999441" data-name="Trazado 999441" d="M214.467,74.8a6.257,6.257,0,0,0-4.613-3.444,8.012,8.012,0,0,0-2.213-.121,8.706,8.706,0,0,1-1.681,3.58,7.013,7.013,0,0,0-1.358,3.13,6.855,6.855,0,0,1-2.287,4A7.4,7.4,0,0,1,198.5,83.61a6.854,6.854,0,0,0-3.7,1.76,13.73,13.73,0,0,1-5.894,3.185c.1.049.192.094.289.138,6.189,2.819,15.1,1.446,19.325-4.145a7.735,7.735,0,0,0,5.144-3,7.047,7.047,0,0,0,.807-6.75" transform="translate(-25.189 -9.495)" fill="#25382b"/>
        <path id="Trazado_999442" data-name="Trazado 999442" d="M169.931,81.158c.362-1.35-.34-4.886-3.771-7.5-1.264-.961-5.212-2.661-8.745-1.3-.054,0-.107-.009-.16-.01a7.4,7.4,0,0,0-7.4,4.756,6.671,6.671,0,0,0-.163,3.653,8.916,8.916,0,0,0-4.268,8.431,9.375,9.375,0,0,0,3.488,6.056,9.7,9.7,0,0,0,6.8,2.015c.145-.011.288-.027.432-.043a13.925,13.925,0,0,0,6.3.852,12.673,12.673,0,0,0,6.887-2.9,8.324,8.324,0,0,0,5.632-6.623,6.916,6.916,0,0,0-5.02-7.388" transform="translate(-19.382 -9.581)" fill="#497d58"/>
        <path id="Trazado_999443" data-name="Trazado 999443" d="M162.846,71.733a9.765,9.765,0,0,1,9.435,7.768c.025.136.232.078.207-.057a9.979,9.979,0,0,0-9.642-7.925.107.107,0,0,0,0,.214" transform="translate(-21.7 -9.536)" fill="#25382b"/>
        <path id="Trazado_999444" data-name="Trazado 999444" d="M174.131,83.866A7.926,7.926,0,0,1,173,84.955a6.68,6.68,0,0,0-2.5,3.991,7.536,7.536,0,0,1-4.834,5.612,3.316,3.316,0,0,0-1.582,1.277,9.641,9.641,0,0,1-2.612,2.657,8.631,8.631,0,0,1-1.662.868,13.871,13.871,0,0,0,4.549.314,12.682,12.682,0,0,0,6.886-2.9,8.325,8.325,0,0,0,5.632-6.622,6.973,6.973,0,0,0-2.747-6.283" transform="translate(-21.309 -11.183)" fill="#25382b"/>
        <path id="Trazado_999445" data-name="Trazado 999445" d="M152.288,80.856a9.652,9.652,0,0,0-2.169-8.616,11.114,11.114,0,0,0-10.833-3.04,10.729,10.729,0,0,0-1.529.517,18.41,18.41,0,0,0-4.8-3.34,9.4,9.4,0,0,0-5.039-.963,9.088,9.088,0,0,0-4.413,1.839,11.055,11.055,0,0,0-4.286,8.669,10.773,10.773,0,0,0,1.368,5.26,11.41,11.41,0,0,0-4.309,1.518A12.086,12.086,0,0,0,110.9,94.158a14.966,14.966,0,0,0,6.57,10.635,16.476,16.476,0,0,0,12.906,2.6,17.446,17.446,0,0,0,3-.951,19.551,19.551,0,0,0,9.754-.833A16.993,16.993,0,0,0,153.362,95.5c.172-.469.322-.946.449-1.426a12.8,12.8,0,0,0,1.171-2.562,9.7,9.7,0,0,0-2.694-10.656" transform="translate(-14.781 -8.716)" fill="#497d58"/>
        <path id="Trazado_999446" data-name="Trazado 999446" d="M153.027,83.126q.086-.364.147-.732a8.271,8.271,0,0,1-2.99,3.353,8.862,8.862,0,0,1-4.431,1.342,3.988,3.988,0,0,0-3.449,2.22l-.011.024a10.326,10.326,0,0,1-6.041,5,16.208,16.208,0,0,1-3.367.741,8.023,8.023,0,0,0-6.346,4.429,10.1,10.1,0,0,1-2.016,2.85,11.631,11.631,0,0,1-8.142,3.23,16.576,16.576,0,0,0,14.735,4.078,17.51,17.51,0,0,0,3-.952,19.534,19.534,0,0,0,9.755-.833A16.994,16.994,0,0,0,154.1,97.77q.26-.7.45-1.426a12.921,12.921,0,0,0,1.171-2.562,9.7,9.7,0,0,0-2.693-10.656" transform="translate(-15.518 -10.987)" fill="#25382b"/>
        <path id="Trazado_999447" data-name="Trazado 999447" d="M108.832,95.958a13.734,13.734,0,0,0-1.056-2.438,10.7,10.7,0,0,0-.212-5.95,11.161,11.161,0,0,0-9.1-7.134c-.4-.062-.794-.1-1.193-.127a11.087,11.087,0,0,0-.45-1.74,12.212,12.212,0,0,0-7.543-7.231,13.742,13.742,0,0,0-10.927.7,13.129,13.129,0,0,0-6.73,8.082,12.485,12.485,0,0,0-.274,5,16.9,16.9,0,0,0-10.764,1.593,11.793,11.793,0,0,0-5.543,6.033,9.218,9.218,0,0,0,1.35,8.384c.179.259.369.508.565.752a25.335,25.335,0,0,0,14.872,16.753,24.818,24.818,0,0,0,13.349,1.357,20.546,20.546,0,0,0,10.936-5.674c.309-.312.6-.635.891-.965a15.955,15.955,0,0,0,8.07-3.574,12.821,12.821,0,0,0,3.762-13.819" transform="translate(-7.273 -9.404)" fill="#497d58"/>
        <path id="Trazado_999448" data-name="Trazado 999448" d="M80.5,72.767a15.2,15.2,0,0,1,10.111-2.022,13.143,13.143,0,0,1,8.53,5.47c.078.114.264.006.186-.109a13.354,13.354,0,0,0-8.659-5.568,15.428,15.428,0,0,0-10.277,2.043.108.108,0,0,0,.108.186" transform="translate(-10.713 -9.38)" fill="#25382b"/>
        <path id="Trazado_999449" data-name="Trazado 999449" d="M109.948,98.2a13.872,13.872,0,0,0-1.056-2.437,10.686,10.686,0,0,0-.213-5.95,9.49,9.49,0,0,0-1.257-2.478,11.644,11.644,0,0,1-3.542,3.769,13.1,13.1,0,0,1-3.414,1.629,7.31,7.31,0,0,0-5.009,4.94,12.237,12.237,0,0,1-5.491,7.319A14.428,14.428,0,0,1,87.6,106.14a12.194,12.194,0,0,0-5.859,4.583,10.108,10.108,0,0,1-1.138,1.412c-2.888,2.99-7.332,4-11.492,3.407a18.968,18.968,0,0,1-6.2-2.069,24.433,24.433,0,0,0,10.027,7.4,24.82,24.82,0,0,0,13.35,1.356,20.533,20.533,0,0,0,10.935-5.672c.309-.313.606-.636.891-.966a15.97,15.97,0,0,0,8.072-3.573A12.824,12.824,0,0,0,109.948,98.2" transform="translate(-8.389 -11.645)" fill="#25382b"/>
        <path id="Trazado_999450" data-name="Trazado 999450" d="M51.151,108.107a7.61,7.61,0,0,0-.633-1.632,9.117,9.117,0,0,0,.29-3.091,8.121,8.121,0,0,0-7.3-7.679,8.721,8.721,0,0,0-2.517.159c.032-.309.057-.62.07-.93A13.4,13.4,0,0,0,37.419,85.1a11.988,11.988,0,0,0-9.555-3.547,16.088,16.088,0,0,0-9.953,4.5c-.049.049-.1.1-.145.147a12.889,12.889,0,0,0-4.57-2.073A9.332,9.332,0,0,0,4.052,86.75,13.925,13.925,0,0,0,.83,96.291a10.762,10.762,0,0,0,1.484,5.57A10.4,10.4,0,0,0,.75,104.411a9.962,9.962,0,0,0-.629,5.371,14.785,14.785,0,0,0,5.99,9.373,18.867,18.867,0,0,0,11.746,3.733,20.129,20.129,0,0,0,3.684-.441A16.29,16.29,0,0,0,33.1,126.092a15.49,15.49,0,0,0,12.438-8.02l.008-.016a8.535,8.535,0,0,0,5.606-9.949" transform="translate(0 -10.87)" fill="#497d58"/>
        <path id="Trazado_999451" data-name="Trazado 999451" d="M33.24,81.283a14.532,14.532,0,0,1,9.9,5.1c.088.111.244-.046.156-.157a14.746,14.746,0,0,0-10.06-5.162c-.142-.01-.141.211,0,.221" transform="translate(-4.418 -10.809)" fill="#25382b"/>
        <path id="Trazado_999452" data-name="Trazado 999452" d="M51.32,110.292a7.661,7.661,0,0,0-.632-1.633,9.11,9.11,0,0,0,.29-3.09,8.132,8.132,0,0,0-7.1-7.66,12.276,12.276,0,0,1-2.079,8.234,12.716,12.716,0,0,1-8.81,5.294l-.1.01a13.108,13.108,0,0,0-6.691,2.481,25.764,25.764,0,0,1-2.325,1.544,22.418,22.418,0,0,1-10.725,3,21.475,21.475,0,0,1-11.873-3.214,15.991,15.991,0,0,0,5.006,6.077,18.861,18.861,0,0,0,11.746,3.733,20.056,20.056,0,0,0,3.684-.441,16.279,16.279,0,0,0,11.559,3.645,15.5,15.5,0,0,0,12.439-8.019l.007-.016a8.536,8.536,0,0,0,5.6-9.949" transform="translate(-0.17 -13.055)" fill="#25382b"/>
        <path id="Trazado_999453" data-name="Trazado 999453" d="M142.441,129.442s.876,3.855-.285,5.066H129.587a1.565,1.565,0,0,1,1.214-1.8c1.531-.569,3.451-.835,4.24-1.439.679-.522,2.055-1.724,2.055-1.724a8.478,8.478,0,0,0,2.7.349,11.489,11.489,0,0,0,2.645-.449" transform="translate(-17.276 -17.26)" fill="#1e272e"/>
        <path id="Trazado_999454" data-name="Trazado 999454" d="M142.53,134.157H129.806a.111.111,0,0,0,0,.223H142.53a.111.111,0,0,0,0-.223" transform="translate(-17.294 -17.889)" fill="#ffe9d1"/>
        <path id="Trazado_999455" data-name="Trazado 999455" d="M138.879,130.787l-1.121-.765c-.119-.081-.23.111-.113.192l1.121.766c.119.081.231-.112.113-.192" transform="translate(-18.347 -17.335)" fill="#ffe9d1"/>
        <path id="Trazado_999456" data-name="Trazado 999456" d="M138.055,131.5l-1.121-.765c-.119-.081-.23.111-.113.192l1.121.766c.119.081.231-.112.113-.192" transform="translate(-18.237 -17.43)" fill="#ffe9d1"/>
        <path id="Trazado_999457" data-name="Trazado 999457" d="M163.129,129.843s.871,3.973-.291,5.183h-10.96a1.756,1.756,0,0,1,1.213-2,7.892,7.892,0,0,0,2.631-1.238c.68-.521,2.056-1.723,2.056-1.723a8.555,8.555,0,0,0,2.72.355,9.148,9.148,0,0,0,2.63-.573" transform="translate(-20.248 -17.313)" fill="#1e272e"/>
        <path id="Trazado_999458" data-name="Trazado 999458" d="M163.212,134.694H152.1a.111.111,0,0,0,0,.223h11.111a.111.111,0,0,0,0-.223" transform="translate(-20.267 -17.96)" fill="#ffe9d1"/>
        <path id="Trazado_999459" data-name="Trazado 999459" d="M159.313,131.324l-1.121-.765c-.119-.081-.23.112-.113.192l1.121.766c.119.081.231-.112.113-.192" transform="translate(-21.072 -17.406)" fill="#ffe9d1"/>
        <path id="Trazado_999460" data-name="Trazado 999460" d="M158.489,132.037l-1.121-.765c-.119-.081-.23.111-.113.192l1.121.766c.119.081.231-.112.113-.192" transform="translate(-20.962 -17.501)" fill="#ffe9d1"/>
        <path id="Trazado_999461" data-name="Trazado 999461" d="M149.865,13.5a3.933,3.933,0,0,0-.569,1.883c-.08,1.842.048,3.722.137,5.562.191,3.892.559,7.777,1.069,11.642.449,3.4.989,6.8,1.654,10.162a8.193,8.193,0,0,0,1.7,4.172,5.794,5.794,0,0,0,3.856,1.675c2.512.223,5.639.295,7.525-1.719,2.217-2.369,1.5-6.209,1.338-9.2a206.881,206.881,0,0,0-1.973-21.433,7.383,7.383,0,0,0-1.845-4.415,6.26,6.26,0,0,0-3.629-1.552,13.951,13.951,0,0,0-8.6,2.06,1.248,1.248,0,0,0-.666,1.163" transform="translate(-19.904 -1.36)" fill="#ffb338"/>
        <path id="Trazado_999462" data-name="Trazado 999462" d="M163.736,13.422a12.8,12.8,0,0,1-4.687,1.238,16.553,16.553,0,0,1-4.728-.082c-.14-.026-.2.189-.059.215a16.874,16.874,0,0,0,4.948.072,12.876,12.876,0,0,0,4.638-1.25c.126-.068.014-.26-.113-.192" transform="translate(-20.559 -1.788)" fill="#ffe9d1"/>
        <path id="Trazado_999463" data-name="Trazado 999463" d="M163.383,43.814c-3.336,1.45-7.249,1.075-10.688.222a.111.111,0,0,0-.059.214c3.506.87,7.462,1.232,10.859-.244.131-.057.017-.249-.113-.192" transform="translate(-20.342 -5.841)" fill="#ffe9d1"/>
        <path id="Trazado_999464" data-name="Trazado 999464" d="M153.277,8.746a3.114,3.114,0,0,1,1.891-.814,10.768,10.768,0,0,1,2.281-.214,4.068,4.068,0,0,1,2.6.73,1.88,1.88,0,0,1,.115,2.032,3.958,3.958,0,0,1-2,.729,11.007,11.007,0,0,1-2.129.207,6.978,6.978,0,0,1-2.481-.494,1.6,1.6,0,0,1-.275-2.176" transform="translate(-20.397 -1.029)" fill="#1e272e"/>
        <path id="Trazado_999465" data-name="Trazado 999465" d="M160.152,8.825a15.263,15.263,0,0,1-7,.5c-.14-.023-.2.192-.059.214a15.507,15.507,0,0,0,7.121-.5c.136-.043.078-.258-.059-.215" transform="translate(-20.402 -1.176)" fill="#ffe9d1"/>
        <path id="Trazado_999466" data-name="Trazado 999466" d="M156.105,11.125q-.082-.633-.165-1.265c-.018-.14-.241-.141-.223,0q.083.633.165,1.265c.018.14.241.142.223,0" transform="translate(-20.764 -1.301)" fill="#ffe9d1"/>
        <path id="Trazado_999467" data-name="Trazado 999467" d="M158.13,10.988c-.055-.422-.11-.842-.165-1.264-.018-.14-.241-.141-.223,0,.055.422.11.842.165,1.264.018.14.241.142.223,0" transform="translate(-21.034 -1.283)" fill="#ffe9d1"/>
        <path id="Trazado_999468" data-name="Trazado 999468" d="M160.306,10.535q-.082-.633-.165-1.265c-.018-.14-.241-.141-.223,0q.083.633.165,1.265c.018.14.241.142.223,0" transform="translate(-21.324 -1.222)" fill="#ffe9d1"/>
        <path id="Trazado_999469" data-name="Trazado 999469" d="M145.015,15.742a1.244,1.244,0,0,0-1.289-1.3,11.535,11.535,0,0,0-7.913,3.228,13.02,13.02,0,0,0-3.551,7.972c-.353,2.817-.153,5.681-.495,8.495a8.705,8.705,0,0,1-.82,2.889c-1.552,2.05-3.51,4.572-4.908,6.711-1.348,2.062-2.047,5.054-.646,7.077.029.065.056.13.088.195a4.444,4.444,0,0,0,4.814,2.57A6.855,6.855,0,0,0,134.2,52.1c5.326-3.967,8.3-9.694,9.5-16.137.757-4.057,1.215-8.18,1.785-12.265.326-2.331,1.153-6.085-.472-7.957" transform="translate(-16.618 -1.926)" fill="#97bf6f"/>
        <path id="Trazado_999470" data-name="Trazado 999470" d="M129.678,58.233c.643-.437,1.79,1.162,2.138,1.575a11.536,11.536,0,0,0,1.613,1.7,3.415,3.415,0,0,0,3.8.566.334.334,0,0,0-.337-.576c-1.621.953-3.266-.58-4.252-1.738-.642-.755-2.079-2.929-3.3-2.1-.353.24-.019.819.337.576" transform="translate(-17.226 -7.663)" fill="#ffb338"/>
        <path id="Trazado_999471" data-name="Trazado 999471" d="M128.274,52.977a4.085,4.085,0,0,1,.928-1.368c.1-.1-.055-.257-.158-.157a4.361,4.361,0,0,0-.985,1.466c-.055.132.161.19.215.059" transform="translate(-17.074 -6.857)" fill="#1e272e"/>
        <path id="Trazado_999472" data-name="Trazado 999472" d="M127.278,52.651a2.525,2.525,0,0,1,.894-1.218c.114-.084,0-.277-.113-.192a2.778,2.778,0,0,0-1,1.35c-.046.135.168.194.215.059" transform="translate(-16.942 -6.83)" fill="#1e272e"/>
        <path id="Trazado_999473" data-name="Trazado 999473" d="M124.692,53.437a3.186,3.186,0,0,1,4.463-1.62,2.887,2.887,0,0,1,.634,4.569c-.1.1.055.258.158.158A3.114,3.114,0,0,0,129.4,51.7a3.408,3.408,0,0,0-4.9,1.622c-.055.131.136.244.192.113" transform="translate(-16.6 -6.828)" fill="#1e272e"/>
        <path id="Trazado_999474" data-name="Trazado 999474" d="M128.812,53.728a2.911,2.911,0,0,0-1.42-.953,4.044,4.044,0,0,0-3.594.887,4.941,4.941,0,0,0-1.9,3.282,3.887,3.887,0,0,0,2,3.863,1.489,1.489,0,0,0,1.714-.308c.008-.007.014-.016.022-.023A1.566,1.566,0,0,0,127,59.966a2.244,2.244,0,0,0,.27-.364,1.356,1.356,0,0,0,1.574-.869,4.556,4.556,0,0,0,.364-1.032c.1-.475.277-.945.341-1.432a3.365,3.365,0,0,0-.734-2.541" transform="translate(-16.252 -7.02)" fill="#ffe9d1"/>
        <path id="Trazado_999475" data-name="Trazado 999475" d="M123.694,56.4l-22.2,12.476.439.781,22.2-12.476Z" transform="translate(-13.533 -7.52)" fill="#1e272e"/>
        <path id="Trazado_999476" data-name="Trazado 999476" d="M97.591,74.593l3.525-1.98a.611.611,0,0,0,.233-.833L100.8,70.8l-4.058,2.279a.87.87,0,0,0,.853,1.518" transform="translate(-12.84 -9.44)" fill="#ffe9d1"/>
        <path id="Trazado_999477" data-name="Trazado 999477" d="M121.828,58.958s.483,1,1.1.959,1.216-.939,2.672-.694a1.665,1.665,0,0,0,1.719-2.316c-.469-.874-.909-.517-.909-.517Z" transform="translate(-16.245 -7.509)" fill="#1e272e"/>
        <path id="Trazado_999478" data-name="Trazado 999478" d="M97.06,73.639c.378.119.78.745.445,1.076-.1.1.055.257.158.157.467-.461-.007-1.279-.543-1.447-.137-.043-.195.172-.059.214" transform="translate(-12.932 -9.79)" fill="#1e272e"/>
        <path id="Trazado_999479" data-name="Trazado 999479" d="M127.636,56.158a.569.569,0,0,0-.49-.317,1.836,1.836,0,0,0-.408.069A3.532,3.532,0,0,0,125.8,57.8c-.235.715-.834,1.474-.7,2.215.092.52,1,.5,1.415.167a1.848,1.848,0,0,0,.506-.794,5.6,5.6,0,0,0,.615-3.234" transform="translate(-16.678 -7.446)" fill="#ffe9d1"/>
        <path id="Trazado_999480" data-name="Trazado 999480" d="M163.829,101.128c-.111-2.471-.381-5.872-.592-8.336-.209-2.437-3.485-12.2-3.587-14.639-.251-6,1.141-15.348.413-22.462-.569-5.566-.953-11.149-1.43-16.723a.115.115,0,0,0-.218-.042,2.747,2.747,0,0,0-.134-.355,80.5,80.5,0,0,0-.522-8.717q-.443-3.848-1.254-7.642a13.126,13.126,0,0,0-2.128-5.505c-1.3-1.653-.812-3.185-2.826-3.389a28.471,28.471,0,0,0-9.121,1.237c-3.993,1.549-4.26,6.7-4.578,10.361a55.1,55.1,0,0,0,.388,12.762c-1.331,9.665-2.509,18.156-3.73,27.836a154.918,154.918,0,0,0-1.777,23.051c-.094,5.365-.1,15.407,1.316,20.588a7.915,7.915,0,0,0,.309.754,6.7,6.7,0,0,0,5.518,3.424,7.131,7.131,0,0,0,6.23-2.922c1.8-2.482,1.5-5.742,1.393-8.635q-.1-2.5-.17-5c.18,1.2,2.836,12.552,5.581,15.039,2.281,2.067,3.975,2.027,6.612.537.185-.1.5-.281.58-.341,3.3-2.565,3.9-6.977,3.726-10.885" transform="translate(-17.694 -1.77)" fill="#97bf6f"/>
        <path id="Trazado_999481" data-name="Trazado 999481" d="M162.437,98.234c-.2-.106-.267-.5-.244-.7a5.879,5.879,0,0,1,.313-1.06,7.038,7.038,0,0,1,.608-1.617.471.471,0,0,1,.392-.271.349.349,0,0,1,.256.167.751.751,0,0,1,.059.574,9.585,9.585,0,0,1-.852,2.59.767.767,0,0,1-.224.276.291.291,0,0,1-.308.043" transform="translate(-21.626 -12.612)" fill="#1e272e"/>
        <path id="Trazado_999482" data-name="Trazado 999482" d="M163.351,87.828c-.027-.628-.036-1.294-.029-1.99q-.911,2.435-1.816,4.871c-.327.877-.743,1.762-.99,2.663-.1.387-.1.828.322,1,1.2.48,1.715-1.739,1.958-2.454a20.5,20.5,0,0,0,.734-2.838,8.9,8.9,0,0,1-.18-1.253" transform="translate(-21.396 -11.446)" fill="#1e272e"/>
        <path id="Trazado_999483" data-name="Trazado 999483" d="M143.927,127.858c-.054-.709-.114-1.418-.172-2.126-.011-.142-.234-.143-.223,0,.014.175.029.351.042.526l-6.191.211c.006-.065.011-.13.017-.193.013-.142-.21-.141-.223,0-.006.066-.011.133-.017.2l-.093,0c-.142.005-.143.228,0,.223l.077,0a2.57,2.57,0,0,0,.607,2.146,4.043,4.043,0,0,0,2.837.634,9.178,9.178,0,0,0,1.745-.233,3.45,3.45,0,0,0,1.371-.484c.293-.243.248-.556.221-.9" transform="translate(-18.263 -16.751)" fill="#97bf6f"/>
        <path id="Trazado_999484" data-name="Trazado 999484" d="M164.128,128.446c-.054-.709-.114-1.418-.172-2.126-.011-.142-.234-.143-.223,0,.015.175.029.351.042.526l-6.191.211c.006-.065.011-.13.017-.193.013-.142-.21-.141-.223,0-.006.066-.011.133-.017.2l-.093,0c-.142.005-.143.228,0,.223l.077,0a2.57,2.57,0,0,0,.607,2.146,4.043,4.043,0,0,0,2.837.634,9.177,9.177,0,0,0,1.745-.233,3.45,3.45,0,0,0,1.371-.484c.293-.243.248-.556.221-.9" transform="translate(-20.956 -16.83)" fill="#97bf6f"/>
        <path id="Trazado_999485" data-name="Trazado 999485" d="M138.9,43.864a19.038,19.038,0,0,0,6.355.7.111.111,0,0,0,0-.222,18.85,18.85,0,0,1-6.3-.7c-.135-.046-.194.169-.059.215" transform="translate(-18.51 -5.819)" fill="#1e272e"/>
        <path id="Trazado_999486" data-name="Trazado 999486" d="M172.42,36.461a26.35,26.35,0,0,0-2.276-7.661,78.858,78.858,0,0,0-3.449-7.38c-1.288-2.357-2.841-4.665-5.231-5.989s-3.959-1.585-7.5-2.084c0,0-1.419,1.869-1.2,3.154-.307,2.512.7,5.143,1.5,7.485q1.638,4.8,3.611,9.474-2.873,1.248-5.745,2.5a3.882,3.882,0,0,0-2.314,1.9,4.788,4.788,0,0,0,.159,3.323c.7,2.262,1.79,4.525,4.217,5.289,2.519.792,5-.3,7.285-1.273,2.558-1.089,5.2-2.069,7.7-3.3a5.343,5.343,0,0,0,3.256-5.432" transform="translate(-19.943 -1.78)" fill="#97bf6f"/>
        <path id="Trazado_999487" data-name="Trazado 999487" d="M150.638,45.3a21.928,21.928,0,0,1,2.056-.92c.132-.05.075-.266-.059-.214a22.38,22.38,0,0,0-2.109.942c-.127.066-.015.257.113.192" transform="translate(-20.064 -5.889)" fill="#1e272e"/>
        <path id="Trazado_999488" data-name="Trazado 999488" d="M150.988,46.668q1.04-.51,2.121-.923c.133-.05.075-.266-.059-.215q-1.109.425-2.174.946c-.128.063-.016.255.113.192" transform="translate(-20.11 -6.07)" fill="#1e272e"/>
        <path id="Trazado_999489" data-name="Trazado 999489" d="M161.361,52.713a11.511,11.511,0,0,1-4.614,1.337,4.682,4.682,0,0,1-3.619-1.751,3.21,3.21,0,0,0-.757-.888,2.9,2.9,0,0,0-1.894-.1,5.527,5.527,0,0,1-3.057-.521,4.136,4.136,0,0,0,2.812-.567s.907-.132,1.2-.211a2.418,2.418,0,0,0,1.224-.774s.363,1.383.981,1.775a4.325,4.325,0,0,0,2.1.561,11.759,11.759,0,0,0,5.395-1.573q.117,1.352.231,2.707" transform="translate(-19.657 -6.566)" fill="#1e272e"/>
        <path id="Trazado_999490" data-name="Trazado 999490" d="M151.837,11.507c1.6-1.641-.016-5.141,0-6.348.027-2.142-1.033-4.48-3.288-5.04-2.662-.66-5.234,1.562-6.873,3.361a2.724,2.724,0,0,0-.568.816,2.313,2.313,0,0,0,.47,2.124c.446.611,1.036,1.109,1.457,1.738,1.206,1.8.845,4.33,2.1,6.1a2.687,2.687,0,0,0,.92.848,2.568,2.568,0,0,0,2.05.062,5.042,5.042,0,0,0,1.732-1.177c.366-.356,1.614-2.08,2.005-2.481" transform="translate(-18.801 0)" fill="#97bf6f"/>
        <path id="Trazado_999491" data-name="Trazado 999491" d="M144.338,14.483s.3,1.8,1.563,2.021a3.8,3.8,0,0,0,2.661-3.226Z" transform="translate(-19.246 -1.771)" fill="#1e272e"/>
        <path id="Trazado_999492" data-name="Trazado 999492" d="M144.163,14.652a2.591,2.591,0,0,0,.653,1.482,2.174,2.174,0,0,0,.988.739c.139.025.2-.189.058-.215a1.917,1.917,0,0,1-.839-.627,2.356,2.356,0,0,1-.639-1.379c-.008-.142-.231-.143-.222,0" transform="translate(-19.223 -1.939)" fill="#1e272e"/>
        <path id="Trazado_999493" data-name="Trazado 999493" d="M142.223,9.159a5.116,5.116,0,0,1-.154-2.62c.272-.8,2.114-1.531,3.869-1.334a2.58,2.58,0,0,1,2.194,2.532s-.785,2.373-2.169,2.176-3.739-.755-3.739-.755" transform="translate(-18.927 -0.69)" fill="#ffa47b"/>
        <path id="Trazado_999494" data-name="Trazado 999494" d="M143.285,8.67c-.52.05-1.02.8-1.186,1.112a8.585,8.585,0,0,0,.148,2.874,3.622,3.622,0,0,0,2.439,1.549c1.14.212,3.215-1.215,3.772-1.715a18.484,18.484,0,0,0-.315-4.357,3.492,3.492,0,0,1-1.78,1.316c-.964.167-2.559-.829-3.077-.778" transform="translate(-18.938 -1.084)" fill="#ffe9d1"/>
        <path id="Trazado_999495" data-name="Trazado 999495" d="M149.271,44.491c-.359-.2-1.147-1.266-1.286-1.3a4.676,4.676,0,0,0-3.564.558c-.748.461-1.771,1.393-1.572,2.36a1.4,1.4,0,0,0-.883,1.336.959.959,0,0,0,.653.848,1.75,1.75,0,0,0,.271.968,1.362,1.362,0,0,0,.515.461,2.2,2.2,0,0,0,1.274,1.162c1.427.5,3.13-.232,4.384-.908,2.818-1.519.218-5.477.208-5.483" transform="translate(-18.93 -5.741)" fill="#ffe9d1"/>
        <path id="Trazado_999496" data-name="Trazado 999496" d="M126.071,52.69c-1.29.1-3,.391-3.221,1.947a9.937,9.937,0,0,0,.256,2.727c.064.434.158.983.609,1.185a.992.992,0,0,0,1.182-.474c.412-.651.234-1.566.422-2.285a4.568,4.568,0,0,1,.606-1.355,2.457,2.457,0,0,0,.536-.946,1.131,1.131,0,0,0-.389-.8" transform="translate(-16.376 -7.026)" fill="#ffe9d1"/>
        <path id="Trazado_999497" data-name="Trazado 999497" d="M142.081,9.438a1.978,1.978,0,0,1,.99-.977,1.745,1.745,0,0,1,1.18.12,4.29,4.29,0,0,0,1.889.486c.877-.091,2.211-.848,2.055-1.888a2.792,2.792,0,0,0-2.569-2.155A4.416,4.416,0,0,0,141.962,6.2c-.691.848-.4,2.252-.085,3.212.045.136.259.078.215-.059a6.722,6.722,0,0,1-.3-1.7,1.743,1.743,0,0,1,.928-1.794c1.4-.831,3.591-1.022,4.725.324a1.673,1.673,0,0,1,.514,1.328,1.775,1.775,0,0,1-.739.926A2.362,2.362,0,0,1,144.9,8.6a3.524,3.524,0,0,0-1.625-.421,2.015,2.015,0,0,0-1.383,1.147.112.112,0,0,0,.192.113" transform="translate(-18.873 -0.667)" fill="#1e272e"/>
        <path id="Trazado_999498" data-name="Trazado 999498" d="M142.093,9.889c.6-.384,1.232-.806,1.953-.427a4.414,4.414,0,0,0,1.567.7c1.138.108,2.009-1.037,2.526-1.9a.112.112,0,0,0-.192-.113A4.574,4.574,0,0,1,146.6,9.675c-.77.491-1.475.159-2.187-.258a1.79,1.79,0,0,0-1.209-.333,3.612,3.612,0,0,0-1.22.613c-.12.077-.009.27.113.192" transform="translate(-18.925 -1.079)" fill="#1e272e"/>
        <path id="Trazado_999499" data-name="Trazado 999499" d="M143.38,10.815a.64.64,0,0,0-.188-.023.687.687,0,0,0-.558.392c-.356.671-.108,2.3.674,2.347.972.053,1.028-1.185.811-1.843a1.3,1.3,0,0,0-.739-.872" transform="translate(-18.998 -1.439)" fill="#1e272e"/>
        <path id="Trazado_999500" data-name="Trazado 999500" d="M148.985,14.309a8.658,8.658,0,0,0,3.828-.954.111.111,0,0,0-.113-.192,8.438,8.438,0,0,1-3.715.923c-.142.007-.143.23,0,.223" transform="translate(-19.852 -1.753)" fill="#1e272e"/>
        <path id="Trazado_999501" data-name="Trazado 999501" d="M145.777,17.09a117.837,117.837,0,0,1-.771,12.009c-.439,3.707-1,7.683.907,11.1a.111.111,0,0,0,.192-.112c-1.961-3.513-1.263-7.621-.826-11.419.443-3.844.659-7.707.721-11.576a.111.111,0,0,0-.223,0" transform="translate(-19.278 -2.265)" fill="#1e272e"/>
        <path id="Trazado_999502" data-name="Trazado 999502" d="M148.291,42.152a15.131,15.131,0,0,1,2.636-1.453c.817-.433,1.606-.921,2.4-1.392,1.266-.748,2.993-1.973,4.55-1.668.14.027.2-.187.06-.215-1.533-.3-3.175.787-4.429,1.519-.874.51-1.732,1.048-2.623,1.526a15.9,15.9,0,0,0-2.752,1.525c-.11.091.048.248.158.157" transform="translate(-19.747 -4.983)" fill="#1e272e"/>
        <path id="Trazado_999503" data-name="Trazado 999503" d="M158.919,32.491l.3,4.375c.01.142.232.143.222,0q-.151-2.188-.3-4.375c-.01-.142-.232-.143-.223,0" transform="translate(-21.19 -4.318)" fill="#1e272e"/>
        <path id="Trazado_999504" data-name="Trazado 999504" d="M150.421,41.657c2.441,1.225,3.083,4.376,2.452,6.835a.111.111,0,0,0,.214.06c.655-2.552-.023-5.817-2.553-7.088-.128-.064-.241.128-.113.192" transform="translate(-20.05 -5.527)" fill="#1e272e"/>
        <path id="Trazado_999505" data-name="Trazado 999505" d="M159.021,37.335a5.364,5.364,0,0,1,3.671-1.775.62.62,0,0,1,.5.171.455.455,0,0,1-.049.552,1.268,1.268,0,0,1-.5.318,14.584,14.584,0,0,1-3.618.734" transform="translate(-21.204 -4.742)" fill="#1e272e"/>
        <path id="Trazado_999506" data-name="Trazado 999506" d="M159.025,37.515a9.811,9.811,0,0,1,3.228-.093,12.474,12.474,0,0,1,2.133.359,1.468,1.468,0,0,1,.748.413.5.5,0,0,1-.2.756.99.99,0,0,1-.4.03,11.75,11.75,0,0,1-2.783-.65c-.9-.3-1.822-.516-2.72-.816" transform="translate(-21.205 -4.978)" fill="#1e272e"/>
        <path id="Trazado_999507" data-name="Trazado 999507" d="M134.558,37.638a4.256,4.256,0,0,1-1.2,1.417,10.733,10.733,0,0,1-1.433.988c.147-.316.265-.6.363-.874.5-.608,1.005-1.206,1.519-1.8.173-.2.453-.413.667-.26a.459.459,0,0,1,.087.53" transform="translate(-17.591 -4.941)" fill="#1e272e"/>
        <path id="Trazado_999508" data-name="Trazado 999508" d="M138.216,41.42a117.014,117.014,0,0,1-1.595,11.6q-.547.467-1.135.9a8.822,8.822,0,0,1-1.163.734,11.148,11.148,0,0,1,.2-3.624c.519-2.309,1.784-4.545,1.458-6.887A18.488,18.488,0,0,0,135.439,42c-.974-3.731,1.637-10.142,2.545-13.891-.044,2.734-.593,5.675-.638,8.409a9.574,9.574,0,0,0,.87,4.9" transform="translate(-17.902 -3.748)" fill="#1e272e"/>
        <path id="Trazado_999509" data-name="Trazado 999509" d="M147.924,5.525A3.1,3.1,0,0,0,149.01,4c.044-.136-.17-.195-.214-.059a2.841,2.841,0,0,1-.985,1.389c-.112.086,0,.279.113.192" transform="translate(-19.703 -0.515)" fill="#1e272e"/>
        <path id="Trazado_999510" data-name="Trazado 999510" d="M148.687,6.206A4.442,4.442,0,0,0,149.74,5a.111.111,0,0,0-.192-.112,4.276,4.276,0,0,1-1.018,1.16c-.112.089.047.246.158.158" transform="translate(-19.8 -0.645)" fill="#1e272e"/>
        <path id="Trazado_999511" data-name="Trazado 999511" d="M143.58,3.546a2.483,2.483,0,0,0-.294,1.7c.023.141.238.081.214-.059a2.248,2.248,0,0,1,.272-1.524c.075-.122-.117-.234-.192-.113" transform="translate(-19.101 -0.466)" fill="#1e272e"/>
        <path id="Trazado_999512" data-name="Trazado 999512" d="M142.688,4.49a1.889,1.889,0,0,0,.018,1.1c.043.136.258.078.215-.059a1.665,1.665,0,0,1-.018-.98.112.112,0,0,0-.215-.059" transform="translate(-19.017 -0.588)" fill="#1e272e"/>
        <path id="Trazado_999513" data-name="Trazado 999513" d="M137.173,127.589a16.853,16.853,0,0,0,6.708.392c.14-.026.081-.24-.059-.214a16.571,16.571,0,0,1-6.59-.393c-.14-.03-.2.185-.059.215" transform="translate(-18.28 -16.984)" fill="#1e272e"/>
        <path id="Trazado_999514" data-name="Trazado 999514" d="M157.414,128.109a15.455,15.455,0,0,0,6.571-1.053c.131-.056.018-.248-.112-.192a15.219,15.219,0,0,1-6.459,1.022c-.143,0-.143.218,0,.223" transform="translate(-20.976 -16.915)" fill="#1e272e"/>
        <path id="Trazado_999515" data-name="Trazado 999515" d="M142.748,49.236a9.039,9.039,0,0,0,2.768-.021c.141-.023.081-.237-.059-.215a8.628,8.628,0,0,1-2.65.021c-.14-.02-.2.194-.059.215" transform="translate(-19.023 -6.534)" fill="#1e272e"/>
        <path id="Trazado_999516" data-name="Trazado 999516" d="M143.675,50.917a9.038,9.038,0,0,0,2.768-.021c.141-.023.081-.237-.059-.215a8.628,8.628,0,0,1-2.65.021c-.14-.02-.2.194-.059.215" transform="translate(-19.147 -6.758)" fill="#1e272e"/>
        <path id="Trazado_999517" data-name="Trazado 999517" d="M126.5,56.3c.35-.616.924-.332,1.085.238a2.315,2.315,0,0,1,.063.6,3.989,3.989,0,0,1-.159,1.1,7.868,7.868,0,0,1-1.388,2.584c-.087.114.107.224.192.112a6.349,6.349,0,0,0,1.575-3.93c-.019-.414-.084-.978-.481-1.21a.787.787,0,0,0-1.079.387.112.112,0,0,0,.192.113" transform="translate(-16.811 -7.427)" fill="#1e272e"/>
        <path id="Trazado_999518" data-name="Trazado 999518" d="M127.84,56.042c.16-.4.5-.791.974-.625.377.129.465.548.476.9a5.217,5.217,0,0,1-.153,1.3,6.716,6.716,0,0,1-1.2,2.263c-.083.117.109.229.192.114a5.734,5.734,0,0,0,1.369-3.872c-.059-.488-.264-.875-.78-.956-.555-.088-.9.342-1.093.817-.053.133.162.19.215.058" transform="translate(-17.017 -7.354)" fill="#1e272e"/>
        <path id="Trazado_999519" data-name="Trazado 999519" d="M122.606,55.99a19.668,19.668,0,0,0,.468,2.684.111.111,0,0,0,.215-.059,19.237,19.237,0,0,1-.46-2.625c-.015-.141-.237-.142-.223,0" transform="translate(-16.348 -7.452)" fill="#1e272e"/>
        <path id="Trazado_999520" data-name="Trazado 999520" d="M125.514,55.541q.081.749.091,1.5a.111.111,0,0,0,.223,0q-.01-.753-.091-1.5c-.016-.141-.238-.142-.223,0" transform="translate(-16.736 -7.392)" fill="#1e272e"/>
        <path id="Trazado_999521" data-name="Trazado 999521" d="M129.692,56.119a.476.476,0,0,1,.39-.193c.191.013.28.18.344.339.053.131.269.074.215-.059-.093-.228-.223-.451-.485-.495a.682.682,0,0,0-.621.25c-.093.108.064.266.158.158" transform="translate(-17.269 -7.427)" fill="#1e272e"/>
        <path id="Trazado_999522" data-name="Trazado 999522" d="M142.858,46.724a3.4,3.4,0,0,0,2.232-1.348,8.313,8.313,0,0,0-.829-1.292.113.113,0,0,0-.21.057.122.122,0,0,0-.06.008c-.635.28-1.828.995-1.667,1.584a2.691,2.691,0,0,0,.534.991" transform="translate(-18.976 -5.871)" fill="#1e272e"/>
        <path id="Trazado_999523" data-name="Trazado 999523" d="M142.731,44.611a.63.63,0,0,0-.124.242.285.285,0,0,0,.07.259.37.37,0,0,0,.3.073,1.769,1.769,0,0,0,.959-.5c.184-.182.461-.766-.024-.835a.629.629,0,0,0-.358.084,2.4,2.4,0,0,0-.423.268,2.195,2.195,0,0,0-.4.408" transform="translate(-19.015 -5.847)" fill="#ffb338"/>
        <path id="Trazado_999524" data-name="Trazado 999524" d="M149.323,44.349a3.553,3.553,0,0,0-3.306-2.337,6.888,6.888,0,0,0-2.563.247c-.419.132-.946.311-1.074.789a.992.992,0,0,0,.654,1.093c.707.3,1.583-.016,2.324.057a4.572,4.572,0,0,1,1.433.384,2.458,2.458,0,0,0,1.019.38,4.842,4.842,0,0,0,1.513-.614" transform="translate(-18.982 -5.599)" fill="#ffe9d1"/>
        <path id="Trazado_999525" data-name="Trazado 999525" d="M145.394,7.514c-.194.124-.143.439-.113.63a.754.754,0,0,0,.2.465.288.288,0,0,0,.426-.119.512.512,0,0,0,.023-.166,1.693,1.693,0,0,0-.069-.564.439.439,0,0,0-.177-.252.278.278,0,0,0-.171-.034.273.273,0,0,0-.115.04" transform="translate(-19.368 -0.996)" fill="#1e272e"/>
        <path id="Trazado_999526" data-name="Trazado 999526" d="M142.918,7.675c-.172.11-.127.392-.1.561a.67.67,0,0,0,.176.414.256.256,0,0,0,.379-.106.47.47,0,0,0,.019-.148,1.506,1.506,0,0,0-.061-.5.4.4,0,0,0-.158-.224.246.246,0,0,0-.153-.03.241.241,0,0,0-.1.036" transform="translate(-19.04 -1.018)" fill="#1e272e"/>
        <path id="Trazado_999527" data-name="Trazado 999527" d="M144.783,7.014c.309.062.6-.089.912,0,.257.073.668.2.811-.122a.515.515,0,0,0-.261-.616,1.5,1.5,0,0,0-.81-.163c-.292.018-1.023.14-1.017.549a.407.407,0,0,0,.366.354" transform="translate(-19.257 -0.814)" fill="#1e272e"/>
        <path id="Trazado_999528" data-name="Trazado 999528" d="M142.28,7.443c.214.006.37-.152.551-.238s.458-.032.622-.161a.236.236,0,0,0,.025-.345.523.523,0,0,0-.167-.133.985.985,0,0,0-1.215.27c-.179.228-.182.6.184.608" transform="translate(-18.932 -0.861)" fill="#1e272e"/>
        <path id="Trazado_999529" data-name="Trazado 999529" d="M159.832,14.364a17.873,17.873,0,0,0-2.52-.592,22.476,22.476,0,0,0,1.265,16.514.209.209,0,0,0,.21.1.157.157,0,0,0,.122-.206,21.906,21.906,0,0,1,.923-15.816" transform="translate(-20.84 -1.836)" fill="#ffe9d1"/>
        <path id="Trazado_999530" data-name="Trazado 999530" d="M140.348,15.844a11.377,11.377,0,0,0-2.543,1.724,13.861,13.861,0,0,0,.429,9.126.078.078,0,0,0,.116.047.161.161,0,0,0,.049-.14,18.722,18.722,0,0,1,1.949-10.756" transform="translate(-18.299 -2.113)" fill="#ffe9d1"/>
        <path id="Trazado_999531" data-name="Trazado 999531" d="M146.129,15.989a4.846,4.846,0,0,0,2.355-1.994c.94-1.771.636-4.026.29-5.908-.026-.14-.241-.081-.215.059.337,1.836.652,4.1-.309,5.813a4.706,4.706,0,0,1-2.234,1.839c-.128.063-.016.255.113.192" transform="translate(-19.462 -1.068)" fill="#1e272e"/>
        <path id="Trazado_999532" data-name="Trazado 999532" d="M162.183,127.92a11.118,11.118,0,0,1,.3,2.138c.007.143.229.143.223,0a11.457,11.457,0,0,0-.308-2.2c-.034-.14-.249-.081-.215.059" transform="translate(-21.625 -17.038)" fill="#1e272e"/>
        <path id="Trazado_999533" data-name="Trazado 999533" d="M163.03,127.686a8.245,8.245,0,0,1,.266,2.158.111.111,0,0,0,.223,0,8.428,8.428,0,0,0-.275-2.217.111.111,0,0,0-.214.059" transform="translate(-21.738 -17.007)" fill="#1e272e"/>
        <path id="Trazado_999534" data-name="Trazado 999534" d="M140.842,128.082a11.541,11.541,0,0,1,0,1.765c-.01.143.212.142.223,0a11.653,11.653,0,0,0,0-1.765c-.011-.142-.234-.143-.223,0" transform="translate(-18.78 -17.064)" fill="#1e272e"/>
        <path id="Trazado_999535" data-name="Trazado 999535" d="M141.781,128.154a4.774,4.774,0,0,1,.049,1.593c-.019.14.195.2.214.059a5.109,5.109,0,0,0-.049-1.711c-.029-.14-.243-.081-.215.059" transform="translate(-18.905 -17.07)" fill="#1e272e"/>
        <path id="Trazado_999536" data-name="Trazado 999536" d="M149.113,108.058q-.094-2.436-.165-4.87c-.005-.059-.005-.128-.005-.128s-2.37-20.285-1.872-31.674a49.22,49.22,0,0,0-.526-10.981c.012.146-.28.567-.337.707a13.663,13.663,0,0,0-.711,2.724c-1.781,9.7.255,18.995,1.264,28.608A79.361,79.361,0,0,1,147.2,103.3a44.871,44.871,0,0,1-1.665,10.272,8.851,8.851,0,0,0,.045,5.067,7.17,7.17,0,0,0,2.144-1.947c1.8-2.482,1.5-5.742,1.393-8.634" transform="translate(-19.307 -8.055)" fill="#1e272e"/>
        <path id="Trazado_999537" data-name="Trazado 999537" d="M149.143,10.156a1.7,1.7,0,0,0-.558,1.2c0,.4.313.53.666.448.14-.033.081-.247-.059-.215-.433.1-.415-.295-.324-.6a1.546,1.546,0,0,1,.433-.681c.1-.1-.054-.257-.158-.158" transform="translate(-19.813 -1.35)" fill="#1e272e"/>
        <path id="Trazado_999538" data-name="Trazado 999538" d="M143.768,13.209a1.859,1.859,0,0,0-.151-1.993c-.087-.112-.28,0-.192.112a1.661,1.661,0,0,1,.151,1.769c-.086.115.107.226.192.113" transform="translate(-19.121 -1.489)" fill="#ffe9d1"/>
        <path id="Trazado_999539" data-name="Trazado 999539" d="M93.323,113.092a.843.843,0,0,1,1.151.111.781.781,0,0,1,.078.918c-.572.868-2.05-.324-1.229-1.029" transform="translate(-12.411 -15.056)" fill="#edf5fa"/>
        <path id="Trazado_999540" data-name="Trazado 999540" d="M89.592,97.88a1.159,1.159,0,0,1,1.922-.6,1.136,1.136,0,0,1-.583,1.892c-.726.1-1.562-.5-1.339-1.287" transform="translate(-11.941 -12.927)" fill="#edf5fa"/>
        <path id="Trazado_999541" data-name="Trazado 999541" d="M94.925,90.734c0-.011,0-.022,0-.033a1.318,1.318,0,0,1,1.561-1.367,1.334,1.334,0,0,1,.946,1.206c.052,1.154-1.376,2.018-2.207,1.067a1,1,0,0,1-.194-.34,1.459,1.459,0,0,1-.107-.534" transform="translate(-12.657 -11.906)" fill="#edf5fa"/>
        <path id="Trazado_999542" data-name="Trazado 999542" d="M88.978,84.138l0,0a.826.826,0,0,1,.764-.2h0a.681.681,0,0,1,.667.667.865.865,0,0,1-1.068.875.812.812,0,0,1-.435-.3.724.724,0,0,1-.192-.425.683.683,0,0,1,.257-.615" transform="translate(-11.83 -11.189)" fill="#edf5fa"/>
        <path id="Trazado_999543" data-name="Trazado 999543" d="M94.806,78.193a.809.809,0,0,1,.213-.374.836.836,0,0,1,1.376.836.848.848,0,0,1-.568.569.814.814,0,0,1-.809-.231.874.874,0,0,1-.213-.8" transform="translate(-12.638 -10.347)" fill="#edf5fa"/>
        <path id="Trazado_999544" data-name="Trazado 999544" d="M80.106,99.68a1.112,1.112,0,0,1,.939-.182c1.738.478.453,3.29-.88,2.2a1.241,1.241,0,0,1-.567-.725,1.215,1.215,0,0,1,.507-1.3" transform="translate(-10.608 -13.262)" fill="#edf5fa"/>
        <path id="Trazado_999545" data-name="Trazado 999545" d="M75.97,108.5a.871.871,0,0,1,.913-.1c1.212.571.029,2.407-1.018,1.6a.929.929,0,0,1,.1-1.5" transform="translate(-10.071 -14.442)" fill="#edf5fa"/>
        <path id="Trazado_999546" data-name="Trazado 999546" d="M74.725,115.01a.658.658,0,0,1,.061-.06.594.594,0,0,1,.136-.156.6.6,0,0,1,.959.531.511.511,0,0,1-.023.12c0,.008,0,.016-.008.024a.58.58,0,0,1-.045.1.6.6,0,0,1-.116.15l0,0-.006.011a.568.568,0,0,1-.823.113.574.574,0,0,1-.132-.834" transform="translate(-9.947 -15.292)" fill="#edf5fa"/>
        <path id="Trazado_999547" data-name="Trazado 999547" d="M83.638,117.743a.872.872,0,0,1,1.385.4,1.027,1.027,0,0,1-.9,1.4.861.861,0,0,1-.582-.116c-.78-.484-.465-1.306.094-1.68" transform="translate(-11.078 -15.674)" fill="#edf5fa"/>
        <path id="Trazado_999548" data-name="Trazado 999548" d="M83.435,92.546a.681.681,0,0,1,.622,1.183.692.692,0,0,1-1.145-.459.739.739,0,0,1,.523-.724" transform="translate(-11.056 -12.335)" fill="#edf5fa"/>
        <path id="Trazado_999549" data-name="Trazado 999549" d="M94.591,104.947a.778.778,0,0,1,.27-.473.827.827,0,0,1,1.288.545c.148.9-.88,1.184-1.432.6a.578.578,0,0,1-.1-.141.653.653,0,0,1-.024-.53" transform="translate(-12.607 -13.909)" fill="#edf5fa"/>
        <path id="Trazado_999550" data-name="Trazado 999550" d="M87.04,107.566a.532.532,0,0,1,.7-.043.655.655,0,0,1,.16.815.574.574,0,0,1-1.107-.219.736.736,0,0,1,.25-.552" transform="translate(-11.573 -14.323)" fill="#edf5fa"/>
        <path id="Trazado_999551" data-name="Trazado 999551" d="M90.229,79.926a.519.519,0,0,1,.322-.3.381.381,0,0,1,.209-.053.455.455,0,0,1,.441.4.5.5,0,0,1,0,.176l0,.054a.46.46,0,0,1-.445.445.534.534,0,0,1-.523-.725" transform="translate(-12.026 -10.611)" fill="#edf5fa"/>
        <path id="Trazado_999552" data-name="Trazado 999552" d="M83.055,85.206l.011-.018a.736.736,0,0,1,1.374.527c-.17.648-.868,1.034-1.344.426a.854.854,0,0,1-.041-.934" transform="translate(-11.059 -11.302)" fill="#edf5fa"/>
        <path id="Trazado_999553" data-name="Trazado 999553" d="M73.877,102.317a.555.555,0,1,1,1.106.09c-.019.438-.689,1.065-1,.506a1.011,1.011,0,0,1-.1-.6" transform="translate(-9.85 -13.572)" fill="#edf5fa"/>
        <path id="Trazado_999554" data-name="Trazado 999554" d="M98.8,108.791a.623.623,0,0,1,1,.224.675.675,0,0,1-1.116.711.614.614,0,0,1,.114-.935" transform="translate(-13.137 -14.485)" fill="#edf5fa"/>
        <path id="Trazado_999555" data-name="Trazado 999555" d="M97.758,83.648a.452.452,0,0,1,.653.266l0,.015c.011,0,.023.006.035.011a.1.1,0,0,1,.008.176.493.493,0,0,1-.013.155l-.007.026,0,.013a.427.427,0,0,1-.425.336.539.539,0,0,1-.5-.4.527.527,0,0,1,.252-.6" transform="translate(-13 -11.147)" fill="#edf5fa"/>
        <path id="Trazado_999556" data-name="Trazado 999556" d="M68.5,116.29a.739.739,0,0,1,1.219.094.921.921,0,0,1-.768,1.3.676.676,0,0,1-.66-.563.83.83,0,0,1,.209-.829" transform="translate(-9.101 -15.47)" fill="#edf5fa"/>
        <path id="Trazado_999557" data-name="Trazado 999557" d="M97.435,122.513a.762.762,0,0,1,.91.072c.754.671-.29,1.765-1.052,1.173a.771.771,0,0,1-.25-.59.781.781,0,0,1,.392-.654" transform="translate(-12.94 -16.32)" fill="#edf5fa"/>
        <path id="Trazado_999558" data-name="Trazado 999558" d="M80.052,126.423c.012-.245.233-.389.524-.179.4.291-.111,1.083-.449.472a.556.556,0,0,1-.075-.294" transform="translate(-10.674 -16.82)" fill="#edf5fa"/>
        <path id="Trazado_999559" data-name="Trazado 999559" d="M88.436,125.106a.821.821,0,0,1,.9-.614.866.866,0,0,1,.669.949c-.107.752-1.271,1.17-1.576.325a1.009,1.009,0,0,1,.007-.66" transform="translate(-11.784 -16.598)" fill="#edf5fa"/>
        <path id="Trazado_999560" data-name="Trazado 999560" d="M97.672,98.33a.813.813,0,0,1,.9-.732c.475.064.993.728.643,1.187-.466.612-1.666.436-1.546-.455" transform="translate(-13.023 -13.013)" fill="#edf5fa"/>
        <path id="Trazado_999561" data-name="Trazado 999561" d="M89.783,91.573c.007-.389.463-.493.76-.31.866.53-.419,1.566-.721.562a.861.861,0,0,1-.039-.252" transform="translate(-11.972 -12.157)" fill="#edf5fa"/>
        <path id="Trazado_999562" data-name="Trazado 999562" d="M82.718,111.288a.761.761,0,0,1,.907.33.5.5,0,0,1,.053.273c.224.569-.632.984-1.074.771a.774.774,0,0,1-.369-.951.739.739,0,0,1,.484-.424" transform="translate(-10.959 -14.834)" fill="#edf5fa"/>
        <path id="Trazado_999563" data-name="Trazado 999563" d="M84.734,103.764a.445.445,0,0,1,0,.89.445.445,0,0,1,0-.89" transform="translate(-11.241 -13.836)" fill="#edf5fa"/>
        <path id="Trazado_999564" data-name="Trazado 999564" d="M75.29,122.627a.666.666,0,0,1,.972.337c.185.54-.531.889-.932.58a.564.564,0,0,1-.041-.917" transform="translate(-10.01 -16.337)" fill="#edf5fa"/>
        <path id="Trazado_999565" data-name="Trazado 999565" d="M71.614,129.205a.445.445,0,0,1,0,.89.445.445,0,0,1,0-.89" transform="translate(-9.492 -17.228)" fill="#edf5fa"/>
        <path id="Trazado_999566" data-name="Trazado 999566" d="M84.049,132.856a.445.445,0,0,1,0,.89.445.445,0,0,1,0-.89" transform="translate(-11.15 -17.715)" fill="#edf5fa"/>
        <path id="Trazado_999567" data-name="Trazado 999567" d="M66.822,124.185a.445.445,0,0,1,0,.89.445.445,0,0,1,0-.89" transform="translate(-8.853 -16.559)" fill="#edf5fa"/>
        <path id="Trazado_999568" data-name="Trazado 999568" d="M66.48,109.354a.445.445,0,0,1,0,.89.445.445,0,0,1,0-.89" transform="translate(-8.807 -14.581)" fill="#edf5fa"/>
        <path id="Trazado_999569" data-name="Trazado 999569" d="M61.348,113.583c.519-.112.592.882,0,.882-.524,0-.575-.591-.149-.824a.569.569,0,0,1,.151-.058" transform="translate(-8.122 -15.144)" fill="#edf5fa"/>
        <path id="Trazado_999570" data-name="Trazado 999570" d="M103.672,127.266a.445.445,0,0,1,0,.89.445.445,0,0,1,0-.89" transform="translate(-13.766 -16.97)" fill="#edf5fa"/>
        <path id="Trazado_999571" data-name="Trazado 999571" d="M103.33,120.093a.388.388,0,0,1,.369.194c.339.531-.651,1.006-.795.382a.483.483,0,0,1,.426-.576" transform="translate(-13.72 -16.013)" fill="#edf5fa"/>
        <path id="Trazado_999572" data-name="Trazado 999572" d="M101.959,94.652a.4.4,0,0,1,.435.45c-.026.651-1.166.458-.829-.174a.5.5,0,0,1,.393-.276" transform="translate(-13.535 -12.621)" fill="#edf5fa"/>
        <path id="Trazado_999573" data-name="Trazado 999573" d="M81.437,88.9a.623.623,0,0,1,.225.066c.5.244-.017,1.347-.492.7-.264-.36-.1-.793.267-.765" transform="translate(-10.806 -11.854)" fill="#edf5fa"/>
        <path id="Trazado_999574" data-name="Trazado 999574" d="M86.217,96.919a.445.445,0,0,1,0,.89.445.445,0,0,1,0-.89" transform="translate(-11.439 -12.923)" fill="#edf5fa"/>
        <path id="Trazado_999575" data-name="Trazado 999575" d="M65.225,112.891a.445.445,0,0,1,0,.89.445.445,0,0,1,0-.89" transform="translate(-8.64 -15.053)" fill="#edf5fa"/>
        <path id="Trazado_999576" data-name="Trazado 999576" d="M101.391,123.049a.4.4,0,0,1,.387.234c.3.575-.736.955-.814.3a.472.472,0,0,1,.427-.531" transform="translate(-13.462 -16.407)" fill="#edf5fa"/>
        <path id="Trazado_999577" data-name="Trazado 999577" d="M91.009,120.306a.445.445,0,0,1,0,.89.445.445,0,0,1,0-.89" transform="translate(-12.078 -16.042)" fill="#edf5fa"/>
        <path id="Trazado_999578" data-name="Trazado 999578" d="M92.9,75.725a.487.487,0,0,0-.379.2.367.367,0,0,0-.083.165.677.677,0,0,0,.158.618.446.446,0,0,0,.539.069.566.566,0,0,0,.275-.57.54.54,0,0,0-.51-.485" transform="translate(-12.323 -10.097)" fill="#edf5fa"/>
        <path id="Trazado_999579" data-name="Trazado 999579" d="M94.627,81.459l-.037-.037a.445.445,0,0,0-.629.629l.037.037a.445.445,0,1,0,.629-.629" transform="translate(-12.512 -10.84)" fill="#edf5fa"/>
        <path id="Trazado_999580" data-name="Trazado 999580" d="M87.122,81.178a.67.67,0,0,0-.773-.1.643.643,0,0,0-.324.66.691.691,0,0,0,.081.26.641.641,0,0,0,.6.334.686.686,0,0,0,.613-.476.669.669,0,0,0-.195-.677" transform="translate(-11.47 -10.8)" fill="#edf5fa"/>
        <path id="Trazado_999581" data-name="Trazado 999581" d="M80.491,85.5a.378.378,0,0,0-.243.549.2.2,0,0,0,.3.069.337.337,0,0,0,.113-.036.226.226,0,0,0,.11-.192c0-.058,0-.116,0-.175a.226.226,0,0,0-.282-.215" transform="translate(-10.695 -11.4)" fill="#edf5fa"/>
        <path id="Trazado_999582" data-name="Trazado 999582" d="M82.1,81.306a.59.59,0,0,0-.665-.091.665.665,0,0,0-.433.6.2.2,0,0,0,.028.111c0,.015,0,.029.005.044a.54.54,0,0,0,.131.252.514.514,0,0,0,.6.362.745.745,0,0,0,.33-1.274" transform="translate(-10.8 -10.821)" fill="#edf5fa"/>
        <path id="Trazado_999583" data-name="Trazado 999583" d="M279.123,108.453a9.315,9.315,0,0,0-3.62-5.242,12.5,12.5,0,0,0,1.082-3.131c.479-3.734-.312-5.156-1.05-6.618a10.894,10.894,0,0,0-10.487-5.968,11.173,11.173,0,0,0-1.372.2,8.674,8.674,0,0,0-.588-1.509A7.643,7.643,0,0,0,257,81.89a11.866,11.866,0,0,0-8.062,2.768,13.248,13.248,0,0,0-4.475,6.367,12.526,12.526,0,0,0-.019,7.333,13.442,13.442,0,0,0,5.331,21.815,16.1,16.1,0,0,0,4.752,1.165,13.737,13.737,0,0,0,14.664,3.817c6.834-2.39,11.648-9.925,9.928-16.7" transform="translate(-32.119 -10.915)" fill="#497d58"/>
        <path id="Trazado_999584" data-name="Trazado 999584" d="M272.5,128.44a13.746,13.746,0,0,1-6.836.523,8.4,8.4,0,0,0,1.383-1.726,7.884,7.884,0,0,0,1.051-3.009,11.708,11.708,0,0,1,4.512-7.539,16.644,16.644,0,0,0,6.168-9.946c.015-.079.028-.158.042-.238a9.3,9.3,0,0,1,3.607,5.233c1.721,6.777-3.093,14.311-9.928,16.7" transform="translate(-35.424 -14.202)" fill="#25382b"/>
        <path id="Trazado_999585" data-name="Trazado 999585" d="M257.466,126.852a10.206,10.206,0,0,0-1.026-2.829,13.948,13.948,0,0,0,.4-5.283A14.2,14.2,0,0,0,249.2,108.1a16.318,16.318,0,0,0-2.748-1.163,12.036,12.036,0,0,0-4.2-5.892,12.371,12.371,0,0,0-11.081-1.771,11.263,11.263,0,0,0-7.166,7.647,11.821,11.821,0,0,0-.26,5.17,10.247,10.247,0,0,0-1.776-.318,8.723,8.723,0,0,0-6.1,1.652,9.324,9.324,0,0,0-3.049,4.351c-5.093,2.211-8.108,8.052-6.4,13.2a12.848,12.848,0,0,0,6.3,7.128,13.808,13.808,0,0,0,8.52,1.355,18.981,18.981,0,0,0,9.2,4.568,18.319,18.319,0,0,0,15.6-4.512c.174-.159.344-.322.511-.488a12.208,12.208,0,0,0,6.848-2.035,9.778,9.778,0,0,0,4.055-10.141" transform="translate(-27.461 -13.157)" fill="#497d58"/>
        <path id="Trazado_999586" data-name="Trazado 999586" d="M258.514,128.126a10.211,10.211,0,0,0-1.027-2.831,13.943,13.943,0,0,0,.4-5.282,14.2,14.2,0,0,0-7.641-10.641,16.344,16.344,0,0,0-2.7-1.147,15.134,15.134,0,0,1-2.275,6.639c-.04.064-.082.129-.127.2a9.8,9.8,0,0,0-1.682,5.717,12.1,12.1,0,0,1-.614,4.481c-1.668,4.455-5.809,7.592-10.5,9.041a19.375,19.375,0,0,1-6.261.846,13.182,13.182,0,0,0-8.116,2.439,9.843,9.843,0,0,1-1.044.666,11.236,11.236,0,0,1-3.117,1.144,13.79,13.79,0,0,0,8.483,1.339A18.97,18.97,0,0,0,231.5,145.3a18.309,18.309,0,0,0,15.6-4.511c.175-.159.346-.322.511-.487a12.234,12.234,0,0,0,6.851-2.036,9.783,9.783,0,0,0,4.054-10.14" transform="translate(-28.51 -14.431)" fill="#25382b"/>
        <path id="Trazado_999587" data-name="Trazado 999587" d="M245.241,99.928a11.252,11.252,0,0,1,6.672,8.087c.027.157.265.09.238-.065a11.475,11.475,0,0,0-6.786-8.235c-.145-.062-.271.151-.125.213" transform="translate(-32.692 -13.295)" fill="#25382b"/>
        <path id="Trazado_999588" data-name="Trazado 999588" d="M205.128,136.642a19.144,19.144,0,0,0-2.605-2.834c.008-.029.017-.058.025-.088a11.025,11.025,0,0,0-4.356-11.767,9.357,9.357,0,0,0-1.612-.855,12.081,12.081,0,0,0-1.686-9.609,11.574,11.574,0,0,0-9.782-4.893c-4.2.2-7.783,2.76-10.583,5.5a14.949,14.949,0,0,0-3.915,5.6,8.065,8.065,0,0,0-.446,2.812,12.185,12.185,0,0,0-1.592-.052,14.59,14.59,0,0,0-13.051,9.464,15.322,15.322,0,0,0-.847,3.87,9.543,9.543,0,0,0-4.037,2.656,10.809,10.809,0,0,0-2.677,8.2,11.845,11.845,0,0,0,3.727,7.67,12.521,12.521,0,0,0,8.378,3.1c.466,0,.933-.019,1.4-.062a23.121,23.121,0,0,0,30.587,3.984q.285-.191.562-.392a13.667,13.667,0,0,0,12.217-4.127,13.934,13.934,0,0,0,3.395-8.91,15.036,15.036,0,0,0-3.1-9.27" transform="translate(-19.724 -14.212)" fill="#497d58"/>
        <path id="Trazado_999589" data-name="Trazado 999589" d="M206,139.086a19.227,19.227,0,0,0-2.6-2.834c.008-.029.015-.058.025-.088a11.091,11.091,0,0,0-3.661-11.257,13.638,13.638,0,0,1-.166,2.359,14.021,14.021,0,0,1-3.118,6.765,6.728,6.728,0,0,0-1.654,4.774,9.449,9.449,0,0,1-.054,1.909c-.6,4.629-4.479,8.041-9.12,9.317a17.3,17.3,0,0,1-6.789.43,16.84,16.84,0,0,0-11.191,2.387,21.386,21.386,0,0,1-7.309,2.8,23.562,23.562,0,0,1-5.931.488,13.092,13.092,0,0,0,6.515,1.725,13.912,13.912,0,0,0,1.4-.062,23.12,23.12,0,0,0,30.585,3.985c.191-.126.379-.257.563-.391a13.668,13.668,0,0,0,12.218-4.128,13.937,13.937,0,0,0,3.395-8.91,15.034,15.034,0,0,0-3.1-9.27" transform="translate(-20.591 -16.655)" fill="#25382b"/>
        <path id="Trazado_999590" data-name="Trazado 999590" d="M148.686,154.468a11.589,11.589,0,0,0-.179-7.331,12.668,12.668,0,0,0-5.9-6.818,13.868,13.868,0,0,0-9.6-1.175,12.719,12.719,0,0,0-3.762,1.567,12.111,12.111,0,0,0-2.791-2.555,20.844,20.844,0,0,0-8.337-3.186,20.039,20.039,0,0,0-16.072,4.21,17.16,17.16,0,0,0-4.88,6.634,9.176,9.176,0,0,0-6.907-.54,8.072,8.072,0,0,0-5.332,5.835,7.9,7.9,0,0,0-.146,2.85c-.16.117-.316.238-.47.363a11.869,11.869,0,0,0-4.351,8.455c0,.071-.008.14-.012.21a240.26,240.26,0,0,0,31.21,3.433,247.585,247.585,0,0,0,43.269-2.086,7.693,7.693,0,0,0,.179-1.126,8.57,8.57,0,0,0-5.927-8.74" transform="translate(-10.661 -17.961)" fill="#497d58"/>
        <path id="Trazado_999591" data-name="Trazado 999591" d="M153.986,157.52c-2.6.691-4.969,2.415-7.269,3.692a13.525,13.525,0,0,1-6.355,1.985c-2.52.045-4.975-.613-7.47-.865a10.725,10.725,0,0,0-6.678,1.189,25.545,25.545,0,0,0-5.016,4.434c-.55.557-1.116,1.1-1.7,1.608a247.037,247.037,0,0,0,40.211-2.186,7.8,7.8,0,0,0,.179-1.125,8.568,8.568,0,0,0-5.9-8.732" transform="translate(-15.934 -21.004)" fill="#25382b"/>
        <path id="Trazado_999592" data-name="Trazado 999592" d="M151.292,140.721a14.063,14.063,0,0,1,5.738,5.04,11.321,11.321,0,0,1,1.5,8.121c-.023.134.183.192.205.057A11.544,11.544,0,0,0,157.3,145.8a14.229,14.229,0,0,0-5.9-5.258c-.123-.06-.231.124-.107.184" transform="translate(-20.166 -18.738)" fill="#25382b"/>
      </g>
    </g>
  </g>
</svg>
