<svg xmlns="http://www.w3.org/2000/svg" xmlns:xlink="http://www.w3.org/1999/xlink" width="264.065" height="216.477" viewBox="0 0 264.065 216.477">
  <defs>
    <clipPath id="clip-path">
      <rect id="Rectángulo_405231" data-name="Rectángulo 405231" width="264.065" height="216.476" fill="none"/>
    </clipPath>
    <clipPath id="clip-path-3">
      <rect id="Rectángulo_405211" data-name="Rectángulo 405211" width="15.976" height="26.929" fill="none"/>
    </clipPath>
    <clipPath id="clip-path-4">
      <rect id="Rectángulo_405212" data-name="Rectángulo 405212" width="19.119" height="16.246" fill="none"/>
    </clipPath>
    <clipPath id="clip-path-5">
      <rect id="Rectángulo_405213" data-name="Rectángulo 405213" width="40.822" height="112.001" fill="none"/>
    </clipPath>
    <clipPath id="clip-path-6">
      <rect id="Rectángulo_405215" data-name="Rectángulo 405215" width="60.888" height="38.57" fill="none"/>
    </clipPath>
    <clipPath id="clip-path-7">
      <path id="Trazado_999695" data-name="Trazado 999695" d="M231.932,46.409a3.092,3.092,0,0,1,1.225-.592c1.234-.3,2.4.133,2.6.966s-.635,1.75-1.869,2.049l-50.224,35.46L174.9,50.965Z" transform="translate(-174.898 -45.722)" fill="none"/>
    </clipPath>
    <linearGradient id="linear-gradient" x1="-1.87" y1="3.626" x2="-1.859" y2="3.626" gradientUnits="objectBoundingBox">
      <stop offset="0" stop-color="#879d3b"/>
      <stop offset="1" stop-color="#fff"/>
    </linearGradient>
    <clipPath id="clip-path-8">
      <rect id="Rectángulo_405217" data-name="Rectángulo 405217" width="3.817" height="9.026" fill="none"/>
    </clipPath>
    <clipPath id="clip-path-9">
      <rect id="Rectángulo_405219" data-name="Rectángulo 405219" width="4.753" height="12.885" fill="none"/>
    </clipPath>
    <clipPath id="clip-path-12">
      <rect id="Rectángulo_405225" data-name="Rectángulo 405225" width="4.753" height="12.886" fill="none"/>
    </clipPath>
    <clipPath id="clip-path-14">
      <rect id="Rectángulo_405229" data-name="Rectángulo 405229" width="4.61" height="12.807" fill="none"/>
    </clipPath>
  </defs>
  <g id="Grupo_1109461" data-name="Grupo 1109461" transform="translate(-7431 8371.781)">
    <g id="Grupo_1108899" data-name="Grupo 1108899" transform="translate(7431 -8371.781)">
      <g id="Grupo_1108898" data-name="Grupo 1108898" clip-path="url(#clip-path)">
        <g id="Grupo_1108897" data-name="Grupo 1108897">
          <g id="Grupo_1108896" data-name="Grupo 1108896" clip-path="url(#clip-path)">
            <path id="Trazado_999593" data-name="Trazado 999593" d="M258.767,129.692l.06-1.645q-.2,1.286-.458,2.558c-3.87,19.126-17.181,35.5-33.1,46.929-16.625,11.939-36.046,19.248-55.214,26.426-6.256,2.343-12.588,4.7-18.985,6.8q-3.2,1.05-6.426,2.005a142.3,142.3,0,0,1-20.32,3.283q-3.439.3-6.892.419c-23.651.378-46.981-7.625-66.73-20.2-1.962-1.288-3.911-2.63-5.836-4.008C31.39,182.588,19.056,171.092,11,156.68-4.027,129.812-2.132,96.271,7.556,67.052Q8.509,64.18,9.57,61.33c5.1-13.681,12.2-26.743,22.679-36.835C54.891,2.689,89.212-1.659,120.575.494A291.579,291.579,0,0,1,224.668,27.9c13.235,6.243,25.905,16.922,33.053,29.69,10.077,18,6.381,52.17,1.047,72.1" transform="translate(0 0)" fill="#cff6d1"/>
            <path id="Trazado_999594" data-name="Trazado 999594" d="M106.06,84.874S85.654,64.99,116.617,53.911c19.844-7.1,82.144,6.707,65.577,21.4-12.364,10.964-12.011,16.517-25.07,29.24-15.407,15.01-54.281,5.833-51.064-19.675" transform="translate(-24.511 -12.812)" fill="#9fb348"/>
            <path id="Trazado_999595" data-name="Trazado 999595" d="M153.485,78.628S128.263,80.88,115.834,84.9,89.7,95.723,81.891,102.42c-4.168,3.573-21.523,17.712-39.524,60.036-3.946,9.281-7.925,19.917-11.8,32.1a101,101,0,0,1-7-7.938q7.082-17.159,13.967-31.187c15.48-31.5,30.42-51.351,45.808-60.367,0,0,25.128-18.086,70.143-16.432" transform="translate(-5.808 -19.35)" fill="#8d9e3e"/>
            <path id="Trazado_999596" data-name="Trazado 999596" d="M118.594,97.745s.212-1.152,7.776,3.015,18.725,16.511,19.611,16.954c2.187,1.089-18.388-20.608-22.74-22.324-1.61-.634-3.1-.79-4.648,2.355" transform="translate(-29.226 -23.416)" fill="#8d9e3e"/>
            <path id="Trazado_999597" data-name="Trazado 999597" d="M115.072,84.995s.76.891,5.225-6.5S128.253,54.831,128.8,54c1.348-2.037-5.615,27.043-8.525,30.7-1.077,1.355-2.287,2.234-5.2.286" transform="translate(-28.358 -13.284)" fill="#8d9e3e"/>
            <path id="Trazado_999598" data-name="Trazado 999598" d="M137.742,89.039a10.313,10.313,0,0,1,6.288.378c3.36,1.3,10.142,4.995,17,12.484s-6.548-11.458-17.106-15.256c0,0-3.373-1.509-6.18,2.395" transform="translate(-33.945 -21.281)" fill="#8d9e3e"/>
            <path id="Trazado_999599" data-name="Trazado 999599" d="M135.289,78.621a10.317,10.317,0,0,0,5.734-2.613c2.667-2.423,7.669-8.305,11.375-17.758S150.406,71.3,141.917,78.635c0,0-2.605,2.621-6.628-.014" transform="translate(-33.34 -13.793)" fill="#8d9e3e"/>
            <path id="Trazado_999600" data-name="Trazado 999600" d="M158.428,82.762a26.783,26.783,0,0,1,6.876-.257c2.537.454,7.755,2.393,13.369,7.971s-5.752-9.475-13.7-10.615c0,0-5.548.325-6.547,2.9" transform="translate(-39.042 -19.681)" fill="#8d9e3e"/>
            <path id="Trazado_999601" data-name="Trazado 999601" d="M158.727,75.994a26.777,26.777,0,0,0,6.551-2.1c2.231-1.292,6.472-4.894,9.846-12.056s-2.173,10.87-9.253,14.654c0,0-5.327,1.587-7.145-.494" transform="translate(-39.116 -14.828)" fill="#8d9e3e"/>
            <path id="Trazado_999602" data-name="Trazado 999602" d="M65.571,100.048S84.4,106.893,81.951,83.9C80.383,69.164,52.6,33.934,48.358,48.915,45.195,60.1,41.57,61.568,37.505,73.726c-4.8,14.345,12.9,36.156,28.066,26.322" transform="translate(-9.045 -11.159)" fill="#9fb348"/>
            <path id="Trazado_999603" data-name="Trazado 999603" d="M67.251,119.23c-1.323-.615-5.456,5.211-5,3.773.29-.908,3.671-10.744,4.2-12.643l0-.006c.221-.638.386-1.171.5-1.587q.179-.675.322-1.384c1.391-6.858.37-15.9-.8-24.416-1.242-9.029-7.437-25.5-7.533-25.758,14.8,28,11.956,48.868,11.956,48.868a43.75,43.75,0,0,1-3.64,13.153" transform="translate(-14.524 -14.098)" fill="#8d9e3e"/>
            <path id="Trazado_999604" data-name="Trazado 999604" d="M64.229,108.554s.665-.486-4.286-4-16.179-6.811-16.73-7.237c-1.358-1.052,18.67,5.345,21.085,7.576.894.825,1.448,1.72-.07,3.663" transform="translate(-10.633 -23.953)" fill="#8d9e3e"/>
            <path id="Trazado_999605" data-name="Trazado 999605" d="M72.637,107.5s-.8-.209,2.518-5.3,12.554-12.27,12.91-12.869c.877-1.476-15.408,11.821-16.838,14.783-.529,1.1-.715,2.131,1.409,3.382" transform="translate(-17.468 -21.987)" fill="#8d9e3e"/>
            <path id="Trazado_999606" data-name="Trazado 999606" d="M64.069,93.757a7.257,7.257,0,0,0-2.161-3.867,34.269,34.269,0,0,0-13.1-6.948c-6.838-2.052,9.257.645,14.888,6.169,0,0,1.987,1.674.373,4.646" transform="translate(-11.618 -20.271)" fill="#8d9e3e"/>
            <path id="Trazado_999607" data-name="Trazado 999607" d="M72.11,91.843a7.251,7.251,0,0,1-.1-4.429,34.258,34.258,0,0,1,7.768-12.63c4.852-5.236-7.652,5.249-9.7,12.867,0,0-.863,2.451,2.035,4.193" transform="translate(-17.24 -18.082)" fill="#8d9e3e"/>
            <path id="Trazado_999608" data-name="Trazado 999608" d="M62.62,78.446a20.87,20.87,0,0,0-3.586-3.99c-1.63-1.176-5.546-3.045-11.716-3.163s8.426-1.919,13.375,1.913c0,0,2.828,3.284,1.927,5.24" transform="translate(-11.292 -17.44)" fill="#8d9e3e"/>
            <path id="Trazado_999609" data-name="Trazado 999609" d="M67.913,76.374a18.825,18.825,0,0,1-.669-4.792c.136-1.807,1.121-5.6,4.624-9.919S65.649,66.36,65.417,72c0,0,.622,3.859,2.5,4.374" transform="translate(-16.121 -14.916)" fill="#8d9e3e"/>
            <path id="Trazado_999610" data-name="Trazado 999610" d="M75.012,150.258s-9.843-19.914,15.8-20.024c16.432-.072,58.652,26.248,42.659,32.75-11.935,4.852-13.117,9.027-26.02,14.991-15.224,7.037-41.422-9.8-32.436-27.717" transform="translate(-18.028 -32.094)" fill="#9fb348"/>
            <path id="Trazado_999611" data-name="Trazado 999611" d="M52.481,162.75c.839,1.383,2.928,2.7,4.456,2.02.966-.43,3.389-1.411,5.417-2.222l.007,0c.677-.32,1.244-.567,1.689-.74q.721-.279,1.485-.523c7.388-2.371,17.48-2.35,27.007-2.1,10.1.266,29.012,5.083,29.307,5.157-32.664-12.9-55.317-7.209-55.317-7.209a48.506,48.506,0,0,0-14.051,5.618" transform="translate(-12.933 -38.415)" fill="#8d9e3e"/>
            <path id="Trazado_999612" data-name="Trazado 999612" d="M82.366,159.969s.454-.792,4.934,4.234,9.481,17,10.019,17.554c1.325,1.368-8.172-19.923-10.925-22.313-1.019-.885-2.072-1.385-4.029.524" transform="translate(-20.298 -39.099)" fill="#8d9e3e"/>
            <path id="Trazado_999613" data-name="Trazado 999613" d="M80.779,151.942s.327.852,5.528-3.423,11.99-15.334,12.607-15.8c1.52-1.147-11.147,18.426-14.236,20.362-1.143.717-2.261,1.048-3.9-1.14" transform="translate(-19.907 -32.695)" fill="#8d9e3e"/>
            <path id="Trazado_999614" data-name="Trazado 999614" d="M98.807,159.945a8.043,8.043,0,0,1,4.526,1.91,37.99,37.99,0,0,1,9.257,13.589c3.1,7.285-1.84-10.123-8.617-15.655,0,0-2.088-1.985-5.166.157" transform="translate(-24.35 -39.171)" fill="#8d9e3e"/>
            <path id="Trazado_999615" data-name="Trazado 999615" d="M98.013,152.875a8.048,8.048,0,0,0,4.894-.433,38,38,0,0,0,12.972-10.1c5.178-5.987-4.851,9.074-13,12.267,0,0-2.6,1.25-4.87-1.73" transform="translate(-24.154 -34.734)" fill="#8d9e3e"/>
            <path id="Trazado_999616" data-name="Trazado 999616" d="M116.506,156.955a20.852,20.852,0,0,0,5.363.152c1.975-.371,6.029-1.919,10.368-6.307s-4.419,7.427-10.606,8.371c0,0-4.328-.215-5.124-2.216" transform="translate(-28.711 -36.922)" fill="#8d9e3e"/>
            <path id="Trazado_999617" data-name="Trazado 999617" d="M170.039,86.8c-.91-.56-2.269-2.545-3.914-2.3s-7.093-.83-7.573-1.641a2.271,2.271,0,0,0-.735-.8,6.478,6.478,0,0,0,.44-.611c1.441-2.246,3.245-4.986,3.686-5.688a3.662,3.662,0,0,0,.524-1.936,2.086,2.086,0,0,0,.26-.041,2.024,2.024,0,0,0,1.328-.97c.295.27,1.387,1.059,4.151,1.157,3.341.119,5.388,2.207,5.72,2.114s-1.771-2.13-4.146-2.362c-2.315-.226-4.092-.183-5.591-1.228a1.923,1.923,0,0,0,.086-.469,3.418,3.418,0,0,0-.427-1.712,3.3,3.3,0,0,0-1.212-1.445c.261-1.767,1.471-3.041,2.839-4.878,1.425-1.913,1.333-4.84,1.04-4.657s-.124,3.1-2.283,5.656c-1.63,1.928-1.9,3.212-1.931,3.725a1.793,1.793,0,0,0-.843-.077l-.013,0c-.034.005-.067.011-.1.017a2.07,2.07,0,0,0-.39.116l-.043.017-.034.014a2.687,2.687,0,0,0-.6.359,4.83,4.83,0,0,0-.4-.307,3.9,3.9,0,0,0-1.1-.527,34.809,34.809,0,0,0-7.123-.935,2.4,2.4,0,0,0-.113-.943c-.278-.9,2.589-5.657,3.878-6.708s.734-3.393.931-4.442-.582.859-.9,2.322-.006.665-2.613,3.743-2.329,4.524-2.336,4.916c0,.263-.206.406-.417.554a11.486,11.486,0,0,0-5.711-.75c-.111.013-.222.029-.332.044h0a6.819,6.819,0,0,0-.958-.717c-.489-.289-9.408.85-12.762-1.836s-.425.669.653,1.475,9.209,1.133,9.761,1.4c.271.13-.163.445-.625.787a25.447,25.447,0,0,0-6.493,4.1,8.532,8.532,0,0,0-1.656-.317c-1.252-.112-4.317,2.206-8.021,2.081S118.65,71.2,117.928,71.2s3.072,2.41,5.357,2.682,7.509-2.42,7.952-2.145c.39.243.368.821,1.057.8-.541.512-1.057,1.034-1.543,1.558-2.589,2.768-2.848,6.84-1.711,10.3a11.734,11.734,0,0,0,1.54,3.218h0a13.694,13.694,0,0,0,.839,1.165,13.223,13.223,0,0,0,2.784,2.6,9.37,9.37,0,0,0,4.955,1.641,12.567,12.567,0,0,0,2-.072c-.3.433.063.779-.012,1.191-.094.512-5.6,2.568-6.936,4.443s-2.1,6.3-1.617,5.768.235-2.911,2.634-5.737,6.175-3.534,6.934-4.536a8.561,8.561,0,0,0,.886-1.454,47.248,47.248,0,0,0,6.743-2.321q.722-.287,1.393-.635c.4-.07.7-.086.634.137-.176.588-5.4,6.825-5.529,8.166s.385,5.763.653,1.475,7.108-10.122,7.223-10.679a6.849,6.849,0,0,0,.114-1.191h0a11.1,11.1,0,0,0,2.638-3.836h0c.378-.012.766-.255,1.061,0s1.177,1.436,5.209,1.576,3.234-.167,4.528.582,3.231,1.457,2.322.9" transform="translate(-29.039 -13.555)" fill="#7b8a36"/>
            <path id="Trazado_999618" data-name="Trazado 999618" d="M147.627,99.384a7.936,7.936,0,0,1-1.081,1.907c-.76,1-4.536,1.711-6.934,4.537s-2.149,5.2-2.634,5.736.281-3.894,1.617-5.768,6.842-3.931,6.936-4.443-.489-.924.366-1.529a2.447,2.447,0,0,1,1.729-.44" transform="translate(-33.72 -24.487)" fill="#381f19"/>
            <path id="Trazado_999619" data-name="Trazado 999619" d="M133.706,71.818a7.931,7.931,0,0,0-2.138-.482c-1.252-.112-4.317,2.206-8.021,2.081s-5.295-1.907-6.017-1.909,3.072,2.41,5.357,2.682,7.509-2.42,7.952-2.145.355.983,1.378.757a2.45,2.45,0,0,0,1.489-.984" transform="translate(-28.941 -17.579)" fill="#381f19"/>
            <path id="Trazado_999620" data-name="Trazado 999620" d="M178.46,73.348s.9,1.127,4.24,1.247,5.387,2.207,5.72,2.114-1.771-2.13-4.146-2.362-4.183-.18-5.706-1.31-.109.312-.109.312" transform="translate(-43.832 -17.892)" fill="#381f19"/>
            <path id="Trazado_999621" data-name="Trazado 999621" d="M176.446,65.453s-.23-1.424,1.928-3.977,1.989-5.472,2.283-5.655.385,2.744-1.04,4.657-2.68,3.217-2.867,5.1-.3-.13-.3-.13" transform="translate(-43.481 -13.754)" fill="#381f19"/>
            <path id="Trazado_999622" data-name="Trazado 999622" d="M163.184,93.292a6.936,6.936,0,0,1-.114,1.191c-.115.556-6.956,6.39-7.224,10.679s-.781-.136-.652-1.475,5.353-7.578,5.528-8.165-2.2.479-2.233-.153,4.694-2.077,4.694-2.077" transform="translate(-38.24 -22.99)" fill="#381f19"/>
            <path id="Trazado_999623" data-name="Trazado 999623" d="M147.219,63.671a6.821,6.821,0,0,0-.958-.717c-.489-.29-9.408.85-12.762-1.836s-.425.67.653,1.475,9.209,1.134,9.761,1.4-1.833,1.305-1.388,1.755,4.693-2.077,4.693-2.077" transform="translate(-32.514 -14.809)" fill="#381f19"/>
            <path id="Trazado_999624" data-name="Trazado 999624" d="M169.874,85.8a1.847,1.847,0,0,1,1.032.933c.479.811,5.927,1.888,7.573,1.641s3,1.738,3.914,2.3-1.027-.147-2.322-.9-.5-.442-4.528-.583-4.914-1.318-5.209-1.576-.683-.016-1.061,0,.6-1.812.6-1.812" transform="translate(-41.694 -21.144)" fill="#381f19"/>
            <path id="Trazado_999625" data-name="Trazado 999625" d="M161.581,62.915a1.846,1.846,0,0,0,0-1.392c-.278-.9,2.588-5.656,3.878-6.707s.735-3.393.931-4.442-.582.859-.9,2.322-.007.665-2.614,3.743-2.329,4.524-2.336,4.915-.448.516-.711.788,1.744.773,1.744.773" transform="translate(-39.383 -12.339)" fill="#381f19"/>
            <path id="Trazado_999626" data-name="Trazado 999626" d="M176.2,73.309a1.489,1.489,0,0,1-.751,0c-.865-.28-1.723-4.607-1.723-4.607s2.111-1.835,3.594,1.135a3.422,3.422,0,0,1,.427,1.712,1.916,1.916,0,0,1-1.549,1.758" transform="translate(-42.813 -16.793)" fill="#592d23"/>
            <path id="Trazado_999627" data-name="Trazado 999627" d="M165.411,81.563c-.537-.71-5.723-13.84-5.723-13.84a1.009,1.009,0,0,1,.619-1.1,2.588,2.588,0,0,1,1.287-.117,35.647,35.647,0,0,1,7.193.942,3.9,3.9,0,0,1,1.1.527c2.092,1.421,3.374,4.83,2.073,6.9-.442.7-2.246,3.443-3.687,5.689-1.3,2.027-2.319,1.71-2.857,1" transform="translate(-39.35 -16.382)" fill="#733f32"/>
            <path id="Trazado_999628" data-name="Trazado 999628" d="M166.844,74.823l-6.1-6.862s-.109-.6-.228-1.341A2.589,2.589,0,0,1,161.8,66.5a35.654,35.654,0,0,1,7.194.942,3.9,3.9,0,0,1,1.1.527c-1.485.115-4.349.434-5.019,1.209-.915,1.058,1.775,5.642,1.775,5.642" transform="translate(-39.556 -16.382)" fill="#69392d"/>
            <path id="Trazado_999629" data-name="Trazado 999629" d="M152.849,88.967c-3.313,1.311-7.042,2.891-10.635,2.718a9.361,9.361,0,0,1-4.954-1.641,13.186,13.186,0,0,1-2.784-2.6,14.021,14.021,0,0,1-1.946-3.244c-1.6-3.671-1.6-8.362,1.278-11.441,3.48-3.752,8.463-7.416,13.624-8.007a11.434,11.434,0,0,1,6.922,1.325,13.233,13.233,0,0,1,2.439,1.872,13.914,13.914,0,0,1,3.389,5.184,13.13,13.13,0,0,1,.649,2.7,12.58,12.58,0,0,1,.008,3.374,11.282,11.282,0,0,1-5.151,8.272,15.1,15.1,0,0,1-2.838,1.488" transform="translate(-32.395 -15.938)" fill="#d99143"/>
            <path id="Trazado_999630" data-name="Trazado 999630" d="M133.838,87.975a11.606,11.606,0,0,1-1.567-3.315,2.234,2.234,0,0,0,2,.417c6.106-2.161,11.841-5.06,17.721-7.6q1.221-.506,2.46-.968a12.612,12.612,0,0,0,4.273-2.564,1.963,1.963,0,0,0-.072-2.393,12.056,12.056,0,0,1,2.344,5.371c-.4-.59-.773-1.414-1.809-1.423a9.416,9.416,0,0,0-3.216.857l-3.539,1.557c-5.917,2.609-11.807,5.26-17.609,8.071a2.16,2.16,0,0,0-.98,2" transform="translate(-32.596 -17.632)" fill="#502f2a"/>
            <path id="Trazado_999631" data-name="Trazado 999631" d="M161.138,80.045c.356-.306.3-1.047-.087-1.1-1.65-.262-3.075.593-4.49,1.26-1.084.473-2.169.94-3.252,1.408s-2.165.935-3.243,1.411c-3.271,1.419-6.482,2.93-9.59,4.662q-1.571.871-3.118,1.835a.617.617,0,0,0-.269.615.8.8,0,0,0,.992.509c6.911-2.833,13.772-5.779,20.482-9.025a16.173,16.173,0,0,0,2.576-1.571" transform="translate(-33.78 -19.442)" fill="#70472f"/>
            <path id="Trazado_999632" data-name="Trazado 999632" d="M162.586,82.661c-.018-.108-.047-.275-.161-.225-2.318.98-4.485,2.3-6.753,3.394-5.349,2.592-11.052,4.078-16.121,7.4-.532.326.527.985.958.839a83.116,83.116,0,0,0,21.041-9.591,2.241,2.241,0,0,0,1.035-1.821" transform="translate(-34.355 -20.313)" fill="#70472f"/>
            <path id="Trazado_999633" data-name="Trazado 999633" d="M162.26,87.7c-.028-.136-.074-.341-.17-.253-5.273,3.9-11.227,5.5-16.863,8.16a.415.415,0,0,0,.062.776,1.768,1.768,0,0,0,.7.038c5.367-1.022,10.466-2.647,14.559-6.175A5.255,5.255,0,0,0,162.26,87.7" transform="translate(-35.73 -21.545)" fill="#70472f"/>
            <path id="Trazado_999634" data-name="Trazado 999634" d="M157.6,71.67a.786.786,0,0,1,.833.7.994.994,0,0,1-.542.916c-.908.447-1.824.869-2.744,1.276-6.942,2.83-13.406,6.368-20.936,8.211-.28.079-.619-.583-.334-.754,6.671-3.989,13.724-6.7,20.811-9.543a17.2,17.2,0,0,1,2.912-.8" transform="translate(-32.965 -17.662)" fill="#70472f"/>
            <path id="Trazado_999635" data-name="Trazado 999635" d="M156.741,69.074c.133.13.158.39.044.44A92.97,92.97,0,0,0,140.527,76.3a23.983,23.983,0,0,1-7.149,2.642c-.236.046-.237-1.087.085-1.276,6.82-3.65,13.7-7.278,21.214-9.089a2.309,2.309,0,0,1,2.063.5" transform="translate(-32.828 -16.892)" fill="#70472f"/>
            <path id="Trazado_999636" data-name="Trazado 999636" d="M153.222,67.323c.141.083.061.208.111.321-6.271,1.214-11.71,4.686-17.51,7.177a.453.453,0,0,1-.571-.645,2.284,2.284,0,0,1,.61-.65c4.482-3.021,8.973-5.82,14.281-6.594a5.255,5.255,0,0,1,3.079.391" transform="translate(-33.315 -16.482)" fill="#70472f"/>
            <g id="Grupo_1108863" data-name="Grupo 1108863" transform="translate(99.06 48.818)" opacity="0.38">
              <g id="Grupo_1108862" data-name="Grupo 1108862">
                <g id="Grupo_1108861" data-name="Grupo 1108861" clip-path="url(#clip-path-3)">
                  <path id="Trazado_999637" data-name="Trazado 999637" d="M142.214,91.712a9.361,9.361,0,0,1-4.954-1.641,13.186,13.186,0,0,1-2.784-2.6,14.037,14.037,0,0,1-1.946-3.244c-1.6-3.672-1.6-8.363,1.278-11.441,3.48-3.752,8.463-7.416,13.624-8.007,0,0-14.37,8.053-12.271,16.671a16.2,16.2,0,0,0,7.054,10.259" transform="translate(-131.455 -64.783)" fill="#5c3c2a"/>
                </g>
              </g>
            </g>
            <path id="Trazado_999638" data-name="Trazado 999638" d="M174.239,75.37a3.422,3.422,0,0,0-2.246-.961,1.219,1.219,0,0,0-1.684,1.135.351.351,0,0,0,.012.3.29.29,0,0,0,.327.056,1.076,1.076,0,0,1,.338-.1c.374,0,.462.582.809.721a.628.628,0,0,0,.593-.142c.168-.13.305-.3.485-.413a.539.539,0,0,1,.6-.032c.105.081.164.218.28.28a.382.382,0,0,0,.486-.222.6.6,0,0,0,0-.617" transform="translate(-41.964 -18.324)" fill="#592d23"/>
            <path id="Trazado_999639" data-name="Trazado 999639" d="M171.664,69.024a3.429,3.429,0,0,1-.8,2.309,1.219,1.219,0,0,1-1.972.483c-.091-.047-.191-.108-.212-.208-.023-.116.075-.222.179-.28a1.081,1.081,0,0,0,.3-.181c.249-.279-.121-.734.01-1.084a.631.631,0,0,1,.5-.344c.209-.037.427-.025.631-.081a.54.54,0,0,0,.426-.421c.011-.132-.05-.267-.018-.395a.381.381,0,0,1,.491-.211.6.6,0,0,1,.46.412" transform="translate(-41.568 -16.903)" fill="#592d23"/>
            <path id="Trazado_999640" data-name="Trazado 999640" d="M173.222,78.9l.4-.751a.973.973,0,0,0,.158-.5l-.034-.017c-.02-.08-.128-.1-.2-.072s-.139.089-.216.115c-.194.066-.405-.1-.6-.048a.518.518,0,0,0-.318.385,1.233,1.233,0,0,1-.2.48c-.072.083-.173.137-.249.216a.257.257,0,0,0-.066.3.335.335,0,0,0,.255.112l.546.067a.417.417,0,0,0,.528-.286" transform="translate(-42.354 -19.11)" fill="#592d23"/>
            <path id="Trazado_999641" data-name="Trazado 999641" d="M172.01,81.328a.878.878,0,0,0,.051-.263.289.289,0,0,0-.109-.234c-.087-.062-.21-.054-.3-.115-.121-.086-.122-.26-.13-.408a1.662,1.662,0,0,0-.221-.734c-.044-.075-.109-.155-.2-.153a.185.185,0,0,0-.158.168.586.586,0,0,0,.041.245,3.946,3.946,0,0,1,.147,1.541c.078.061.189,0,.274-.047s.213-.087.269,0c.041.061.011.155.061.21a.126.126,0,0,0,.162,0c.047-.035.079-.154.1-.208" transform="translate(-42.128 -19.572)" fill="#592d23"/>
            <path id="Trazado_999642" data-name="Trazado 999642" d="M168.229,68.164l.824.209a.971.971,0,0,1,.479.221l-.011.036c.046.068-.012.162-.084.2s-.159.044-.23.083c-.179.1-.2.365-.371.48a.516.516,0,0,1-.5-.023,1.239,1.239,0,0,0-.486-.179c-.111,0-.219.036-.329.039a.259.259,0,0,1-.266-.153.338.338,0,0,1,.089-.265l.318-.448a.416.416,0,0,1,.566-.2" transform="translate(-41.216 -16.789)" fill="#592d23"/>
            <path id="Trazado_999643" data-name="Trazado 999643" d="M165.736,67.72a.846.846,0,0,1,.223.127.28.28,0,0,1,.1.226c-.009.1-.092.185-.1.287-.013.142.114.25.216.349a1.579,1.579,0,0,1,.4.618.24.24,0,0,1-.01.238.176.176,0,0,1-.221.011.564.564,0,0,1-.154-.182,3.784,3.784,0,0,0-1.033-1.066c0-.095.115-.141.206-.171s.2-.1.17-.193c-.019-.069-.106-.105-.115-.176a.12.12,0,0,1,.1-.119c.055-.014.162.038.217.053" transform="translate(-40.701 -16.675)" fill="#592d23"/>
            <path id="Trazado_999644" data-name="Trazado 999644" d="M177.008,74.423c-.118-1.1,1.068-1.6,1.549-1.758a1.916,1.916,0,0,1-1.549,1.758" transform="translate(-43.619 -17.907)" fill="#381f19"/>
            <path id="Trazado_999645" data-name="Trazado 999645" d="M174.083,68.532c.732.825,1.9.286,2.343.036a1.917,1.917,0,0,0-2.343-.036" transform="translate(-42.9 -16.794)" fill="#381f19"/>
            <path id="Trazado_999646" data-name="Trazado 999646" d="M99.227,173.257c-.3-.791-.18-2.692-1.327-3.337s-4.026-3.967-3.931-4.705a1.8,1.8,0,0,0-.072-.853,5.309,5.309,0,0,0,.572-.168c1.991-.7,4.449-1.536,5.066-1.76a2.888,2.888,0,0,0,1.267-.954,1.621,1.621,0,0,0,.183.1,1.6,1.6,0,0,0,1.3.04c.054.311.351,1.335,2.03,2.74,2.028,1.7,2.291,4,2.544,4.1s-.071-2.191-1.441-3.49c-1.335-1.267-2.466-2.1-2.894-3.484a1.541,1.541,0,0,0,.282-.25,2.709,2.709,0,0,0,.565-1.277,2.614,2.614,0,0,0-.055-1.491c1.022-.977,2.4-1.185,4.143-1.666,1.82-.5,3.185-2.374,2.913-2.4s-1.585,1.876-4.174,2.421a5.442,5.442,0,0,0-3.016,1.387,1.43,1.43,0,0,0-.489-.457l-.009-.005-.072-.038a1.67,1.67,0,0,0-.3-.118l-.035-.01-.028-.008a2.109,2.109,0,0,0-.552-.069,3.778,3.778,0,0,0-.1-.387,3.083,3.083,0,0,0-.427-.862,27.612,27.612,0,0,0-3.993-4.046,1.887,1.887,0,0,0,.388-.644c.264-.7,4.365-2.274,5.681-2.3s2.108-1.761,2.741-2.32-.781.253-1.688,1.014-.328.411-3.451,1.066-3.653,1.692-3.848,1.934c-.131.162-.326.154-.529.144a9.1,9.1,0,0,0-3.2-3.244c-.075-.046-.152-.09-.228-.133a5.423,5.423,0,0,0-.249-.913c-.164-.418-6.287-4.041-7.076-7.349s-.591.211-.309,1.239,5.2,5.183,5.414,5.618c.106.213-.318.2-.772.188A20.1,20.1,0,0,0,84,145.909a6.681,6.681,0,0,0-.88-1c-.727-.679-3.767-.72-6.019-2.6s-2.379-3.764-2.829-4.116.746,3,2.041,4.278,5.865,2.139,6.007,2.525c.126.341-.169.692.272,1.014-.587.057-1.163.132-1.721.223-2.961.47-5.1,2.887-6.074,5.6a9.282,9.282,0,0,0-.6,2.757,10.97,10.97,0,0,0-.042,1.136,10.466,10.466,0,0,0,.475,2.975,7.417,7.417,0,0,0,2.3,3.432,9.931,9.931,0,0,0,1.286.929c-.4.127-.34.517-.586.738-.308.274-4.745-1.118-6.49-.6s-4.377,2.914-3.814,2.815,1.562-1.7,4.432-2.3,5.573.794,6.535.537a6.728,6.728,0,0,0,1.26-.477,37.453,37.453,0,0,0,5.338,1.828q.59.172,1.179.28c.284.151.479.287.329.394-.395.282-6.689,1.637-7.42,2.411s-2.561,3.787-.309,1.239,9.358-2.866,9.7-3.157a5.367,5.367,0,0,0,.65-.689h0a8.784,8.784,0,0,0,3.512-1.113h0c.242.176.6.214.661.518s.037,1.469,2.486,3.516,2.1,1.467,2.544,2.564,1.309,2.48,1.014,1.689" transform="translate(-16.57 -34.026)" fill="#7b8a36"/>
            <path id="Trazado_999647" data-name="Trazado 999647" d="M82.035,168.474a6.277,6.277,0,0,1-1.6.665c-.962.256-3.664-1.136-6.535-.538s-3.87,2.2-4.432,2.3,2.069-2.295,3.813-2.815,6.182.871,6.49.6.144-.815.972-.777a1.938,1.938,0,0,1,1.294.566" transform="translate(-17.1 -41.378)" fill="#381f19"/>
            <path id="Trazado_999648" data-name="Trazado 999648" d="M88.635,143a6.255,6.255,0,0,0-1.1-1.34c-.727-.679-3.767-.721-6.019-2.6s-2.378-3.765-2.829-4.116.746,3,2.041,4.278,5.865,2.138,6.007,2.525-.256.786.492,1.142a1.941,1.941,0,0,0,1.408.109" transform="translate(-19.367 -33.25)" fill="#381f19"/>
            <path id="Trazado_999649" data-name="Trazado 999649" d="M115.866,165.671s.014,1.141,2.041,2.839,2.291,4,2.544,4.1-.07-2.191-1.44-3.49-2.524-2.146-2.926-3.592-.219.142-.219.142" transform="translate(-28.543 -40.642)" fill="#381f19"/>
            <path id="Trazado_999650" data-name="Trazado 999650" d="M116.8,160.432s.549-1,3.137-1.546,3.9-2.45,4.173-2.422-1.093,1.9-2.913,2.4-3.237.706-4.271,1.793-.127-.228-.127-.228" transform="translate(-28.694 -38.558)" fill="#381f19"/>
            <path id="Trazado_999651" data-name="Trazado 999651" d="M94.54,171.623a5.421,5.421,0,0,1-.65.689c-.342.292-7.449.61-9.7,3.157s-.422-.464.31-1.238,7.025-2.13,7.42-2.411-1.606-.769-1.319-1.18,3.94.984,3.94.984" transform="translate(-20.48 -42.033)" fill="#381f19"/>
            <path id="Trazado_999652" data-name="Trazado 999652" d="M101.047,144.447a5.443,5.443,0,0,0-.249-.913c-.165-.418-6.287-4.041-7.076-7.348s-.591.211-.309,1.238,5.2,5.184,5.414,5.618-1.779-.076-1.72.421,3.94.984,3.94.984" transform="translate(-22.959 -33.22)" fill="#381f19"/>
            <path id="Trazado_999653" data-name="Trazado 999653" d="M104.186,169.38a1.461,1.461,0,0,1,.191,1.084c-.095.739,2.783,4.059,3.93,4.705s1.032,2.546,1.328,3.337-.57-.591-1.014-1.689-.095-.517-2.544-2.564-2.428-3.212-2.486-3.516-.419-.341-.661-.518,1.255-.839,1.255-.839" transform="translate(-25.359 -41.741)" fill="#381f19"/>
            <path id="Trazado_999654" data-name="Trazado 999654" d="M108.477,152a1.461,1.461,0,0,0,.679-.867c.264-.7,4.365-2.273,5.681-2.3s2.108-1.761,2.741-2.32-.781.253-1.689,1.014-.327.411-3.451,1.066-3.653,1.693-3.847,1.934-.531.1-.827.147.714,1.331.714,1.331" transform="translate(-26.543 -36.059)" fill="#381f19"/>
            <path id="Trazado_999655" data-name="Trazado 999655" d="M113.994,164.661a1.171,1.171,0,0,1-.469-.363c-.4-.6,1.163-3.714,1.163-3.714s2.21-.12,1.693,2.455a2.7,2.7,0,0,1-.565,1.277,1.516,1.516,0,0,1-1.821.345" transform="translate(-27.96 -39.574)" fill="#592d23"/>
            <path id="Trazado_999656" data-name="Trazado 999656" d="M102.509,164.576c.01-.7,3.153-11.423,3.153-11.423a.8.8,0,0,1,.923-.389,2.053,2.053,0,0,1,.86.553,28.184,28.184,0,0,1,4.034,4.084,3.07,3.07,0,0,1,.428.861c.615,1.9-.241,4.656-2.062,5.318-.617.225-3.075,1.058-5.066,1.76-1.8.633-2.28-.06-2.27-.765" transform="translate(-25.262 -37.639)" fill="#733f32"/>
            <path id="Trazado_999657" data-name="Trazado 999657" d="M107.718,160.974l-.476-7.252s.222-.424.509-.948a2.05,2.05,0,0,1,.861.553,28.184,28.184,0,0,1,4.033,4.084,3.07,3.07,0,0,1,.428.861c-.983-.65-2.926-1.842-3.721-1.684-1.085.216-1.634,4.385-1.634,4.385" transform="translate(-26.428 -37.649)" fill="#69392d"/>
            <path id="Trazado_999658" data-name="Trazado 999658" d="M89.291,164.888c-2.705-.791-5.8-1.617-7.961-3.472a7.413,7.413,0,0,1-2.3-3.433,10.462,10.462,0,0,1-.476-2.975,11.109,11.109,0,0,1,.362-2.972c.785-3.069,3.065-6,6.358-6.522,4-.651,8.888-.517,12.4,1.622a9.047,9.047,0,0,1,3.679,4.191,10.484,10.484,0,0,1,.612,2.354,11,11,0,0,1-.4,4.884,10.4,10.4,0,0,1-.907,2,9.936,9.936,0,0,1-1.634,2.111,8.925,8.925,0,0,1-7.236,2.662,11.951,11.951,0,0,1-2.5-.45" transform="translate(-19.359 -35.775)" fill="#d99143"/>
            <path id="Trazado_999659" data-name="Trazado 999659" d="M78.614,155.793a9.2,9.2,0,0,1,.634-2.831,1.767,1.767,0,0,0,1.043,1.23c4.863,1.619,9.853,2.6,14.761,3.865q1.008.277,2.007.592a9.994,9.994,0,0,0,3.914.476,1.554,1.554,0,0,0,1.118-1.531,9.545,9.545,0,0,1-1.147,4.493c.039-.562.2-1.26-.439-1.768a7.448,7.448,0,0,0-2.424-1.029l-2.967-.748c-4.962-1.247-9.928-2.454-14.918-3.519a1.711,1.711,0,0,0-1.582.77" transform="translate(-19.373 -37.695)" fill="#502f2a"/>
            <path id="Trazado_999660" data-name="Trazado 999660" d="M100.011,163.645c.371-.018.7-.509.482-.73-.9-.966-2.208-1.124-3.416-1.4-.907-.231-1.812-.467-2.715-.7s-1.806-.468-2.711-.7c-2.732-.7-5.472-1.32-8.254-1.75q-1.405-.219-2.839-.37a.491.491,0,0,0-.466.253.628.628,0,0,0,.372.8c5.692,1.591,11.407,3.086,17.175,4.32a12.793,12.793,0,0,0,2.371.271" transform="translate(-19.729 -38.937)" fill="#70472f"/>
            <path id="Trazado_999661" data-name="Trazado 999661" d="M99.67,166c.041-.076.1-.2.009-.219-1.924-.515-3.919-.744-5.866-1.163-4.6-.981-8.882-2.825-13.664-3.212-.491-.056-.15.87.191.989a65.73,65.73,0,0,0,17.8,4.237A1.774,1.774,0,0,0,99.67,166" transform="translate(-19.691 -39.776)" fill="#70472f"/>
            <path id="Trazado_999662" data-name="Trazado 999662" d="M97.4,168.464c.048-.1.12-.249.017-.24-5.187-.129-9.684-2.023-14.495-3.1a.329.329,0,0,0-.339.515A1.413,1.413,0,0,0,83,166c3.848,1.971,7.822,3.434,12.092,3.22a4.155,4.155,0,0,0,2.307-.757" transform="translate(-20.335 -40.69)" fill="#70472f"/>
            <path id="Trazado_999663" data-name="Trazado 999663" d="M101.955,156.612a.621.621,0,0,1,.18.84.784.784,0,0,1-.784.309c-.784-.162-1.56-.344-2.333-.537-5.71-1.607-11.465-2.539-17.062-5.048-.214-.087-.1-.665.158-.634,6.1.751,11.827,2.484,17.632,4.157a13.576,13.576,0,0,1,2.209.913" transform="translate(-20.169 -37.345)" fill="#70472f"/>
            <path id="Trazado_999664" data-name="Trazado 999664" d="M102.763,154.347c.02.145-.091.32-.186.3a73.554,73.554,0,0,0-13.45-3.663,19,19,0,0,1-5.748-1.825c-.17-.087.381-.794.674-.755,6.032,1.036,12.088,2.112,17.664,4.635.72.446.983.839,1.047,1.312" transform="translate(-20.54 -36.571)" fill="#70472f"/>
            <path id="Trazado_999665" data-name="Trazado 999665" d="M101.827,151.1c.047.121-.063.16-.087.255-4.506-2.291-9.589-2.766-14.421-4.029a.359.359,0,0,1-.044-.68,1.807,1.807,0,0,1,.7-.11c4.267.292,8.431.727,12.121,2.824a4.163,4.163,0,0,1,1.732,1.741" transform="translate(-21.452 -36.112)" fill="#70472f"/>
            <g id="Grupo_1108866" data-name="Grupo 1108866" transform="translate(59.198 109.395)" opacity="0.38">
              <g id="Grupo_1108865" data-name="Grupo 1108865">
                <g id="Grupo_1108864" data-name="Grupo 1108864" clip-path="url(#clip-path-4)">
                  <path id="Trazado_999666" data-name="Trazado 999666" d="M81.329,161.415a7.41,7.41,0,0,1-2.3-3.432,10.472,10.472,0,0,1-.476-2.976,11.113,11.113,0,0,1,.362-2.972c.786-3.069,3.065-6,6.358-6.522,4-.651,8.889-.516,12.4,1.622,0,0-12.886-1.955-15.764,4.445a12.817,12.817,0,0,0-.582,9.834" transform="translate(-78.557 -145.17)" fill="#5c3c2a"/>
                </g>
              </g>
            </g>
            <path id="Trazado_999667" data-name="Trazado 999667" d="M112.03,165a2.71,2.71,0,0,0-.936-1.692.964.964,0,0,0-1.6-.109c-.064.049-.134.109-.136.19s.088.163.177.194a.867.867,0,0,1,.26.1c.233.183.005.589.154.844a.5.5,0,0,0,.439.2c.169,0,.337-.038.5-.022a.424.424,0,0,1,.388.271c.027.1,0,.215.04.31a.3.3,0,0,0,.411.1.477.477,0,0,0,.3-.384" transform="translate(-26.949 -40.127)" fill="#592d23"/>
            <path id="Trazado_999668" data-name="Trazado 999668" d="M113.25,160.022a2.711,2.711,0,0,1-1.622,1.053.964.964,0,0,1-1.466-.657.276.276,0,0,1-.031-.232.228.228,0,0,1,.247-.087.871.871,0,0,0,.277.034c.292-.053.282-.517.534-.672a.5.5,0,0,1,.481.03c.149.078.279.191.434.256a.425.425,0,0,0,.47-.056c.072-.078.1-.191.181-.256a.3.3,0,0,1,.408.107.477.477,0,0,1,.087.481" transform="translate(-27.137 -39.279)" fill="#592d23"/>
            <path id="Trazado_999669" data-name="Trazado 999669" d="M109.68,166.734l.614-.274a.775.775,0,0,0,.343-.237l-.013-.027c.026-.059-.032-.124-.093-.143s-.13-.013-.19-.034c-.153-.053-.206-.257-.354-.324a.41.41,0,0,0-.386.086.966.966,0,0,1-.355.2c-.086.017-.175,0-.261.014s-.179.068-.187.154a.268.268,0,0,0,.105.2l.308.307a.329.329,0,0,0,.468.078" transform="translate(-26.812 -40.828)" fill="#592d23"/>
            <path id="Trazado_999670" data-name="Trazado 999670" d="M107.7,167.536a.672.672,0,0,0,.159-.139.23.23,0,0,0,.047-.2c-.025-.081-.105-.135-.13-.216-.034-.112.05-.221.117-.317a1.315,1.315,0,0,0,.219-.565.2.2,0,0,0-.048-.191.145.145,0,0,0-.18.029.475.475,0,0,0-.094.173,3.113,3.113,0,0,1-.656,1.033c.019.076.116.095.194.1s.175.05.17.128c0,.058-.069.1-.064.161a.1.1,0,0,0,.1.081c.047,0,.124-.059.167-.079" transform="translate(-26.401 -40.88)" fill="#592d23"/>
            <path id="Trazado_999671" data-name="Trazado 999671" d="M111.855,157.562l.413.531a.778.778,0,0,1,.191.37l-.025.018c0,.065-.086.095-.149.083s-.12-.05-.184-.06c-.161-.026-.3.13-.465.119a.41.41,0,0,1-.3-.257.969.969,0,0,0-.217-.348c-.068-.055-.153-.083-.224-.135a.2.2,0,0,1-.091-.225.262.262,0,0,1,.184-.122l.417-.126a.329.329,0,0,1,.45.151" transform="translate(-27.304 -38.783)" fill="#592d23"/>
            <path id="Trazado_999672" data-name="Trazado 999672" d="M110.562,156.025a.638.638,0,0,1,.078.188.222.222,0,0,1-.044.191c-.056.059-.148.072-.2.13-.076.082-.05.212-.034.323a1.25,1.25,0,0,1-.052.579c-.021.063-.057.133-.122.144a.138.138,0,0,1-.142-.1.452.452,0,0,1-.008-.188,2.99,2.99,0,0,0-.126-1.168c.048-.057.14-.032.211-.007s.172.032.2-.038c.022-.052-.015-.118.014-.166a.1.1,0,0,1,.12-.026c.041.019.083.1.11.139" transform="translate(-27.085 -38.414)" fill="#592d23"/>
            <path id="Trazado_999673" data-name="Trazado 999673" d="M114.169,165.831c.459-.742,1.445-.48,1.821-.345a1.516,1.516,0,0,1-1.821.345" transform="translate(-28.135 -40.743)" fill="#381f19"/>
            <path id="Trazado_999674" data-name="Trazado 999674" d="M115.424,160.613c.056.871,1.049,1.1,1.445,1.161a1.517,1.517,0,0,0-1.445-1.161" transform="translate(-28.445 -39.581)" fill="#381f19"/>
            <path id="Trazado_999675" data-name="Trazado 999675" d="M242.613,104.7l20.327,83.817c.211.87,2.583,1.135,6.3.864a108.57,108.57,0,0,0,16.562-2.857c9.133-2.215,16.765-4.961,19.82-6.976,1.019-.672,1.528-1.263,1.416-1.726L286.713,94a18.7,18.7,0,0,0-22.519-13.728l-7.853,1.9a18.513,18.513,0,0,0-3.882,1.414,18.723,18.723,0,0,0-9.846,21.105" transform="translate(-59.659 -19.654)" fill="#fbfff2"/>
            <path id="Trazado_999676" data-name="Trazado 999676" d="M269.16,82.382a41.1,41.1,0,0,1,9.292,11.231c4.069,7.17,22.858,90.453,22.858,90.453s-9.609,3.1-14.725,4.033c0,0-18.511-83.313-20.8-90.58s-3.775-13.4-3.775-13.4Z" transform="translate(-64.568 -20.302)" fill="#fffeed"/>
            <path id="Trazado_999677" data-name="Trazado 999677" d="M243.035,111.027l17.155,70.741a93.97,93.97,0,0,0,36.574-8.615,1.474,1.474,0,0,0,.8-1.684L281.059,103.4a1.47,1.47,0,0,0-1.837-1.072c-4.334,1.267-17.9,5.078-36.187,8.7" transform="translate(-59.893 -25.204)" fill="#acbd5f"/>
            <g id="Grupo_1108869" data-name="Grupo 1108869" transform="translate(195.914 55.792)" opacity="0.28">
              <g id="Grupo_1108868" data-name="Grupo 1108868">
                <g id="Grupo_1108867" data-name="Grupo 1108867" clip-path="url(#clip-path-5)">
                  <path id="Trazado_999678" data-name="Trazado 999678" d="M267.136,74.038a44.584,44.584,0,0,1,9.479,12C280.8,93.676,300.8,181.98,300.8,181.98a151.628,151.628,0,0,1-14.719,4.059s-19.728-88.331-22.128-96.046-3.974-14.221-3.974-14.221Z" transform="translate(-259.983 -74.038)" fill="#fffeed"/>
                </g>
              </g>
            </g>
            <path id="Trazado_999679" data-name="Trazado 999679" d="M256.794,148.661a13.527,13.527,0,1,0,9.958-16.333,13.527,13.527,0,0,0-9.958,16.333" transform="translate(-63.189 -32.516)" fill="#fff"/>
            <path id="Trazado_999680" data-name="Trazado 999680" d="M281.544,147.57a5.491,5.491,0,0,1-2.287.063c-1.3-.327-2.137-1.441-2.584-1.527a3.13,3.13,0,0,0-.615-.055,17.113,17.113,0,0,0-1.833-1.82c-.139-.126-.284-.243-.43-.351-.087-.118-.14-.214-.057-.228.219-.038,3.082.662,3.538.489s1.812-1.048.376-.448-4.429-.69-4.628-.638a2.516,2.516,0,0,0-.4.154l0,0a4.02,4.02,0,0,0-1.669-.244h0c-.064-.121-.2-.209-.168-.346s.278-.613-.321-1.945-.573-1.024-.537-1.565-.044-1.283-.08-.9-.464,1.145-.121,1.64a5.7,5.7,0,0,1,.679,2.724.818.818,0,0,0-.14.365,2.471,2.471,0,0,0-.269-.044c-.961-.109-2.14-.257-2.439-.288a1.326,1.326,0,0,0-.712.14c-.017-.026-.035-.052-.055-.078a.738.738,0,0,0-.528-.276,2.337,2.337,0,0,0-.289-1.534,4.743,4.743,0,0,1-.229-2.2,2.037,2.037,0,0,0-.1,1.725,4.088,4.088,0,0,1,.5,2.014.7.7,0,0,0-.164.047,1.241,1.241,0,0,0-.489.413,1.2,1.2,0,0,0-.275.625,4.206,4.206,0,0,1-2.04-.141c-.85-.157-1.785.342-1.68.408a4.729,4.729,0,0,1,2.2-.164,2.483,2.483,0,0,0,1.52.031.653.653,0,0,0,.107.283.2.2,0,0,0,.015.021l.01.014a.78.78,0,0,0,.126.132.945.945,0,0,0,.212.137,1.546,1.546,0,0,0-.035.18,1.39,1.39,0,0,0,0,.44,12.573,12.573,0,0,0,.836,2.465.851.851,0,0,0-.288.188,5.7,5.7,0,0,1-2.8-.186c-.549-.251-1.219.3-1.593.408s.372.052.9-.08.217-.1,1.635.25,1.842.032,1.972-.028c.085-.041.164,0,.246.047a4.155,4.155,0,0,0,.67,1.976c.022.034.045.067.068.1a2.466,2.466,0,0,0-.08.426c-.016.2,1.782,2.921,1.447,4.441s.286.032.375-.448-1.1-3.174-1.108-3.4c0-.109.17-.019.355.077a9.229,9.229,0,0,0,2.374,1.453,3.125,3.125,0,0,0,.162.589c.165.425,1.409,1.05,1.962,2.273a5.47,5.47,0,0,1,.342,2.261c.116.234.292-1.384.014-2.17s-1.989-2.053-1.97-2.241c.016-.166.208-.251.09-.472q.381.14.754.252a3.734,3.734,0,0,0,3.622-1.093,4.261,4.261,0,0,0,.8-1.015h0q.133-.224.244-.46a4.774,4.774,0,0,0,.4-1.321,3.4,3.4,0,0,0-.26-1.873,4.6,4.6,0,0,0-.344-.64c.188.027.244-.145.389-.186.182-.052,1.732,1.408,2.555,1.543s2.385-.326,2.134-.4" transform="translate(-64.437 -34.034)" fill="#484f28"/>
            <path id="Trazado_999681" data-name="Trazado 999681" d="M273.087,157.783a.2.2,0,0,1-.179-.119.988.988,0,0,1-.036-.468,3.519,3.519,0,0,0-.309-1.8,4.918,4.918,0,0,0-1.356-1.619,2.134,2.134,0,0,1-.609-.664,3.222,3.222,0,0,1-.154-.53,9.241,9.241,0,0,1-2.318-1.43l-.015-.008c.066.183.168.446.261.689a8.561,8.561,0,0,1,.774,2.526c-.014.077-.307,1.16-.561,1.246a.185.185,0,0,1-.185-.037c-.088-.079-.112-.182.032-.83.239-1.081-.711-2.893-1.168-3.763-.234-.448-.289-.557-.282-.653a2.394,2.394,0,0,1,.065-.381c-.009-.013-.017-.026-.026-.039a4.346,4.346,0,0,1-.69-1.958l-.011,0-.026.015c-.188.1-.687.367-2.059.024-.414-.1-.686-.18-.867-.231-.36-.1-.36-.1-.587-.044l-.1.025a5.4,5.4,0,0,1-.677.12c-.292.033-.485.055-.531-.119s.154-.236.221-.255a2.266,2.266,0,0,0,.353-.158,1.608,1.608,0,0,1,1.358-.24,6.249,6.249,0,0,0,2.615.215,1.106,1.106,0,0,1,.186-.145c-.058-.15-.121-.3-.185-.455a8.545,8.545,0,0,1-.6-1.894,1.594,1.594,0,0,1,0-.494c0-.022.006-.044.011-.067a1.149,1.149,0,0,1-.128-.094.958.958,0,0,1-.152-.16l-.013-.018-.019-.026a.822.822,0,0,1-.084-.159,3.085,3.085,0,0,1-1.441-.082,3.386,3.386,0,0,0-1.843.109c-.209.063-.314.093-.409.034a.188.188,0,0,1-.077-.231,2.276,2.276,0,0,1,1.879-.493c.14.026.274.053.4.078a3.349,3.349,0,0,0,1.451.1,1.5,1.5,0,0,1,.292-.593,1.412,1.412,0,0,1,.558-.468.633.633,0,0,1,.075-.027,3.3,3.3,0,0,0-.35-1.432c-.048-.122-.1-.249-.148-.382a2.276,2.276,0,0,1,.152-1.936.189.189,0,0,1,.242.035c.075.083.063.192.039.409a3.387,3.387,0,0,0,.219,1.833,2.963,2.963,0,0,1,.332,1.463.924.924,0,0,1,.439.283,1.43,1.43,0,0,1,.674-.1c.139.014.463.053.872.1.469.057,1.052.127,1.569.185l.118.016a1.088,1.088,0,0,1,.127-.259,6.3,6.3,0,0,0-.677-2.531,1.61,1.61,0,0,1,0-1.379,2.332,2.332,0,0,0,.094-.375c.006-.069.025-.277.211-.262s.192.208.211.5a5.513,5.513,0,0,1,0,.687l-.008.1c-.017.234-.017.234.147.57.082.168.206.423.381.812.58,1.288.406,1.827.341,2.03,0,.012-.008.022-.01.031a.435.435,0,0,0,.059.083l.033.041a4.226,4.226,0,0,1,1.569.233,2.586,2.586,0,0,1,.371-.135c.094-.024.211.011.693.163.937.3,2.889.91,3.911.483.613-.255.717-.251.81-.178a.184.184,0,0,1,.069.176c-.04.264-1.053.744-1.127.772a8.554,8.554,0,0,1-2.623-.314c-.227-.044-.469-.091-.656-.124.1.076.191.156.281.237l.163.148a16.2,16.2,0,0,1,1.637,1.628,3.264,3.264,0,0,1,.565.059,2.12,2.12,0,0,1,.761.481,4.911,4.911,0,0,0,1.833,1.048,3.515,3.515,0,0,0,1.824-.014.986.986,0,0,1,.466-.047.193.193,0,0,1,.148.228c-.016.072-.049.22-.939.408a4.328,4.328,0,0,1-1.417.1,5.916,5.916,0,0,1-1.934-1.126,6.571,6.571,0,0,0-.575-.405c-.015.011-.032.025-.051.041a.777.777,0,0,1-.089.069,4.59,4.59,0,0,1,.236.466,3.538,3.538,0,0,1,.272,1.966,4.944,4.944,0,0,1-.408,1.36l.017-.008-.1.19c-.052.1-.108.2-.166.3a4.421,4.421,0,0,1-.833,1.058,3.906,3.906,0,0,1-3.79,1.133c-.169-.05-.34-.105-.511-.165a.7.7,0,0,1-.07.148.643.643,0,0,0-.031.057,6.578,6.578,0,0,0,.5.494,5.943,5.943,0,0,1,1.451,1.7,4.318,4.318,0,0,1,.154,1.411c-.028.91-.168.969-.235,1a.182.182,0,0,1-.072.014m-5.172-7.071a.96.96,0,0,1,.381.142l.026.014.016.014a8.973,8.973,0,0,0,2.329,1.425l.086.037.016.093a2.915,2.915,0,0,0,.153.555.29.29,0,0,0,.038.066.745.745,0,0,1,.063-.127c.047-.08.051-.091.023-.145l-.212-.4.424.157c.247.092.5.176.743.249a3.607,3.607,0,0,0,3.452-1.051l.006-.006a3.943,3.943,0,0,0,.65-.782l.115-.193a4.731,4.731,0,0,0,.236-.444,4.6,4.6,0,0,0,.384-1.273,3.211,3.211,0,0,0-.247-1.778,4.405,4.405,0,0,0-.332-.616l-.2-.317.373.053c.032.005.044,0,.106-.055a.765.765,0,0,1,.115-.085.28.28,0,0,0-.072-.025,2.831,2.831,0,0,0-.58-.052h-.084l-.053-.065a15.275,15.275,0,0,0-1.652-1.653l-.164-.148c-.132-.119-.272-.234-.416-.34l-.021-.016-.016-.021c-.087-.118-.167-.245-.116-.37a.215.215,0,0,1,.17-.13.826.826,0,0,1,.234.014l-.372-.116c-.221-.07-.45-.142-.521-.152-.047.013-.093.029-.136.044l.332.36-.685-.26a3.882,3.882,0,0,0-1.6-.233l-.114.007-.053-.106a.63.63,0,0,0-.056-.075.425.425,0,0,1-.124-.39l.015-.047c.049-.152.2-.615-.327-1.782l-.072-.158a3.977,3.977,0,0,1,.316,2.083.65.65,0,0,0-.113.289l-.02.2-.191-.044a2.178,2.178,0,0,0-.249-.041c-.518-.059-1.1-.129-1.571-.185-.408-.049-.729-.088-.866-.1a1.135,1.135,0,0,0-.62.124l-.142.068-.081-.133a.632.632,0,0,0-.041-.06.562.562,0,0,0-.4-.212l-.045,0-.047.007a.544.544,0,0,0-.125.036,1.083,1.083,0,0,0-.417.358,1.045,1.045,0,0,0-.24.532l0,.051.007.05a.475.475,0,0,0,.079.208l.016.023a.6.6,0,0,0,.1.107.77.77,0,0,0,.174.114l.13.06-.034.139a1.354,1.354,0,0,0-.032.162,1.227,1.227,0,0,0,0,.387,8.189,8.189,0,0,0,.583,1.821c.087.209.169.407.245.613l.06.161-.161.06a.7.7,0,0,0-.231.151,3.983,3.983,0,0,1-2.105.057l.169.043c1.241.31,1.671.081,1.812.006a.4.4,0,0,1,.448.029l.082.045.007.094a4,4,0,0,0,.644,1.894l.057.086.59.868-.615-.461c-.006.039-.012.081-.016.121.023.069.134.282.242.487.056.106.117.222.181.346a.831.831,0,0,1-.056-.228.216.216,0,0,1,.1-.191.225.225,0,0,1,.118-.033" transform="translate(-64.381 -33.978)" fill="#484f28"/>
            <path id="Trazado_999682" data-name="Trazado 999682" d="M254.546,148.5a15.257,15.257,0,1,0,11.231-18.424A15.256,15.256,0,0,0,254.546,148.5m2.26-.615a12.916,12.916,0,1,1,15.6,9.508,12.916,12.916,0,0,1-15.6-9.508" transform="translate(-62.622 -31.949)" fill="#db4a4a"/>
            <path id="Trazado_999683" data-name="Trazado 999683" d="M264.8,157.625l1.518.8a.236.236,0,0,0,.318-.1l13.091-24.9a.236.236,0,0,0-.1-.318l-1.518-.8a.236.236,0,0,0-.318.1l-13.091,24.9a.236.236,0,0,0,.1.318" transform="translate(-65.225 -32.6)" fill="#db4a4a"/>
            <path id="Trazado_999684" data-name="Trazado 999684" d="M248.5,69.425l2.766,11.4a.548.548,0,0,0,.659.4l20.685-5.016a.548.548,0,0,0,.4-.659l-2.766-11.4a.549.549,0,0,0-.659-.4L248.9,68.766a.548.548,0,0,0-.4.659" transform="translate(-61.235 -15.706)" fill="#db4a4a"/>
            <path id="Trazado_999685" data-name="Trazado 999685" d="M251.9,66.13l15.272-3.7a.4.4,0,0,0,.3-.487l-2.042-8.42a.4.4,0,0,0-.487-.3l-15.272,3.7a.4.4,0,0,0-.3.487l2.042,8.42a.4.4,0,0,0,.487.3" transform="translate(-61.451 -13.113)" fill="#db4a4a"/>
            <path id="Trazado_999686" data-name="Trazado 999686" d="M251.18,53.742l12.054-2.923a.44.44,0,0,0,.323-.53l-3.087-12.728a.44.44,0,0,0-.531-.323l-12.054,2.923a.44.44,0,0,0-.323.529l3.087,12.728a.439.439,0,0,0,.53.323" transform="translate(-61.005 -9.174)" fill="#db4a4a"/>
            <path id="Trazado_999687" data-name="Trazado 999687" d="M259.163,177.491l1.011,4.169a156.671,156.671,0,0,0,37.716-8.9l.3-.11-.862-4.034s-.139.054-.4.154a164.921,164.921,0,0,1-37.76,8.719" transform="translate(-63.867 -41.554)" fill="#ffe866"/>
            <path id="Trazado_999688" data-name="Trazado 999688" d="M289.049,111.479,285.144,110a.478.478,0,0,0-.626.417l-.547,3.683a.482.482,0,0,1-.586.43l-1.357-.371a.493.493,0,0,0-.592.522l.067,7.032c.006.585.3.564.494.02L284.174,117a.466.466,0,0,1,.583-.313l1.656.555a.459.459,0,0,0,.557-.252l2.346-4.749a.556.556,0,0,0-.266-.763" transform="translate(-69.356 -27.1)" fill="#ffe866"/>
            <path id="Trazado_999689" data-name="Trazado 999689" d="M244.139,118.289l1.83,7.545.254.188a.523.523,0,0,0,.7-.035l1.39-1.429a.531.531,0,0,1,.754.014l4.335,4.061c.48.45.815.342.515-.253l-3.286-7.592a.563.563,0,0,0-.873-.221l-1.182,1.086a.55.55,0,0,1-.818-.13l-2.481-3.45a.545.545,0,0,0-.852-.1Z" transform="translate(-60.165 -29.033)" fill="#ffe866"/>
            <path id="Trazado_999690" data-name="Trazado 999690" d="M264.917,115.66l2.83-.147a.324.324,0,0,1,.318.4l-.41,2.493a.328.328,0,0,0,.289.4l.953.041a.334.334,0,0,1,.274.46l-1.714,4.506c-.124.377-.41.347-.422-.044l-.113-3.53a.316.316,0,0,0-.311-.323l-1.185.015a.312.312,0,0,1-.307-.279l-.532-3.554a.378.378,0,0,1,.33-.437" transform="translate(-65.203 -28.466)" fill="#ffe866"/>
            <path id="Trazado_999691" data-name="Trazado 999691" d="M250.365,62.606l1.26,5.2,16.026-3.887-.453-1.867s-13.887,2.3-16.833.557" transform="translate(-61.699 -15.291)" fill="#c24141"/>
            <path id="Trazado_999692" data-name="Trazado 999692" d="M250.667,47.263a2.46,2.46,0,1,0,1.74-3.21,2.589,2.589,0,0,0-1.74,3.21" transform="translate(-61.752 -10.841)" fill="#bdbdbd"/>
            <path id="Trazado_999693" data-name="Trazado 999693" d="M252.029,47.393a1.408,1.408,0,1,0,1-1.837,1.482,1.482,0,0,0-1,1.837" transform="translate(-62.097 -11.218)" fill="#8a8a8a"/>
            <path id="Trazado_999694" data-name="Trazado 999694" d="M249.926,51.547l1.132,4.666,12.907-3.13-.3-1.231s-8.45,1.533-10.612,1.2a12.618,12.618,0,0,1-3.129-1.5" transform="translate(-61.591 -12.703)" fill="#c24141"/>
            <g id="Grupo_1108874" data-name="Grupo 1108874" transform="translate(131.797 34.454)" style="mix-blend-mode: multiply;isolation: isolate">
              <g id="Grupo_1108873" data-name="Grupo 1108873">
                <g id="Grupo_1108872" data-name="Grupo 1108872" clip-path="url(#clip-path-6)">
                  <g id="Grupo_1108871" data-name="Grupo 1108871" transform="translate(0 0)">
                    <g id="Grupo_1108870" data-name="Grupo 1108870" clip-path="url(#clip-path-7)">
                      <rect id="Rectángulo_405214" data-name="Rectángulo 405214" width="68.48" height="52.074" transform="translate(-8.882 1.95) rotate(-13.633)" fill="url(#linear-gradient)"/>
                    </g>
                  </g>
                </g>
              </g>
            </g>
            <path id="Trazado_999696" data-name="Trazado 999696" d="M272.647,75.9l.552,2.277a.548.548,0,0,1-.4.659l-20.685,5.016a.548.548,0,0,1-.659-.4l-2.2-9.077a9.418,9.418,0,0,0,8.706,4.091A143.94,143.94,0,0,0,272.647,75.9" transform="translate(-61.425 -18.329)" fill="#c24141"/>
            <path id="Trazado_999697" data-name="Trazado 999697" d="M274.89,76.117l.025-.006a.555.555,0,0,0,.407-.668L272.729,64.75a.555.555,0,0,0-.668-.407l-.024.006a.555.555,0,0,0-.408.668l2.593,10.692a.555.555,0,0,0,.668.408" transform="translate(-66.935 -15.853)" fill="#c24141"/>
            <path id="Trazado_999698" data-name="Trazado 999698" d="M269.834,76.975l.025-.006a.555.555,0,0,0,.407-.668l-2.593-10.693A.555.555,0,0,0,267,65.2l-.024.006a.555.555,0,0,0-.408.668l2.593,10.692a.555.555,0,0,0,.668.408" transform="translate(-65.689 -16.064)" fill="#c24141"/>
            <path id="Trazado_999699" data-name="Trazado 999699" d="M264.872,77.919l.025-.006a.555.555,0,0,0,.407-.668l-2.593-10.693a.555.555,0,0,0-.668-.407l-.024.006a.555.555,0,0,0-.408.668L264.2,77.512a.555.555,0,0,0,.668.408" transform="translate(-64.466 -16.297)" fill="#c24141"/>
            <path id="Trazado_999700" data-name="Trazado 999700" d="M259.972,79.549l.025-.006a.555.555,0,0,0,.407-.668l-2.593-10.693a.556.556,0,0,0-.668-.407l-.024.006a.555.555,0,0,0-.408.668L259.3,79.143a.555.555,0,0,0,.668.407" transform="translate(-63.259 -16.698)" fill="#c24141"/>
            <path id="Trazado_999701" data-name="Trazado 999701" d="M255.179,80.086l.025-.006a.555.555,0,0,0,.407-.668l-2.593-10.693a.555.555,0,0,0-.668-.407l-.024.006a.555.555,0,0,0-.408.668l2.593,10.692a.555.555,0,0,0,.668.408" transform="translate(-62.078 -16.831)" fill="#c24141"/>
            <g id="Grupo_1108877" data-name="Grupo 1108877" transform="translate(200.915 40.314)" opacity="0.58">
              <g id="Grupo_1108876" data-name="Grupo 1108876">
                <g id="Grupo_1108875" data-name="Grupo 1108875" clip-path="url(#clip-path-8)">
                  <rect id="Rectángulo_405216" data-name="Rectángulo 405216" width="1.78" height="8.856" transform="translate(-0.001 0.42) rotate(-13.642)" fill="#ff7575"/>
                </g>
              </g>
            </g>
            <g id="Grupo_1108880" data-name="Grupo 1108880" transform="translate(205.74 48.257)" opacity="0.33">
              <g id="Grupo_1108879" data-name="Grupo 1108879">
                <g id="Grupo_1108878" data-name="Grupo 1108878" clip-path="url(#clip-path-9)">
                  <rect id="Rectángulo_405218" data-name="Rectángulo 405218" width="1.78" height="12.827" transform="translate(-0.001 0.42) rotate(-13.642)" fill="#ff7575"/>
                </g>
              </g>
            </g>
            <g id="Grupo_1108883" data-name="Grupo 1108883" transform="translate(201.994 49.166)" opacity="0.33">
              <g id="Grupo_1108882" data-name="Grupo 1108882">
                <g id="Grupo_1108881" data-name="Grupo 1108881" clip-path="url(#clip-path-9)">
                  <rect id="Rectángulo_405220" data-name="Rectángulo 405220" width="1.78" height="12.827" transform="translate(-0.001 0.419) rotate(-13.642)" fill="#ff7575"/>
                </g>
              </g>
            </g>
            <g id="Grupo_1108886" data-name="Grupo 1108886" transform="translate(198.331 50.054)" opacity="0.33">
              <g id="Grupo_1108885" data-name="Grupo 1108885">
                <g id="Grupo_1108884" data-name="Grupo 1108884" clip-path="url(#clip-path-9)">
                  <rect id="Rectángulo_405222" data-name="Rectángulo 405222" width="1.78" height="12.827" transform="translate(-0.001 0.419) rotate(-13.642)" fill="#ff7575"/>
                </g>
              </g>
            </g>
            <g id="Grupo_1108889" data-name="Grupo 1108889" transform="translate(194.53 50.975)" opacity="0.33">
              <g id="Grupo_1108888" data-name="Grupo 1108888">
                <g id="Grupo_1108887" data-name="Grupo 1108887" clip-path="url(#clip-path-12)">
                  <rect id="Rectángulo_405224" data-name="Rectángulo 405224" width="1.78" height="12.827" transform="translate(-0.001 0.42) rotate(-13.642)" fill="#ff7575"/>
                </g>
              </g>
            </g>
            <g id="Grupo_1108892" data-name="Grupo 1108892" transform="translate(190.927 51.849)" opacity="0.33">
              <g id="Grupo_1108891" data-name="Grupo 1108891">
                <g id="Grupo_1108890" data-name="Grupo 1108890" clip-path="url(#clip-path-9)">
                  <rect id="Rectángulo_405226" data-name="Rectángulo 405226" width="1.78" height="12.827" transform="translate(-0.001 0.42) rotate(-13.642)" fill="#ff7575"/>
                </g>
              </g>
            </g>
            <g id="Grupo_1108895" data-name="Grupo 1108895" transform="translate(196.711 28.216)" opacity="0.58">
              <g id="Grupo_1108894" data-name="Grupo 1108894">
                <g id="Grupo_1108893" data-name="Grupo 1108893" clip-path="url(#clip-path-14)">
                  <rect id="Rectángulo_405228" data-name="Rectángulo 405228" width="1.645" height="12.779" transform="translate(0.001 0.387) rotate(-13.622)" fill="#ff7575"/>
                </g>
              </g>
            </g>
          </g>
        </g>
      </g>
    </g>
  </g>
</svg>
