<svg xmlns="http://www.w3.org/2000/svg" xmlns:xlink="http://www.w3.org/1999/xlink" width="295" height="214.786" viewBox="0 0 295 214.786">
  <defs>
    <clipPath id="clip-path">
      <rect id="Rectángulo_404629" data-name="Rectángulo 404629" width="295" height="214.786" fill="none"/>
    </clipPath>
  </defs>
  <g id="Grupo_1109463" data-name="Grupo 1109463" transform="translate(-285 -854)">
    <g id="Grupo_1107458" data-name="Grupo 1107458" transform="translate(285 854)">
      <g id="Grupo_1107457" data-name="Grupo 1107457" clip-path="url(#clip-path)">
        <path id="Trazado_995583" data-name="Trazado 995583" d="M129.615,2.849c53.974-9.918,111.421,6.1,145.208,47.358,31.441,38.394,27.676,80.682-22.2,99.961C200.143,170.454,49.012,184.48,8.557,138.247-21.39,104.023,34.938,62.161,59.87,40.5,82.834,20.545,97.644,10.67,129.615,2.849" transform="translate(0 0)" fill="#c5eafc" fill-rule="evenodd"/>
        <path id="Trazado_995584" data-name="Trazado 995584" d="M262.35,29.295a125.531,125.531,0,0,1,12.47,13.148c.321.392.634.786.948,1.178C261.022,61.546,225.009,95.573,168.01,88.882c-63.395-7.444-134.437,20-160.439,40.419-11.2-13.76-8.8-28.691-.349-43.013C26.943,76.562,57.046,65.7,91.409,67.034c51.719,2.006,140.7-6.776,170.941-37.739" transform="translate(0.002 7.766)" fill="#e0f5ff" fill-rule="evenodd"/>
        <path id="Trazado_995585" data-name="Trazado 995585" d="M206.187,7.327a143.958,143.958,0,0,1,25.868,12.2c-37.626,1.249-77.269,19.936-125.309,31.792-36.2,8.932-58.189,6.083-71.451.21,5.608-4.835,10.886-9.209,15.216-12.971,6.008-5.22,11.457-9.749,16.8-13.732C83.524,37.087,111.557,35.264,143,23.473A296.57,296.57,0,0,1,206.187,7.327" transform="translate(9.356 1.942)" fill="#e0f5ff" fill-rule="evenodd"/>
        <path id="Trazado_995586" data-name="Trazado 995586" d="M288.842,65.075c14.33,31.52,4.193,62.245-36.218,77.865C200.143,163.225,49.012,177.251,8.557,131.019c-20.57-23.508-.436-50.617,22.268-72.311a27.938,27.938,0,0,1,7.355-.688c22.057,1.113,29.12,31.63,53.132,22.393s26.182-23.018,44.2-28.223c7.34-2.12,19.961,5.351,27.915,2.968,15.329-4.592,24.73-27.761,45.586-27.889,13.873-.086,24.158,12.723,41.8,26.382,12.437,9.627,24.841,9.742,38.026,11.424" transform="translate(0 7.228)" fill="#d4e5df" fill-rule="evenodd"/>
        <path id="Trazado_995587" data-name="Trazado 995587" d="M122.1,50.186c3.256.65,6.362.927,8.967.147a27.887,27.887,0,0,0,8.895-4.859c.667,3.67,2.094,6.93,4.848,8.6,8.667,5.253,22.15,8.728,29.025,12.214,9.325,4.728,12.478,26-8.8,37.168S163.1,81.877,152.723,74c-7.818-5.938-23.186-14.537-30.626-23.81" transform="translate(32.366 12.054)" fill="#bad5cc" fill-rule="evenodd"/>
        <path id="Trazado_995588" data-name="Trazado 995588" d="M5.8,121.067C-10.011,98.4,9.243,72.891,30.826,52.27a27.935,27.935,0,0,1,7.341-.689,23.221,23.221,0,0,1,7.8,10.075c7.093,16.81,22.591,26.792,37.3,23.9S120.3,56.4,140.529,70.324s28.764,27.465,28.764,27.465Z" transform="translate(0.001 13.666)" fill="#bad5cc" fill-rule="evenodd"/>
        <path id="Trazado_995589" data-name="Trazado 995589" d="M244.251,65.012c9.973,21.935,8.09,43.483-7.594,59.826-11.371-3.185-22.053-9.262-23.829-20.034-3.939-23.9-16.022-20.751-31.521-32.572S175,54.37,173.69,40.449a25.185,25.185,0,0,0-5.478-12.942c12.064,2,22.012,13.692,38.013,26.081,12.437,9.627,24.841,9.742,38.026,11.424" transform="translate(44.59 7.292)" fill="#bad5cc" fill-rule="evenodd"/>
        <path id="Trazado_995590" data-name="Trazado 995590" d="M179.886,83.891s-5.02-13.655-.244-17.179,13.383,4.482,13.383,4.482.143-5.3,2.895-5.722,7.68,2.391,11.541,10.714c0,0,.338-4.28,2.228-5.089s6.1,5.041,6.1,5.041,1.955-7.325,7.835-7.924,17.2,11.295,18.5,25.973l-61.412-9.608Z" transform="translate(47.074 17.345)" fill="#356a5a" fill-rule="evenodd"/>
        <path id="Trazado_995591" data-name="Trazado 995591" d="M81.659,86.994s5.02-13.657.244-17.18S68.52,74.3,68.52,74.3s-.143-5.3-2.895-5.722-7.68,2.392-11.541,10.714c0,0-.338-4.279-2.228-5.088s-6.1,5.04-6.1,5.04-1.955-7.324-7.835-7.924-17.2,11.295-18.5,25.975l61.412-9.61Z" transform="translate(5.146 18.167)" fill="#356a5a" fill-rule="evenodd"/>
        <path id="Trazado_995592" data-name="Trazado 995592" d="M77.5,89.8c1.182-1.576,10.245-16.549,16.285-17.73S97.6,79.685,97.6,79.685s9.193-17.205,18.913-17.6,5.91,15.367,5.91,15.367,6.816-1.993,7.88,2.5-4.334,10.245-4.334,10.245Z" transform="translate(20.544 16.456)" fill="#356a5a" fill-rule="evenodd"/>
        <path id="Trazado_995593" data-name="Trazado 995593" d="M293.68,88.871c-4.012,16.714-17.3,31.117-41.057,40.3-52.48,20.286-203.61,34.312-244.065-11.921-7.617-8.7-9.649-17.9-8.041-27.136,45.936-4.535,232.9-21.36,293.163-1.242" transform="translate(0.001 20.997)" fill="#4e8975" fill-rule="evenodd"/>
        <path id="Trazado_995594" data-name="Trazado 995594" d="M280.671,107.947c-6.852,7.138-16.336,13.282-28.62,18.03C199.571,146.263,48.44,160.289,7.986,114.056a36.532,36.532,0,0,1-5.83-8.859c31.407-5.385,103.488-16.752,134.019-13.3,39.6,4.478-21.88,38.833,3.783,32.782,18.861-4.447,102.23-32.721,140.713-16.733" transform="translate(0.572 24.191)" fill="#c5eafc" fill-rule="evenodd"/>
        <path id="Trazado_995595" data-name="Trazado 995595" d="M33.8,129.265q-5.086-1.807-9.687-3.941C78.7,105.238,124.949,107,137.462,107.961c-1.246,1.449-2.542,2.857-3.769,4.181-48.4-.344-83.291,10.543-99.9,17.123" transform="translate(6.391 28.481)" fill="#4e8975" fill-rule="evenodd"/>
        <path id="Trazado_995596" data-name="Trazado 995596" d="M174.27,133.032q-3.932.816-8.057,1.581c12.428-18.991,26.576-29.108,35.018-33.887,3.174-.119,6.286-.14,9.32-.059a104.659,104.659,0,0,0-36.28,32.365" transform="translate(44.06 26.672)" fill="#4e8975" fill-rule="evenodd"/>
        <path id="Trazado_995597" data-name="Trazado 995597" d="M85.366,144.276q-3.258-.156-6.485-.364c-8.1-23.536-6.57-42.222-4.909-51.351q2.344-.2,4.647-.388a103.949,103.949,0,0,0,6.747,52.1" transform="translate(19.258 24.433)" fill="#4e8975" fill-rule="evenodd"/>
        <path id="Trazado_995598" data-name="Trazado 995598" d="M46.23,137.448q-2.924-.679-5.746-1.44c.3-18.527,4.879-32.309,8.548-40.446q2.7-.351,5.416-.691a104.208,104.208,0,0,0-8.218,42.576" transform="translate(10.732 25.149)" fill="#4e8975" fill-rule="evenodd"/>
        <path id="Trazado_995599" data-name="Trazado 995599" d="M55.063,164.667l6.167.259s-2.371-21.79,13.553-28.482A16.988,16.988,0,0,0,60.069,147.2s-1.643-15.645,4.807-28.39c0,0-9.933,11.152-8.419,31.46,0,0-4.408-17.143-14.04-22.544a30.105,30.105,0,0,1,7.426,14.116s-6.828-3.309-13.625-1.1c0,0,15.955-1.517,18.845,23.927" transform="translate(9.601 31.494)" fill="#4a9b4e" fill-rule="evenodd"/>
        <path id="Trazado_995600" data-name="Trazado 995600" d="M97.208,165.581l-6.112.867s.206-21.916-16.3-27a16.99,16.99,0,0,1,15.7,9.247s.089-15.733-7.589-27.776c0,0,10.986,10.114,11.487,30.472,0,0,2.691-17.494,11.743-23.819a30.11,30.11,0,0,0-6,14.78s6.468-3.969,13.45-2.439c0,0-16.027.068-16.388,25.672" transform="translate(19.827 32.053)" fill="#4a9b4e" fill-rule="evenodd"/>
        <path id="Trazado_995601" data-name="Trazado 995601" d="M43.19,160.417a3.94,3.94,0,1,1,0-7.88H138.8a3.94,3.94,0,0,1,0,7.88Z" transform="translate(10.404 40.435)" fill="#c5eafc" fill-rule="evenodd"/>
        <path id="Trazado_995602" data-name="Trazado 995602" d="M175.249,98.893s15.934-2.433,17.762-8.7c0,0,6.268,2.876,4.831,15.149s.669,52.18.043,54.528l-16.366-.329s-2.173-16.861-2.352-20.635c-.153-3.271-2.873-23.507-2.873-23.507s-16.063,12.918-16.976,16.574-1.235,28.091-1.235,28.091H141.947s-1.565-29.766.261-33.956,20.9-27.213,20.9-27.213Z" transform="translate(37.462 23.908)" fill="#faf1e2" fill-rule="evenodd"/>
        <path id="Trazado_995603" data-name="Trazado 995603" d="M177.636,116.436c2.639-.2,4.972,2.553,5.212,6.153s-1.7,6.68-4.342,6.881-4.973-2.553-5.213-6.152,1.7-6.681,4.343-6.882" transform="translate(45.932 30.863)" fill="#fffdfa" fill-rule="evenodd"/>
        <path id="Trazado_995604" data-name="Trazado 995604" d="M141.372,127.085c.1-3.568.349-6.382.822-7.47a35.814,35.814,0,0,1,3.239-4.94c.063.02.127.042.19.066,2.648,1,3.764,4.542,2.492,7.919-1.214,3.229-4.171,5.135-6.743,4.425" transform="translate(37.476 30.399)" fill="#fffdfa" fill-rule="evenodd"/>
        <path id="Trazado_995605" data-name="Trazado 995605" d="M179.253,94.291a7.857,7.857,0,0,0,3.7-4.1s6.268,2.873,4.833,15.149.668,52.18.042,54.526l-4.466,3.187c.185-1.3.9-47.625,1-53.142.106-5.657-3.69-13.049-5.116-15.62" transform="translate(47.517 23.908)" fill="#eddab9" fill-rule="evenodd"/>
        <path id="Trazado_995606" data-name="Trazado 995606" d="M176.294,112.323S160.231,125.24,159.317,128.9s-1.233,28.091-1.233,28.091H141.946s-.614-11.688-.624-21.447c5.192.8,9.379-5.149,11.073-9.134,2.233-5.254,14.118-20.358,18.125-23.05s3.151-1.379,3.874-.066-.918,1.707-.459,4.2a12.627,12.627,0,0,0,2.359,4.829" transform="translate(37.462 26.982)" fill="#eddab9" fill-rule="evenodd"/>
        <path id="Trazado_995607" data-name="Trazado 995607" d="M140.835,108.933l1.351,4.762s1.987,2.69,1.913,4.809c-.275,7.814,4.562,7.181-3.456,12.022-1.977,1.194-5.594-4.047-6.5-5.155s.175-9.448.175-9.448l-1.694-4.5Z" transform="translate(35.156 28.876)" fill="#fac37f" fill-rule="evenodd"/>
        <path id="Trazado_995608" data-name="Trazado 995608" d="M141.143,109.991l.691,2.434-7.656,3.1-1.555-4.128,7.754-2.351Z" transform="translate(35.156 28.906)" fill="#edaf63" fill-rule="evenodd"/>
        <path id="Trazado_995609" data-name="Trazado 995609" d="M142.186,124.211c-.109-.266-.237-.563-.376-.887a23.5,23.5,0,0,1-1.85-5.657l.779-.113a23,23,0,0,0,1.794,5.459c.142.329.272.63.382.9Z" transform="translate(37.101 31.162)" fill="#fcd8ab"/>
        <path id="Trazado_995610" data-name="Trazado 995610" d="M140.328,125.983a36.362,36.362,0,0,1-2.028-7.2l.779-.113a35.548,35.548,0,0,0,1.979,7.016Z" transform="translate(36.661 31.458)" fill="#fcd8ab"/>
        <path id="Trazado_995611" data-name="Trazado 995611" d="M138.217,125.735c-.162-.4-.35-.88-.548-1.423l.741-.269c.192.531.378,1.007.536,1.4Z" transform="translate(36.494 32.882)" fill="#fcd8ab"/>
        <path id="Trazado_995612" data-name="Trazado 995612" d="M152.008,121.583l-.548-1.158-1.976.429,1.132-1.679-1.359-.369.326-2.351s-18.189,12.23-31.518,1.242a16.992,16.992,0,0,0,16.361,8.028s-13.089,8.729-27.37,8.942c0,0,14.49,3.611,31.766-7.171,0,0-13.129,11.872-13.431,22.911a30.1,30.1,0,0,1,9.044-13.137s.244,7.584,5.363,12.574c0,0-8.975-13.875,12.209-28.262" transform="translate(28.379 30.871)" fill="#4a9b4e" fill-rule="evenodd"/>
        <path id="Trazado_995613" data-name="Trazado 995613" d="M136.26,116.079l3.557,1.882a6.6,6.6,0,0,1-2.178,4.147s3.069,2.769,1.789,3.755-3.972-.657-5.039-5.416,1.871-4.368,1.871-4.368" transform="translate(35.563 30.769)" fill="#fac37f" fill-rule="evenodd"/>
        <path id="Trazado_995614" data-name="Trazado 995614" d="M138.256,120.871l-.409-.329c1.9-2.363-.257-4.767-.349-4.868l.387-.354c.025.028,2.554,2.841.371,5.551" transform="translate(36.449 30.57)" fill="#fcd8ab"/>
        <path id="Trazado_995615" data-name="Trazado 995615" d="M155.23,80.39s2.176,3.575-3.36,10.666-12.2,14.311-11.607,16.53,1.275,5.676,1.661,6.319,1.951,1.6,1.125,3.039,1.938,1.441,1.842,2.524l-12.672,3.4a3.958,3.958,0,0,1-.034-2.777c.584-1.242.134-1.826-.538-1.7s-.5-2.475-.872-3.611-2.8-8.654-1.745-12.179,17.113-35.167,26.2-22.211" transform="translate(34.134 20.489)" fill="#9f5232" fill-rule="evenodd"/>
        <path id="Trazado_995616" data-name="Trazado 995616" d="M143.456,144.553h17.238l-.361,17.009a19.542,19.542,0,0,1,1.083,7.025H133.573s1.357-9.387,12-6.563Z" transform="translate(35.408 38.319)" fill="#0b7897" fill-rule="evenodd"/>
        <path id="Trazado_995617" data-name="Trazado 995617" d="M143.085,158.616l-.145-1.206c1.384,1.309,3.951,3.857,3.149,4.028-1.084.23-3-2.822-3-2.822" transform="translate(37.891 41.727)" fill="#0a3f61" fill-rule="evenodd"/>
        <path id="Trazado_995618" data-name="Trazado 995618" d="M157.659,144.553H160.7l-.362,17.009a19.542,19.542,0,0,1,1.083,7.025H133.573a7.239,7.239,0,0,1,.195-.844c4.08-.181,16.168-.731,18.941-1.058,3.349-.395,3.349-3.678,3.678-5.188.264-1.217,1-12.572,1.273-16.945" transform="translate(35.408 38.319)" fill="#0a3f61" fill-rule="evenodd"/>
        <path id="Trazado_995619" data-name="Trazado 995619" d="M190.155,144.553H172.916l.953,17.468a11.2,11.2,0,0,0-1.675,6.566h19.175s.116-5.391-2.44-6.9Z" transform="translate(45.646 38.319)" fill="#0b7897" fill-rule="evenodd"/>
        <path id="Trazado_995620" data-name="Trazado 995620" d="M175.762,144.553h-3l.953,17.468c6.509-5.222,13.454-1.116,13.454-1.116-3.349-4.005-9.391-3.283-9.391-3.283-1.1-3.159-1.747-9.735-2.018-13.07" transform="translate(45.797 38.319)" fill="#0a3f61" fill-rule="evenodd"/>
        <path id="Trazado_995621" data-name="Trazado 995621" d="M155.167,74c9.983-1.066,21.224-1.015,29.482,7.1s8.573,13.512,8.573,13.512,1.163,12.666-29.908,8.7c0,0-20.026-7.292-21.765-11.565-3.836-9.429,3.635-16.68,13.617-17.747" transform="translate(37.251 19.488)" fill="#b15b38" fill-rule="evenodd"/>
        <path id="Trazado_995622" data-name="Trazado 995622" d="M191.647,89.081a12.628,12.628,0,0,1,1.575,4.491s1.164,12.666-29.907,8.7c0,0-20.026-7.292-21.766-11.565-2.19-5.383-.693-10.055,2.852-13.273l.137.342s-2.5,11.811,5.773,14.962c8.041,3.064,35.8,13.812,41.337-3.657" transform="translate(37.251 20.527)" fill="#bb5400" fill-rule="evenodd"/>
        <path id="Trazado_995623" data-name="Trazado 995623" d="M162.852,116.066l-1.929,3.044s-3.416.588-4.1,1.634-2.076,5.3-.974,5.775,3.727-3.308,3.727-3.308-2.377,5.88-4.9,6.845-3.075,2.587-1.145,3.857,7.014-.29,8.977-1.37,4.539-8.064,4.539-8.064l3.669-4.811Z" transform="translate(40.391 30.767)" fill="#fac37f" fill-rule="evenodd"/>
        <path id="Trazado_995624" data-name="Trazado 995624" d="M161.008,116.066l-1.679,2.649,5.719,6.162c.1-.25.152-.4.152-.4l3.669-4.811Z" transform="translate(42.236 30.767)" fill="#edaf63" fill-rule="evenodd"/>
        <path id="Trazado_995625" data-name="Trazado 995625" d="M161.868,85.091s-3.28,2.6-.547,11.169,6.484,17.654,5.155,19.529-3.164,4.882-3.75,5.35-2.382.821-2.109,2.461-2.009.9-2.294,1.947l10.4,7.365a3.963,3.963,0,0,0,1-2.595c-.118-1.366.507-1.757,1.093-1.406s1.328-2.148,2.07-3.086,5.625-7.148,5.859-10.819-3.857-38.918-16.872-29.917" transform="translate(41.969 22.168)" fill="#9f5232" fill-rule="evenodd"/>
        <path id="Trazado_995626" data-name="Trazado 995626" d="M169.633,69.563c5.479,8.4,2.091,21.005-7.568,28.158s-21.929,6.143-27.408-2.254-2.09-21.005,7.568-28.158,21.929-6.145,27.408,2.254" transform="translate(35.001 16.578)" fill="#fad177" fill-rule="evenodd"/>
        <path id="Trazado_995627" data-name="Trazado 995627" d="M169.633,69.563A16.484,16.484,0,0,1,172.239,78c-5.119-8.723-19.551-4.774-26.769,1.171-6.034,4.971-7.726,13.753-8.167,19.358a15.072,15.072,0,0,1-2.645-3.064c-5.478-8.4-2.09-21.005,7.568-28.158s21.929-6.143,27.408,2.254" transform="translate(35.001 16.578)" fill="#ef932d" fill-rule="evenodd"/>
        <path id="Trazado_995628" data-name="Trazado 995628" d="M159.948,73.475c3.034,4.65,1.158,11.63-4.19,15.591s-12.142,3.4-15.176-1.249-1.158-11.63,4.19-15.591,12.142-3.4,15.176,1.249" transform="translate(36.881 18.446)" fill="#0170c2" fill-rule="evenodd"/>
        <path id="Trazado_995629" data-name="Trazado 995629" d="M158.134,71.786c3.034,4.65,1.158,11.63-4.19,15.591s-12.142,3.4-15.176-1.249-1.158-11.63,4.19-15.591,12.142-3.4,15.176,1.249" transform="translate(36.401 17.998)" fill="#fad177" fill-rule="evenodd"/>
        <rect id="Rectángulo_404621" data-name="Rectángulo 404621" width="1.051" height="7.827" transform="translate(203.247 147.488) rotate(-62.789)" fill="#ed8937"/>
        <path id="Trazado_995630" data-name="Trazado 995630" d="M167.056,118.541c-1.483-1.317-4.386-3.885-4.767-4.181l.644-.83c.5.391,4.644,4.069,4.821,4.225Z" transform="translate(43.02 30.095)" fill="#ed8937"/>
        <rect id="Rectángulo_404622" data-name="Rectángulo 404622" width="10.54" height="1.05" transform="matrix(0.225, -0.974, 0.974, 0.225, 180.788, 105.926)" fill="#ffe9b8"/>
        <rect id="Rectángulo_404623" data-name="Rectángulo 404623" width="1.051" height="7.604" transform="matrix(0.945, -0.328, 0.328, 0.945, 183.173, 95.946)" fill="#ffe9b8"/>
        <rect id="Rectángulo_404624" data-name="Rectángulo 404624" width="6.314" height="1.051" transform="translate(186.157 93.088) rotate(-9.916)" fill="#ffe9b8"/>
        <rect id="Rectángulo_404625" data-name="Rectángulo 404625" width="1.05" height="5.063" transform="translate(182.095 88.81) rotate(-7.494)" fill="#ffe9b8"/>
        <rect id="Rectángulo_404626" data-name="Rectángulo 404626" width="5.655" height="1.05" transform="matrix(0.952, -0.305, 0.305, 0.952, 174.576, 97.27)" fill="#ffe9b8"/>
        <rect id="Rectángulo_404627" data-name="Rectángulo 404627" width="1.051" height="8.733" transform="matrix(0.229, -0.974, 0.974, 0.229, 185.027, 95.629)" fill="#ffe9b8"/>
        <path id="Trazado_995631" data-name="Trazado 995631" d="M154.067,130.734l-.252-.746c3.669-1.24,4.759-2.917,5.391-4.547l.735.286c-.667,1.721-1.888,3.66-5.874,5.007" transform="translate(40.774 33.252)" fill="#fcd8ab"/>
        <path id="Trazado_995632" data-name="Trazado 995632" d="M156.843,130.932l-.3-.729c2.932-1.208,3.879-2.793,4.419-4.184l.734.285a7.852,7.852,0,0,1-4.853,4.628" transform="translate(41.497 33.406)" fill="#fcd8ab"/>
        <rect id="Rectángulo_404628" data-name="Rectángulo 404628" width="7.827" height="1.05" transform="translate(167.87 138.762) rotate(-10.621)" fill="#ed8937"/>
        <path id="Trazado_995633" data-name="Trazado 995633" d="M138.993,108.207c-1.591-.1-5.829-.377-6.329-.377v-1.051c.638,0,6.163.364,6.4.38Z" transform="translate(35.167 28.305)" fill="#ed8937"/>
        <path id="Trazado_995634" data-name="Trazado 995634" d="M70.6,176.071l6.167.259s-2.371-21.79,13.553-28.483A16.99,16.99,0,0,0,75.6,158.6s-1.643-15.647,4.807-28.39c0,0-9.933,11.152-8.419,31.459,0,0-4.408-17.143-14.04-22.543a30.105,30.105,0,0,1,7.426,14.115s-6.828-3.309-13.625-1.1c0,0,15.955-1.516,18.845,23.928" transform="translate(13.719 34.517)" fill="#2f7036" fill-rule="evenodd"/>
        <path id="Trazado_995635" data-name="Trazado 995635" d="M109.367,175.857l-6.112.867s.206-21.916-16.3-27a16.99,16.99,0,0,1,15.7,9.247s.089-15.733-7.589-27.776c0,0,10.986,10.114,11.487,30.472,0,0,2.691-17.494,11.743-23.819a30.11,30.11,0,0,0-6,14.78s6.468-3.969,13.45-2.439c0,0-16.027.068-16.388,25.672" transform="translate(23.05 34.777)" fill="#2f7036" fill-rule="evenodd"/>
        <path id="Trazado_995636" data-name="Trazado 995636" d="M35.4,176.071l6.167.259s-2.371-21.79,13.553-28.483A16.99,16.99,0,0,0,40.4,158.6s-1.643-15.647,4.807-28.39c0,0-9.933,11.152-8.419,31.459,0,0-4.408-17.143-14.04-22.543a30.105,30.105,0,0,1,7.426,14.115s-6.828-3.309-13.625-1.1c0,0,15.955-1.516,18.845,23.928" transform="translate(4.387 34.517)" fill="#2f7036" fill-rule="evenodd"/>
        <path id="Trazado_995637" data-name="Trazado 995637" d="M144.756,175.339l-6.112.867s.206-21.918-16.3-27a16.99,16.99,0,0,1,15.7,9.246s.089-15.733-7.589-27.776c0,0,10.986,10.114,11.487,30.472,0,0,2.691-17.494,11.743-23.819a30.109,30.109,0,0,0-6,14.78s6.468-3.97,13.45-2.439c0,0-16.027.068-16.388,25.672" transform="translate(32.432 34.639)" fill="#2f7036" fill-rule="evenodd"/>
        <path id="Trazado_995638" data-name="Trazado 995638" d="M15.263,171.431a3.94,3.94,0,1,1,0-7.88H273.735a3.94,3.94,0,1,1,0,7.88Z" transform="translate(3.001 43.355)" fill="#c5eafc" fill-rule="evenodd"/>
      </g>
    </g>
  </g>
</svg>
