<svg xmlns="http://www.w3.org/2000/svg" xmlns:xlink="http://www.w3.org/1999/xlink" width="131" height="132" viewBox="0 0 131 132">
  <defs>
    <clipPath id="clip-path">
      <rect id="Rectángulo_405446" data-name="Rectángulo 405446" width="84" height="69" transform="translate(0 0)" fill="none"/>
    </clipPath>
  </defs>
  <g id="Grupo_1109466" data-name="Grupo 1109466" transform="translate(-979 -6208.975)">
    <ellipse id="Elipse_11978" data-name="Elipse 11978" cx="65.5" cy="66" rx="65.5" ry="66" transform="translate(979 6208.975)" fill="#f7eeea"/>
    <g id="Grupo_1109454" data-name="Grupo 1109454" transform="translate(1000 6236.802)">
      <rect id="Rectángulo_405442" data-name="Rectángulo 405442" width="4" height="10" transform="translate(62.711 18.198)" fill="#067744"/>
      <path id="Trazado_1000044" data-name="Trazado 1000044" d="M362.972,84.408l-6.577-6.578,3.436-3.436,3.142,3.141,3.142-3.141,3.436,3.436Z" transform="translate(-298.664 -62.342)" fill="#067744"/>
      <rect id="Rectángulo_405443" data-name="Rectángulo 405443" width="5" height="10" transform="translate(15.711 18.198)" fill="#0caa63"/>
      <path id="Trazado_1000045" data-name="Trazado 1000045" d="M80.972,84.408,74.4,77.831l3.436-3.436,3.142,3.141,3.142-3.141,3.436,3.436Z" transform="translate(-62.342 -62.342)" fill="#0caa63"/>
      <rect id="Rectángulo_405444" data-name="Rectángulo 405444" width="84" height="43" transform="translate(-0.289 26.198)" fill="#fdefb5"/>
      <rect id="Rectángulo_405445" data-name="Rectángulo 405445" width="43" height="43" transform="translate(40.711 26.198)" fill="#fdd844"/>
      <g id="Grupo_1109453" data-name="Grupo 1109453" transform="translate(-0.289 0.198)">
        <g id="Grupo_1109452" data-name="Grupo 1109452" transform="translate(0 0)" clip-path="url(#clip-path)">
          <path id="Trazado_1000046" data-name="Trazado 1000046" d="M231.662,232.961a1.768,1.768,0,0,1,0-1.984l.425-.621v-.687h2.662L229.658,224l-5.092,5.669h2.349a6.66,6.66,0,0,0,.738,6.037,1.768,1.768,0,0,1,0,1.984,6.657,6.657,0,0,0,0,7.476l4.009-2.746a1.767,1.767,0,0,1,0-1.984,6.657,6.657,0,0,0,0-7.476" transform="translate(-187.899 -187.913)" fill="#fd9e22"/>
          <path id="Trazado_1000047" data-name="Trazado 1000047" d="M110.662,232.961a1.768,1.768,0,0,1,0-1.984l.425-.621v-.687h2.662L108.658,224l-5.092,5.669h2.349a6.66,6.66,0,0,0,.738,6.037,1.768,1.768,0,0,1,0,1.984,6.657,6.657,0,0,0,0,7.476l4.009-2.746a1.767,1.767,0,0,1,0-1.984,6.657,6.657,0,0,0,0-7.476" transform="translate(-86.499 -187.913)" fill="#fd9e22"/>
          <path id="Trazado_1000048" data-name="Trazado 1000048" d="M352.662,232.961a1.768,1.768,0,0,1,0-1.984l.425-.621v-.687h2.662L350.658,224l-5.092,5.669h2.349a6.66,6.66,0,0,0,.738,6.037,1.768,1.768,0,0,1,0,1.984,6.657,6.657,0,0,0,0,7.476l4.009-2.746a1.767,1.767,0,0,1,0-1.984,6.657,6.657,0,0,0,0-7.476" transform="translate(-289.3 -187.913)" fill="#f96225"/>
          <path id="Trazado_1000049" data-name="Trazado 1000049" d="M419.289,16.2H412V8.909A8.919,8.919,0,0,1,420.909,0H428.2V7.289a8.919,8.919,0,0,1-8.909,8.909" transform="translate(-344.973 -0.196)" fill="#0caa63"/>
          <path id="Trazado_1000050" data-name="Trazado 1000050" d="M298.2,16.2h-7.289A8.919,8.919,0,0,1,282,7.289V0h7.289A8.919,8.919,0,0,1,298.2,8.909Z" transform="translate(-236.03 -0.196)" fill="#0caa63"/>
          <path id="Trazado_1000051" data-name="Trazado 1000051" d="M137.289,16.2H130V8.909A8.919,8.919,0,0,1,138.909,0H146.2V7.289a8.919,8.919,0,0,1-8.909,8.909" transform="translate(-108.651 -0.196)" fill="#90e36a"/>
          <path id="Trazado_1000052" data-name="Trazado 1000052" d="M16.2,16.2H8.909A8.919,8.919,0,0,1,0,7.289V0H7.289A8.919,8.919,0,0,1,16.2,8.909Z" transform="translate(0.292 -0.196)" fill="#90e36a"/>
          <path id="Trazado_1000053" data-name="Trazado 1000053" d="M258,242.421a1.768,1.768,0,0,1,0-1.984,6.657,6.657,0,0,0,0-7.476,1.768,1.768,0,0,1,0-1.984l.425-.62v-.688h2.662L256,224v19.794Z" transform="translate(-214.242 -187.913)" fill="#f96225"/>
        </g>
      </g>
    </g>
  </g>
</svg>
