<svg xmlns="http://www.w3.org/2000/svg" xmlns:xlink="http://www.w3.org/1999/xlink" width="100" height="101" viewBox="0 0 100 101">
  <defs>
    <clipPath id="clip-path">
      <rect id="Rectángulo_405447" data-name="Rectángulo 405447" width="64.859" height="74.215" fill="none"/>
    </clipPath>
  </defs>
  <g id="Grupo_1109461" data-name="Grupo 1109461" transform="translate(-330.711 -6961.353)">
    <ellipse id="Elipse_11979" data-name="Elipse 11979" cx="50" cy="50.5" rx="50" ry="50.5" transform="translate(330.711 6961.353)" fill="#1f6feb"/>
    <g id="Grupo_1109456" data-name="Grupo 1109456" transform="translate(347.568 6971.137)">
      <g id="Grupo_1109455" data-name="Grupo 1109455" clip-path="url(#clip-path)">
        <path id="Trazado_1000054" data-name="Trazado 1000054" d="M143.662,41.2V9.617a7.019,7.019,0,1,0-14.037,0V41.2a11.7,11.7,0,1,0,14.037,0Z" transform="translate(-84.328 -1.753)" fill="#f7e0ba"/>
        <path id="Trazado_1000055" data-name="Trazado 1000055" d="M148.342,115.786a11.679,11.679,0,0,0-4.679-9.358V99.241a30.46,30.46,0,0,1-18.252,13.274,11.7,11.7,0,1,0,22.928,3.553c0-.094,0-.188,0-.282" transform="translate(-84.33 -66.981)" fill="#f5d59f"/>
        <path id="Trazado_1000056" data-name="Trazado 1000056" d="M19.75,155.207c3.925,1.371,5.573,3.611,4.934,5.439s-3.323,2.556-7.248,1.186-7.64-6.385-7.64-6.385S15.825,153.836,19.75,155.207Z" transform="translate(-6.611 -104.381)" fill="#9ccc65"/>
        <path id="Trazado_1000057" data-name="Trazado 1000057" d="M19.75,119.221c3.925,1.371,5.573,3.611,4.934,5.44s-3.323,2.556-7.248,1.186-7.64-6.385-7.64-6.385S15.825,117.851,19.75,119.221Z" transform="translate(-6.611 -80.093)" fill="#9ccc65"/>
        <path id="Trazado_1000058" data-name="Trazado 1000058" d="M24.568,89.1c3.3,1.151,4.719,2.924,4.229,4.328s-2.707,1.905-6,.754-6.5-5.122-6.5-5.122,4.981-1.111,8.278.04" transform="translate(-10.995 -59.782)" fill="#9ccc65"/>
        <path id="Trazado_1000059" data-name="Trazado 1000059" d="M35.642,204.115a10.533,10.533,0,0,0-9.928,7.019H45.571A10.533,10.533,0,0,0,35.642,204.115Z" transform="translate(-17.355 -137.763)" fill="#f7e0ba"/>
        <path id="Trazado_1000060" data-name="Trazado 1000060" d="M48.981,58.526c.02,2.467,1.084,3.82,2.383,3.81s2.341-1.381,2.321-3.848-2.4-5.511-2.4-5.511S48.961,56.059,48.981,58.526Z" transform="translate(-33.058 -35.756)" fill="#9ccc65"/>
        <path id="Trazado_1000061" data-name="Trazado 1000061" d="M19.75,155.207c3.925,1.371,5.573,3.611,4.934,5.439s-3.323,2.556-7.248,1.186-7.64-6.385-7.64-6.385S15.825,153.836,19.75,155.207Z" transform="translate(-6.611 -104.381)" fill="#9ccc65"/>
        <path id="Trazado_1000062" data-name="Trazado 1000062" d="M61.891,155.207c-3.925,1.371-5.573,3.611-4.934,5.439s3.323,2.556,7.248,1.186,7.64-6.385,7.64-6.385-6.03-1.61-9.955-.24" transform="translate(-38.352 -104.38)" fill="#83bd46"/>
        <path id="Trazado_1000063" data-name="Trazado 1000063" d="M19.75,119.221c3.925,1.371,5.573,3.611,4.934,5.44s-3.323,2.556-7.248,1.186-7.64-6.385-7.64-6.385S15.825,117.851,19.75,119.221Z" transform="translate(-6.611 -80.093)" fill="#9ccc65"/>
        <path id="Trazado_1000064" data-name="Trazado 1000064" d="M61.891,119.221c-3.925,1.371-5.573,3.611-4.934,5.44s3.323,2.556,7.248,1.186,7.64-6.385,7.64-6.385-6.03-1.61-9.955-.24" transform="translate(-38.352 -80.093)" fill="#83bd46"/>
        <path id="Trazado_1000065" data-name="Trazado 1000065" d="M60.43,89.511c-3.3,1.151-4.731,2.891-4.255,4.254s2.682,1.831,5.978.679S68.682,89.4,68.682,89.4,63.726,88.36,60.43,89.511Z" transform="translate(-37.854 -60.047)" fill="#9ccc65"/>
        <path id="Trazado_1000066" data-name="Trazado 1000066" d="M51.684,71.82c1.3-.01,2.341-1.381,2.321-3.848a4.821,4.821,0,0,0-.108-.944,6.421,6.421,0,0,1-4.441,2.421C49.8,71,50.666,71.828,51.684,71.82Z" transform="translate(-33.379 -45.24)" fill="#83bd46"/>
        <path id="Trazado_1000067" data-name="Trazado 1000067" d="M43.247,101.094a1.766,1.766,0,0,0-.007-1.157A15.687,15.687,0,0,1,37.7,102c3.044.951,5.081.434,5.548-.9" transform="translate(-25.444 -67.45)" fill="#83bd46"/>
        <path id="Trazado_1000068" data-name="Trazado 1000068" d="M22.931,153.736a2.34,2.34,0,1,1-2.34,2.34,2.339,2.339,0,0,1,2.34-2.34" transform="translate(-13.897 -103.761)" fill="#c6ed93"/>
        <path id="Trazado_1000069" data-name="Trazado 1000069" d="M39.753,160.933a1.17,1.17,0,1,1-1.17,1.17,1.17,1.17,0,0,1,1.17-1.17" transform="translate(-26.041 -108.618)" fill="#c6ed93"/>
        <path id="Trazado_1000070" data-name="Trazado 1000070" d="M43.936,207.713a1.755,1.755,0,1,1-1.755,1.755,1.755,1.755,0,0,1,1.755-1.755" transform="translate(-28.469 -140.191)" fill="#fbf2e2"/>
        <path id="Trazado_1000071" data-name="Trazado 1000071" d="M19.332,117.751a2.34,2.34,0,1,1-2.34,2.34,2.339,2.339,0,0,1,2.34-2.34" transform="translate(-11.468 -79.473)" fill="#c6ed93"/>
        <path id="Trazado_1000072" data-name="Trazado 1000072" d="M36.155,124.948a1.17,1.17,0,1,1-1.17,1.17,1.17,1.17,0,0,1,1.17-1.17" transform="translate(-23.612 -84.331)" fill="#c6ed93"/>
        <path id="Trazado_1000073" data-name="Trazado 1000073" d="M62.3,212.142a10.562,10.562,0,0,0-6.071-5.955,12.794,12.794,0,0,1-5.511,5.955Z" transform="translate(-34.23 -139.161)" fill="#f5d59f"/>
        <path id="Trazado_1000074" data-name="Trazado 1000074" d="M148.7,92.112V74.568h-4.679V92.112c-2.588,1.68-4.719,3.812-4.679,7.111a7.019,7.019,0,0,0,14.037-.089c0-2.953-2.237-5.69-4.679-7.022" transform="translate(-94.044 -50.328)" fill="#ea7432"/>
        <path id="Trazado_1000075" data-name="Trazado 1000075" d="M155.282,143.547a6.776,6.776,0,0,0-.84-3.174,16.352,16.352,0,0,1-12.281,6.656,7.024,7.024,0,0,0,13.121-3.482" transform="translate(-95.948 -94.742)" fill="#e2601e"/>
        <path id="Trazado_1000076" data-name="Trazado 1000076" d="M10.38,108.217H36.115a.845.845,0,1,0,0-1.689H33.653l-.085-.194a11.43,11.43,0,0,0-9.187-6.755l-.289-.032V92.325l.459.208c2.132.966,4.948.239,6.437-.282,4.126-1.441,7.883-6.467,8.041-6.68a.846.846,0,0,0-.461-1.319c-3.3-.883-9.508-1.85-13.952,1.6l-.524.407V80.627l.459.208c2.805,1.271,8.975.465,14.478-6.961a.845.845,0,0,0-.461-1.319c-3.3-.883-9.507-1.85-13.952,1.6l-.524.407V69.636l.405.1a8.928,8.928,0,0,0,4.936-.542c3.481-1.216,6.763-5.139,6.9-5.306a.845.845,0,0,0-.477-1.366c-3.139-.659-7.641-.959-11.265,1.347l-.5.318V61.262l.186-.088a3.766,3.766,0,0,0,1.875-2.633c.55-2.321-.325-5.178-2.4-7.838a.845.845,0,0,0-1.34.011c-2.086,2.764-2.9,5.7-2.227,8.059a3.586,3.586,0,0,0,2.01,2.474l.208.081v3.252l-.526-.413C19.123,62,14.782,61.379,9.968,62.452a.846.846,0,0,0-.641,1.008.857.857,0,0,0,.167.347c1.475,1.828,5.443,6.078,10.417,6.078a4.826,4.826,0,0,0,2.038-.394L22.4,69.3v5.357l-.528-.423c-4.43-3.545-10.706-2.572-14.052-1.677a.845.845,0,0,0-.461,1.319c2.945,3.974,9.507,9.366,14.575,6.916l.467-.226v5.787l-.528-.423c-4.427-3.542-10.7-2.571-14.053-1.676a.845.845,0,0,0-.6,1.034.849.849,0,0,0,.138.285c2.059,2.777,6.358,7.437,12.018,7.437a5.918,5.918,0,0,0,2.564-.524l.46-.209v7.256l-.3.027a11.4,11.4,0,0,0-9.388,6.775l-.085.194H10.38a.845.845,0,0,0,0,1.689M28.674,85.625h0c2.289-.8,5.394-.512,7.595-.13l.576.1-.388.437c-1.486,1.669-3.737,3.827-6.025,4.626a10.642,10.642,0,0,1-3.437.679c-1.542,0-2.457-.564-2.731-1.347-.438-1.253.756-3.088,4.41-4.364m0-11.7c2.289-.8,5.394-.512,7.595-.13l.576.1-.388.437C34.97,76,32.719,78.161,30.432,78.959A10.642,10.642,0,0,1,27,79.639c-1.542,0-2.457-.564-2.731-1.347-.438-1.253.756-3.088,4.41-4.364m-6.9-6.381a2.121,2.121,0,0,1-1.808.623,9.712,9.712,0,0,1-3.031-.569,14,14,0,0,1-4.671-3.276l-.482-.479.676-.074a14.022,14.022,0,0,1,5.695.344,8.1,8.1,0,0,1,3.194,1.846c.71.767.625,1.286.428,1.586m.356,10.744c-.274.783-1.189,1.347-2.731,1.347a10.64,10.64,0,0,1-3.438-.68c-2.287-.8-4.539-2.956-6.025-4.626L9.545,73.9l.576-.1c2.2-.381,5.308-.668,7.595.13,3.655,1.277,4.849,3.112,4.412,4.364M21.65,90.674a3.421,3.421,0,0,1-2.253.654,10.715,10.715,0,0,1-3.437-.671c-2.286-.8-4.539-2.956-6.025-4.625l-.389-.437.576-.1c2.2-.381,5.307-.668,7.595.13,2.546.889,4.215,2.208,4.465,3.528a1.554,1.554,0,0,1-.532,1.521m2.487-24.092c.643-1.089,3.152-2.816,7.143-2.816.639,0,1.322.034,2.031.1l.7.067-.509.491A14.24,14.24,0,0,1,28.877,67.6a9.348,9.348,0,0,1-3.016.6,2.571,2.571,0,0,1-1.657-.436l-.111-.1V66.658Zm-2.514-9.816h0a8.068,8.068,0,0,1,1.2-3.569L23.1,52.7l.286.49a8.07,8.07,0,0,1,1.254,3.549c.016,2.062-.726,2.991-1.469,3h-.007c-.755,0-1.522-.917-1.539-2.972M14.758,106.04a9.69,9.69,0,0,1,16.772,0l.282.488H14.475Z" transform="translate(-4.856 -34.002)"/>
        <path id="Trazado_1000077" data-name="Trazado 1000077" d="M.845,223.107a.845.845,0,1,0,.845.845.846.846,0,0,0-.845-.845" transform="translate(0 -150.581)"/>
        <path id="Trazado_1000078" data-name="Trazado 1000078" d="M108.8,223.107a.845.845,0,1,0,.845.845.846.846,0,0,0-.845-.845" transform="translate(-72.862 -150.581)"/>
        <path id="Trazado_1000079" data-name="Trazado 1000079" d="M154.932,54.37a.847.847,0,0,0,1.117-.423,12.549,12.549,0,0,0-3.462-14.816l-.118-.1V7.863a7.863,7.863,0,1,0-15.727,0V10.2a.916.916,0,0,0,1.469.66c.265-.272.245-.949.223-1.733A6.876,6.876,0,0,1,140.24,3.5,6.184,6.184,0,0,1,150.78,7.863V9.358h-3.835a.845.845,0,1,0,0,1.689h3.835v2.99h-6.174a.845.845,0,0,0,0,1.689h6.174v2.99h-3.835a.845.845,0,1,0,0,1.689h3.832l0,.322c.068,7.629.016,12.223-.015,14.968-.047,4.126-.032,4.138.353,4.427a10.777,10.777,0,0,1,3.391,13.129.846.846,0,0,0,.424,1.117" transform="translate(-92.291)"/>
        <path id="Trazado_1000080" data-name="Trazado 1000080" d="M127.843,57.574a.846.846,0,0,0-.845.845V77.891l-.118.1a12.561,12.561,0,0,0,9.709,22.1.845.845,0,1,0-.228-1.674l-.051-.321.045.322a10.868,10.868,0,0,1-8.006-19.433c.387-.291.4-.425.352-4.766-.031-2.91-.082-7.782-.015-15.8a.845.845,0,0,0-.845-.842" transform="translate(-82.547 -38.858)"/>
        <path id="Trazado_1000081" data-name="Trazado 1000081" d="M146.944,71.97h-4.679a.846.846,0,0,0-.845.845V89.9l-.141.1c-1.971,1.358-4.585,3.612-4.539,7.479a7.864,7.864,0,0,0,15.727-.1c0-3.331-2.44-6.075-4.529-7.413l-.15-.1V72.815a.846.846,0,0,0-.845-.845m3.835,25.41a6.191,6.191,0,0,1-6.172,6.174h-.053a6.124,6.124,0,0,1-6.122-6.072c-.031-2.5,1.293-4.467,4.293-6.415.421-.273.437-.283.39-3.966-.031-2.417-.083-6.463-.005-13.121l0-.321H146.1v16.7a.846.846,0,0,0,.44.742c2.042,1.112,4.239,3.552,4.239,6.279" transform="translate(-92.29 -48.575)"/>
        <path id="Trazado_1000082" data-name="Trazado 1000082" d="M158.5,146.539a1.17,1.17,0,1,1-1.17,1.17,1.17,1.17,0,0,1,1.17-1.17" transform="translate(-106.189 -98.903)"/>
        <path id="Trazado_1000083" data-name="Trazado 1000083" d="M157.829,148.529a1.495,1.495,0,1,1,1.5-1.5,1.5,1.5,0,0,1-1.5,1.5m0-2.34a.845.845,0,1,0,.845.845.846.846,0,0,0-.845-.845" transform="translate(-105.514 -98.228)"/>
        <path id="Trazado_1000084" data-name="Trazado 1000084" d="M180.769,176.326a.845.845,0,1,0,.845.845.846.846,0,0,0-.845-.845" transform="translate(-121.436 -119.007)"/>
        <path id="Trazado_1000085" data-name="Trazado 1000085" d="M137.587,43.182a.845.845,0,1,0,.845.845.846.846,0,0,0-.845-.845" transform="translate(-92.291 -29.145)"/>
      </g>
    </g>
  </g>
</svg>
