<svg xmlns="http://www.w3.org/2000/svg" xmlns:xlink="http://www.w3.org/1999/xlink" width="66" height="99" viewBox="0 0 66 99">
  <defs>
    <clipPath id="clip-path">
      <rect x="10" y="9" width="66" height="99" fill="none"/>
    </clipPath>
    <clipPath id="clip-path-2">
      <rect id="Rectángulo_404971" data-name="Rectángulo 404971" width="85" height="117" transform="translate(704.711 982)" fill="#fff" stroke="#707070" stroke-width="1"/>
    </clipPath>
    <clipPath id="clip-path-3">
      <rect id="Rectángulo_404970" data-name="Rectángulo 404970" width="63.936" height="96.055" fill="none"/>
    </clipPath>
    <clipPath id="clip-path-4">
      <rect id="Rectángulo_404969" data-name="Rectángulo 404969" width="63.936" height="96.055" transform="translate(0 0)" fill="none"/>
    </clipPath>
    <clipPath id="clip-path-5">
      <rect id="Rectángulo_404968" data-name="Rectángulo 404968" width="15.309" height="40.973" transform="translate(9.005 49.378)" fill="none"/>
    </clipPath>
  </defs>
  <g id="Grupo_1109462" data-name="Grupo 1109462" transform="translate(-714.711 -991)">
    <g id="Grupo_de_desplazamiento_1" data-name="Grupo de desplazamiento 1" transform="translate(704.711 982)" clip-path="url(#clip-path)" style="isolation: isolate">
      <g id="Grupo_1109461" data-name="Grupo 1109461" transform="translate(-704.711 -982)">
        <g id="Enmascarar_grupo_1098818" data-name="Enmascarar grupo 1098818" clip-path="url(#clip-path-2)">
          <g id="Grupo_1108210" data-name="Grupo 1108210" transform="translate(715.711 992)">
            <g id="Grupo_1108209" data-name="Grupo 1108209" clip-path="url(#clip-path-3)">
              <g id="Grupo_1108208" data-name="Grupo 1108208">
                <g id="Grupo_1108207" data-name="Grupo 1108207" clip-path="url(#clip-path-4)">
                  <path id="Trazado_997366" data-name="Trazado 997366" d="M63.936,46.827l-.15,31.968L34.219,96.055h0L27.765,92.3l-3.6-2.1-2.251-1.351-2.551-1.5L17.109,86l-1.651-1.05-2.1-.9-1.05-.6L4.5,78.945l.15-31.968,4.353,2.552.3.15,3,1.651,1.05.6,2.852,1.651,1.8,1.05,3,1.651,2.851,1.651,10.506,6Z" fill="#57565c"/>
                  <path id="Trazado_997367" data-name="Trazado 997367" d="M63.936,46.827l-.15,31.968L34.219,96.055l.15-31.968c10.956-7.5,22.213-15.309,29.567-17.26" fill="#57565c"/>
                  <path id="Trazado_997368" data-name="Trazado 997368" d="M34.369,64.086l-.15,31.968L27.765,92.3l-3.6-2.1L21.912,88.85l-2.552-1.5L17.109,86l-1.651-1.05-2.1-.9-1.052-.6-7.8-4.5.151-31.968C10.656,48.477,30.917,59.884,34.369,64.086Z" fill="#49494f"/>
                  <path id="Trazado_997369" data-name="Trazado 997369" d="M63.936,46.827,34.369,64.087,4.652,46.827l29.567-17.11Z" fill="#716e75"/>
                  <path id="Trazado_997370" data-name="Trazado 997370" d="M11.406,46.827l3.6,2.1L34.219,37.822v-4.2Z" fill="#57565c"/>
                  <path id="Trazado_997371" data-name="Trazado 997371" d="M34.219,33.619v4.2L53.43,49.078l3.752-2.252Z" fill="#49494f"/>
                  <path id="Trazado_997372" data-name="Trazado 997372" d="M15.009,48.928,34.369,60.184,53.431,49.078,34.219,37.822Z" fill="#492600"/>
                  <path id="Trazado_997373" data-name="Trazado 997373" d="M24.014,50.579l13.358,7.8-3,1.8L15.009,49.078,34.22,37.972l3.452,1.951L24.014,47.877A1.463,1.463,0,0,0,24.014,50.579Z" fill="#3b1b05"/>
                  <path id="Trazado_997374" data-name="Trazado 997374" d="M42.024,44.275h-.3a1.619,1.619,0,0,0-1.2.3c-.15.15-.15.15-.15.3s.15.15.3.3c.3.15.6,0,.9,0,.6,0,1.2.45,1.8.45h.15c.15,0,.15-.15.15-.3s0-.3-.15-.3c0-.15,0-.15-.15-.15h-.9C42.174,44.725,42.174,44.425,42.024,44.275Z" fill="#6b3700"/>
                  <path id="Trazado_997375" data-name="Trazado 997375" d="M40.973,47.877c.15.15.45.15.6.3.15,0,.451.15.451.3s0,.15-.15.3-.3.3-.451.3a4.489,4.489,0,0,1-1.5.6c-.15-.15,0-.3.151-.45s.3-.15.45-.3a.209.209,0,0,0,0-.3c-.15-.15-.3-.3-.45-.3-.3-.15-.6-.6-.151-.9A3.172,3.172,0,0,1,40.973,47.877Z" fill="#6b3700"/>
                  <path id="Trazado_997376" data-name="Trazado 997376" d="M46.376,48.177c.15,0,.15.15.3.15.3.15.6,0,.751.15a1.136,1.136,0,0,1,.3.6.147.147,0,0,1-.15.15h-.751c-.15,0-.15-.15-.3-.3a.551.551,0,0,1-.45-.15,1.139,1.139,0,0,1-.6-.15.479.479,0,0,1-.45-.45c0-.15,0-.3.15-.3a1.618,1.618,0,0,1,1.2.3" fill="#6b3700"/>
                  <path id="Trazado_997377" data-name="Trazado 997377" d="M46.526,50.128h.6c.15,0,.3.15.451.15.15.15.3.15.45.3s.3.3.3.451v.15h-.45a.147.147,0,0,1-.15-.15.953.953,0,0,0-.9,0l-.15.15a.147.147,0,0,0-.15.15,1.646,1.646,0,0,1-1.2,0,.147.147,0,0,1-.15-.15v-.15c-.15-.6.6-.9,1.051-.9Z" fill="#6b3700"/>
                  <path id="Trazado_997378" data-name="Trazado 997378" d="M40.973,51.779a.551.551,0,0,1-.45.15h-.6c-.15,0-.15,0-.3.15a.551.551,0,0,0-.15.45,1,1,0,0,0,.6.751h.3a.551.551,0,0,0,.45-.15c0-.15,0-.15.15-.3s.3-.3.45-.3h.3c.151,0,.151-.15.3-.15,0-.15.15-.15.15-.3s-.3-.45-.451-.6C41.273,51.329,41.123,51.629,40.973,51.779Z" fill="#6b3700"/>
                  <path id="Trazado_997379" data-name="Trazado 997379" d="M36.171,55.832a3.53,3.53,0,0,1-1.2.3h-.9a3.541,3.541,0,0,1-1.2-.3c-.15,0-.3-.15-.45-.15a2.636,2.636,0,0,0-.9-.15c-.3,0-.6,0-.75.3l-.15.15a.53.53,0,0,0,.6.6,3.285,3.285,0,0,0,1.2.151h1.2a.55.55,0,0,1,.45.15,6.194,6.194,0,0,0,2.852-.3c.15,0,.3,0,.3-.15.3-.15.45-.6,0-.75C37.071,55.532,36.471,55.682,36.171,55.832Z" fill="#6b3700"/>
                  <path id="Trazado_997380" data-name="Trazado 997380" d="M24.164,51.479c.3,0,.45.15.75.15a2.131,2.131,0,0,1,.9.3c.15.15.3.15.3.451h-.15a2.691,2.691,0,0,1-2.1-.6.147.147,0,0,1-.15-.15v-.3a.524.524,0,0,1,.3-.15Z" fill="#6b3700"/>
                  <path id="Trazado_997381" data-name="Trazado 997381" d="M28.066,48.778a.524.524,0,0,1,.3.15c.15.15.15.3.3.3s.15,0,.3.15c.15,0,.15.15.15.3H28.066a6.5,6.5,0,0,1-.75.15.4.4,0,0,1-.451-.451C26.865,48.928,27.616,48.778,28.066,48.778Z" fill="#6b3700"/>
                  <path id="Trazado_997382" data-name="Trazado 997382" d="M23.263,46.827c.15-.3.3-.75.6-.9a.551.551,0,0,1,.451-.151c.9-.3,1.651-.6,2.7-.9a.323.323,0,0,0-.3-.3c-.15-.15-.45,0-.6,0a2.791,2.791,0,0,1-1.051.3c-.15,0-.15,0-.3.15s-.3.15-.45.3l-.9.45c-.15.151-.45.3-.6.451l-.15.15a1.124,1.124,0,0,0-.15.75c0,.3.15.45.3.751,0,.15,0,.15.15.3Z" fill="#6b3700"/>
                  <path id="Trazado_997383" data-name="Trazado 997383" d="M34.219,40.673h.3a.465.465,0,0,1,.15.3v.15a.147.147,0,0,1-.15.15c-.3.15-.6.15-.9.3-.6.15-1.2.15-1.8.3h-.3c-.15,0-.15,0-.15-.15a.528.528,0,0,1,.15-.3A5.187,5.187,0,0,1,34.219,40.673Z" fill="#6b3700"/>
                  <path id="Trazado_997384" data-name="Trazado 997384" d="M32.869,46.677c-.15.15-.15.15-.15.3a.147.147,0,0,1-.15.15h-.9a.147.147,0,0,0-.15.15v.15c0,.151,0,.151.3.3,0,.15,0,.3.151.3,0,.15,0,.15.15.3a.208.208,0,0,0,.3,0,.465.465,0,0,0,.15-.3,3.019,3.019,0,0,1,.6-1.2,1.136,1.136,0,0,1,.6-.3,1.137,1.137,0,0,0,.6-.3c.15-.15,0-.3-.15-.3a6.477,6.477,0,0,1-.751.15C33.319,46.377,33.019,46.527,32.869,46.677Z" fill="#6b3700"/>
                  <path id="Trazado_997385" data-name="Trazado 997385" d="M42.774,46.827c.15,0,.3.15.45.15.15.15.451.3.451.6v.151c0,.15,0,.15-.151.3a.456.456,0,0,0,0,.6c0,.15,0,.3-.15.3a.208.208,0,0,1-.3,0h-.15v-.75c0-.3.15-.6,0-.751l-.3-.3c-.15-.15-.3-.15-.45-.3a.323.323,0,0,1-.3-.3c0-.15,0-.3.15-.3s.3.15.45.3a.323.323,0,0,0,.3.3" fill="#371900"/>
                  <path id="Trazado_997386" data-name="Trazado 997386" d="M37.221,50.279h.45a.524.524,0,0,1,.3.15c.151.15,0,.3,0,.45h-1.35a.147.147,0,0,1-.15-.15v-.15a1.584,1.584,0,0,1,.75-.3" fill="#371900"/>
                  <path id="Trazado_997387" data-name="Trazado 997387" d="M43.224,52.98c.15,0,.3,0,.3.15.15.15.15.3,0,.3h-.15c-.3,0-.45.15-.75.15-.15,0-.451.3-.6.15a.208.208,0,0,1,0-.3A2.4,2.4,0,0,1,43.224,52.98Z" fill="#371900"/>
                  <path id="Trazado_997388" data-name="Trazado 997388" d="M28.816,51.479a3.733,3.733,0,0,1,1.2-.15h.3a.479.479,0,0,1,.45.45.906.906,0,0,1-.15.6h-.75c-.15,0-.3-.151-.451-.151h-.45c-.3,0-.75.151-.75-.15S28.666,51.629,28.816,51.479Z" fill="#371900"/>
                  <path id="Trazado_997389" data-name="Trazado 997389" d="M20.261,49.078a3.155,3.155,0,0,0-.9.6c-.15,0-.15.15-.15.3v.15c.15.15.3.15.451.3.3,0,.75.15,1.05.15.15,0,.15,0,.3.15h.751a2.137,2.137,0,0,0,.6-.3.147.147,0,0,0,.15-.15c0-.15,0-.15-.15-.15-.3-.15-.45-.6-.75-.9a.9.9,0,0,0-.6-.15Z" fill="#6b3700"/>
                  <path id="Trazado_997390" data-name="Trazado 997390" d="M30.767,44.575h.6a1.906,1.906,0,0,1,.9-.15c.3,0,.6,0,.75.3,0,0,.15.15,0,.15h-.15a3.311,3.311,0,0,0-1.2.15c-.15.15-.3.15-.45.3a1.9,1.9,0,0,1-.9.15l-.15-.15a.67.67,0,0,1,0-.75A.456.456,0,0,1,30.767,44.575Z" fill="#371900"/>
                  <path id="Trazado_997391" data-name="Trazado 997391" d="M37.221,43.525h.45a.781.781,0,0,1,.6.3c.15,0,.3.15.45.3l.15.15v.151h-.15a1.35,1.35,0,0,1-.751-.151c-.15-.15-.3-.15-.6-.3h-.3a4.386,4.386,0,0,1-1.351-.3c-.15,0-.3-.15-.15-.15.15-.15.45,0,.6,0Z" fill="#371900"/>
                  <g id="Grupo_1108206" data-name="Grupo 1108206" opacity="0.15">
                    <g id="Grupo_1108205" data-name="Grupo 1108205">
                      <g id="Grupo_1108204" data-name="Grupo 1108204" clip-path="url(#clip-path-5)">
                        <path id="Trazado_997392" data-name="Trazado 997392" d="M24.314,90.351,22.063,89l-2.552-1.5-3.3-33.919,1.8,1.051,3,1.651Z" fill="#fff"/>
                        <path id="Trazado_997393" data-name="Trazado 997393" d="M15.609,85.248l-2.251-1.2-1.051-.6L9,49.378l.3.3,3,1.651Z" fill="#fff"/>
                      </g>
                    </g>
                  </g>
                  <path id="Trazado_997394" data-name="Trazado 997394" d="M33.319,45.476c-.75-5.7-1.8-12.757-4.5-14.258l.9-1.5c3.452,1.951,4.5,8.855,5.4,15.609Z" fill="#5f6608"/>
                  <path id="Trazado_997395" data-name="Trazado 997395" d="M32.569,40.223c-.3-4.052.449-6.454,2.25-7.5l.9,1.5c-1.5.9-1.651,3.6-1.5,5.853Z" fill="#5f6608"/>
                  <path id="Trazado_997396" data-name="Trazado 997396" d="M39.623,57.333c-.3-5.853-2.4-9.906-6-12.157l1.05-1.5c4.2,2.7,6.455,7.2,6.755,13.658Z" fill="#5f6608"/>
                  <path id="Trazado_997397" data-name="Trazado 997397" d="M29.867,31.818a4.557,4.557,0,0,0,3.152-1.8c3.452-4.653,1.05-9.005-4.2-13.358-3.3-2.551-9.6-3.752-18.01-5.553-.3,0-.6.3-.45.6l2.251,4.052c.3.6.6,1.351.9,1.951a25.028,25.028,0,0,0,7.054,10.056c3.152,3,6.3,4.352,9.305,4.052" fill="#6d9415"/>
                  <path id="Trazado_997398" data-name="Trazado 997398" d="M10.356,11.406l5.853,4.5c1.951,1.5,3.9,3,5.7,4.652a42.329,42.329,0,0,1,5.4,4.953c.9.9,1.651,1.8,2.4,2.7a8.239,8.239,0,0,1,1.8,3.151c-.6-2.4-2.251-4.352-3.9-6.153s-3.6-3.452-5.4-5.1l-5.854-4.5c-1.951-1.5-3.9-2.851-6-4.2" fill="#648211"/>
                  <path id="Trazado_997399" data-name="Trazado 997399" d="M29.417,27.165a39.841,39.841,0,0,1-5.853-1.051c-1.951-.6-3.752-1.35-5.553-2.1a16.6,16.6,0,0,0,5.4,2.7A16.053,16.053,0,0,0,29.417,27.165Z" fill="#648211"/>
                  <path id="Trazado_997400" data-name="Trazado 997400" d="M27.466,25.064a6.247,6.247,0,0,0,.45-4.653,7.383,7.383,0,0,0-2.7-3.9,21.965,21.965,0,0,1,1.35,1.951c.3.6.6,1.351.9,2.1a11.6,11.6,0,0,1,.3,2.252c-.15.75-.15,1.5-.3,2.251" fill="#648211"/>
                  <path id="Trazado_997401" data-name="Trazado 997401" d="M24.614,22.363a15.2,15.2,0,0,1-4.5-.3,11.721,11.721,0,0,1-2.1-.751,7.072,7.072,0,0,1-1.8-1.35,5.919,5.919,0,0,0,3.752,2.551,8.2,8.2,0,0,0,4.653-.15" fill="#648211"/>
                  <path id="Trazado_997402" data-name="Trazado 997402" d="M21.162,19.361a4.341,4.341,0,0,0-.45-3.6,6,6,0,0,0-2.852-2.251,18.669,18.669,0,0,1,2.4,2.551,6.972,6.972,0,0,1,.751,1.5A7.311,7.311,0,0,0,21.162,19.361Z" fill="#648211"/>
                  <path id="Trazado_997403" data-name="Trazado 997403" d="M33.769,34.67c-2.1-6.754-.75-9.6,2.4-13.208,4.2-5.1,8.405-7.654,12.457-7.5,4.953-.9,9.456-1.05,12.608,1.051.45,2.251-1.351,4.2-3.6,6.153l-1.651,1.051-.451,1.2-3,2.551-.3.75-2.251,2.552a28.727,28.727,0,0,1-8.4,4.653,10.129,10.129,0,0,1-2.1.3Z" fill="#8fbd26"/>
                  <path id="Trazado_997404" data-name="Trazado 997404" d="M58.233,13.658a19.463,19.463,0,0,0-8.255,1.8,25.285,25.285,0,0,0-6.9,4.953,32.4,32.4,0,0,0-5.553,6.454,28.468,28.468,0,0,0-3.6,7.8,26.31,26.31,0,0,1,3.3-7.955,33.274,33.274,0,0,1,5.553-6.6,24.528,24.528,0,0,1,7.054-4.8,18.307,18.307,0,0,1,8.405-1.651" fill="#6d9415"/>
                  <path id="Trazado_997405" data-name="Trazado 997405" d="M35.12,30.767a16.7,16.7,0,0,0,8.555-1.051,30.1,30.1,0,0,0,3.752-2.1,30.025,30.025,0,0,0,3.3-2.851,15.686,15.686,0,0,1-3.152,3.151,14.1,14.1,0,0,1-3.9,2.1A15.032,15.032,0,0,1,35.12,30.767Z" fill="#6d9415"/>
                  <path id="Trazado_997406" data-name="Trazado 997406" d="M39.172,24.164l1.8-.45a7.537,7.537,0,0,1,1.8-.3c.6,0,1.2.15,1.8.15h1.8a12.793,12.793,0,0,0,3.452-.6,13.111,13.111,0,0,0,3.3-1.5,13.146,13.146,0,0,1-3.152,1.8,10.074,10.074,0,0,1-3.6.6,7.311,7.311,0,0,1-1.8-.15c-.6,0-1.2-.15-1.8-.15a7.537,7.537,0,0,0-1.8.3Z" fill="#6d9415"/>
                  <path id="Trazado_997407" data-name="Trazado 997407" d="M47.877,16.359A12.692,12.692,0,0,0,54.03,17.71a6.82,6.82,0,0,0,3-.751,23.835,23.835,0,0,1,3-1.05c-.9.45-1.951.9-2.852,1.351a5.71,5.71,0,0,1-1.5.45,2.7,2.7,0,0,1-1.5.3,11.427,11.427,0,0,1-3.152-.45,19.621,19.621,0,0,1-3.152-1.2" fill="#6d9415"/>
                  <path id="Trazado_997408" data-name="Trazado 997408" d="M35.42,30.017a8.184,8.184,0,0,1-.75-3.3,6.018,6.018,0,0,1,0-1.651,2.865,2.865,0,0,1,.75-1.5c-.15.6-.3,1.051-.45,1.651,0,.6-.15,1.051-.15,1.651C34.97,27.766,35.27,28.816,35.42,30.017Z" fill="#6d9415"/>
                  <path id="Trazado_997409" data-name="Trazado 997409" d="M38.572,24.914a4.625,4.625,0,0,1-.45-2.852,5.328,5.328,0,0,1,.6-1.35c.15-.15.3-.451.45-.6a2.077,2.077,0,0,1,.6-.45,5.252,5.252,0,0,0-.751,1.2,4.491,4.491,0,0,0-.6,1.2,3.77,3.77,0,0,0,.15,2.852" fill="#6d9415"/>
                  <path id="Trazado_997410" data-name="Trazado 997410" d="M42.774,20.262a6.212,6.212,0,0,1,.75-2.852,3.626,3.626,0,0,1,.9-1.2,6.07,6.07,0,0,1,1.351-.751c-.3.3-.751.6-1.051.9s-.6.75-.9,1.05a15.939,15.939,0,0,0-1.051,2.852" fill="#6d9415"/>
                  <path id="Trazado_997411" data-name="Trazado 997411" d="M49.228,37.671a6.421,6.421,0,0,1,6.153.45c.151.15.3.3.451.15.15,0,.3-.15.45-.3.45-.3,1.051.15,1.651.15h1.051a1.068,1.068,0,0,1,.9.451c.15.3.15.75.3.9.3.3.751,0,1.2,0,.45.15.6.75.45,1.351-.15.45-.45,1.05-.3,1.5v.3a.524.524,0,0,1-.15.3c-.9.75-2.1,1.051-2.852,1.951-.15.15-.3.45-.6.6-.45.3-.9.151-1.5.3-1.051.15-2.1,1.05-3.152.75a2.781,2.781,0,0,0-1.05-.3,2.077,2.077,0,0,0-.6.45,2.468,2.468,0,0,1-1.5.3,7.439,7.439,0,0,0-2.551.3l-1.8.451a6.049,6.049,0,0,1-4.5-.9,5.913,5.913,0,0,1-2.551-3.752,4.627,4.627,0,0,1-.15-1.5,2.553,2.553,0,0,1,.15-1.05,2.416,2.416,0,0,1,.6-1.051,6.662,6.662,0,0,1,4.2-2.1,17.927,17.927,0,0,1,4.8.45Z" fill="#e9e7fc"/>
                  <path id="Trazado_997412" data-name="Trazado 997412" d="M44.725,46.376a5.057,5.057,0,0,1-2.551-.75,4.154,4.154,0,0,1-1.952-3c0-.3-.15-.751-.15-1.2a1.352,1.352,0,0,1,.15-.75,1.142,1.142,0,0,1,.3-.6,4.309,4.309,0,0,1,3.3-1.5h.9a14.81,14.81,0,0,1,3.6.45h.15l1.351-.15.15-.15a4.61,4.61,0,0,1,1.951-.451,4.194,4.194,0,0,1,2.7.9,1.81,1.81,0,0,0,1.2.45h.3a1.146,1.146,0,0,0,.751-.3,1.631,1.631,0,0,0,.75.15h1.051a3.778,3.778,0,0,0,.6,1.051,1.271,1.271,0,0,0,.9.3,3,3,0,0,0-.3,1.351c-.3.15-.451.3-.751.45a7.61,7.61,0,0,0-1.951,1.351l-.15.15-.15.15h-.9c-.6.15-1.05.3-1.5.45a3.124,3.124,0,0,1-.9.3c-.15,0-.15,0-.3-.15a2.169,2.169,0,0,0-1.051-.3,1.352,1.352,0,0,0-.75.15,2.312,2.312,0,0,0-.9.6h-1.05a14.705,14.705,0,0,0-2.552.3,6.5,6.5,0,0,0-.75.15c-.3.15-.6.15-.9.3C45.325,46.376,45.025,46.376,44.725,46.376Z" fill="#dedffb"/>
                  <path id="Trazado_997413" data-name="Trazado 997413" d="M44.275,40.223c0,1.651,1.651,2.852,3.752,2.852a3.418,3.418,0,0,0,2.852-1.5,2.15,2.15,0,0,0,.45-1.651c0-1.651-1.651-2.852-3.752-2.852a3.426,3.426,0,0,0-3.152,1.951A2.929,2.929,0,0,0,44.275,40.223Z" fill="#88960d"/>
                  <path id="Trazado_997414" data-name="Trazado 997414" d="M52.23,41.724a2.131,2.131,0,0,0,.3-.9,1.9,1.9,0,0,0-.15-.9l-.45-1.351c0-.15-.15-.3-.3-.15v1.051a2.172,2.172,0,0,1-.3-1.051c0-.15-.15-.75-.3-.75a.147.147,0,0,0-.15.15v.3c0,.15,0,.15-.15.15a.147.147,0,0,1-.15-.15c0-.15-.15-.15-.3,0a1.146,1.146,0,0,0,.3.75,3.152,3.152,0,0,1,.6,1.651.554.554,0,0,1-.15.451.324.324,0,0,1-.3-.3l-.45-.9c0-.15-.15-.15-.15-.3-.15-.15-.3-.15-.3,0,0,.45.15.75.15,1.2a1.618,1.618,0,0,1-.3,1.2c-.3-.3-.3-.6-.451-1.051v-.45c0-.15-.3-.3-.3-.15v1.5c0,.15,0,.15-.15.3h-.75a6.738,6.738,0,0,0-.15-1.651v-.3c0-.15-.151-.15-.3-.15a.147.147,0,0,0-.15.15,2.131,2.131,0,0,0-.3.9l-.15.6c0,.15-.15.45-.3.45s-.3,0-.3-.15,0-.3-.15-.3l-.15-1.2c0-.15,0-.3-.151-.3s-.15,0-.15.15a2.786,2.786,0,0,0-.3,1.051.323.323,0,0,1-.3.3c-.15,0-.15-.3-.15-.45v-1.2a.208.208,0,0,0-.3,0c-.15.15-.15.15-.15.3,0,.3-.15.45-.15.751,0,.15,0,.15-.15.3-.151,0-.3,0-.3-.15v-.3a4.078,4.078,0,0,0,0-1.35c0-.15,0-.451-.15-.451h-.15a2.972,2.972,0,0,0-.3,1.651c0,.6.15,1.2.15,1.651C43.525,43.675,52.23,43.225,52.23,41.724Z" fill="#5f6608"/>
                  <path id="Trazado_997415" data-name="Trazado 997415" d="M38.572,39.773c.15-4.953,2.551-9.455,6-13.658a11.039,11.039,0,0,1,2.852-2.4c5.7-3.152,10.506-4.2,14.108-1.651,1.2,1.351,1.051,3.6.75,6a15.609,15.609,0,0,1-6.153,9.306,3.277,3.277,0,0,1-3.3,1.35,1.317,1.317,0,0,0-1.05.15,5.85,5.85,0,0,1-5.7.751Z" fill="#a0cf31"/>
                  <path id="Trazado_997416" data-name="Trazado 997416" d="M41.273,39.773c1.351-1.8,2.7-3.6,4.2-5.4.751-.9,1.5-1.8,2.252-2.552a19.961,19.961,0,0,1,2.551-2.4,13.211,13.211,0,0,1,1.5-.9,5.355,5.355,0,0,1,1.651-.6,18.61,18.61,0,0,0,3-1.5,20.241,20.241,0,0,0,5.253-4.2,14.6,14.6,0,0,1-5.1,4.5,30.008,30.008,0,0,1-3.152,1.5c-.6.151-1.051.451-1.651.6a7.952,7.952,0,0,0-1.5.9c-.9.6-1.651,1.5-2.551,2.252-.751.75-1.5,1.651-2.252,2.551-1.5,1.651-2.851,3.452-4.2,5.253" fill="#6d9415"/>
                  <path id="Trazado_997417" data-name="Trazado 997417" d="M46.376,33.319a27.486,27.486,0,0,0,7.054.45,12.8,12.8,0,0,0,3.452-.45,27.717,27.717,0,0,0,3.452-.6,12.987,12.987,0,0,1-3.452.9,29.16,29.16,0,0,1-3.6.3,21.564,21.564,0,0,1-6.9-.6" fill="#6d9415"/>
                  <path id="Trazado_997418" data-name="Trazado 997418" d="M53.881,27.766a8.528,8.528,0,0,0,3.3,1.051h1.651c.6,0,1.05-.15,1.651-.15a5.389,5.389,0,0,1-1.651.6,7.236,7.236,0,0,1-1.8,0,7.688,7.688,0,0,1-3.152-1.5" fill="#6d9415"/>
                  <path id="Trazado_997419" data-name="Trazado 997419" d="M52.23,28.366a10.611,10.611,0,0,1-.3-3.752l.45-1.8a6.178,6.178,0,0,1,1.051-1.651,17.612,17.612,0,0,1-.751,1.651c-.15.6-.45,1.2-.6,1.8A10.394,10.394,0,0,0,52.23,28.366Z" fill="#6d9415"/>
                  <path id="Trazado_997420" data-name="Trazado 997420" d="M44.125,36.02a16.5,16.5,0,0,1,.45-5.4,12.785,12.785,0,0,1,.9-2.552,11.752,11.752,0,0,1,1.5-2.251,17.819,17.819,0,0,0-1.2,2.4c-.3.75-.75,1.65-1.051,2.551A29.624,29.624,0,0,0,44.125,36.02Z" fill="#6d9415"/>
                  <path id="Trazado_997421" data-name="Trazado 997421" d="M29.267,41.273c1.651-10.206-3.6-13.958-12.757-14.108a30.49,30.49,0,0,0-9.756,1.951c-.45.15-1.05.3-1.651.45l-4.652.751c-.451,0-.451.6-.15.9a15.629,15.629,0,0,1,3.6,2.552A6.647,6.647,0,0,1,5.1,35.42a17.852,17.852,0,0,0,9.155,7.5,17.792,17.792,0,0,0,9.306.6A44.8,44.8,0,0,0,29.267,41.273Z" fill="#8fbd26"/>
                  <path id="Trazado_997422" data-name="Trazado 997422" d="M29.267,41.273a19.955,19.955,0,0,0-6.754-3.752c-2.4-.9-4.953-1.5-7.5-2.251l-7.5-2.252c-2.552-.75-4.953-1.651-7.505-2.4,2.552.6,5.1,1.351,7.505,1.951l7.5,2.1a72.473,72.473,0,0,1,7.5,2.4A18.368,18.368,0,0,1,29.267,41.273Z" fill="#6d9415"/>
                  <path id="Trazado_997423" data-name="Trazado 997423" d="M28.216,40.373a33.071,33.071,0,0,0-1.2-5.553,13.316,13.316,0,0,0-1.2-2.552,23.064,23.064,0,0,0-1.651-2.4,8.651,8.651,0,0,1,3.3,4.653A11.337,11.337,0,0,1,28.216,40.373Z" fill="#6d9415"/>
                  <path id="Trazado_997424" data-name="Trazado 997424" d="M27.316,39.623a13.617,13.617,0,0,1-5.1,2.551,14.479,14.479,0,0,1-5.7.3,33.022,33.022,0,0,0,5.553-.9A24.866,24.866,0,0,0,27.316,39.623Z" fill="#6d9415"/>
                  <path id="Trazado_997425" data-name="Trazado 997425" d="M24.764,38.272a14.458,14.458,0,0,0-1.5-4.5c-.75-1.35-1.651-2.7-2.551-4.052a19.04,19.04,0,0,1,3.151,3.752,10.538,10.538,0,0,1,.9,4.8" fill="#6d9415"/>
                  <path id="Trazado_997426" data-name="Trazado 997426" d="M22.813,37.521a12.021,12.021,0,0,1-6,2.551,11.726,11.726,0,0,1-6.454-.9,22.784,22.784,0,0,0,3.152.45,22.188,22.188,0,0,0,3.152-.15,19.709,19.709,0,0,0,6.153-1.951" fill="#6d9415"/>
                  <path id="Trazado_997427" data-name="Trazado 997427" d="M18.761,36.171a10.8,10.8,0,0,0-2.251-4.052,21.528,21.528,0,0,0-3.452-3,10.148,10.148,0,0,1,3.9,2.7A6.379,6.379,0,0,1,18.761,36.171Z" fill="#6d9415"/>
                  <path id="Trazado_997428" data-name="Trazado 997428" d="M15.009,34.97a6.168,6.168,0,0,1-3.9,1.351,9.388,9.388,0,0,1-4.052-.9,12.346,12.346,0,0,0,4.052.3,12,12,0,0,0,3.9-.75" fill="#6d9415"/>
                  <path id="Trazado_997429" data-name="Trazado 997429" d="M11.557,33.919a13.912,13.912,0,0,0-2.1-2.1,14.206,14.206,0,0,0-2.552-1.5,4.734,4.734,0,0,1,2.852,1.051A5.292,5.292,0,0,1,11.557,33.919Z" fill="#6d9415"/>
                  <path id="Trazado_997430" data-name="Trazado 997430" d="M13.958,46.226c-.3.15-.75.3-1.051.45-.45.15-.9,0-1.35.15a4.215,4.215,0,0,0-2.1,1.5c-.3.3-.75.45-1.05.751-.45.3-.6.9-.9,1.35a3.719,3.719,0,0,0-.6,1.351,8.506,8.506,0,0,0,.45,2.7,1.352,1.352,0,0,0,.15.75c.15.15.15.45.3.6a11.326,11.326,0,0,0,.9,1.952c.15.3.45.45.75.75a8.947,8.947,0,0,1,1.2,1.2c.15.15.45.3.6.45.3.15.451,0,.751,0,.9,0,1.8-.15,2.551-.15.451,0,1.051-.15,1.5-.15a8.8,8.8,0,0,0,3.3-2.1,3.834,3.834,0,0,0,1.2-1.8,3.807,3.807,0,0,0-.3-1.8c-.451-1.651-.3-3.452-1.2-4.8-.45-.751-1.2-1.2-1.651-1.951a3.521,3.521,0,0,0-2.1-1.051.95.95,0,0,0-1.351-.15" fill="#cacced"/>
                  <path id="Trazado_997431" data-name="Trazado 997431" d="M20.111,42.474a3.942,3.942,0,0,0-2.1,1.351c-.3.3-.45.75-.9.9a3.613,3.613,0,0,0-1.2.9,2.852,2.852,0,0,0-.751,1.5,23.322,23.322,0,0,0-1.2,5.4,17.983,17.983,0,0,0,.6,5.7,6.1,6.1,0,0,0,2.551,3.752,9.731,9.731,0,0,0,1.951.6,2.464,2.464,0,0,1,1.651,1.051,3.16,3.16,0,0,0,.6.9.9.9,0,0,0,.6.15,17.514,17.514,0,0,0,5.553-.6,7.545,7.545,0,0,1,1.8-.3,8.446,8.446,0,0,0,1.8-.6,7.774,7.774,0,0,0,2.552-2.4,6.306,6.306,0,0,0,1.8-3.752,9.111,9.111,0,0,0-.451-1.951,57.977,57.977,0,0,0-2.251-5.4,50.384,50.384,0,0,0-3.3-5.253,21.966,21.966,0,0,1-1.35-1.951C26.415,40.073,22.362,41.423,20.111,42.474Z" fill="#e9e7fc"/>
                  <path id="Trazado_997432" data-name="Trazado 997432" d="M23.113,63.336h-.9a.524.524,0,0,0-.15-.3,4.178,4.178,0,0,0-2.551-1.8c-.3,0-.45-.15-.75-.15a9.519,9.519,0,0,1-1.051-.3,4.35,4.35,0,0,1-1.951-2.852,15.31,15.31,0,0,1-.6-5.253,25.842,25.842,0,0,1,1.051-5.1,4.994,4.994,0,0,1,.45-.9c.15,0,.3-.151.451-.3a1.5,1.5,0,0,0,.75-.6l.75-.75.3-.3c.3-.45.9-.6,1.651-.9a11.526,11.526,0,0,1,4.5-1.2,2.372,2.372,0,0,1,1.951.751l1.351,1.951a58.124,58.124,0,0,1,3.152,5.1,55.308,55.308,0,0,1,2.251,5.253,8.083,8.083,0,0,1,.45,1.5,4.451,4.451,0,0,1-1.5,2.852,11.811,11.811,0,0,1-2.251,1.8c-.45.15-.9.3-1.5.45l-1.8.3A12.131,12.131,0,0,1,23.113,63.336Z" fill="#dedffb"/>
                  <path id="Trazado_997433" data-name="Trazado 997433" d="M33.319,36.471c-4.052-1.351-6.9.3-7.354,4.653a18.823,18.823,0,0,0,2.851,9.9l.6.15c1.2,1.651,2.551,2.7,4.052,2.852a8.121,8.121,0,0,0,2.4-3.752l.751-.3,1.2-3,.45-.3.9-2.4h.3c2.7-6.6-1.952-11.706-6.154-7.8" fill="#6d9415"/>
                  <path id="Trazado_997434" data-name="Trazado 997434" d="M33.319,36.471a4.715,4.715,0,0,0-2.1,3.9,16.221,16.221,0,0,0,.3,4.653l.9,4.5c.3,1.5.751,3,1.051,4.5a25.688,25.688,0,0,1-1.351-4.5,42.551,42.551,0,0,1-.9-4.652,24.15,24.15,0,0,1-.15-4.653,5.015,5.015,0,0,1,2.251-3.752" fill="#8fbd26"/>
                  <path id="Trazado_997435" data-name="Trazado 997435" d="M31.368,45.476a5.11,5.11,0,0,1,1.5.15,3.544,3.544,0,0,1,1.351.9l.9,1.35a5.343,5.343,0,0,1,.3,1.5c-.15-.45-.45-.9-.6-1.351a6.08,6.08,0,0,0-.75-1.35A3.514,3.514,0,0,0,31.368,45.476Z" fill="#8fbd26"/>
                  <path id="Trazado_997436" data-name="Trazado 997436" d="M31.218,43.975a5.448,5.448,0,0,0-1.951,2.852,3.072,3.072,0,0,0,0,1.651,5.392,5.392,0,0,0,.3,1.65,3.145,3.145,0,0,1-.6-1.65,3.7,3.7,0,0,1,.15-1.8,4.5,4.5,0,0,1,.9-1.651C30.167,44.575,30.618,44.275,31.218,43.975Z" fill="#8fbd26"/>
                  <path id="Trazado_997437" data-name="Trazado 997437" d="M31.068,41.424l1.8.9a1.5,1.5,0,0,1,.75.6,1.907,1.907,0,0,1,.6.9,2.623,2.623,0,0,0-.751-.6c-.3-.15-.45-.45-.75-.6A11.389,11.389,0,0,0,31.068,41.424Z" fill="#8fbd26"/>
                  <path id="Trazado_997438" data-name="Trazado 997438" d="M32.569,37.071a5.646,5.646,0,0,1,2.25,1.351,7.268,7.268,0,0,1,1.651,2.1,7.052,7.052,0,0,1,.6,2.551,8.318,8.318,0,0,1-.3,2.7V43.224a7.925,7.925,0,0,0-.6-2.551,4.971,4.971,0,0,0-1.5-2.1A4.968,4.968,0,0,0,32.569,37.071Z" fill="#8fbd26"/>
                  <path id="Trazado_997439" data-name="Trazado 997439" d="M31.518,38.722a5.334,5.334,0,0,0-1.351.6,7.572,7.572,0,0,0-1.2,1.051,3.914,3.914,0,0,0-.751,1.351,4.4,4.4,0,0,0-.45,1.5,2.706,2.706,0,0,1,.3-1.5,3.529,3.529,0,0,1,.9-1.351,3.394,3.394,0,0,1,2.551-1.651" fill="#8fbd26"/>
                  <path id="Trazado_997440" data-name="Trazado 997440" d="M51.029,66.188a5.251,5.251,0,0,0,2.1-.9,4.564,4.564,0,0,0,.751-1.05c.3-.45.45-.751.75-1.2a7.133,7.133,0,0,0,1.351-2.851v-1.5a1.814,1.814,0,0,0-.45-1.5c-.3-.3-.751-.45-.751-.751-.15-.3.15-.6.15-.9a1.854,1.854,0,0,0-.6-1.2c-.3-.3-.751-.6-.9-1.05-.3-.451-.3-.9-.75-1.351a1.3,1.3,0,0,0-.9-.45c-1.5-.451-3-1.051-4.5-1.5a9.168,9.168,0,0,0-1.951-.45,1.357,1.357,0,0,0-.751.15c-.9.45-1.05,1.651-1.8,2.4-.3.3-.75.45-1.05.75a6.454,6.454,0,0,0-1.351,1.5.724.724,0,0,1-1.051.15,2.062,2.062,0,0,0-1.8-.6,2.781,2.781,0,0,0-1.05.3,6.289,6.289,0,0,0-2.1,1.351,3.493,3.493,0,0,0-1.051,2.251,4.883,4.883,0,0,0,.6,2.1,5.288,5.288,0,0,0,.6,1.351c.15.3.15.45.45.6.6.45,1.5-.151,1.951.45a.551.551,0,0,1,.15.45,2.837,2.837,0,0,0,2.1,1.8,18.782,18.782,0,0,0,2.852.45,15.867,15.867,0,0,1,2.852.751c1.8.6,4.052.3,6.153.45" fill="#f3f1fc"/>
                  <path id="Trazado_997441" data-name="Trazado 997441" d="M50.879,64.837h-2.7a11.238,11.238,0,0,1-3.151-.3,2.136,2.136,0,0,1-.9-.3c-.6-.15-1.351-.3-2.1-.451-.3,0-.75-.15-1.2-.15a5.4,5.4,0,0,1-1.651-.3,1.964,1.964,0,0,1-1.2-.9c0-.3-.15-.451-.3-.751a2.255,2.255,0,0,0-1.952-.9h-.15l-.6-1.351a9.231,9.231,0,0,1-.45-1.651,2.7,2.7,0,0,1,.6-1.351,6.2,6.2,0,0,1,1.8-1.2c.15-.151.45-.151.6-.3a.777.777,0,0,1,.6.3,1.927,1.927,0,0,0,1.5.6,1.725,1.725,0,0,0,1.651-.9,4.141,4.141,0,0,1,.9-1.2c.15-.15.15-.15.3-.15a3.987,3.987,0,0,0,.9-.751,7.019,7.019,0,0,0,.9-1.351c.15-.15.3-.6.451-.75h.15a5.33,5.33,0,0,1,1.5.3l4.5,1.5c.15,0,.3.15.45.15a.524.524,0,0,1,.15.3c.15.3.15.451.3.751a6.524,6.524,0,0,0,.9,1.05l.3.3.15.151a1.4,1.4,0,0,0,0,1.35,2.129,2.129,0,0,0,1.051,1.2.147.147,0,0,1,.15.15v1.8a7.572,7.572,0,0,1-1.051,2.251l-.75,1.2a3.272,3.272,0,0,1-.6.75C51.78,64.537,51.329,64.687,50.879,64.837Z" fill="#e9e7fc"/>
                  <path id="Trazado_997442" data-name="Trazado 997442" d="M42.624,56.732c-.45,1.651.6,3.3,2.551,3.9a4.139,4.139,0,0,0,3.3-.45,2.39,2.39,0,0,0,1.051-1.351c.45-1.651-.6-3.3-2.552-3.9a3.718,3.718,0,0,0-3.752.75,3.778,3.778,0,0,0-.6,1.051" fill="#88960d"/>
                  <path id="Trazado_997443" data-name="Trazado 997443" d="M49.528,60.935a1.5,1.5,0,0,0,.6-.75,1.909,1.909,0,0,0,.15-.9v-1.5c0-.15,0-.3-.15-.3a7.281,7.281,0,0,0-.45,1.051V57.483c0-.15.15-.75,0-.75s-.15,0-.15.15v.3a.147.147,0,0,1-.15.15c-.15,0-.15-.15-.15-.3a.147.147,0,0,0-.15-.15.992.992,0,0,0,.15.9,3.66,3.66,0,0,1,0,1.8.323.323,0,0,1-.3.3c-.15,0-.15-.15-.15-.3V58.233c0-.15-.15-.15-.3-.15-.15.451-.15.751-.3,1.2s-.3.9-.6,1.051a1.284,1.284,0,0,1,0-1.051c0-.15.15-.3.15-.45a.323.323,0,0,0-.3-.3,5.3,5.3,0,0,1-.6,1.35.147.147,0,0,1-.15.15h-.15a1.137,1.137,0,0,1-.6-.3c.15-.6.3-.9.45-1.5v-.3a.147.147,0,0,0-.15-.15h-.15a1.5,1.5,0,0,0-.6.751l-.3.45c-.151.15-.3.3-.451.3s-.15-.15-.3-.3v-.3l.3-1.2v-.3h-.3c-.3.15-.45.6-.6.9-.15.15-.3.3-.451.15a.281.281,0,0,1,0-.45c.151-.3.151-.6.3-.9v-.3c0-.151-.15-.151-.3,0-.15,0-.15.15-.3.3s-.3.45-.45.6a.147.147,0,0,1-.15.15.323.323,0,0,1-.3-.3c0-.15,0-.3.15-.3a4.773,4.773,0,0,0,.45-1.351c0-.15.15-.45,0-.6h-.15c-.45.3-.6.9-.9,1.35a6.354,6.354,0,0,0-.3,1.651C40.673,59.734,49.078,62.436,49.528,60.935Z" fill="#5f6608"/>
                  <path id="Trazado_997444" data-name="Trazado 997444" d="M22.813,49.378a3.47,3.47,0,0,0-.9,4.8,3.728,3.728,0,0,0,2.7,2.1,2.584,2.584,0,0,0,1.8-.3,3.47,3.47,0,0,0,.9-4.8,3.708,3.708,0,0,0-3.452-2.1,2.781,2.781,0,0,0-1.051.3" fill="#88960d"/>
                  <path id="Trazado_997445" data-name="Trazado 997445" d="M25.064,57.633a.994.994,0,0,0,.9-.15,1.5,1.5,0,0,0,.75-.6,4.077,4.077,0,0,0,1.051-1.2c.15-.15.15-.3,0-.3-.3.15-.751.3-1.051.45.3-.3.45-.6.75-.75.15-.151.6-.451.6-.6s-.15,0-.3,0-.151.15-.3.15h-.3v-.6a1.5,1.5,0,0,0-.6.75,3.539,3.539,0,0,1-1.2,1.351.281.281,0,0,1-.45,0c-.15-.15,0-.3.15-.45.3-.3.45-.6.75-.751.151-.15.151-.15.151-.3s0-.3-.151-.3a2.683,2.683,0,0,0-1.05.751,1.168,1.168,0,0,1-1.2.3,3.961,3.961,0,0,1,.751-.9.323.323,0,0,0,.3-.3.281.281,0,0,0,0-.45,9.527,9.527,0,0,1-1.351.6c-.15,0-.15.15-.3,0a.147.147,0,0,0-.15-.15c-.15-.15-.15-.45-.3-.6a7.953,7.953,0,0,0,1.5-.9c.15,0,.15-.15.3-.15v-.3a.148.148,0,0,1-.151-.15,2.928,2.928,0,0,0-1.05.15l-.15.45a.906.906,0,0,1-.6-.15.208.208,0,0,1,0-.3c0-.15.151-.15.3-.3l1.05-.751c.15,0,.15-.15.15-.3a.147.147,0,0,0-.15-.15c-.45,0-.75.15-1.2.15-.151,0-.451,0-.451-.15a.323.323,0,0,1,.3-.3l.9-.45a.147.147,0,0,0,.15-.15c0-.15,0-.3-.15-.3h-.45c-.3,0-.451.15-.751.15h-.3c-.15-.15-.15-.3,0-.3.15-.15.15-.15.3-.15a5.319,5.319,0,0,0,1.351-.6c.15-.15.3-.15.45-.45v-.15a2.147,2.147,0,0,0-1.651.45,5.387,5.387,0,0,0-1.5,1.05C18.31,50.729,22.813,58.984,25.064,57.633Z" fill="#5f6608"/>
                  <path id="Trazado_997446" data-name="Trazado 997446" d="M32.719,35.87c-1.051-7.2.15-11.557,4.052-13.208l.6,1.5c-3,1.351-4.053,4.953-3.152,11.407Z" fill="#5f6608"/>
                  <path id="Trazado_997447" data-name="Trazado 997447" d="M37.071,25.064c3.152-.3,6.153-1.051,8.555-3.9a11.431,11.431,0,0,0,2.251-9.306A26.182,26.182,0,0,0,42.624.45a.7.7,0,0,0-1.2,0A8.785,8.785,0,0,1,38.872,2.4,25.028,25.028,0,0,0,35.72,4.8a35.6,35.6,0,0,0-4.8,5.854,9.832,9.832,0,0,0,1.5,12.757,9.2,9.2,0,0,0,4.653,1.651" fill="#a0cf31"/>
                  <path id="Trazado_997448" data-name="Trazado 997448" d="M35.57,24.914c1.5-4.052,3.152-8.1,4.352-12.157.6-2.1,1.2-4.2,1.651-6.3A30.339,30.339,0,0,0,42.174,0a18.669,18.669,0,0,1-.15,6.454,48,48,0,0,1-1.5,6.3A86.006,86.006,0,0,1,35.57,24.914Z" fill="#8fbd26"/>
                  <path id="Trazado_997449" data-name="Trazado 997449" d="M36.171,23.263a13.553,13.553,0,0,1-1.651-2.4,19.428,19.428,0,0,1-1.2-2.552,15.943,15.943,0,0,1-.6-2.851,4.354,4.354,0,0,1,.75-2.7,5.5,5.5,0,0,0-.149,2.7,17.337,17.337,0,0,0,.6,2.7C34.669,19.811,35.421,21.462,36.171,23.263Z" fill="#8fbd26"/>
                  <path id="Trazado_997450" data-name="Trazado 997450" d="M37.371,20.712c1.351-.6,2.7-1.351,4.052-2.1a7.6,7.6,0,0,0,3-3.152,3.766,3.766,0,0,1-.9,2.1,6.373,6.373,0,0,1-1.8,1.651,9.154,9.154,0,0,1-2.1,1.051,11.968,11.968,0,0,1-2.251.45" fill="#8fbd26"/>
                  <path id="Trazado_997451" data-name="Trazado 997451" d="M39.322,15.459a4.261,4.261,0,0,1-1.351-1.5,5.073,5.073,0,0,1-.9-1.8,8.862,8.862,0,0,1-.3-2.1,4.156,4.156,0,0,1,.45-1.951v1.951c.15.6.3,1.2.45,1.951C38.121,13.058,38.722,14.258,39.322,15.459Z" fill="#8fbd26"/>
                  <path id="Trazado_997452" data-name="Trazado 997452" d="M40.523,11.707c.75-.75,1.651-1.5,2.4-2.251A8.242,8.242,0,0,0,44.875,6.9a3.025,3.025,0,0,1-.45,1.651,8.249,8.249,0,0,1-1.05,1.351,8.356,8.356,0,0,1-1.351,1.051A4.7,4.7,0,0,1,40.523,11.707Z" fill="#8fbd26"/>
                </g>
              </g>
            </g>
          </g>
        </g>
      </g>
    </g>
  </g>
</svg>
