<svg xmlns="http://www.w3.org/2000/svg" xmlns:xlink="http://www.w3.org/1999/xlink" width="118" height="118" viewBox="0 0 118 118">
  <defs>
    <clipPath id="clip-path">
      <rect id="Rectángulo_405006" data-name="Rectángulo 405006" width="84.626" height="84.635" transform="translate(0 0)" fill="#fdfbf9"/>
    </clipPath>
  </defs>
  <g id="Grupo_1109461" data-name="Grupo 1109461" transform="translate(-274 -2002)">
    <circle id="Elipse_11971" data-name="Elipse 11971" cx="59" cy="59" r="59" transform="translate(274 2002)" fill="#5fe168"/>
    <g id="Grupo_1108287" data-name="Grupo 1108287" transform="translate(291.374 2010.626)">
      <g id="Grupo_1108286" data-name="Grupo 1108286" clip-path="url(#clip-path)">
        <path id="Trazado_997874" data-name="Trazado 997874" d="M83.261,81.871H77.715A14.316,14.316,0,0,0,64.862,69.05V63.814l.261.023a10.262,10.262,0,0,0,2.7-.16,11.683,11.683,0,0,0,6.161-3.129c2.115-2.229,4.789-8.651,2.484-11.035-2.906-2.377-9.2.7-11.035,2.483a10.742,10.742,0,0,0-1.94,2.682A10.772,10.772,0,0,0,61.556,52c-2.229-2.115-8.65-4.788-11.034-2.483-2.378,2.907.695,9.2,2.482,11.035a11.689,11.689,0,0,0,6.162,3.129,10.269,10.269,0,0,0,2.7.16l.261-.023V69.05A14.316,14.316,0,0,0,49.279,81.871H35.4A14.316,14.316,0,0,0,22.549,69.05V63.814l.261.023a10.269,10.269,0,0,0,2.7-.16,11.689,11.689,0,0,0,6.162-3.129c2.114-2.228,4.786-8.651,2.482-11.035-2.905-2.378-9.2.7-11.034,2.483a10.777,10.777,0,0,0-1.941,2.683A10.777,10.777,0,0,0,19.243,52c-2.228-2.114-8.65-4.788-11.034-2.483-2.377,2.9.7,9.2,2.482,11.035a11.685,11.685,0,0,0,6.162,3.129,10.269,10.269,0,0,0,2.7.16l.261-.023v6.3a1.169,1.169,0,0,0,.012.119,1.122,1.122,0,0,0-.012.118,1.363,1.363,0,0,0,1.364,1.365h0A11.531,11.531,0,0,1,32.65,81.871H9.674a8.051,8.051,0,0,1,.658-2.677,1.365,1.365,0,1,0-2.514-1.062,11.332,11.332,0,0,0-.875,3.739H1.365A1.365,1.365,0,0,0,0,83.235H0A1.363,1.363,0,0,0,1.364,84.6h6.6a1.368,1.368,0,0,0,.295.034h0a1.359,1.359,0,0,0,.294-.034H33.811a1.3,1.3,0,0,0,.591,0H50.279a1.361,1.361,0,0,0,.3.034H76.419a1.377,1.377,0,0,0,.3-.034h6.546a1.364,1.364,0,0,0,1.365-1.364h0a1.365,1.365,0,0,0-1.365-1.365M25.054,53.926a9.109,9.109,0,0,1,4.723-2.374,7.775,7.775,0,0,1,1.976-.125,1.345,1.345,0,0,1,.393.1,1.347,1.347,0,0,1,.1.391A7.8,7.8,0,0,1,32.12,53.9a9.1,9.1,0,0,1-2.374,4.721,9.1,9.1,0,0,1-4.722,2.374,7.79,7.79,0,0,1-1.977.126,1.319,1.319,0,0,1-.392-.1,1.363,1.363,0,0,1-.1-.393c0-.036,0-.081-.005-.12.011-.251.012-.511,0-.782a9.328,9.328,0,0,1,2.5-5.8m-5.341,7.092a1.327,1.327,0,0,1-.392.1,7.788,7.788,0,0,1-1.977-.126,9.1,9.1,0,0,1-4.722-2.374A9.1,9.1,0,0,1,10.248,53.9a7.8,7.8,0,0,1-.126-1.978,1.347,1.347,0,0,1,.1-.391,1.346,1.346,0,0,1,.392-.1,7.78,7.78,0,0,1,1.977.125,9.109,9.109,0,0,1,4.723,2.374,9.328,9.328,0,0,1,2.5,5.8c-.012.271-.011.531,0,.782,0,.039,0,.084-.006.12a1.367,1.367,0,0,1-.1.393m47.654-7.092a9.109,9.109,0,0,1,4.723-2.374,7.775,7.775,0,0,1,1.976-.125,1.345,1.345,0,0,1,.393.1,1.347,1.347,0,0,1,.1.391,7.8,7.8,0,0,1-.126,1.978,8.412,8.412,0,0,1-7.1,7.1,7.783,7.783,0,0,1-1.976.126,1.326,1.326,0,0,1-.393-.1,1.363,1.363,0,0,1-.1-.393c0-.036,0-.08,0-.118.011-.252.012-.512,0-.784a8.963,8.963,0,0,1,.13-1.074,9.105,9.105,0,0,1,2.374-4.723m-5.341,7.092a1.319,1.319,0,0,1-.392.1,7.788,7.788,0,0,1-1.977-.126,8.413,8.413,0,0,1-7.1-7.1,7.8,7.8,0,0,1-.126-1.978,1.347,1.347,0,0,1,.1-.391,1.345,1.345,0,0,1,.393-.1,7.775,7.775,0,0,1,1.976.125,8.84,8.84,0,0,1,7.227,8.17c-.012.272-.011.532,0,.784,0,.038,0,.083-.006.119a1.335,1.335,0,0,1-.1.393M63.5,71.712A11.5,11.5,0,0,1,74.912,81.871H52.082A11.5,11.5,0,0,1,63.5,71.712" fill="#fdfbf9"/>
        <path id="Trazado_997875" data-name="Trazado 997875" d="M42.313,45.043A22.521,22.521,0,1,0,19.792,22.522,22.542,22.542,0,0,0,42.313,45.043m0-42.313A19.795,19.795,0,0,1,56.564,36.259L49.74,30.043l2.326-.776a1.364,1.364,0,0,0-.862-2.589l-2.581.86L46.829,26.4a6.907,6.907,0,0,0,.181-3.314,5.45,5.45,0,0,0,5.257-3.6h3.9a1.365,1.365,0,0,0,1.365-1.365h0a1.364,1.364,0,0,0-1.364-1.365H52.538A5.448,5.448,0,0,0,48.206,12.2V8.8a1.366,1.366,0,0,0-2.731,0h0v3.537a5.461,5.461,0,0,0-3.863,5.349,6.894,6.894,0,0,0-3.314.182l-1.143-1.8.861-2.579a1.365,1.365,0,0,0-2.591-.863l-1.064,3.195a1.5,1.5,0,0,0-.038.174L27.311,9.608a19.733,19.733,0,0,1,15-6.878M37.419,27.274a4.07,4.07,0,0,1-.484-5.207l5.995,5.462a4.073,4.073,0,0,1-5.511-.255m5.794-5.794a4.08,4.08,0,0,1,1.136,3.65l-5.156-4.7a4.073,4.073,0,0,1,4.019,1.048Zm1.929-5.859a2.779,2.779,0,1,1,0,3.93,2.76,2.76,0,0,1,0-3.93M25.67,11.8l9.239,8.417c-.082.108-.164.215-.239.326L32.393,19.1a1.357,1.357,0,0,0-1.165-.143L28.033,20.02a1.365,1.365,0,0,0,.862,2.59h0l2.579-.861,2.141,1.363a6.808,6.808,0,0,0,7.964,7.965l1.364,2.141-.86,2.58a1.365,1.365,0,1,0,2.589.863h0l1.066-3.195A1.365,1.365,0,0,0,45.6,32.3l-1.449-2.277a6.784,6.784,0,0,0,.809-.649L54.529,38.1A19.8,19.8,0,0,1,25.67,11.8" fill="#fdfbf9"/>
        <path id="Trazado_997876" data-name="Trazado 997876" d="M11.529,75.926h0a1.352,1.352,0,1,0-1.352-1.352,1.352,1.352,0,0,0,1.352,1.352" fill="#fdfbf9"/>
        <path id="Trazado_997877" data-name="Trazado 997877" d="M17.1,71.454a1.352,1.352,0,1,0-1.352,1.352A1.352,1.352,0,0,0,17.1,71.454" fill="#fdfbf9"/>
      </g>
    </g>
  </g>
</svg>
