<svg id="Grupo_1108212" data-name="Grupo 1108212" xmlns="http://www.w3.org/2000/svg" xmlns:xlink="http://www.w3.org/1999/xlink" width="173.679" height="549.565" viewBox="0 0 173.679 549.565">
  <defs>
    <clipPath id="clip-path">
      <rect id="Rectángulo_404972" data-name="Rectángulo 404972" width="173.679" height="549.565" fill="none"/>
    </clipPath>
  </defs>
  <g id="Grupo_1108211" data-name="Grupo 1108211" clip-path="url(#clip-path)">
    <path id="Trazado_997453" data-name="Trazado 997453" d="M82.246,318.655c.732,4.858,1.623,9.687,2.643,14.492,1.89,8.917,4.212,17.749,6.752,26.5,2.252-4.127,7.38-6.858,12.009-6.032a279.786,279.786,0,0,0-1.635-30.106q-.468-4.34-1.078-8.664c-6.475.459-12.711,1.281-18.692,3.807" transform="translate(42.414 162.366)" fill="#fcb28d"/>
    <path id="Trazado_997454" data-name="Trazado 997454" d="M36.666,358.553c0,2.421,16.571-1.526,17.961-1.508.388-9.434,1.022-18.919,1.1-28.356.026-3.5-.023-6.989-.192-10.467-6.261-.306-12.071-.981-18.332-1.285-.086,6.357-.167,12.753-.246,19.151-.092,7.5-.185,15.01-.286,22.466" transform="translate(18.908 163.443)" fill="#fcb28d"/>
    <path id="Trazado_997455" data-name="Trazado 997455" d="M82.246,318.655c.732,4.858,1.623,9.687,2.643,14.492a33.908,33.908,0,0,0,16.285-8.794c.271-.267.555-.547.841-.841q-.468-4.34-1.078-8.664c-6.475.459-12.711,1.281-18.692,3.807" transform="translate(42.414 162.366)" fill="#ed9370"/>
    <path id="Trazado_997456" data-name="Trazado 997456" d="M36.854,336.088a33.918,33.918,0,0,0,17.1-6.155c.531-.379,1.094-.8,1.672-1.241.027-3.5-.023-6.99-.191-10.469-6.263-.306-12.071-.979-18.334-1.285-.086,6.358-.165,12.753-.246,19.151" transform="translate(19.005 163.443)" fill="#ed9370"/>
    <path id="Trazado_997457" data-name="Trazado 997457" d="M86.527,350.209c.241,5.413.276,10.886.468,16.259a7.282,7.282,0,0,0,.111,1.035c.658,3.612,3.988,6.345,7.512,7.109,4.027.875,8.212-.28,12.038-1.808,4.533-1.81,7.362-5.332,7.218-9.837a11.592,11.592,0,0,0-.4-2.631c-.018-.064-.035-.127-.053-.191-1.335-4.69-3.222-9.934-6.137-13.9-1.86-2.533-2.633-5.978-5.931-7A12.431,12.431,0,0,0,87.9,343.317c-1.937,2.378-1.5,3.994-1.369,6.892" transform="translate(44.552 174.652)" fill="#b15b38"/>
    <path id="Trazado_997458" data-name="Trazado 997458" d="M86.864,360.131c.656,3.612,3.988,6.346,7.512,7.11,4.027.873,8.212-.282,12.036-1.81,4.535-1.81,7.363-5.331,7.218-9.837a11.576,11.576,0,0,0-.4-2.63,16.974,16.974,0,0,1-26.362,7.166" transform="translate(44.795 182.022)" fill="#f7eeeb"/>
    <path id="Trazado_997459" data-name="Trazado 997459" d="M12.752,369.291a3.644,3.644,0,0,0,.565,1.088,2.814,2.814,0,0,0,.718.658c1.354.881,3.58.943,5.522.888h.011c.925-.026,1.785-.077,2.454-.08,3.415-.014,6.822-.265,10.231-.44a169.148,169.148,0,0,0,19.039-1.94c3.2-.527,6.37-1.178,9.511-1.972,2.293-.581,7.127-1.111,8.893-2.706a8.21,8.21,0,0,0,1.826-4.18,20.26,20.26,0,0,0,.355-2.477,45.818,45.818,0,0,0-.286-9.667,12.653,12.653,0,0,0-1.5-5.282c-.2-.311-2.675-3.26-2.618-3.347-2.08,3.148-7.669,4.229-11.336,3.347-1.94-.465-3.747-1.56-5.74-1.611-2.857-.07-5.259,1.975-7.489,3.756a64.01,64.01,0,0,1-13.891,8.453c-4.1,1.826-8.486,3.275-11.877,6.217-2.111,1.829-5.4,6.139-4.388,9.294" transform="translate(6.479 175.251)" fill="#b15b38"/>
    <path id="Trazado_997460" data-name="Trazado 997460" d="M12.7,362.223a3.643,3.643,0,0,0,.565,1.088,2.814,2.814,0,0,0,.718.658c1.354.881,3.58.943,5.522.888h.011c1.561-.094,2.907-.194,3.277-.2,3.139-.061,6.273-.161,9.408-.318a169.155,169.155,0,0,0,19.039-1.94c3.2-.527,6.37-1.178,9.511-1.972,2.293-.581,7.127-1.111,8.893-2.706a8.21,8.21,0,0,0,1.826-4.18,140.54,140.54,0,0,1-58.786,7.542,7.968,7.968,0,0,0,.017,1.141" transform="translate(6.533 182.319)" fill="#f7eeeb"/>
    <path id="Trazado_997461" data-name="Trazado 997461" d="M98.992,343.64a12.241,12.241,0,0,0-8.755,2.228.665.665,0,0,1-.9-.236.674.674,0,0,1,.236-.9,13.56,13.56,0,0,1,9.77-2.36.662.662,0,0,1,.461.809.677.677,0,0,1-.811.461" transform="translate(46.024 176.49)" fill="#964439"/>
    <path id="Trazado_997462" data-name="Trazado 997462" d="M99.576,347.052a8.36,8.36,0,0,0-8.136,1.463.674.674,0,0,1-.931,0,.662.662,0,0,1,0-.931,9.7,9.7,0,0,1,9.417-1.8.675.675,0,0,1,.461.809.665.665,0,0,1-.811.461" transform="translate(46.577 178.048)" fill="#964439"/>
    <path id="Trazado_997463" data-name="Trazado 997463" d="M101.113,349.926a8.962,8.962,0,0,0-9.131,1.54.676.676,0,0,1-.932,0,.666.666,0,0,1,0-.932,10.289,10.289,0,0,1,8-2.478,9.727,9.727,0,0,1,2.411.6.678.678,0,0,1,.461.809.664.664,0,0,1-.811.461" transform="translate(46.856 179.452)" fill="#964439"/>
    <path id="Trazado_997464" data-name="Trazado 997464" d="M35.876,349.209a7.257,7.257,0,0,0-4.9-4.032.659.659,0,0,1,.35-1.27,8.532,8.532,0,0,1,5.688,4.637.68.68,0,0,1-.236.9.664.664,0,0,1-.9-.236" transform="translate(15.726 177.341)" fill="#964439"/>
    <path id="Trazado_997465" data-name="Trazado 997465" d="M32.384,351.238a7.385,7.385,0,0,0-4.5-4.085.674.674,0,0,1-.461-.811.665.665,0,0,1,.811-.459,8.7,8.7,0,0,1,5.29,4.69.682.682,0,0,1-.236.9.664.664,0,0,1-.9-.236" transform="translate(14.13 178.357)" fill="#964439"/>
    <path id="Trazado_997466" data-name="Trazado 997466" d="M28.959,352.692a6.227,6.227,0,0,0-.725-1.29,6.069,6.069,0,0,0-.45-.527,6.5,6.5,0,0,0-.582-.538,5.417,5.417,0,0,0-.567-.4,6.416,6.416,0,0,0-.7-.377,5.2,5.2,0,0,0-.612-.233,6.381,6.381,0,0,0-.8-.2.664.664,0,0,1-.461-.809.675.675,0,0,1,.811-.461,7.194,7.194,0,0,1,5.355,4.483.664.664,0,0,1-.459.811.675.675,0,0,1-.811-.461" transform="translate(12.399 179.382)" fill="#964439"/>
    <path id="Trazado_997467" data-name="Trazado 997467" d="M25.245,401.4a127.8,127.8,0,0,0,14.743,2.146,157.709,157.709,0,0,0,28.577-.253A821.638,821.638,0,0,0,70.033,254.3V254.3q-.559-6.859-1.237-13.723,7.694,42.595,15.386,85.188,3.845,21.3,7.692,42.6c.67,3.707,3.418,34.184,8.088,34.781a69.31,69.31,0,0,0,16.633.129,73.321,73.321,0,0,0,28.045-9.312q-8-85.2-21.13-169.823-4.483-28.895-9.559-57.692c-27.358-.008-54.074-4.524-81.431-4.53C20.472,240.851,25.7,321.741,25.245,401.4" transform="translate(12.633 83.495)" fill="#bbd4f9"/>
    <path id="Trazado_997468" data-name="Trazado 997468" d="M88.084,382.1a73.339,73.339,0,0,0,28.043-9.312q-8-85.206-21.129-169.823c-6.68.165-13.475,3.051-14.914,9.555-2.017,9.111,6.762,26.655,8.87,35.811a577.363,577.363,0,0,1,12.817,82.548c.925,11.3,1.478,22.937-2,33.729A37.4,37.4,0,0,1,88.084,382.1" transform="translate(41.145 104.666)" fill="#a5c5f7"/>
    <path id="Trazado_997469" data-name="Trazado 997469" d="M34.718,377.734a157.692,157.692,0,0,0,28.575-.253,821.639,821.639,0,0,0,1.467-148.993v-.006a120.95,120.95,0,0,1-1.349-16.518c.035,20.6-.22,41.144-.352,61.625-.082,12.882.091,25.78-.99,38.631-2.031,24.124-9.737,49.645-27.352,65.514" transform="translate(17.904 109.309)" fill="#a5c5f7"/>
    <path id="Trazado_997470" data-name="Trazado 997470" d="M49.464,88.032A139.815,139.815,0,0,0,56.453,119c6.167-5.752,12.336-11.506,18.311-17.459q1.548-1.541,3.081-3.1c4.344-4.433,8.688-9.2,10.6-15.1s1.053-14.27-4.033-17.829q-4.327-14.819-8.655-29.635c-6.869,5.255-12.82,11.648-19.69,16.9.042,2.072.024,4.1-.011,6.114-.056,3.294-.152,6.558-.083,9.938-3.277,1.534-5.416,4.9-6.28,8.412a31.2,31.2,0,0,0-.229,10.795" transform="translate(25.325 18.499)" fill="#fcb28d"/>
    <path id="Trazado_997471" data-name="Trazado 997471" d="M73.636,53.159A89.609,89.609,0,0,1,72.4,101.538q1.548-1.541,3.081-3.1c4.344-4.433,8.688-9.2,10.6-15.1s1.053-14.27-4.033-17.829q-4.327-14.817-8.655-29.635c-6.869,5.255-12.82,11.648-19.69,16.9.042,2.07.024,4.1-.011,6.114,6.742,1.517,15.28-1.588,19.944-5.729" transform="translate(27.689 18.499)" fill="#ed9370"/>
    <path id="Trazado_997472" data-name="Trazado 997472" d="M90.913,66.421a32.038,32.038,0,0,0-.549-7.842c-5.27,16.87-15.9,29.893-28.536,41.92A210.966,210.966,0,0,1,53.79,62.615a75.636,75.636,0,0,0-7.4,60.235c5.385,17.532,2.628,36.493,1.3,54.786-1.194,16.467-3.239,31.472-8.215,47.214q11.913-.339,23.825-.678a197.751,197.751,0,0,1,1.464-87.827c2.545-10.332,6.548-20.221,10.639-30.018C79.3,97,85.03,88.523,88.359,78.935a45.062,45.062,0,0,0,2.554-12.514" transform="translate(20.359 30.209)" fill="#b15b38"/>
    <path id="Trazado_997473" data-name="Trazado 997473" d="M50.9,206.866c1.2,23.24,1.705,29.139,2.8,54.33.882,20.286,1.279,36.837,1.479,47.566,8.361-.177,17.076-.553,26.114-1.173q2.885-.2,5.811-.429l.876-.07q8.537-.687,16.667-1.6l.144-.015q10.986-1.225,21.2-2.772a447.52,447.52,0,0,0-12.5-83.316l-.291-1.167q-1.655-6.589-3.509-13.124-.609-2.146-1.238-4.286l-.1-.344.089,0q1.244.064,2.489.062a50.605,50.605,0,0,0,13.967-2c.406-.117.809-.24,1.214-.367q.75-.236,1.5-.5a52.12,52.12,0,0,0,8.726-3.976c10.169-5.822,12.629-10.219,11.8-21.7-.593-8.265-1.675-16.488-3.037-24.66-2.693-16.121-6.489-32.028-9.808-48.028-1.476-7.121-4.056-14.354-9.384-19.3-8.189-7.61-20.836-8.232-30.482-13.885a14.981,14.981,0,0,0-11.689-12.33,51.3,51.3,0,0,1,1.116,12.159,43.464,43.464,0,0,1-1.631,10.528c-2.728,9.549-8.1,14.751-12.606,21.242A120.025,120.025,0,0,0,53.283,135.2c-6.4,24.063-3.638,47.314-2.383,71.662m51.473-42.089c.026-.15.052-.3.08-.45.782-4,2.593-6.564,3.954-8.823.1-.174.209-.35.309-.526a47.7,47.7,0,0,0,3.515-7.469c.124-.332.247-.668.367-1.012l.009-.029q.373-1.064.723-2.222.423-1.4.806-2.95,1.335,6.9,2.5,14.3.266,1.692.512,3.368.759,5.154,1.358,10.1c.047.4.1.788.141,1.181-2.2.053-4.527.171-6.956.374-2.581.217-5.028.508-7.331.847-.036-.226-.07-.464-.1-.717,0-.014,0-.027,0-.038-.017-.139-.035-.283-.048-.43a20.214,20.214,0,0,1,.167-5.508" transform="translate(25.383 27.735)" fill="#f7eeeb"/>
    <path id="Trazado_997474" data-name="Trazado 997474" d="M73.906,287.444q2.885-.2,5.811-.429l.876-.07q8.348-.637,16.667-1.6l.144-.015c7.081-.808,14.149-1.754,21.2-2.772a447.52,447.52,0,0,0-12.5-83.316l-.291-1.167c-1.113-4.4-2.319-8.764-3.509-13.124q-.63-2.312-1.249-4.627c-1.6-6.013-3.094-12.054-4.183-18.234-.632-3.583-1.648-7.585-2.008-11.484a.4.4,0,0,1,0-.039,23.333,23.333,0,0,1,.118-5.937c.026-.15.052-.3.082-.45.781-4,2.592-6.564,3.953-8.824.1-.173.209-.349.309-.524a55.478,55.478,0,0,0,3.516-7.469l.017-.044c.133-.336.25-.658.349-.97l.009-.027c1.125-3.491.247-5.438-.8-9.34a86.488,86.488,0,0,1-2.951-24.137c-.179,8.938-4.355,17.758-9.85,24.65-6.181,7.748-16.524,13.047-26.068,10.372a432.745,432.745,0,0,1,22.8,95.8c1.54,12.83,6.49,24.456,3.553,37.57a47.106,47.106,0,0,1-15.991,26.208" transform="translate(32.771 47.88)" fill="#e5d9d6"/>
    <path id="Trazado_997475" data-name="Trazado 997475" d="M31.845,43.448a13.023,13.023,0,0,0,2.8,3.228c3.286,2.737,8.071,4.164,14.919,6.2,12.329,3.674,14.528.75,21.984,4.473,8.952,4.468,7.648,9.614,16.607,13.355,1.751.732,12.7,5.3,20.386-.543,5.431-4.135,5.908-10.958,5.932-11.4A16.131,16.131,0,0,0,110.335,47.3a16.038,16.038,0,0,0,4.887-28.481,15.419,15.419,0,0,0-9.3-8.743c-7.8-2.449-14.055,2.9-14.381,3.186a35.339,35.339,0,0,0-7.087-7.322A27.456,27.456,0,0,0,69.89.082,31.192,31.192,0,0,0,54.216,3.309a33.933,33.933,0,0,0-9.582,6.84,27.527,27.527,0,0,0-9.247,7.876c-4.884,6.6-8.289,17.714-3.542,25.423" transform="translate(15.248 0)" fill="#8a5f40"/>
    <path id="Trazado_997476" data-name="Trazado 997476" d="M32.927,38.944a47.677,47.677,0,0,1,3.436-15.5,32.889,32.889,0,0,1,6.393-9.358A15.531,15.531,0,0,0,48.3,21.142a47.566,47.566,0,0,0,8.007,4.536,61.346,61.346,0,0,0,10.51,4.3,20.553,20.553,0,0,0,11.224.2c6.019-1.808,10.94-6.34,14.992-11.145a40.864,40.864,0,0,1-32.416.6,29.509,29.509,0,0,0,10.448,1.648A26.822,26.822,0,0,0,85.828,16.56a26.459,26.459,0,0,1-14.351,1.828,26.545,26.545,0,0,1-13.253-5.855A37.994,37.994,0,0,0,69.292,15.38c3.8.283,7.9-.744,10.46-3.574a12.688,12.688,0,0,0,2.916-7.016q.052-.434.086-.868a35.575,35.575,0,0,1,6.758,6.869,11.64,11.64,0,0,1,4.931-4.461,13.088,13.088,0,0,1,7.9-.928,17.308,17.308,0,0,1,10.939,7.659c-3.844-5.05-10.251-8.338-16.55-6.231a10.174,10.174,0,0,0-3.889,2.437,14.855,14.855,0,0,1,11.377-1.21,15.419,15.419,0,0,1,9.3,8.743,16.038,16.038,0,0,1-4.887,28.48,16.154,16.154,0,0,1,4.135,11.469c-.024.437-.5,7.26-5.932,11.395-7.682,5.848-18.635,1.273-20.386.543C77.5,64.946,78.8,59.8,69.85,55.33c-7.456-3.721-9.655-.8-21.984-4.473-6.848-2.039-11.633-3.466-14.919-6.2a48.483,48.483,0,0,1-.02-5.71" transform="translate(16.942 2.022)" fill="#684730"/>
    <path id="Trazado_997477" data-name="Trazado 997477" d="M42.348,11.81a25.9,25.9,0,0,0-4.809,24.04,17.976,17.976,0,0,1,1.184,4.73,40.531,40.531,0,0,0,.412,5.748,35.181,35.181,0,0,0,2.587,8.955c1.576,3.316,3.713,6.469,5.541,9.653,1.387,2.418,3,5.023,5.64,5.911,2.148.721,4.512.123,6.618-.717,3.3-1.316,6.1-3.43,9.211-5.082a38.094,38.094,0,0,0,8.774-6.008c3.107-3,5.432-7.042,5.526-11.362a2.792,2.792,0,0,0,3-.061,6.687,6.687,0,0,0,2.019-2.389,25.475,25.475,0,0,0,2.683-6.6,16.5,16.5,0,0,0,.524-4.968A5.343,5.343,0,0,0,89.7,30.076c-2.16-1.963-5.053-.211-6.684,1.569a21.536,21.536,0,0,0-2.669,4.033,20.984,20.984,0,0,1-6.266-5.737,17.992,17.992,0,0,1-2.039-3.991c-.359-1-.377-1.009-1.455-1.138q-1.155-.139-2.3-.332a51.728,51.728,0,0,1-9.428-2.522A48.44,48.44,0,0,1,42.348,11.81" transform="translate(18.774 6.09)" fill="#fcb28d"/>
    <path id="Trazado_997478" data-name="Trazado 997478" d="M71.632,29.058c-.388,2.939-2.1,4.574-3.873,6.734a3.84,3.84,0,0,0,.34-3.506c-.411-1.385-1-3.1-.635-4.541.5-1.984,2.615-3.368,3.839-1.022a3.94,3.94,0,0,1,.33,2.328l0,.006" transform="translate(34.732 13.147)" fill="#ed9370"/>
    <path id="Trazado_997479" data-name="Trazado 997479" d="M45.01,25.966a15.647,15.647,0,0,0-3.257-2.007,5.945,5.945,0,0,0-2.88-.673,2.7,2.7,0,0,0-2.352,1.576,9.621,9.621,0,0,1,6.29.775,2.618,2.618,0,0,0,2.2.329" transform="translate(18.834 12.003)" fill="#684730"/>
    <path id="Trazado_997480" data-name="Trazado 997480" d="M53.343,20.662a7.293,7.293,0,0,1,7.021,1.31,8.911,8.911,0,0,0-5.375.2,20.022,20.022,0,0,0-2.4,1.373,14.813,14.813,0,0,1-2.384,1.137c-.4.15-2.028.893-2.324.465-.508-.734,2.471-2.931,3-3.285a9.637,9.637,0,0,1,2.463-1.2" transform="translate(24.664 10.466)" fill="#684730"/>
    <path id="Trazado_997481" data-name="Trazado 997481" d="M56.572,24.566a5.932,5.932,0,0,0-4.7.581,4.6,4.6,0,0,0-1.91,4.724,23.007,23.007,0,0,0,5.937-.261,7.99,7.99,0,0,0,4.33-2.348c.747-.87-.294-1.2-1.023-1.607a11.362,11.362,0,0,0-2.63-1.09" transform="translate(25.711 12.55)" fill="#fff"/>
    <path id="Trazado_997482" data-name="Trazado 997482" d="M45.952,30.81a10.277,10.277,0,0,0-3.915-2.859,4.239,4.239,0,0,0-4.521.915,9.47,9.47,0,0,1,.791,2.84,16.943,16.943,0,0,0,3.92.527,6,6,0,0,0,3.726-1.425" transform="translate(19.347 14.274)" fill="#fff"/>
    <path id="Trazado_997483" data-name="Trazado 997483" d="M50.047,27.049a2.632,2.632,0,1,0,2.631-2.631,2.632,2.632,0,0,0-2.631,2.631" transform="translate(25.809 12.592)" fill="#292321"/>
    <path id="Trazado_997484" data-name="Trazado 997484" d="M37.94,29.927a2.378,2.378,0,1,0,2.378-2.378,2.377,2.377,0,0,0-2.378,2.378" transform="translate(19.565 14.207)" fill="#292321"/>
    <path id="Trazado_997485" data-name="Trazado 997485" d="M51.349,25.975a.658.658,0,1,0,.658-.658.657.657,0,0,0-.658.658" transform="translate(26.48 13.056)" fill="#fff"/>
    <path id="Trazado_997486" data-name="Trazado 997486" d="M39.063,28.9a.676.676,0,1,0,.676-.676.677.677,0,0,0-.676.676" transform="translate(20.145 14.556)" fill="#fff"/>
    <path id="Trazado_997487" data-name="Trazado 997487" d="M50,30.046a4.563,4.563,0,0,1,4.324-5.153c3.422-.33,6.322,2.845,6.918,2.193.062-.067.114-.194.061-.453-.612-.553-3.6-3.15-7.286-2.545A4.983,4.983,0,0,0,50.6,25.854a4.992,4.992,0,0,0-.6,4.192" transform="translate(25.672 12.375)" fill="#684730"/>
    <path id="Trazado_997488" data-name="Trazado 997488" d="M46.008,31.006c-1.728-2.772-4.406-4.17-6.534-3.568A4.073,4.073,0,0,0,37.5,28.755c-.059.123-.126.3-.059.364.182.188,1.059-.75,2.184-1.066a5.223,5.223,0,0,1,3.76.823,8.412,8.412,0,0,1,2.627,2.13" transform="translate(19.291 14.078)" fill="#684730"/>
    <path id="Trazado_997489" data-name="Trazado 997489" d="M45.256,29.067a66.689,66.689,0,0,1-.312,7.877q-.1.982-.226,1.964-.064.487-.133.973c-.039.276-.083.537-.1.814a1.285,1.285,0,0,0,.4,1.206,2.43,2.43,0,0,0,1.384.271,28.913,28.913,0,0,0,4.371-.306.285.285,0,0,1,.34.192.279.279,0,0,1-.194.34,29.762,29.762,0,0,1-4.088.324,5.111,5.111,0,0,1-1.67-.144A1.532,1.532,0,0,1,43.968,41.4a5.375,5.375,0,0,1,.1-1.76q.139-.975.246-1.955.225-2.023.324-4.056.114-2.28.068-4.567a.276.276,0,0,1,.552,0" transform="translate(22.652 14.852)" fill="#8a5f40"/>
    <path id="Trazado_997490" data-name="Trazado 997490" d="M47.688,40.92a2.121,2.121,0,0,1,2.283-1.152,18,18,0,0,1,2.651.764,6.311,6.311,0,0,0,3.871-.221c-.891,1.049-1.564,2.245-2.446,3.3a9.99,9.99,0,0,1-3.127,2.654,4.972,4.972,0,0,1-4,.3,3.352,3.352,0,0,1-2.151-3.206c-.377-.168-.831-.4-1.21-.57a2.712,2.712,0,0,1,1.449-2.137,2.933,2.933,0,0,1,2.677.265" transform="translate(22.465 20.501)" fill="#c85b4c"/>
    <path id="Trazado_997491" data-name="Trazado 997491" d="M55.531,40.505a18.4,18.4,0,0,1-11.939,1.954,12.312,12.312,0,0,0,11.939-1.954" transform="translate(22.48 20.888)" fill="#964439"/>
    <path id="Trazado_997492" data-name="Trazado 997492" d="M72.486,56.449A68.106,68.106,0,0,0,50.327,74.586c-7.589.174-14.387,6.2-17.359,13.188-3.824,8.984-2.5,18.266-3.118,27.66-.674,10.214-3.579,20.38-2.092,30.659,1.493,10.322,5.675,19.7,6.8,30.082.623,5.749,1.787,10.655,1.106,16.551A128.069,128.069,0,0,1,32.1,209.683a553.406,553.406,0,0,0-15.052,87.91,93.851,93.851,0,0,0,44.14,9.388c-.6-13.156-1.223-33.373-.756-58.178.547-29.165.841-29.179,2.214-55.046,1.363-25.682,3.666-51.919-1.579-77.1a83.28,83.28,0,0,1-.07-31.552,86.238,86.238,0,0,1,7.521-22.57l3.971-6.09" transform="translate(8.79 29.111)" fill="#f7eeeb"/>
    <path id="Trazado_997493" data-name="Trazado 997493" d="M70.862,131.334c-3.056,1.012-2.3,10.761-1.975,14.946.209,2.684,1.223,15.763,4.947,16.222,3.178.391,8.571-8.389,7.65-16.786-.893-8.129-7.647-15.369-10.622-14.382" transform="translate(35.357 67.682)" fill="#b5a4a0"/>
    <path id="Trazado_997494" data-name="Trazado 997494" d="M47.161,65.335A57.821,57.821,0,0,0,39.238,79.1q-.834,2.062-1.505,4.183c-.136-.1-.271-.208-.406-.312a13.626,13.626,0,0,1,10.6-1.17.28.28,0,0,1,.067.5A44.83,44.83,0,0,0,37.948,92.5a43.523,43.523,0,0,0-2.486,3.971V96.19q4.045,6.434,7.873,13t7.431,13.27q1.946,3.619,3.83,7.277c.162.315-.315.6-.477.279q-3.388-6.577-6.986-13.043-3.745-6.721-7.718-13.312-2.18-3.617-4.429-7.193a.278.278,0,0,1,0-.279,44.247,44.247,0,0,1,9.834-12.051q1.4-1.21,2.893-2.3c.021.168.044.336.065.5a13.055,13.055,0,0,0-10.173,1.114.279.279,0,0,1-.406-.312,58.6,58.6,0,0,1,6.936-14.528q1.246-1.887,2.634-3.669c.218-.28.606.114.391.391" transform="translate(18.023 33.442)" fill="#b5a4a0"/>
    <path id="Trazado_997495" data-name="Trazado 997495" d="M43.227,68.853a52.427,52.427,0,0,0-5.91,8.782,55.23,55.23,0,0,0-4.076,9.772A56.444,56.444,0,0,0,31.08,97.738a55.826,55.826,0,0,0-.185,10.58,52.551,52.551,0,0,0,1.878,10.411q.18.621.373,1.237c.106.34-.426.485-.534.146a53.053,53.053,0,0,1-2.149-10.47,55.582,55.582,0,0,1-.058-10.7,57.211,57.211,0,0,1,1.96-10.522,56.054,56.054,0,0,1,3.9-9.957A53.149,53.149,0,0,1,42,69.5q.412-.523.838-1.034c.229-.273.617.12.391.391" transform="translate(15.561 35.258)" fill="#b5a4a0"/>
    <path id="Trazado_997496" data-name="Trazado 997496" d="M24.28,161.9a8.652,8.652,0,0,1-7.8-2.222,14.258,14.258,0,0,1-3.973-7.321,42.428,42.428,0,0,1-.837-8.4q-.175-5.306-.35-10.614a3.066,3.066,0,0,1,.283-1.731c.638-1.032,2.17-.938,3.315-.537a14.867,14.867,0,0,1,6.8,5.287,32.674,32.674,0,0,1,4.023,7.729c1.979,5.062,6.881,15.644-1.461,17.808" transform="translate(5.835 67.448)" fill="#eadedc"/>
    <path id="Trazado_997497" data-name="Trazado 997497" d="M18.465,156.276c-1.7-2.161-2.475-6.317-3.274-8.921a44.523,44.523,0,0,1-1.678-8.068c-.111-.976-.473-2.559.359-3.216.965-.762,2.8,0,3.582.659a8.775,8.775,0,0,1,2.195,3.357,52.592,52.592,0,0,1,2.615,7.478c.571,2.143,1,4.447.3,6.551-.512,1.526-2.625,4.024-4.094,2.16" transform="translate(6.879 70.007)" fill="#b5a4a0"/>
    <path id="Trazado_997498" data-name="Trazado 997498" d="M36.525,172.66l49.833.5a3.113,3.113,0,0,0,2.877-4.374q-14.4-32.466-28.8-64.932A3.109,3.109,0,0,0,57.589,102H3.116a3.112,3.112,0,0,0-2.762,4.546l33.439,64.435a3.113,3.113,0,0,0,2.731,1.678" transform="translate(0 52.601)" fill="#504c45"/>
    <path id="Trazado_997499" data-name="Trazado 997499" d="M35.364,171.154l46.668.465a2.914,2.914,0,0,0,2.693-4.1L57.752,106.715a2.913,2.913,0,0,0-2.663-1.732H4.077a2.914,2.914,0,0,0-2.586,4.256l31.316,60.343a2.912,2.912,0,0,0,2.557,1.572" transform="translate(0.598 54.139)" fill="#a0978a"/>
    <path id="Trazado_997500" data-name="Trazado 997500" d="M6.088,129.064c.72,2.869,2.136,5.273,3.294,7.948a36.191,36.191,0,0,0,4.406,7.688,35.638,35.638,0,0,0,3.3,3.706,73.287,73.287,0,0,0,9.337,7.492,31.7,31.7,0,0,0-1.872-7.909,12.175,12.175,0,0,0-1.643-3.4c-.585-.723-1.222-1.714-.411-2.605a2.682,2.682,0,0,1,2.089-.558l3.325.071a4.309,4.309,0,0,0,1.7-.192,1.671,1.671,0,0,0,.862-.764,1.089,1.089,0,0,0,.123-.518,1.446,1.446,0,0,0-.791-1.17,3.96,3.96,0,0,0-1.419-.388,40.037,40.037,0,0,0-12.949.176,18.338,18.338,0,0,1,7.268-1.075c2.466.067,4.914.424,7.369.655a4.414,4.414,0,0,0,1.652-.062,1.386,1.386,0,0,0,.355-2.624,4.375,4.375,0,0,0-1.722-.529,79.6,79.6,0,0,0-17.418-1.052,18.829,18.829,0,0,1,7.968-.511,31.484,31.484,0,0,0,7.76.527c.765-.059,1.995-.2,2.258-.9a1.626,1.626,0,0,0-.534-1.551,4,4,0,0,0-1.54-.761,37.912,37.912,0,0,0-8.891-1.246,48.749,48.749,0,0,0-9.717.021c.732-.126,1.36-.491,2.113-.638a12.329,12.329,0,0,1,2.684-.132q4.1.111,8.2.362a4.405,4.405,0,0,0,1.5-.079,1.482,1.482,0,0,0,1.066-.973,1.884,1.884,0,0,0-.7-1.69c-1.529-1.51-3.275-1.36-5.138-1.958a23.723,23.723,0,0,0-6.724-1.305,11.034,11.034,0,0,0-6.045,1.42c-1.482.972-1.51,2.965-1.119,4.52" transform="translate(3.029 63.493)" fill="#fcb28d"/>
    <path id="Trazado_997501" data-name="Trazado 997501" d="M13.332,142.478a73.051,73.051,0,0,0,9.338,7.491,31.759,31.759,0,0,0-1.873-7.907,12.113,12.113,0,0,0-1.643-3.4c-.585-.724-1.223-1.716-.409-2.605a2.671,2.671,0,0,1,2.089-.558l3.325.07a4.294,4.294,0,0,0,1.7-.191,1.669,1.669,0,0,0,.864-.764q-4.9.134-9.8.544a4.333,4.333,0,0,0-2.981,1.05,3.951,3.951,0,0,0-.761,2.477,20.577,20.577,0,0,0,.152,3.791" transform="translate(6.783 69.421)" fill="#ed9370"/>
    <path id="Trazado_997502" data-name="Trazado 997502" d="M33.5,129.962A1.734,1.734,0,0,0,34.6,131.4a3.9,3.9,0,0,0,1.878.306c.259-.032,4.844-.006,14.016.044a38.312,38.312,0,0,1,7.994.743c-.006.065-17.182-.033-20.151-.058a4.084,4.084,0,0,0-1.71.232,1.394,1.394,0,0,0-.891,1.354c.091.673,1.011,1.091,1.731,1.35,3.782,1.364,9.882,1.361,10.114,1.361a29.9,29.9,0,0,1,9.493,1.6c-3.133-.4-9.558-1.147-13.159-.89-.853.062-2.086.209-2.245.828-.173.674.432,1.284,1.008,1.676a14.858,14.858,0,0,0,2.33,1.293c4.249,1.9,9.275,2.116,13.6,4.02,2,.881,3.832,2.117,5.867,2.912a7.859,7.859,0,0,0,6.355.111,84.722,84.722,0,0,0,25.762,9.3,59.181,59.181,0,0,0,.021-10.539c-.117-1.084.285-.3-1.491-5.381-.561-1.605-1.056-1.664-2.778-1.637-1.523.023-3.084.006-4.64-.111a20.784,20.784,0,0,1-9.47-2.718c-3.341-2.061-5.661-5.314-8.147-8.27a29.431,29.431,0,0,0-4.121-4.191c-1.341-1.066-2.719-2.439-4.482-2.513l-15.619-.664c-2.363-.1-4.914-.15-6.862,1.191a1.812,1.812,0,0,0-.956,1.54,1.446,1.446,0,0,0,1,1.12,4.377,4.377,0,0,0,1.566.159,127.048,127.048,0,0,1,18.467,1c-7.544.285-15.01,1.264-22.555,1.549a5.14,5.14,0,0,0-1.94.329,1.737,1.737,0,0,0-1.093,1.517" transform="translate(17.274 62.662)" fill="#fcb28d"/>
    <path id="Trazado_997503" data-name="Trazado 997503" d="M41.094,134.975c4.248,1.9,9.275,2.116,13.6,4.02,2,.882,3.832,2.117,5.866,2.913a7.859,7.859,0,0,0,6.355.109,84.645,84.645,0,0,0,25.764,9.3,59.16,59.16,0,0,0,.021-10.537c-.117-1.085.285-.3-1.491-5.381-.561-1.607-1.056-1.664-2.78-1.638-1.523.024-3.084.008-4.638-.111a16.485,16.485,0,0,1,.849,8.852c-14.579-2.219-29.147-4.367-43.546-7.525" transform="translate(21.192 68.922)" fill="#ed9370"/>
    <path id="Trazado_997504" data-name="Trazado 997504" d="M73.051,163.265c8.267-.239,16.479-.759,24.654-1.637q1.239-.134,2.478-.277,7-.814,13.967-2,1.38-.239,2.76-.49c.033-.006.014-.139-.048-.374-.581-2.161-4.856-13-5.22-14.046-.92-2.665-1.822-5.367-2.64-8.1-.653-2.178-1.257-4.374-1.775-6.577-.493.039-.985.079-1.476.121-.415.033-.829.068-1.244.1-4.356.37-8.706.764-13.058,1.112-7.107.568-14.22,1.009-21.37,1A28.224,28.224,0,0,1,76.29,145q.2,1.1.3,2.217a27.575,27.575,0,0,1-3.539,16.051" transform="translate(36.139 66.919)" fill="#f7eeeb"/>
    <path id="Trazado_997505" data-name="Trazado 997505" d="M72.06,202.449c8.267-.239,16.479-.759,24.654-1.637q1.239-.134,2.478-.277a50.656,50.656,0,0,0,13.967-2q1.38-.239,2.76-.49c.033-.006.014-.139-.049-.374a52.054,52.054,0,0,0,8.726-3.976c10.169-5.82,12.627-10.219,11.8-21.7-.593-8.265-1.675-16.488-3.039-24.659-2.692-16.122-6.487-32.03-9.807-48.028C122.08,92.181,119.5,84.948,114.172,80c-8.191-7.61-20.836-8.23-30.482-13.885A14.981,14.981,0,0,0,72,53.782a51.3,51.3,0,0,1,1.116,12.16c7.457,4.05,14.89,8.241,21.336,13.746,7,5.975,12.846,13.7,14.969,22.655,2.657,11.2-.7,22.852-4.027,33.871a87.745,87.745,0,0,0,9.47-23.025,104.3,104.3,0,0,1-2.721,32.577,82.234,82.234,0,0,0,6.417-17.552,141.321,141.321,0,0,1-8.482,32.333,100.624,100.624,0,0,0,11.929-10.134,70.94,70.94,0,0,1-12.038,17.141,15.3,15.3,0,0,1,21.9,11.422c-5.557-5-14.008-5.341-21.362-3.986q-1.257.232-2.5.534c-6.424,1.548-12.524,4.312-18.84,6.311A43.971,43.971,0,0,1,75.3,184.18q.2,1.1.3,2.217a27.575,27.575,0,0,1-3.539,16.051" transform="translate(37.131 27.735)" fill="#eadedc"/>
    <path id="Trazado_997506" data-name="Trazado 997506" d="M78.925,130.939a26.458,26.458,0,0,1,3.485,5.141,26.89,26.89,0,0,1,2.2,5.81,26.092,26.092,0,0,1,.782,6.278,26.631,26.631,0,0,1-3.11,12.551q-.186.35-.385.7a.276.276,0,0,1-.476-.279,25.942,25.942,0,0,0,2.454-5.878,26.263,26.263,0,0,0,.955-6.3,25.568,25.568,0,0,0-.579-6.189,26.221,26.221,0,0,0-1.984-5.738,25.77,25.77,0,0,0-3.25-5.126c-.158-.2-.321-.388-.488-.579-.23-.268.158-.661.393-.391" transform="translate(40.462 67.478)" fill="#b5a4a0"/>
    <path id="Trazado_997507" data-name="Trazado 997507" d="M95,62.824a94.068,94.068,0,0,1,2.192,14.734q.143,2.105.192,4.215a.283.283,0,0,1-.276.276l-12.073,1.26a4.384,4.384,0,0,0-2.277.511c-.8.659.27,1.666.725,2.166q2.033,2.235,4.068,4.468l4.582,5.034a.279.279,0,0,1-.056.433,107.724,107.724,0,0,0-17.855,12.056,109.036,109.036,0,0,0-15.019,15.228,107.222,107.222,0,0,0-7.043,9.8c-.189.3-.668.023-.476-.277A108.7,108.7,0,0,1,91.8,95.445l-.055.433-8.791-9.656c-.549-.6-1.281-1.39-.947-2.277a1.888,1.888,0,0,1,1.537-1.016c.99-.182,2.019-.227,3.019-.332l3.191-.333L97.11,81.5l-.277.276A93.085,93.085,0,0,0,95.328,67.1q-.382-2.076-.858-4.132c-.08-.346.452-.494.532-.147" transform="translate(26.631 32.296)" fill="#b5a4a0"/>
    <path id="Trazado_997508" data-name="Trazado 997508" d="M107.636,72.788a42.754,42.754,0,0,0-9.021,8.253,45.088,45.088,0,0,0-6.405,10.433,43.805,43.805,0,0,0-3.331,11.768,54.173,54.173,0,0,0,.238,14.041c.637,5.067,1.572,10.1,1.82,15.212q.048.948.059,1.9a.276.276,0,0,1-.552,0,128.7,128.7,0,0,0-1.669-15.5,60.46,60.46,0,0,1-.6-14.4,44.109,44.109,0,0,1,3.012-12,45.586,45.586,0,0,1,6.107-10.664,43.7,43.7,0,0,1,8.82-8.636q.614-.448,1.243-.875c.3-.2.571.279.279.477" transform="translate(45.361 37.266)" fill="#b5a4a0"/>
  </g>
</svg>
