<svg xmlns="http://www.w3.org/2000/svg" xmlns:xlink="http://www.w3.org/1999/xlink" width="101" height="109" viewBox="0 0 101 109">
  <defs>
    <clipPath id="clip-path">
      <rect id="Rectángulo_404959" data-name="Rectángulo 404959" width="72.178" height="99" fill="none"/>
    </clipPath>
  </defs>
  <g id="Grupo_1109465" data-name="Grupo 1109465" transform="translate(-906.711 -3059)">
    <g id="Grupo_1107170" data-name="Grupo 1107170">
      <circle id="Elipse_11968" data-name="Elipse 11968" cx="50.5" cy="50.5" r="50.5" transform="translate(906.711 3067)" fill="#55cb5d"/>
      <g id="Grupo_1108198" data-name="Grupo 1108198" transform="translate(921.822 3059)">
        <g id="Grupo_1108197" data-name="Grupo 1108197" clip-path="url(#clip-path)">
          <path id="Trazado_997298" data-name="Trazado 997298" d="M68.329,34.17a8.613,8.613,0,0,1-6.96,8.44,9.29,9.29,0,0,1-1.68.16h-47.2a8.627,8.627,0,0,1-8.64-8.6,8.5,8.5,0,0,1,1.92-5.39,4.566,4.566,0,0,1,.42-.47c.06-.07.13-.15.2-.22a8.592,8.592,0,0,1,4.99-2.46,17.8,17.8,0,0,1,4.94-20.31A17.99,17.99,0,0,1,45,13.06a12.042,12.042,0,0,1,16.98,12.81,8.627,8.627,0,0,1,6.35,8.3" fill="#fff"/>
          <path id="Trazado_997299" data-name="Trazado 997299" d="M63.269,37.22a8.564,8.564,0,0,1-1.9,5.39,9.29,9.29,0,0,1-1.68.16h-47.2a8.627,8.627,0,0,1-8.64-8.6,8.5,8.5,0,0,1,1.92-5.39,5.03,5.03,0,0,1,.56-.09c-.05-.12-.1-.25-.14-.38.06-.07.13-.15.2-.22a8.592,8.592,0,0,1,4.99-2.46,17.8,17.8,0,0,1,4.94-20.31,18.124,18.124,0,0,1,6.65-1.26,17.92,17.92,0,0,1,16.97,12.06,12.081,12.081,0,0,1,16.99,12.81,8.618,8.618,0,0,1,6.34,8.29" fill="#a5c5f7"/>
          <path id="Trazado_997300" data-name="Trazado 997300" d="M13.371,78.169c3.988,3.971,2.393,12,2.393,12S7.693,91.766,3.7,87.794s-2.38-12-2.38-12S9.383,74.2,13.371,78.169" fill="#fff"/>
          <path id="Trazado_997301" data-name="Trazado 997301" d="M18.788,78.169c-3.988,3.971-2.393,12-2.393,12s8.071,1.6,12.059-2.377,2.38-12,2.38-12S22.776,74.2,18.788,78.169" fill="#fff"/>
          <path id="Trazado_997302" data-name="Trazado 997302" d="M55.779,90.17s-8.07,1.6-12.05-2.38a6.443,6.443,0,0,1-.85-1.04c-2.89-4.18-1.54-10.96-1.54-10.96s5.88-1.16,10.08.98a7.525,7.525,0,0,1,1.97,1.4c3.99,3.97,2.39,12,2.39,12" fill="#fff"/>
          <path id="Trazado_997303" data-name="Trazado 997303" d="M56.264,88.3a3.079,3.079,0,0,1-2.815,2.814c-2.614.2-6.778.163-10.1-1.538-3.615-5.228-1.926-13.707-1.926-13.707s7.354-1.451,12.606,1.225c2.377,3.439,2.464,8.292,2.24,11.206" fill="#2aad30"/>
          <path id="Trazado_997304" data-name="Trazado 997304" d="M68.469,87.79c-3.98,3.98-12.06,2.38-12.06,2.38a19.549,19.549,0,0,1-.26-2.19c-.18-2.67-.01-7.15,2.66-9.81,2.73-2.72,7.37-2.83,10.02-2.63a18.207,18.207,0,0,1,2.02.25s1.61,8.03-2.38,12" fill="#fff"/>
          <path id="Trazado_997305" data-name="Trazado 997305" d="M68.449,87.573C65.1,90.9,59.408,91.04,56.161,90.795c-.22-3.271-.012-8.759,3.259-12.018,3.344-3.333,9.029-3.467,12.276-3.222.22,3.271.024,8.759-3.247,12.018" fill="#2aad30"/>
          <path id="Trazado_997306" data-name="Trazado 997306" d="M17.071,88.3a3.078,3.078,0,0,1-2.814,2.814c-2.614.2-6.778.163-10.105-1.538C.537,84.348,2.226,75.869,2.226,75.869s7.354-1.451,12.606,1.225c2.377,3.439,2.464,8.292,2.239,11.206" fill="#2aad30"/>
          <path id="Trazado_997307" data-name="Trazado 997307" d="M29.256,87.573c-3.345,3.332-9.041,3.467-12.288,3.222-.22-3.271-.012-8.759,3.259-12.018,3.345-3.333,9.029-3.467,12.276-3.222.22,3.271.024,8.759-3.247,12.018" fill="#2aad30"/>
          <path id="Trazado_997308" data-name="Trazado 997308" d="M59.689,43.77h-47.2a9.632,9.632,0,0,1-9.64-9.6,9.674,9.674,0,0,1,7.181-9.295A18.609,18.609,0,0,1,9.049,18.9,18.884,18.884,0,0,1,9.4,15.256a1,1,0,0,1,1.963.386,16.881,16.881,0,0,0-.312,3.257,16.631,16.631,0,0,0,1.255,6.35,1,1,0,0,1-.8,1.371,7.6,7.6,0,0,0,.982,15.148h47.2a7.6,7.6,0,0,0,2.025-14.936,1,1,0,0,1-.723-1.116,10.849,10.849,0,0,0,.139-1.668A11.127,11.127,0,0,0,45.413,13.969a1,1,0,0,1-1.359-.585A16.985,16.985,0,0,0,17,6.061a1,1,0,0,1-1.3-1.522,18.988,18.988,0,0,1,29.873,7.209,13.131,13.131,0,0,1,17.556,12.3c0,.364-.019.736-.056,1.126A9.6,9.6,0,0,1,59.689,43.77"/>
          <path id="Trazado_997309" data-name="Trazado 997309" d="M15.807,56.662a1,1,0,0,1-1-1V51.906a1,1,0,1,1,2,0v3.756a1,1,0,0,1-1,1"/>
          <path id="Trazado_997310" data-name="Trazado 997310" d="M23.92,63a1,1,0,0,1-1-1V53.785a1,1,0,0,1,2,0V62a1,1,0,0,1-1,1"/>
          <path id="Trazado_997311" data-name="Trazado 997311" d="M40.146,54.784a1,1,0,0,1-1-1V49.089a1,1,0,0,1,2,0v4.695a1,1,0,0,1-1,1"/>
          <path id="Trazado_997312" data-name="Trazado 997312" d="M32.032,65.7a1,1,0,0,1-1-1V56.685a1,1,0,0,1,2,0V64.7a1,1,0,0,1-1,1"/>
          <path id="Trazado_997313" data-name="Trazado 997313" d="M56.371,58.892a1,1,0,0,1-1-1V50.883a1,1,0,1,1,2,0v7.009a1,1,0,0,1-1,1"/>
          <path id="Trazado_997314" data-name="Trazado 997314" d="M48.258,69.7a1,1,0,0,1-1-1v-5.51a1,1,0,0,1,2,0V68.7a1,1,0,0,1-1,1"/>
          <path id="Trazado_997315" data-name="Trazado 997315" d="M48.258,57.686a1,1,0,0,1-1-1v-2.9a1,1,0,0,1,2,0v2.9a1,1,0,0,1-1,1"/>
          <path id="Trazado_997316" data-name="Trazado 997316" d="M40.146,63.9a1,1,0,0,1-1-1v-1.76a1,1,0,0,1,2,0V62.9a1,1,0,0,1-1,1"/>
          <path id="Trazado_997317" data-name="Trazado 997317" d="M12.039,91.492C9.2,91.492,5.457,90.95,3,88.5-1.32,84.2.274,75.945.344,75.6a1,1,0,0,1,.786-.785c.35-.069,8.63-1.648,12.946,2.649s2.738,12.556,2.668,12.9a1,1,0,0,1-.787.786,21.731,21.731,0,0,1-3.918.341m3.725-1.322h0ZM2.2,76.668c-.261,1.934-.711,7.507,2.212,10.418s8.535,2.469,10.479,2.21c.258-1.935.7-7.507-2.224-10.418S4.136,76.409,2.2,76.668"/>
          <path id="Trazado_997318" data-name="Trazado 997318" d="M20.12,91.492a21.907,21.907,0,0,1-3.919-.34,1,1,0,0,1-.787-.786c-.069-.349-1.65-8.6,2.668-12.9s12.6-2.719,12.946-2.649a1,1,0,0,1,.786.785c.07.349,1.664,8.606-2.655,12.907-2.457,2.446-6.2,2.988-9.039,2.988m-2.85-2.2c1.944.259,7.552.705,10.479-2.21s2.477-8.486,2.213-10.418c-1.939-.258-7.54-.706-10.468,2.21S17.011,87.361,17.27,89.3m1.518-11.127h0Z"/>
          <path id="Trazado_997319" data-name="Trazado 997319" d="M16.079,99a1,1,0,0,1-1-1V86.049a1,1,0,1,1,2,0V98a1,1,0,0,1-1,1"/>
          <path id="Trazado_997320" data-name="Trazado 997320" d="M52.059,91.492c-2.836,0-6.582-.542-9.04-2.989C38.7,84.2,40.293,75.946,40.364,75.6a1,1,0,0,1,.786-.785c.352-.069,8.63-1.648,12.947,2.649s2.736,12.556,2.667,12.9a1,1,0,0,1-.786.786,21.787,21.787,0,0,1-3.919.341m3.724-1.322h0Zm-13.565-13.5c-.261,1.934-.711,7.507,2.213,10.418s8.537,2.472,10.478,2.211c.258-1.934.7-7.508-2.224-10.419s-8.529-2.47-10.467-2.21"/>
          <path id="Trazado_997321" data-name="Trazado 997321" d="M60.139,91.492a21.907,21.907,0,0,1-3.919-.34,1,1,0,0,1-.786-.786c-.069-.349-1.65-8.6,2.667-12.9s12.6-2.719,12.947-2.649a1,1,0,0,1,.786.785c.07.35,1.663,8.606-2.655,12.907-2.458,2.446-6.2,2.988-9.04,2.988m-2.851-2.2c1.94.257,7.552.705,10.479-2.21s2.478-8.486,2.214-10.418c-1.938-.258-7.541-.705-10.468,2.21S57.027,87.363,57.288,89.3m1.519-11.127h0Z"/>
          <path id="Trazado_997322" data-name="Trazado 997322" d="M56.1,99a1,1,0,0,1-1-1V86.049a1,1,0,0,1,2,0V98a1,1,0,0,1-1,1"/>
          <path id="Trazado_997323" data-name="Trazado 997323" d="M65.322,99H6.856a1,1,0,0,1,0-2H65.323a1,1,0,1,1,0,2"/>
        </g>
      </g>
    </g>
  </g>
</svg>
